<?xml version="1.0" encoding="UTF-8" standalone="no"?>
<!DOCTYPE svg PUBLIC "-//W3C//DTD SVG 1.1//EN"
 "http://www.w3.org/Graphics/SVG/1.1/DTD/svg11.dtd">
<!-- Generated by graphviz version 2.42.3 (20191010.1750)
 -->
<!-- Title: buzzer.cpp Pages: 1 -->
<svg width="124pt" height="137pt"
 viewBox="0.00 0.00 124.07 137.00" xmlns="http://www.w3.org/2000/svg" xmlns:xlink="http://www.w3.org/1999/xlink">
<g id="graph0" class="graph" transform="scale(1 1) rotate(0) translate(4 133)">
<title>buzzer.cpp</title>
<polygon fill="white" stroke="transparent" points="-4,4 -4,-133 120.07,-133 120.07,4 -4,4"/>
<!-- Node1 -->
<g id="node1" class="node">
<title>Node1</title>
<g id="a_node1"><a xlink:title=" ">
<polygon fill="#bfbfbf" stroke="black" points="27.16,-110.5 27.16,-128.5 91.52,-128.5 91.52,-110.5 27.16,-110.5"/>
<text text-anchor="middle" x="59.34" y="-116.5" font-family="Helvetica,sans-Serif" font-size="10.00">buzzer.cpp</text>
</a>
</g>
</g>
<!-- Node2 -->
<g id="node2" class="node">
<title>Node2</title>
<g id="a_node2"><a xlink:href="buzzer_8h.xhtml" target="_top" xlink:title=" ">
<polygon fill="white" stroke="black" points="32.44,-55.5 32.44,-73.5 86.24,-73.5 86.24,-55.5 32.44,-55.5"/>
<text text-anchor="middle" x="59.34" y="-61.5" font-family="Helvetica,sans-Serif" font-size="10.00">buzzer.h</text>
</a>
</g>
</g>
<!-- Node1&#45;&gt;Node2 -->
<g id="edge1" class="edge">
<title>Node1&#45;&gt;Node2</title>
<path fill="none" stroke="midnightblue" d="M59.34,-110.22C59.34,-103.18 59.34,-92.81 59.34,-83.83"/>
<polygon fill="midnightblue" stroke="midnightblue" points="62.84,-83.55 59.34,-73.55 55.84,-83.55 62.84,-83.55"/>
</g>
<!-- Node3 -->
<g id="node3" class="node">
<title>Node3</title>
<g id="a_node3"><a xlink:title=" ">
<polygon fill="white" stroke="#bfbfbf" points="0,-0.5 0,-18.5 52.68,-18.5 52.68,-0.5 0,-0.5"/>
<text text-anchor="middle" x="26.34" y="-6.5" font-family="Helvetica,sans-Serif" font-size="10.00">QObject</text>
</a>
</g>
</g>
<!-- Node2&#45;&gt;Node3 -->
<g id="edge2" class="edge">
<title>Node2&#45;&gt;Node3</title>
<path fill="none" stroke="midnightblue" d="M54.18,-55.22C49.51,-47.71 42.47,-36.41 36.65,-27.05"/>
<polygon fill="midnightblue" stroke="midnightblue" points="39.61,-25.19 31.35,-18.55 33.67,-28.89 39.61,-25.19"/>
</g>
<!-- Node4 -->
<g id="node4" class="node">
<title>Node4</title>
<g id="a_node4"><a xlink:title=" ">
<polygon fill="white" stroke="#bfbfbf" points="70.61,-0.5 70.61,-18.5 116.07,-18.5 116.07,-0.5 70.61,-0.5"/>
<text text-anchor="middle" x="93.34" y="-6.5" font-family="Helvetica,sans-Serif" font-size="10.00">atomic</text>
</a>
</g>
</g>
<!-- Node2&#45;&gt;Node4 -->
<g id="edge3" class="edge">
<title>Node2&#45;&gt;Node4</title>
<path fill="none" stroke="midnightblue" d="M64.65,-55.22C69.47,-47.71 76.72,-36.41 82.72,-27.05"/>
<polygon fill="midnightblue" stroke="midnightblue" points="85.72,-28.86 88.18,-18.55 79.83,-25.08 85.72,-28.86"/>
</g>
</g>
</svg>
