<?xml version="1.0" encoding="UTF-8" standalone="no"?>
<!DOCTYPE svg PUBLIC "-//W3C//DTD SVG 1.1//EN"
 "http://www.w3.org/Graphics/SVG/1.1/DTD/svg11.dtd">
<!-- Generated by graphviz version 2.42.3 (20191010.1750)
 -->
<!-- Title: camera.h Pages: 1 -->
<svg width="138pt" height="82pt"
 viewBox="0.00 0.00 138.29 82.00" xmlns="http://www.w3.org/2000/svg" xmlns:xlink="http://www.w3.org/1999/xlink">
<g id="graph0" class="graph" transform="scale(1 1) rotate(0) translate(4 78)">
<title>camera.h</title>
<polygon fill="white" stroke="transparent" points="-4,4 -4,-78 134.29,-78 134.29,4 -4,4"/>
<!-- Node1 -->
<g id="node1" class="node">
<title>Node1</title>
<g id="a_node1"><a xlink:title=" ">
<polygon fill="#bfbfbf" stroke="black" points="34.5,-55.5 34.5,-73.5 92.18,-73.5 92.18,-55.5 34.5,-55.5"/>
<text text-anchor="middle" x="63.34" y="-61.5" font-family="Helvetica,sans-Serif" font-size="10.00">camera.h</text>
</a>
</g>
</g>
<!-- Node2 -->
<g id="node2" class="node">
<title>Node2</title>
<g id="a_node2"><a xlink:title=" ">
<polygon fill="white" stroke="#bfbfbf" points="0,-0.5 0,-18.5 52.68,-18.5 52.68,-0.5 0,-0.5"/>
<text text-anchor="middle" x="26.34" y="-6.5" font-family="Helvetica,sans-Serif" font-size="10.00">QObject</text>
</a>
</g>
</g>
<!-- Node1&#45;&gt;Node2 -->
<g id="edge1" class="edge">
<title>Node1&#45;&gt;Node2</title>
<path fill="none" stroke="midnightblue" d="M57.56,-55.22C52.26,-47.63 44.26,-36.18 37.69,-26.76"/>
<polygon fill="midnightblue" stroke="midnightblue" points="40.55,-24.75 31.96,-18.55 34.81,-28.75 40.55,-24.75"/>
</g>
<!-- Node3 -->
<g id="node3" class="node">
<title>Node3</title>
<g id="a_node3"><a xlink:title=" ">
<polygon fill="white" stroke="#bfbfbf" points="70.39,-0.5 70.39,-18.5 130.29,-18.5 130.29,-0.5 70.39,-0.5"/>
<text text-anchor="middle" x="100.34" y="-6.5" font-family="Helvetica,sans-Serif" font-size="10.00">QProcess</text>
</a>
</g>
</g>
<!-- Node1&#45;&gt;Node3 -->
<g id="edge2" class="edge">
<title>Node1&#45;&gt;Node3</title>
<path fill="none" stroke="midnightblue" d="M69.12,-55.22C74.42,-47.63 82.42,-36.18 88.99,-26.76"/>
<polygon fill="midnightblue" stroke="midnightblue" points="91.87,-28.75 94.72,-18.55 86.13,-24.75 91.87,-28.75"/>
</g>
</g>
</svg>
