<?xml version="1.0" encoding="UTF-8" standalone="no"?>
<!DOCTYPE svg PUBLIC "-//W3C//DTD SVG 1.1//EN"
 "http://www.w3.org/Graphics/SVG/1.1/DTD/svg11.dtd">
<!-- Generated by graphviz version 2.42.3 (20191010.1750)
 -->
<!-- Title: camera.cpp Pages: 1 -->
<svg width="276pt" height="137pt"
 viewBox="0.00 0.00 276.24 137.00" xmlns="http://www.w3.org/2000/svg" xmlns:xlink="http://www.w3.org/1999/xlink">
<g id="graph0" class="graph" transform="scale(1 1) rotate(0) translate(4 133)">
<title>camera.cpp</title>
<polygon fill="white" stroke="transparent" points="-4,4 -4,-133 272.24,-133 272.24,4 -4,4"/>
<!-- Node1 -->
<g id="node1" class="node">
<title>Node1</title>
<g id="a_node1"><a xlink:title=" ">
<polygon fill="#bfbfbf" stroke="black" points="120.74,-110.5 120.74,-128.5 188.99,-128.5 188.99,-110.5 120.74,-110.5"/>
<text text-anchor="middle" x="154.86" y="-116.5" font-family="Helvetica,sans-Serif" font-size="10.00">camera.cpp</text>
</a>
</g>
</g>
<!-- Node2 -->
<g id="node2" class="node">
<title>Node2</title>
<g id="a_node2"><a xlink:href="camera_8h.xhtml" target="_top" xlink:title=" ">
<polygon fill="white" stroke="black" points="126.02,-55.5 126.02,-73.5 183.71,-73.5 183.71,-55.5 126.02,-55.5"/>
<text text-anchor="middle" x="154.86" y="-61.5" font-family="Helvetica,sans-Serif" font-size="10.00">camera.h</text>
</a>
</g>
</g>
<!-- Node1&#45;&gt;Node2 -->
<g id="edge1" class="edge">
<title>Node1&#45;&gt;Node2</title>
<path fill="none" stroke="midnightblue" d="M154.86,-110.22C154.86,-103.18 154.86,-92.81 154.86,-83.83"/>
<polygon fill="midnightblue" stroke="midnightblue" points="158.36,-83.55 154.86,-73.55 151.36,-83.55 158.36,-83.55"/>
</g>
<!-- Node5 -->
<g id="node5" class="node">
<title>Node5</title>
<g id="a_node5"><a xlink:href="preferenceprovider_8h.xhtml" target="_top" xlink:title=" ">
<polygon fill="white" stroke="black" points="0,-55.5 0,-73.5 107.73,-73.5 107.73,-55.5 0,-55.5"/>
<text text-anchor="middle" x="53.86" y="-61.5" font-family="Helvetica,sans-Serif" font-size="10.00">preferenceprovider.h</text>
</a>
</g>
</g>
<!-- Node1&#45;&gt;Node5 -->
<g id="edge4" class="edge">
<title>Node1&#45;&gt;Node5</title>
<path fill="none" stroke="midnightblue" d="M139.52,-110.45C123.28,-101.93 97.41,-88.35 78.35,-78.35"/>
<polygon fill="midnightblue" stroke="midnightblue" points="79.83,-75.17 69.35,-73.63 76.58,-81.37 79.83,-75.17"/>
</g>
<!-- Node6 -->
<g id="node6" class="node">
<title>Node6</title>
<g id="a_node6"><a xlink:title=" ">
<polygon fill="white" stroke="#bfbfbf" points="201.49,-55.5 201.49,-73.5 268.24,-73.5 268.24,-55.5 201.49,-55.5"/>
<text text-anchor="middle" x="234.86" y="-61.5" font-family="Helvetica,sans-Serif" font-size="10.00">QDateTime</text>
</a>
</g>
</g>
<!-- Node1&#45;&gt;Node6 -->
<g id="edge6" class="edge">
<title>Node1&#45;&gt;Node6</title>
<path fill="none" stroke="midnightblue" d="M167.01,-110.45C179.47,-102.2 199.07,-89.22 214.01,-79.32"/>
<polygon fill="midnightblue" stroke="midnightblue" points="216.2,-82.07 222.6,-73.63 212.33,-76.23 216.2,-82.07"/>
</g>
<!-- Node3 -->
<g id="node3" class="node">
<title>Node3</title>
<g id="a_node3"><a xlink:title=" ">
<polygon fill="white" stroke="#bfbfbf" points="41.52,-0.5 41.52,-18.5 94.2,-18.5 94.2,-0.5 41.52,-0.5"/>
<text text-anchor="middle" x="67.86" y="-6.5" font-family="Helvetica,sans-Serif" font-size="10.00">QObject</text>
</a>
</g>
</g>
<!-- Node2&#45;&gt;Node3 -->
<g id="edge2" class="edge">
<title>Node2&#45;&gt;Node3</title>
<path fill="none" stroke="midnightblue" d="M141.65,-55.45C127.98,-47.12 106.39,-33.97 90.09,-24.04"/>
<polygon fill="midnightblue" stroke="midnightblue" points="91.56,-20.84 81.2,-18.63 87.92,-26.82 91.56,-20.84"/>
</g>
<!-- Node4 -->
<g id="node4" class="node">
<title>Node4</title>
<g id="a_node4"><a xlink:title=" ">
<polygon fill="white" stroke="#bfbfbf" points="124.91,-0.5 124.91,-18.5 184.81,-18.5 184.81,-0.5 124.91,-0.5"/>
<text text-anchor="middle" x="154.86" y="-6.5" font-family="Helvetica,sans-Serif" font-size="10.00">QProcess</text>
</a>
</g>
</g>
<!-- Node2&#45;&gt;Node4 -->
<g id="edge3" class="edge">
<title>Node2&#45;&gt;Node4</title>
<path fill="none" stroke="midnightblue" d="M154.86,-55.22C154.86,-48.18 154.86,-37.81 154.86,-28.83"/>
<polygon fill="midnightblue" stroke="midnightblue" points="158.36,-28.55 154.86,-18.55 151.36,-28.55 158.36,-28.55"/>
</g>
<!-- Node5&#45;&gt;Node3 -->
<g id="edge5" class="edge">
<title>Node5&#45;&gt;Node3</title>
<path fill="none" stroke="midnightblue" d="M56.05,-55.22C57.95,-48.02 60.77,-37.35 63.18,-28.23"/>
<polygon fill="midnightblue" stroke="midnightblue" points="66.57,-29.11 65.74,-18.55 59.8,-27.32 66.57,-29.11"/>
</g>
</g>
</svg>
