<?xml version="1.0" encoding="UTF-8" standalone="no"?>
<!DOCTYPE svg PUBLIC "-//W3C//DTD SVG 1.1//EN"
 "http://www.w3.org/Graphics/SVG/1.1/DTD/svg11.dtd">
<!-- Generated by graphviz version 2.42.3 (20191010.1750)
 -->
<!-- Title: FotoBox::drawText Pages: 1 -->
<svg width="281pt" height="74pt"
 viewBox="0.00 0.00 280.54 74.00" xmlns="http://www.w3.org/2000/svg" xmlns:xlink="http://www.w3.org/1999/xlink">
<g id="graph0" class="graph" transform="scale(1 1) rotate(0) translate(4 70)">
<title>FotoBox::drawText</title>
<polygon fill="white" stroke="transparent" points="-4,4 -4,-70 276.54,-70 276.54,4 -4,4"/>
<!-- Node1 -->
<g id="node1" class="node">
<title>Node1</title>
<g id="a_node1"><a xlink:title="Draw text on the QPixmap.">
<polygon fill="#bfbfbf" stroke="black" points="0,-26.5 0,-44.5 98.81,-44.5 98.81,-26.5 0,-26.5"/>
<text text-anchor="middle" x="49.41" y="-32.5" font-family="Helvetica,sans-Serif" font-size="10.00">FotoBox::drawText</text>
</a>
</g>
</g>
<!-- Node2 -->
<g id="node2" class="node">
<title>Node2</title>
<g id="a_node2"><a xlink:href="class_foto_box.xhtml#a6af4a2f9e84320010a827284521b7c88" target="_top" xlink:title="calculate &quot;maximum&quot; fitting font size">
<polygon fill="white" stroke="black" points="134.81,-47.5 134.81,-65.5 272.54,-65.5 272.54,-47.5 134.81,-47.5"/>
<text text-anchor="middle" x="203.68" y="-53.5" font-family="Helvetica,sans-Serif" font-size="10.00">FotoBox::calculateFontSize</text>
</a>
</g>
</g>
<!-- Node1&#45;&gt;Node2 -->
<g id="edge1" class="edge">
<title>Node1&#45;&gt;Node2</title>
<path fill="none" stroke="midnightblue" d="M99,-42.2C108.05,-43.45 117.69,-44.78 127.32,-46.11"/>
<polygon fill="midnightblue" stroke="midnightblue" points="126.93,-49.59 137.32,-47.49 127.89,-42.65 126.93,-49.59"/>
</g>
<!-- Node3 -->
<g id="node3" class="node">
<title>Node3</title>
<g id="a_node3"><a xlink:href="class_preference_provider.xhtml#a1bbf00bcafe7e0d8f4adf991a51a4656" target="_top" xlink:title="get instance (Meyers Singleton)">
<polygon fill="white" stroke="black" points="152.6,-0.5 152.6,-28.5 254.75,-28.5 254.75,-0.5 152.6,-0.5"/>
<text text-anchor="start" x="160.6" y="-16.5" font-family="Helvetica,sans-Serif" font-size="10.00">PreferenceProvider</text>
<text text-anchor="middle" x="203.68" y="-6.5" font-family="Helvetica,sans-Serif" font-size="10.00">::instance</text>
</a>
</g>
</g>
<!-- Node1&#45;&gt;Node3 -->
<g id="edge2" class="edge">
<title>Node1&#45;&gt;Node3</title>
<path fill="none" stroke="midnightblue" d="M99,-28.8C112.73,-26.9 127.84,-24.82 142.17,-22.84"/>
<polygon fill="midnightblue" stroke="midnightblue" points="143.02,-26.26 152.45,-21.43 142.06,-19.33 143.02,-26.26"/>
</g>
</g>
</svg>
