<?xml version="1.0" encoding="UTF-8" standalone="no"?>
<!DOCTYPE svg PUBLIC "-//W3C//DTD SVG 1.1//EN"
 "http://www.w3.org/Graphics/SVG/1.1/DTD/svg11.dtd">
<!-- Generated by graphviz version 2.42.3 (20191010.1750)
 -->
<!-- Title: Countdown::reset Pages: 1 -->
<svg width="542pt" height="64pt"
 viewBox="0.00 0.00 542.05 64.00" xmlns="http://www.w3.org/2000/svg" xmlns:xlink="http://www.w3.org/1999/xlink">
<g id="graph0" class="graph" transform="scale(1 1) rotate(0) translate(4 60)">
<title>Countdown::reset</title>
<polygon fill="white" stroke="transparent" points="-4,4 -4,-60 538.05,-60 538.05,4 -4,4"/>
<!-- Node1 -->
<g id="node1" class="node">
<title>Node1</title>
<g id="a_node1"><a xlink:title="Reset countdown (reset.">
<polygon fill="#bfbfbf" stroke="black" points="439.67,-18.5 439.67,-36.5 534.05,-36.5 534.05,-18.5 439.67,-18.5"/>
<text text-anchor="middle" x="486.86" y="-24.5" font-family="Helvetica,sans-Serif" font-size="10.00">Countdown::reset</text>
</a>
</g>
</g>
<!-- Node2 -->
<g id="node2" class="node">
<title>Node2</title>
<g id="a_node2"><a xlink:href="class_foto_box.xhtml#a78353b51782aab91a0b4eafac67be1c4" target="_top" xlink:title="trigger camera to shot a photo and try to show it">
<polygon fill="white" stroke="black" points="297.53,-37.5 297.53,-55.5 381.35,-55.5 381.35,-37.5 297.53,-37.5"/>
<text text-anchor="middle" x="339.44" y="-43.5" font-family="Helvetica,sans-Serif" font-size="10.00">FotoBox::photo</text>
</a>
</g>
</g>
<!-- Node1&#45;&gt;Node2 -->
<g id="edge1" class="edge">
<title>Node1&#45;&gt;Node2</title>
<path fill="none" stroke="midnightblue" d="M429.18,-34.9C413.28,-36.98 396.3,-39.2 381.5,-41.13"/>
<polygon fill="midnightblue" stroke="midnightblue" points="429.98,-38.33 439.44,-33.56 429.08,-31.39 429.98,-38.33"/>
</g>
<!-- Node5 -->
<g id="node5" class="node">
<title>Node5</title>
<g id="a_node5"><a xlink:href="class_countdown.xhtml#a2c047ed2997b0d933b18ead33b3a6a5e" target="_top" xlink:title="Set the countdown start time.">
<polygon fill="white" stroke="black" points="275.21,-0.5 275.21,-18.5 403.67,-18.5 403.67,-0.5 275.21,-0.5"/>
<text text-anchor="middle" x="339.44" y="-6.5" font-family="Helvetica,sans-Serif" font-size="10.00">Countdown::setStartTime</text>
</a>
</g>
</g>
<!-- Node1&#45;&gt;Node5 -->
<g id="edge5" class="edge">
<title>Node1&#45;&gt;Node5</title>
<path fill="none" stroke="midnightblue" d="M429.43,-20.52C421.07,-19.48 412.4,-18.41 403.91,-17.36"/>
<polygon fill="midnightblue" stroke="midnightblue" points="429.09,-24 439.44,-21.76 429.95,-17.05 429.09,-24"/>
</g>
<!-- Node3 -->
<g id="node3" class="node">
<title>Node3</title>
<g id="a_node3"><a xlink:href="class_foto_box.xhtml#ab6131adb44137e55734eb8bb0672fd38" target="_top" xlink:title="With or without countdown.">
<polygon fill="white" stroke="black" points="132.04,-37.5 132.04,-55.5 239.21,-55.5 239.21,-37.5 132.04,-37.5"/>
<text text-anchor="middle" x="185.62" y="-43.5" font-family="Helvetica,sans-Serif" font-size="10.00">FotoBox::countdown</text>
</a>
</g>
</g>
<!-- Node2&#45;&gt;Node3 -->
<g id="edge2" class="edge">
<title>Node2&#45;&gt;Node3</title>
<path fill="none" stroke="midnightblue" d="M287.02,-40.07C271.69,-39.66 254.87,-39.64 239.46,-40.04"/>
<polygon fill="midnightblue" stroke="midnightblue" points="287.24,-43.58 297.35,-40.43 287.48,-36.59 287.24,-43.58"/>
</g>
<!-- Node3&#45;&gt;Node2 -->
<g id="edge4" class="edge">
<title>Node3&#45;&gt;Node2</title>
<path fill="none" stroke="midnightblue" d="M249.86,-53.17C265.91,-53.38 282.73,-53.18 297.35,-52.57"/>
<polygon fill="midnightblue" stroke="midnightblue" points="249.52,-49.66 239.46,-52.96 249.39,-56.66 249.52,-49.66"/>
</g>
<!-- Node4 -->
<g id="node4" class="node">
<title>Node4</title>
<g id="a_node4"><a xlink:href="class_foto_box.xhtml#a7e0a5334bb6ff5f26443c422dae22d54" target="_top" xlink:title="FotoBox constructor.">
<polygon fill="white" stroke="black" points="0,-37.5 0,-55.5 96.04,-55.5 96.04,-37.5 0,-37.5"/>
<text text-anchor="middle" x="48.02" y="-43.5" font-family="Helvetica,sans-Serif" font-size="10.00">FotoBox::FotoBox</text>
</a>
</g>
</g>
<!-- Node3&#45;&gt;Node4 -->
<g id="edge3" class="edge">
<title>Node3&#45;&gt;Node4</title>
<path fill="none" stroke="midnightblue" d="M121.78,-46.5C113.16,-46.5 104.44,-46.5 96.17,-46.5"/>
<polygon fill="midnightblue" stroke="midnightblue" points="121.81,-50 131.81,-46.5 121.81,-43 121.81,-50"/>
</g>
<!-- Node5&#45;&gt;Node3 -->
<g id="edge6" class="edge">
<title>Node5&#45;&gt;Node3</title>
<path fill="none" stroke="midnightblue" d="M291.56,-20.92C269.72,-26.25 244.1,-32.49 223.64,-37.48"/>
<polygon fill="midnightblue" stroke="midnightblue" points="292.41,-24.32 301.3,-18.55 290.75,-17.52 292.41,-24.32"/>
</g>
</g>
</svg>
