<?xml version="1.0" encoding="UTF-8" standalone="no"?>
<!DOCTYPE svg PUBLIC "-//W3C//DTD SVG 1.1//EN"
 "http://www.w3.org/Graphics/SVG/1.1/DTD/svg11.dtd">
<!-- Generated by graphviz version 2.42.3 (20191010.1750)
 -->
<!-- Title: PreferenceProvider::setQueryInterval Pages: 1 -->
<svg width="431pt" height="37pt"
 viewBox="0.00 0.00 431.48 37.00" xmlns="http://www.w3.org/2000/svg" xmlns:xlink="http://www.w3.org/1999/xlink">
<g id="graph0" class="graph" transform="scale(1 1) rotate(0) translate(4 33)">
<title>PreferenceProvider::setQueryInterval</title>
<polygon fill="white" stroke="transparent" points="-4,4 -4,-33 427.48,-33 427.48,4 -4,4"/>
<!-- Node1 -->
<g id="node1" class="node">
<title>Node1</title>
<g id="a_node1"><a xlink:title="set how often the pin should be queried">
<polygon fill="#bfbfbf" stroke="black" points="321.33,-0.5 321.33,-28.5 423.48,-28.5 423.48,-0.5 321.33,-0.5"/>
<text text-anchor="start" x="329.33" y="-16.5" font-family="Helvetica,sans-Serif" font-size="10.00">PreferenceProvider</text>
<text text-anchor="middle" x="372.41" y="-6.5" font-family="Helvetica,sans-Serif" font-size="10.00">::setQueryInterval</text>
</a>
</g>
</g>
<!-- Node2 -->
<g id="node2" class="node">
<title>Node2</title>
<g id="a_node2"><a xlink:href="class_preferences.xhtml#a36e52663dbf3006c5dcf04d89cfd672d" target="_top" xlink:title="Signal &amp; Slot connect.">
<polygon fill="white" stroke="black" points="165.39,-5.5 165.39,-23.5 285.33,-23.5 285.33,-5.5 165.39,-5.5"/>
<text text-anchor="middle" x="225.36" y="-11.5" font-family="Helvetica,sans-Serif" font-size="10.00">Preferences::connectUi</text>
</a>
</g>
</g>
<!-- Node1&#45;&gt;Node2 -->
<g id="edge1" class="edge">
<title>Node1&#45;&gt;Node2</title>
<path fill="none" stroke="midnightblue" d="M310.97,-14.5C302.57,-14.5 293.95,-14.5 285.57,-14.5"/>
<polygon fill="midnightblue" stroke="midnightblue" points="311.08,-18 321.08,-14.5 311.08,-11 311.08,-18"/>
</g>
<!-- Node3 -->
<g id="node3" class="node">
<title>Node3</title>
<g id="a_node3"><a xlink:href="class_preferences.xhtml#a137b56e8d51ff2712666f94263b2e34e" target="_top" xlink:title="Preferences constructor.">
<polygon fill="white" stroke="black" points="0,-5.5 0,-23.5 129.39,-23.5 129.39,-5.5 0,-5.5"/>
<text text-anchor="middle" x="64.69" y="-11.5" font-family="Helvetica,sans-Serif" font-size="10.00">Preferences::Preferences</text>
</a>
</g>
</g>
<!-- Node2&#45;&gt;Node3 -->
<g id="edge2" class="edge">
<title>Node2&#45;&gt;Node3</title>
<path fill="none" stroke="midnightblue" d="M155.06,-14.5C146.6,-14.5 137.99,-14.5 129.61,-14.5"/>
<polygon fill="midnightblue" stroke="midnightblue" points="155.28,-18 165.28,-14.5 155.28,-11 155.28,-18"/>
</g>
</g>
</svg>
