<?xml version="1.0" encoding="UTF-8" standalone="no"?>
<!DOCTYPE svg PUBLIC "-//W3C//DTD SVG 1.1//EN"
 "http://www.w3.org/Graphics/SVG/1.1/DTD/svg11.dtd">
<!-- Generated by graphviz version 2.42.3 (20191010.1750)
 -->
<!-- Title: Preferences::clearDirectoryContent Pages: 1 -->
<svg width="283pt" height="37pt"
 viewBox="0.00 0.00 283.30 37.00" xmlns="http://www.w3.org/2000/svg" xmlns:xlink="http://www.w3.org/1999/xlink">
<g id="graph0" class="graph" transform="scale(1 1) rotate(0) translate(4 33)">
<title>Preferences::clearDirectoryContent</title>
<polygon fill="white" stroke="transparent" points="-4,4 -4,-33 279.3,-33 279.3,4 -4,4"/>
<!-- Node1 -->
<g id="node1" class="node">
<title>Node1</title>
<g id="a_node1"><a xlink:title="Clear directory content of the photo directory.">
<polygon fill="#bfbfbf" stroke="black" points="0,-0.5 0,-28.5 137.15,-28.5 137.15,-0.5 0,-0.5"/>
<text text-anchor="start" x="8" y="-16.5" font-family="Helvetica,sans-Serif" font-size="10.00">Preferences::clearDirectory</text>
<text text-anchor="middle" x="68.58" y="-6.5" font-family="Helvetica,sans-Serif" font-size="10.00">Content</text>
</a>
</g>
</g>
<!-- Node2 -->
<g id="node2" class="node">
<title>Node2</title>
<g id="a_node2"><a xlink:href="class_preference_provider.xhtml#a1bbf00bcafe7e0d8f4adf991a51a4656" target="_top" xlink:title="get instance (Meyers Singleton)">
<polygon fill="white" stroke="black" points="173.15,-0.5 173.15,-28.5 275.3,-28.5 275.3,-0.5 173.15,-0.5"/>
<text text-anchor="start" x="181.15" y="-16.5" font-family="Helvetica,sans-Serif" font-size="10.00">PreferenceProvider</text>
<text text-anchor="middle" x="224.23" y="-6.5" font-family="Helvetica,sans-Serif" font-size="10.00">::instance</text>
</a>
</g>
</g>
<!-- Node1&#45;&gt;Node2 -->
<g id="edge1" class="edge">
<title>Node1&#45;&gt;Node2</title>
<path fill="none" stroke="midnightblue" d="M137.42,-14.5C145.88,-14.5 154.48,-14.5 162.82,-14.5"/>
<polygon fill="midnightblue" stroke="midnightblue" points="162.82,-18 172.82,-14.5 162.82,-11 162.82,-18"/>
</g>
</g>
</svg>
