<?xml version="1.0" encoding="UTF-8" standalone="no"?>
<!DOCTYPE svg PUBLIC "-//W3C//DTD SVG 1.1//EN"
 "http://www.w3.org/Graphics/SVG/1.1/DTD/svg11.dtd">
<!-- Generated by graphviz version 2.42.3 (20191010.1750)
 -->
<!-- Title: Preferences::stopCountdownMode Pages: 1 -->
<svg width="535pt" height="64pt"
 viewBox="0.00 0.00 534.88 64.00" xmlns="http://www.w3.org/2000/svg" xmlns:xlink="http://www.w3.org/1999/xlink">
<g id="graph0" class="graph" transform="scale(1 1) rotate(0) translate(4 60)">
<title>Preferences::stopCountdownMode</title>
<polygon fill="white" stroke="transparent" points="-4,4 -4,-60 530.88,-60 530.88,4 -4,4"/>
<!-- Node1 -->
<g id="node1" class="node">
<title>Node1</title>
<g id="a_node1"><a xlink:title="Stop countdown, stop mouse tracking and set normal window title name.">
<polygon fill="#bfbfbf" stroke="black" points="356.9,-18.5 356.9,-36.5 526.88,-36.5 526.88,-18.5 356.9,-18.5"/>
<text text-anchor="middle" x="441.89" y="-24.5" font-family="Helvetica,sans-Serif" font-size="10.00">Preferences::stopCountdownMode</text>
</a>
</g>
</g>
<!-- Node2 -->
<g id="node2" class="node">
<title>Node2</title>
<g id="a_node2"><a xlink:href="class_preferences.xhtml#a36e52663dbf3006c5dcf04d89cfd672d" target="_top" xlink:title="Signal &amp; Slot connect.">
<polygon fill="white" stroke="black" points="183.17,-37.5 183.17,-55.5 303.11,-55.5 303.11,-37.5 183.17,-37.5"/>
<text text-anchor="middle" x="243.14" y="-43.5" font-family="Helvetica,sans-Serif" font-size="10.00">Preferences::connectUi</text>
</a>
</g>
</g>
<!-- Node1&#45;&gt;Node2 -->
<g id="edge1" class="edge">
<title>Node1&#45;&gt;Node2</title>
<path fill="none" stroke="midnightblue" d="M346.66,-36.6C331.85,-38.03 316.92,-39.47 303.2,-40.8"/>
<polygon fill="midnightblue" stroke="midnightblue" points="347.26,-40.06 356.88,-35.61 346.59,-33.09 347.26,-40.06"/>
</g>
<!-- Node4 -->
<g id="node4" class="node">
<title>Node4</title>
<g id="a_node4"><a xlink:href="class_preferences.xhtml#aa50a76adea9578e5c101776ef2aaf0fa" target="_top" xlink:title="This event handler, for event event, can be reimplemented in a subclass to receive mouse move events ...">
<polygon fill="white" stroke="black" points="165.39,-0.5 165.39,-18.5 320.9,-18.5 320.9,-0.5 165.39,-0.5"/>
<text text-anchor="middle" x="243.14" y="-6.5" font-family="Helvetica,sans-Serif" font-size="10.00">Preferences::mouseMoveEvent</text>
</a>
</g>
</g>
<!-- Node1&#45;&gt;Node4 -->
<g id="edge3" class="edge">
<title>Node1&#45;&gt;Node4</title>
<path fill="none" stroke="midnightblue" d="M346.78,-18.89C338.15,-18.1 329.47,-17.31 321.02,-16.53"/>
<polygon fill="midnightblue" stroke="midnightblue" points="346.6,-22.39 356.88,-19.81 347.24,-15.42 346.6,-22.39"/>
</g>
<!-- Node3 -->
<g id="node3" class="node">
<title>Node3</title>
<g id="a_node3"><a xlink:href="class_preferences.xhtml#a137b56e8d51ff2712666f94263b2e34e" target="_top" xlink:title="Preferences constructor.">
<polygon fill="white" stroke="black" points="0,-37.5 0,-55.5 129.39,-55.5 129.39,-37.5 0,-37.5"/>
<text text-anchor="middle" x="64.69" y="-43.5" font-family="Helvetica,sans-Serif" font-size="10.00">Preferences::Preferences</text>
</a>
</g>
</g>
<!-- Node2&#45;&gt;Node3 -->
<g id="edge2" class="edge">
<title>Node2&#45;&gt;Node3</title>
<path fill="none" stroke="midnightblue" d="M172.7,-46.5C158.5,-46.5 143.62,-46.5 129.63,-46.5"/>
<polygon fill="midnightblue" stroke="midnightblue" points="172.9,-50 182.9,-46.5 172.9,-43 172.9,-50"/>
</g>
</g>
</svg>
