<?xml version="1.0" encoding="UTF-8" standalone="no"?>
<!DOCTYPE svg PUBLIC "-//W3C//DTD SVG 1.1//EN"
 "http://www.w3.org/Graphics/SVG/1.1/DTD/svg11.dtd">
<!-- Generated by graphviz version 2.42.3 (20191010.1750)
 -->
<!-- Title: FotoBox::preferenceDialog Pages: 1 -->
<svg width="436pt" height="64pt"
 viewBox="0.00 0.00 436.49 64.00" xmlns="http://www.w3.org/2000/svg" xmlns:xlink="http://www.w3.org/1999/xlink">
<g id="graph0" class="graph" transform="scale(1 1) rotate(0) translate(4 60)">
<title>FotoBox::preferenceDialog</title>
<polygon fill="white" stroke="transparent" points="-4,4 -4,-60 432.49,-60 432.49,4 -4,4"/>
<!-- Node1 -->
<g id="node1" class="node">
<title>Node1</title>
<g id="a_node1"><a xlink:title="show preference dialog and close dialog">
<polygon fill="#bfbfbf" stroke="black" points="293.53,-18.5 293.53,-36.5 428.49,-36.5 428.49,-18.5 293.53,-18.5"/>
<text text-anchor="middle" x="361.01" y="-24.5" font-family="Helvetica,sans-Serif" font-size="10.00">FotoBox::preferenceDialog</text>
</a>
</g>
</g>
<!-- Node2 -->
<g id="node2" class="node">
<title>Node2</title>
<g id="a_node2"><a xlink:href="class_foto_box.xhtml#a6ea2f49a55e9e59ec855578e7c9c8896" target="_top" xlink:title="With or without buttons.">
<polygon fill="white" stroke="black" points="148.98,-37.5 148.98,-55.5 240.59,-55.5 240.59,-37.5 148.98,-37.5"/>
<text text-anchor="middle" x="194.79" y="-43.5" font-family="Helvetica,sans-Serif" font-size="10.00">FotoBox::buttons</text>
</a>
</g>
</g>
<!-- Node1&#45;&gt;Node2 -->
<g id="edge1" class="edge">
<title>Node1&#45;&gt;Node2</title>
<path fill="none" stroke="midnightblue" d="M283.24,-36.38C268.76,-38.06 254.05,-39.76 240.93,-41.28"/>
<polygon fill="midnightblue" stroke="midnightblue" points="283.68,-39.85 293.21,-35.23 282.88,-32.9 283.68,-39.85"/>
</g>
<!-- Node4 -->
<g id="node4" class="node">
<title>Node4</title>
<g id="a_node4"><a xlink:href="class_foto_box.xhtml#a3edde5650f847eb3efc84ef8e727298f" target="_top" xlink:title="filter key press events">
<polygon fill="white" stroke="black" points="132.04,-0.5 132.04,-18.5 257.53,-18.5 257.53,-0.5 132.04,-0.5"/>
<text text-anchor="middle" x="194.79" y="-6.5" font-family="Helvetica,sans-Serif" font-size="10.00">FotoBox::keyPressEvent</text>
</a>
</g>
</g>
<!-- Node1&#45;&gt;Node4 -->
<g id="edge3" class="edge">
<title>Node1&#45;&gt;Node4</title>
<path fill="none" stroke="midnightblue" d="M283.24,-19.09C274.7,-18.15 266.08,-17.2 257.75,-16.29"/>
<polygon fill="midnightblue" stroke="midnightblue" points="282.89,-22.57 293.21,-20.18 283.65,-15.61 282.89,-22.57"/>
</g>
<!-- Node3 -->
<g id="node3" class="node">
<title>Node3</title>
<g id="a_node3"><a xlink:href="class_foto_box.xhtml#a7e0a5334bb6ff5f26443c422dae22d54" target="_top" xlink:title="FotoBox constructor.">
<polygon fill="white" stroke="black" points="0,-37.5 0,-55.5 96.04,-55.5 96.04,-37.5 0,-37.5"/>
<text text-anchor="middle" x="48.02" y="-43.5" font-family="Helvetica,sans-Serif" font-size="10.00">FotoBox::FotoBox</text>
</a>
</g>
</g>
<!-- Node2&#45;&gt;Node3 -->
<g id="edge2" class="edge">
<title>Node2&#45;&gt;Node3</title>
<path fill="none" stroke="midnightblue" d="M138.77,-46.5C124.76,-46.5 109.84,-46.5 96.26,-46.5"/>
<polygon fill="midnightblue" stroke="midnightblue" points="138.77,-50 148.77,-46.5 138.77,-43 138.77,-50"/>
</g>
</g>
</svg>
