<?xml version="1.0" encoding="UTF-8" standalone="no"?>
<!DOCTYPE svg PUBLIC "-//W3C//DTD SVG 1.1//EN"
 "http://www.w3.org/Graphics/SVG/1.1/DTD/svg11.dtd">
<!-- Generated by graphviz version 2.42.3 (20191010.1750)
 -->
<!-- Title: Preferences::mouseMoveEvent Pages: 1 -->
<svg width="512pt" height="64pt"
 viewBox="0.00 0.00 512.09 64.00" xmlns="http://www.w3.org/2000/svg" xmlns:xlink="http://www.w3.org/1999/xlink">
<g id="graph0" class="graph" transform="scale(1 1) rotate(0) translate(4 60)">
<title>Preferences::mouseMoveEvent</title>
<polygon fill="white" stroke="transparent" points="-4,4 -4,-60 508.09,-60 508.09,4 -4,4"/>
<!-- Node1 -->
<g id="node1" class="node">
<title>Node1</title>
<g id="a_node1"><a xlink:title="This event handler, for event event, can be reimplemented in a subclass to receive mouse move events ...">
<polygon fill="#bfbfbf" stroke="black" points="0,-18.5 0,-36.5 155.51,-36.5 155.51,-18.5 0,-18.5"/>
<text text-anchor="middle" x="77.76" y="-24.5" font-family="Helvetica,sans-Serif" font-size="10.00">Preferences::mouseMoveEvent</text>
</a>
</g>
</g>
<!-- Node2 -->
<g id="node2" class="node">
<title>Node2</title>
<g id="a_node2"><a xlink:href="class_preferences.xhtml#a1dcf663eabce314027a86d17d1d4867b" target="_top" xlink:title="Stop countdown, stop mouse tracking and set normal window title name.">
<polygon fill="white" stroke="black" points="191.51,-18.5 191.51,-36.5 361.49,-36.5 361.49,-18.5 191.51,-18.5"/>
<text text-anchor="middle" x="276.5" y="-24.5" font-family="Helvetica,sans-Serif" font-size="10.00">Preferences::stopCountdownMode</text>
</a>
</g>
</g>
<!-- Node1&#45;&gt;Node2 -->
<g id="edge1" class="edge">
<title>Node1&#45;&gt;Node2</title>
<path fill="none" stroke="midnightblue" d="M155.67,-27.5C164.11,-27.5 172.78,-27.5 181.4,-27.5"/>
<polygon fill="midnightblue" stroke="midnightblue" points="181.48,-31 191.48,-27.5 181.48,-24 181.48,-31"/>
</g>
<!-- Node3 -->
<g id="node3" class="node">
<title>Node3</title>
<g id="a_node3"><a xlink:href="class_countdown.xhtml#a0b422db7af35db7b4f1ccee7ff6e515a" target="_top" xlink:title="Show countdown status.">
<polygon fill="white" stroke="black" points="397.49,-37.5 397.49,-55.5 504.09,-55.5 504.09,-37.5 397.49,-37.5"/>
<text text-anchor="middle" x="450.79" y="-43.5" font-family="Helvetica,sans-Serif" font-size="10.00">Countdown::isActive</text>
</a>
</g>
</g>
<!-- Node2&#45;&gt;Node3 -->
<g id="edge2" class="edge">
<title>Node2&#45;&gt;Node3</title>
<path fill="none" stroke="midnightblue" d="M359.36,-36.53C368.69,-37.56 378.1,-38.59 387.13,-39.59"/>
<polygon fill="midnightblue" stroke="midnightblue" points="386.82,-43.08 397.14,-40.69 387.59,-36.12 386.82,-43.08"/>
</g>
<!-- Node4 -->
<g id="node4" class="node">
<title>Node4</title>
<g id="a_node4"><a xlink:href="class_countdown.xhtml#a1d2e91a257e7867874a501c8565fcbdc" target="_top" xlink:title="Stop countdown and check.">
<polygon fill="white" stroke="black" points="405.27,-0.5 405.27,-18.5 496.32,-18.5 496.32,-0.5 405.27,-0.5"/>
<text text-anchor="middle" x="450.79" y="-6.5" font-family="Helvetica,sans-Serif" font-size="10.00">Countdown::stop</text>
</a>
</g>
</g>
<!-- Node2&#45;&gt;Node4 -->
<g id="edge3" class="edge">
<title>Node2&#45;&gt;Node4</title>
<path fill="none" stroke="midnightblue" d="M361.63,-18.71C373.02,-17.52 384.46,-16.33 395.15,-15.21"/>
<polygon fill="midnightblue" stroke="midnightblue" points="395.56,-18.68 405.14,-14.16 394.83,-11.72 395.56,-18.68"/>
</g>
</g>
</svg>
