<?xml version="1.0" encoding="UTF-8" standalone="no"?>
<!DOCTYPE svg PUBLIC "-//W3C//DTD SVG 1.1//EN"
 "http://www.w3.org/Graphics/SVG/1.1/DTD/svg11.dtd">
<!-- Generated by graphviz version 2.42.3 (20191010.1750)
 -->
<!-- Title: Countdown::elapsed Pages: 1 -->
<svg width="451pt" height="138pt"
 viewBox="0.00 0.00 451.18 138.00" xmlns="http://www.w3.org/2000/svg" xmlns:xlink="http://www.w3.org/1999/xlink">
<g id="graph0" class="graph" transform="scale(1 1) rotate(0) translate(4 134)">
<title>Countdown::elapsed</title>
<polygon fill="white" stroke="transparent" points="-4,4 -4,-134 447.18,-134 447.18,4 -4,4"/>
<!-- Node1 -->
<g id="node1" class="node">
<title>Node1</title>
<g id="a_node1"><a xlink:title="Countdown elapsed.">
<polygon fill="#bfbfbf" stroke="black" points="336.01,-37.5 336.01,-55.5 443.18,-55.5 443.18,-37.5 336.01,-37.5"/>
<text text-anchor="middle" x="389.6" y="-43.5" font-family="Helvetica,sans-Serif" font-size="10.00">Countdown::elapsed</text>
</a>
</g>
</g>
<!-- Node2 -->
<g id="node2" class="node">
<title>Node2</title>
<g id="a_node2"><a xlink:href="class_foto_box.xhtml#ab6131adb44137e55734eb8bb0672fd38" target="_top" xlink:title="With or without countdown.">
<polygon fill="white" stroke="black" points="175.79,-74.5 175.79,-92.5 282.96,-92.5 282.96,-74.5 175.79,-74.5"/>
<text text-anchor="middle" x="229.37" y="-80.5" font-family="Helvetica,sans-Serif" font-size="10.00">FotoBox::countdown</text>
</a>
</g>
</g>
<!-- Node1&#45;&gt;Node2 -->
<g id="edge1" class="edge">
<title>Node1&#45;&gt;Node2</title>
<path fill="none" stroke="midnightblue" d="M340.05,-57.85C317.22,-63.19 290.37,-69.47 268.95,-74.48"/>
<polygon fill="midnightblue" stroke="midnightblue" points="340.95,-61.24 349.89,-55.55 339.36,-54.42 340.95,-61.24"/>
</g>
<!-- Node5 -->
<g id="node5" class="node">
<title>Node5</title>
<g id="a_node5"><a xlink:href="class_preferences.xhtml#a137b56e8d51ff2712666f94263b2e34e" target="_top" xlink:title="Preferences constructor.">
<polygon fill="white" stroke="black" points="164.68,-37.5 164.68,-55.5 294.07,-55.5 294.07,-37.5 164.68,-37.5"/>
<text text-anchor="middle" x="229.37" y="-43.5" font-family="Helvetica,sans-Serif" font-size="10.00">Preferences::Preferences</text>
</a>
</g>
</g>
<!-- Node1&#45;&gt;Node5 -->
<g id="edge5" class="edge">
<title>Node1&#45;&gt;Node5</title>
<path fill="none" stroke="midnightblue" d="M325.68,-46.5C315.29,-46.5 304.51,-46.5 294.1,-46.5"/>
<polygon fill="midnightblue" stroke="midnightblue" points="325.91,-50 335.91,-46.5 325.91,-43 325.91,-50"/>
</g>
<!-- Node6 -->
<g id="node6" class="node">
<title>Node6</title>
<g id="a_node6"><a xlink:href="class_countdown.xhtml#a9098d9aba8a5e4841f93ca30414c78b0" target="_top" xlink:title="Start the timer until there is no time left, means.">
<polygon fill="white" stroke="black" points="158.74,-0.5 158.74,-18.5 300.01,-18.5 300.01,-0.5 158.74,-0.5"/>
<text text-anchor="middle" x="229.37" y="-6.5" font-family="Helvetica,sans-Serif" font-size="10.00">Countdown::updateTimeLeft</text>
</a>
</g>
</g>
<!-- Node1&#45;&gt;Node6 -->
<g id="edge6" class="edge">
<title>Node1&#45;&gt;Node6</title>
<path fill="none" stroke="midnightblue" d="M340.05,-35.15C317.22,-29.81 290.37,-23.53 268.95,-18.52"/>
<polygon fill="midnightblue" stroke="midnightblue" points="339.36,-38.58 349.89,-37.45 340.95,-31.76 339.36,-38.58"/>
</g>
<!-- Node3 -->
<g id="node3" class="node">
<title>Node3</title>
<g id="a_node3"><a xlink:href="class_foto_box.xhtml#a7e0a5334bb6ff5f26443c422dae22d54" target="_top" xlink:title="FotoBox constructor.">
<polygon fill="white" stroke="black" points="13.35,-111.5 13.35,-129.5 109.39,-129.5 109.39,-111.5 13.35,-111.5"/>
<text text-anchor="middle" x="61.37" y="-117.5" font-family="Helvetica,sans-Serif" font-size="10.00">FotoBox::FotoBox</text>
</a>
</g>
</g>
<!-- Node2&#45;&gt;Node3 -->
<g id="edge2" class="edge">
<title>Node2&#45;&gt;Node3</title>
<path fill="none" stroke="midnightblue" d="M177.76,-94.78C153.73,-100.14 125.42,-106.45 102.85,-111.48"/>
<polygon fill="midnightblue" stroke="midnightblue" points="178.76,-98.14 187.76,-92.55 177.24,-91.31 178.76,-98.14"/>
</g>
<!-- Node4 -->
<g id="node4" class="node">
<title>Node4</title>
<g id="a_node4"><a xlink:href="class_foto_box.xhtml#a78353b51782aab91a0b4eafac67be1c4" target="_top" xlink:title="trigger camera to shot a photo and try to show it">
<polygon fill="white" stroke="black" points="19.46,-74.5 19.46,-92.5 103.28,-92.5 103.28,-74.5 19.46,-74.5"/>
<text text-anchor="middle" x="61.37" y="-80.5" font-family="Helvetica,sans-Serif" font-size="10.00">FotoBox::photo</text>
</a>
</g>
</g>
<!-- Node2&#45;&gt;Node4 -->
<g id="edge3" class="edge">
<title>Node2&#45;&gt;Node4</title>
<path fill="none" stroke="midnightblue" d="M165.35,-76.93C144.56,-76.55 121.99,-76.77 103.29,-77.59"/>
<polygon fill="midnightblue" stroke="midnightblue" points="165.31,-80.43 175.39,-77.16 165.48,-73.43 165.31,-80.43"/>
</g>
<!-- Node4&#45;&gt;Node2 -->
<g id="edge4" class="edge">
<title>Node4&#45;&gt;Node2</title>
<path fill="none" stroke="midnightblue" d="M113.3,-89.78C132.98,-90.39 155.51,-90.41 175.39,-89.84"/>
<polygon fill="midnightblue" stroke="midnightblue" points="113.41,-86.28 103.29,-89.41 113.15,-93.28 113.41,-86.28"/>
</g>
<!-- Node7 -->
<g id="node7" class="node">
<title>Node7</title>
<g id="a_node7"><a xlink:href="class_countdown.xhtml#a2fda5be41af21076407c3a85b13b1f89" target="_top" xlink:title="Countdown constructor.">
<polygon fill="white" stroke="black" points="0,-0.5 0,-18.5 122.74,-18.5 122.74,-0.5 0,-0.5"/>
<text text-anchor="middle" x="61.37" y="-6.5" font-family="Helvetica,sans-Serif" font-size="10.00">Countdown::Countdown</text>
</a>
</g>
</g>
<!-- Node6&#45;&gt;Node7 -->
<g id="edge7" class="edge">
<title>Node6&#45;&gt;Node7</title>
<path fill="none" stroke="midnightblue" d="M148.37,-9.5C139.75,-9.5 131.08,-9.5 122.74,-9.5"/>
<polygon fill="midnightblue" stroke="midnightblue" points="148.45,-13 158.45,-9.5 148.45,-6 148.45,-13"/>
</g>
</g>
</svg>
