<?xml version="1.0" encoding="UTF-8" standalone="no"?>
<!DOCTYPE svg PUBLIC "-//W3C//DTD SVG 1.1//EN"
 "http://www.w3.org/Graphics/SVG/1.1/DTD/svg11.dtd">
<!-- Generated by graphviz version 2.42.3 (20191010.1750)
 -->
<!-- Title: Preferences::startFotoBox Pages: 1 -->
<svg width="461pt" height="46pt"
 viewBox="0.00 0.00 461.49 46.00" xmlns="http://www.w3.org/2000/svg" xmlns:xlink="http://www.w3.org/1999/xlink">
<g id="graph0" class="graph" transform="scale(1 1) rotate(0) translate(4 42)">
<title>Preferences::startFotoBox</title>
<polygon fill="white" stroke="transparent" points="-4,4 -4,-42 457.49,-42 457.49,4 -4,4"/>
<!-- Node1 -->
<g id="node1" class="node">
<title>Node1</title>
<g id="a_node1"><a xlink:title="Start the FotoBox.">
<polygon fill="#bfbfbf" stroke="black" points="321.33,-0.5 321.33,-18.5 453.49,-18.5 453.49,-0.5 321.33,-0.5"/>
<text text-anchor="middle" x="387.41" y="-6.5" font-family="Helvetica,sans-Serif" font-size="10.00">Preferences::startFotoBox</text>
</a>
</g>
</g>
<!-- Node2 -->
<g id="node2" class="node">
<title>Node2</title>
<g id="a_node2"><a xlink:href="class_preferences.xhtml#a36e52663dbf3006c5dcf04d89cfd672d" target="_top" xlink:title="Signal &amp; Slot connect.">
<polygon fill="white" stroke="black" points="165.39,-19.5 165.39,-37.5 285.33,-37.5 285.33,-19.5 165.39,-19.5"/>
<text text-anchor="middle" x="225.36" y="-25.5" font-family="Helvetica,sans-Serif" font-size="10.00">Preferences::connectUi</text>
</a>
</g>
</g>
<!-- Node1&#45;&gt;Node2 -->
<g id="edge1" class="edge">
<title>Node1&#45;&gt;Node2</title>
<path fill="none" stroke="midnightblue" d="M311.22,-18.43C302.58,-19.45 293.86,-20.49 285.47,-21.48"/>
<polygon fill="midnightblue" stroke="midnightblue" points="311.79,-21.88 321.31,-17.23 310.97,-14.93 311.79,-21.88"/>
</g>
<!-- Node3 -->
<g id="node3" class="node">
<title>Node3</title>
<g id="a_node3"><a xlink:href="class_preferences.xhtml#a137b56e8d51ff2712666f94263b2e34e" target="_top" xlink:title="Preferences constructor.">
<polygon fill="white" stroke="black" points="0,-0.5 0,-18.5 129.39,-18.5 129.39,-0.5 0,-0.5"/>
<text text-anchor="middle" x="64.69" y="-6.5" font-family="Helvetica,sans-Serif" font-size="10.00">Preferences::Preferences</text>
</a>
</g>
</g>
<!-- Node1&#45;&gt;Node3 -->
<g id="edge3" class="edge">
<title>Node1&#45;&gt;Node3</title>
<path fill="none" stroke="midnightblue" d="M311.05,-9.5C255.87,-9.5 181.8,-9.5 129.52,-9.5"/>
<polygon fill="midnightblue" stroke="midnightblue" points="311.12,-13 321.12,-9.5 311.12,-6 311.12,-13"/>
</g>
<!-- Node2&#45;&gt;Node3 -->
<g id="edge2" class="edge">
<title>Node2&#45;&gt;Node3</title>
<path fill="none" stroke="midnightblue" d="M155.34,-20.24C146.79,-19.21 138.08,-18.17 129.61,-17.15"/>
<polygon fill="midnightblue" stroke="midnightblue" points="154.93,-23.71 165.28,-21.43 155.77,-16.76 154.93,-23.71"/>
</g>
</g>
</svg>
