<?xml version="1.0" encoding="UTF-8" standalone="no"?>
<!DOCTYPE svg PUBLIC "-//W3C//DTD SVG 1.1//EN"
 "http://www.w3.org/Graphics/SVG/1.1/DTD/svg11.dtd">
<!-- Generated by graphviz version 2.42.3 (20191010.1750)
 -->
<!-- Title: FotoBox::countdown Pages: 1 -->
<!--zoomable 181 -->
<svg id="main" version="1.1" xmlns="http://www.w3.org/2000/svg" xmlns:xlink="http://www.w3.org/1999/xlink" xml:space="preserve" onload="init(evt)">
<style type="text/css"><![CDATA[
.edge:hover path { stroke: red; }
.edge:hover polygon { stroke: red; fill: red; }
]]></style>
<script type="text/javascript"><![CDATA[
var edges = document.getElementsByTagName('g');
if (edges && edges.length) {
  for (var i=0;i<edges.length;i++) {
    if (edges[i].id.substr(0,4)=='edge') {
      edges[i].setAttribute('class','edge');
    }
  }
}
]]></script>
        <defs>
                <circle id="rim" cx="0" cy="0" r="7"/>
                <circle id="rim2" cx="0" cy="0" r="3.5"/>
                <g id="zoomPlus">
                        <use xlink:href="#rim" fill="#404040">
                                <set attributeName="fill" to="#808080" begin="zoomplus.mouseover" end="zoomplus.mouseout"/>
                        </use>
                        <path d="M-4,0h8M0,-4v8" fill="none" stroke="white" stroke-width="1.5" pointer-events="none"/>
                </g>
                <g id="zoomMin">
                        <use xlink:href="#rim" fill="#404040">
                                <set attributeName="fill" to="#808080" begin="zoomminus.mouseover" end="zoomminus.mouseout"/>
                        </use>
                        <path d="M-4,0h8" fill="none" stroke="white" stroke-width="1.5" pointer-events="none"/>
                </g>
                <g id="dirArrow">
                        <path fill="none" stroke="white" stroke-width="1.5" d="M0,-3.0v7 M-2.5,-0.5L0,-3.0L2.5,-0.5"/>
                </g>
               <g id="resetDef">
                       <use xlink:href="#rim2" fill="#404040">
                               <set attributeName="fill" to="#808080" begin="reset.mouseover" end="reset.mouseout"/>
                       </use>
               </g>
        </defs>

<script type="text/javascript">
var viewWidth = 568;
var viewHeight = 181;
var sectionId = 'dynsection-10';
</script>
<script xlink:href="svgpan.js"/>
<svg id="graph" class="graph">
<g id="viewport">
<title>FotoBox::countdown</title>
<polygon fill="white" stroke="transparent" points="-4,4 -4,-177 564.16,-177 564.16,4 -4,4"/>
<!-- Node1 -->
<g id="node1" class="node">
<title>Node1</title>
<g id="a_node1"><a xlink:title="With or without countdown.">
<polygon fill="#bfbfbf" stroke="black" points="0,-74.5 0,-92.5 107.17,-92.5 107.17,-74.5 0,-74.5"/>
<text text-anchor="middle" x="53.58" y="-80.5" font-family="Helvetica,sans-Serif" font-size="10.00">FotoBox::countdown</text>
</a>
</g>
</g>
<!-- Node2 -->
<g id="node2" class="node">
<title>Node2</title>
<g id="a_node2"><a xlink:href="class_preference_provider.xhtml#a1bbf00bcafe7e0d8f4adf991a51a4656" target="_top" xlink:title="get instance (Meyers Singleton)">
<polygon fill="white" stroke="black" points="458.01,-144.5 458.01,-172.5 560.16,-172.5 560.16,-144.5 458.01,-144.5"/>
<text text-anchor="start" x="466.01" y="-160.5" font-family="Helvetica,sans-Serif" font-size="10.00">PreferenceProvider</text>
<text text-anchor="middle" x="509.08" y="-150.5" font-family="Helvetica,sans-Serif" font-size="10.00">::instance</text>
</a>
</g>
</g>
<!-- Node1&#45;&gt;Node2 -->
<g id="edge1" class="edge">
<title>Node1&#45;&gt;Node2</title>
<path fill="none" stroke="midnightblue" d="M75.73,-92.51C118.53,-110.22 218.91,-148.97 307.63,-162.5 357.88,-170.16 371.19,-163.68 422.01,-162.5 430.19,-162.31 438.82,-162.02 447.31,-161.68"/>
<polygon fill="midnightblue" stroke="midnightblue" points="447.73,-165.16 457.57,-161.24 447.43,-158.17 447.73,-165.16"/>
</g>
<!-- Node3 -->
<g id="node3" class="node">
<title>Node3</title>
<g id="a_node3"><a xlink:href="class_foto_box.xhtml#a78353b51782aab91a0b4eafac67be1c4" target="_top" xlink:title="trigger camera to shot a photo and try to show it">
<polygon fill="white" stroke="black" points="165.49,-74.5 165.49,-92.5 249.31,-92.5 249.31,-74.5 165.49,-74.5"/>
<text text-anchor="middle" x="207.4" y="-80.5" font-family="Helvetica,sans-Serif" font-size="10.00">FotoBox::photo</text>
</a>
</g>
</g>
<!-- Node1&#45;&gt;Node3 -->
<g id="edge2" class="edge">
<title>Node1&#45;&gt;Node3</title>
<path fill="none" stroke="midnightblue" d="M107.25,-77.04C122.7,-76.64 139.57,-76.65 154.94,-77.07"/>
<polygon fill="midnightblue" stroke="midnightblue" points="155.19,-80.58 165.31,-77.43 155.43,-73.59 155.19,-80.58"/>
</g>
<!-- Node9 -->
<g id="node9" class="node">
<title>Node9</title>
<g id="a_node9"><a xlink:href="class_countdown.xhtml#a2c047ed2997b0d933b18ead33b3a6a5e" target="_top" xlink:title="Set the countdown start time.">
<polygon fill="white" stroke="black" points="143.17,-37.5 143.17,-55.5 271.63,-55.5 271.63,-37.5 143.17,-37.5"/>
<text text-anchor="middle" x="207.4" y="-43.5" font-family="Helvetica,sans-Serif" font-size="10.00">Countdown::setStartTime</text>
</a>
</g>
</g>
<!-- Node1&#45;&gt;Node9 -->
<g id="edge11" class="edge">
<title>Node1&#45;&gt;Node9</title>
<path fill="none" stroke="midnightblue" d="M91.72,-74.45C112.2,-69.46 137.82,-63.21 159.65,-57.89"/>
<polygon fill="midnightblue" stroke="midnightblue" points="160.49,-61.29 169.38,-55.52 158.84,-54.49 160.49,-61.29"/>
</g>
<!-- Node10 -->
<g id="node10" class="node">
<title>Node10</title>
<g id="a_node10"><a xlink:href="class_countdown.xhtml#a13ddff9d6b42b10df1fd9a99e1317c21" target="_top" xlink:title="Start countdown.">
<polygon fill="white" stroke="black" points="161.6,-0.5 161.6,-18.5 253.2,-18.5 253.2,-0.5 161.6,-0.5"/>
<text text-anchor="middle" x="207.4" y="-6.5" font-family="Helvetica,sans-Serif" font-size="10.00">Countdown::start</text>
</a>
</g>
</g>
<!-- Node1&#45;&gt;Node10 -->
<g id="edge13" class="edge">
<title>Node1&#45;&gt;Node10</title>
<path fill="none" stroke="midnightblue" d="M66.56,-74.34C83.03,-62.14 113.93,-40.57 143.17,-27.5 147.93,-25.37 153.01,-23.43 158.13,-21.67"/>
<polygon fill="midnightblue" stroke="midnightblue" points="159.52,-24.9 167.99,-18.53 157.4,-18.23 159.52,-24.9"/>
</g>
<!-- Node3&#45;&gt;Node1 -->
<g id="edge3" class="edge">
<title>Node3&#45;&gt;Node1</title>
<path fill="none" stroke="midnightblue" d="M165.31,-89.57C150.64,-90.19 133.77,-90.38 117.68,-90.16"/>
<polygon fill="midnightblue" stroke="midnightblue" points="117.32,-86.66 107.25,-89.96 117.18,-93.65 117.32,-86.66"/>
</g>
<!-- Node3&#45;&gt;Node2 -->
<g id="edge5" class="edge">
<title>Node3&#45;&gt;Node2</title>
<path fill="none" stroke="midnightblue" d="M220.46,-92.56C238.4,-105.48 273.66,-128.84 307.63,-139.5 353.19,-153.8 407.21,-158.25 447.68,-159.29"/>
<polygon fill="midnightblue" stroke="midnightblue" points="447.86,-162.79 457.93,-159.49 448,-155.79 447.86,-162.79"/>
</g>
<!-- Node4 -->
<g id="node4" class="node">
<title>Node4</title>
<g id="a_node4"><a xlink:href="class_camera.xhtml#a2c0bde0a61b5194f3072045d6aac2431" target="_top" xlink:title="return member">
<polygon fill="white" stroke="black" points="307.63,-111.5 307.63,-129.5 422.01,-129.5 422.01,-111.5 307.63,-111.5"/>
<text text-anchor="middle" x="364.82" y="-117.5" font-family="Helvetica,sans-Serif" font-size="10.00">Camera::currentPhoto</text>
</a>
</g>
</g>
<!-- Node3&#45;&gt;Node4 -->
<g id="edge4" class="edge">
<title>Node3&#45;&gt;Node4</title>
<path fill="none" stroke="midnightblue" d="M246.42,-92.55C267.38,-97.54 293.61,-103.79 315.96,-109.11"/>
<polygon fill="midnightblue" stroke="midnightblue" points="315.38,-112.57 325.92,-111.48 317,-105.76 315.38,-112.57"/>
</g>
<!-- Node5 -->
<g id="node5" class="node">
<title>Node5</title>
<g id="a_node5"><a xlink:href="class_foto_box.xhtml#a78d1e793417f4ce20a26465271b383b1" target="_top" xlink:title="try to load the photo to QPixmap">
<polygon fill="white" stroke="black" points="312.9,-74.5 312.9,-92.5 416.74,-92.5 416.74,-74.5 312.9,-74.5"/>
<text text-anchor="middle" x="364.82" y="-80.5" font-family="Helvetica,sans-Serif" font-size="10.00">FotoBox::loadPhoto</text>
</a>
</g>
</g>
<!-- Node3&#45;&gt;Node5 -->
<g id="edge6" class="edge">
<title>Node3&#45;&gt;Node5</title>
<path fill="none" stroke="midnightblue" d="M249.64,-83.5C265.8,-83.5 284.69,-83.5 302.39,-83.5"/>
<polygon fill="midnightblue" stroke="midnightblue" points="302.65,-87 312.65,-83.5 302.65,-80 302.65,-87"/>
</g>
<!-- Node6 -->
<g id="node6" class="node">
<title>Node6</title>
<g id="a_node6"><a xlink:href="class_countdown.xhtml#ad40778dc0f3575a3e04a8270d4e0d13e" target="_top" xlink:title="Reset countdown (reset.">
<polygon fill="white" stroke="black" points="317.63,-0.5 317.63,-18.5 412.01,-18.5 412.01,-0.5 317.63,-0.5"/>
<text text-anchor="middle" x="364.82" y="-6.5" font-family="Helvetica,sans-Serif" font-size="10.00">Countdown::reset</text>
</a>
</g>
</g>
<!-- Node3&#45;&gt;Node6 -->
<g id="edge8" class="edge">
<title>Node3&#45;&gt;Node6</title>
<path fill="none" stroke="midnightblue" d="M249.54,-75.25C257.2,-72.77 264.89,-69.58 271.63,-65.5 291.52,-53.44 287.93,-39.88 307.63,-27.5 310.58,-25.64 313.74,-23.96 317,-22.45"/>
<polygon fill="midnightblue" stroke="midnightblue" points="318.46,-25.63 326.36,-18.58 315.79,-19.16 318.46,-25.63"/>
</g>
<!-- Node8 -->
<g id="node8" class="node">
<title>Node8</title>
<g id="a_node8"><a xlink:href="class_camera.xhtml#acf9be518b41bd5f5f33f8e337b740704" target="_top" xlink:title="shoot a photo with gphoto2">
<polygon fill="white" stroke="black" points="310.96,-37.5 310.96,-55.5 418.68,-55.5 418.68,-37.5 310.96,-37.5"/>
<text text-anchor="middle" x="364.82" y="-43.5" font-family="Helvetica,sans-Serif" font-size="10.00">Camera::shootPhoto</text>
</a>
</g>
</g>
<!-- Node3&#45;&gt;Node8 -->
<g id="edge10" class="edge">
<title>Node3&#45;&gt;Node8</title>
<path fill="none" stroke="midnightblue" d="M246.42,-74.45C267.38,-69.46 293.61,-63.21 315.96,-57.89"/>
<polygon fill="midnightblue" stroke="midnightblue" points="317,-61.24 325.92,-55.52 315.38,-54.43 317,-61.24"/>
</g>
<!-- Node5&#45;&gt;Node2 -->
<g id="edge7" class="edge">
<title>Node5&#45;&gt;Node2</title>
<path fill="none" stroke="midnightblue" d="M397.29,-92.6C405.5,-95.38 414.22,-98.73 422.01,-102.5 442.72,-112.54 464.43,-126.69 480.86,-138.26"/>
<polygon fill="midnightblue" stroke="midnightblue" points="479.24,-141.41 489.41,-144.38 483.32,-135.71 479.24,-141.41"/>
</g>
<!-- Node7 -->
<g id="node7" class="node">
<title>Node7</title>
<g id="a_node7"><a xlink:href="class_countdown.xhtml#a1d2e91a257e7867874a501c8565fcbdc" target="_top" xlink:title="Stop countdown and check.">
<polygon fill="white" stroke="black" points="463.56,-0.5 463.56,-18.5 554.61,-18.5 554.61,-0.5 463.56,-0.5"/>
<text text-anchor="middle" x="509.08" y="-6.5" font-family="Helvetica,sans-Serif" font-size="10.00">Countdown::stop</text>
</a>
</g>
</g>
<!-- Node6&#45;&gt;Node7 -->
<g id="edge9" class="edge">
<title>Node6&#45;&gt;Node7</title>
<path fill="none" stroke="midnightblue" d="M412.01,-9.5C425.07,-9.5 439.41,-9.5 452.94,-9.5"/>
<polygon fill="midnightblue" stroke="midnightblue" points="453.1,-13 463.1,-9.5 453.1,-6 453.1,-13"/>
</g>
<!-- Node9&#45;&gt;Node6 -->
<g id="edge12" class="edge">
<title>Node9&#45;&gt;Node6</title>
<path fill="none" stroke="midnightblue" d="M246.42,-37.45C267.38,-32.46 293.61,-26.21 315.96,-20.89"/>
<polygon fill="midnightblue" stroke="midnightblue" points="317,-24.24 325.92,-18.52 315.38,-17.43 317,-24.24"/>
</g>
</g>
</svg>
        <g id="navigator" transform="translate(0 0)" fill="#404254">
                <rect fill="#f2f5e9" fill-opacity="0.5" stroke="#606060" stroke-width=".5" x="0" y="0" width="60" height="60"/>
                <use id="zoomplus" xlink:href="#zoomPlus" x="17" y="9" onmousedown="handleZoom(evt,'in')"/>
                <use id="zoomminus" xlink:href="#zoomMin" x="42" y="9" onmousedown="handleZoom(evt,'out')"/>
                <use id="reset" xlink:href="#resetDef" x="30" y="36" onmousedown="handleReset()"/>
                <g id="arrowUp" xlink:href="#dirArrow" transform="translate(30 24)" onmousedown="handlePan(0,-1)">
                  <use xlink:href="#rim" fill="#404040">
                        <set attributeName="fill" to="#808080" begin="arrowUp.mouseover" end="arrowUp.mouseout"/>
                  </use>
                  <path fill="none" stroke="white" stroke-width="1.5" d="M0,-3.0v7 M-2.5,-0.5L0,-3.0L2.5,-0.5"/>
                </g>
                <g id="arrowRight" xlink:href="#dirArrow" transform="rotate(90) translate(36 -43)" onmousedown="handlePan(1,0)">
                  <use xlink:href="#rim" fill="#404040">
                        <set attributeName="fill" to="#808080" begin="arrowRight.mouseover" end="arrowRight.mouseout"/>
                  </use>
                  <path fill="none" stroke="white" stroke-width="1.5" d="M0,-3.0v7 M-2.5,-0.5L0,-3.0L2.5,-0.5"/>
                </g>
                <g id="arrowDown" xlink:href="#dirArrow" transform="rotate(180) translate(-30 -48)" onmousedown="handlePan(0,1)">
                  <use xlink:href="#rim" fill="#404040">
                        <set attributeName="fill" to="#808080" begin="arrowDown.mouseover" end="arrowDown.mouseout"/>
                  </use>
                  <path fill="none" stroke="white" stroke-width="1.5" d="M0,-3.0v7 M-2.5,-0.5L0,-3.0L2.5,-0.5"/>
                </g>
                <g id="arrowLeft" xlink:href="#dirArrow" transform="rotate(270) translate(-36 17)" onmousedown="handlePan(-1,0)">
                  <use xlink:href="#rim" fill="#404040">
                        <set attributeName="fill" to="#808080" begin="arrowLeft.mouseover" end="arrowLeft.mouseout"/>
                  </use>
                  <path fill="none" stroke="white" stroke-width="1.5" d="M0,-3.0v7 M-2.5,-0.5L0,-3.0L2.5,-0.5"/>
                </g>
        </g>
        <svg viewBox="0 0 15 15" width="100%" height="30px" preserveAspectRatio="xMaxYMin meet">
         <g id="arrow_out" transform="scale(0.3 0.3)">
          <a xlink:href="class_foto_box_ab6131adb44137e55734eb8bb0672fd38_cgraph_org.svg" target="_base">
           <rect id="button" ry="5" rx="5" y="6" x="6" height="38" width="38"
                fill="#f2f5e9" fill-opacity="0.5" stroke="#606060" stroke-width="1.0"/>
           <path id="arrow"
             d="M 11.500037,31.436501 C 11.940474,20.09759 22.043105,11.32322 32.158766,21.979434 L 37.068811,17.246167 C 37.068811,17.246167 37.088388,32 37.088388,32 L 22.160133,31.978069 C 22.160133,31.978069 26.997745,27.140456 26.997745,27.140456 C 18.528582,18.264221 13.291696,25.230495 11.500037,31.436501 z"
             style="fill:#404040;"/>
          </a>
         </g>
        </svg>
</svg>
