<?xml version="1.0" encoding="UTF-8" standalone="no"?>
<!DOCTYPE svg PUBLIC "-//W3C//DTD SVG 1.1//EN"
 "http://www.w3.org/Graphics/SVG/1.1/DTD/svg11.dtd">
<!-- Generated by graphviz version 2.42.3 (20191010.1750)
 -->
<!-- Title: FotoBox::buttons Pages: 1 -->
<svg width="435pt" height="79pt"
 viewBox="0.00 0.00 434.83 79.00" xmlns="http://www.w3.org/2000/svg" xmlns:xlink="http://www.w3.org/1999/xlink">
<g id="graph0" class="graph" transform="scale(1 1) rotate(0) translate(4 75)">
<title>FotoBox::buttons</title>
<polygon fill="white" stroke="transparent" points="-4,4 -4,-75 430.83,-75 430.83,4 -4,4"/>
<!-- Node1 -->
<g id="node1" class="node">
<title>Node1</title>
<g id="a_node1"><a xlink:title="With or without buttons.">
<polygon fill="#bfbfbf" stroke="black" points="0,-26.5 0,-44.5 91.6,-44.5 91.6,-26.5 0,-26.5"/>
<text text-anchor="middle" x="45.8" y="-32.5" font-family="Helvetica,sans-Serif" font-size="10.00">FotoBox::buttons</text>
</a>
</g>
</g>
<!-- Node2 -->
<g id="node2" class="node">
<title>Node2</title>
<g id="a_node2"><a xlink:href="class_preference_provider.xhtml#a1bbf00bcafe7e0d8f4adf991a51a4656" target="_top" xlink:title="get instance (Meyers Singleton)">
<polygon fill="white" stroke="black" points="144,-42.5 144,-70.5 246.15,-70.5 246.15,-42.5 144,-42.5"/>
<text text-anchor="start" x="152" y="-58.5" font-family="Helvetica,sans-Serif" font-size="10.00">PreferenceProvider</text>
<text text-anchor="middle" x="195.08" y="-48.5" font-family="Helvetica,sans-Serif" font-size="10.00">::instance</text>
</a>
</g>
</g>
<!-- Node1&#45;&gt;Node2 -->
<g id="edge1" class="edge">
<title>Node1&#45;&gt;Node2</title>
<path fill="none" stroke="midnightblue" d="M91.79,-41.91C105.06,-43.81 119.81,-45.91 133.88,-47.92"/>
<polygon fill="midnightblue" stroke="midnightblue" points="133.58,-51.41 143.97,-49.36 134.56,-44.48 133.58,-51.41"/>
</g>
<!-- Node3 -->
<g id="node3" class="node">
<title>Node3</title>
<g id="a_node3"><a xlink:href="class_foto_box.xhtml#a425dffd36aa5b68a110a42c4c3a20942" target="_top" xlink:title="show preference dialog and close dialog">
<polygon fill="white" stroke="black" points="127.6,-5.5 127.6,-23.5 262.56,-23.5 262.56,-5.5 127.6,-5.5"/>
<text text-anchor="middle" x="195.08" y="-11.5" font-family="Helvetica,sans-Serif" font-size="10.00">FotoBox::preferenceDialog</text>
</a>
</g>
</g>
<!-- Node1&#45;&gt;Node3 -->
<g id="edge2" class="edge">
<title>Node1&#45;&gt;Node3</title>
<path fill="none" stroke="midnightblue" d="M91.79,-29.09C101.05,-27.76 111.03,-26.34 121,-24.92"/>
<polygon fill="midnightblue" stroke="midnightblue" points="121.53,-28.38 130.93,-23.5 120.54,-21.45 121.53,-28.38"/>
</g>
<!-- Node4 -->
<g id="node4" class="node">
<title>Node4</title>
<g id="a_node4"><a xlink:href="class_foto_box.xhtml#a222aa7e9a43bd9cb8dca55b806649b82" target="_top" xlink:title="Is used as a workaround for macOS to close a fullscreen window.">
<polygon fill="white" stroke="black" points="298.56,-0.5 298.56,-28.5 426.83,-28.5 426.83,-0.5 298.56,-0.5"/>
<text text-anchor="start" x="306.56" y="-16.5" font-family="Helvetica,sans-Serif" font-size="10.00">FotoBox::closeFullscreen</text>
<text text-anchor="middle" x="362.69" y="-6.5" font-family="Helvetica,sans-Serif" font-size="10.00">WindowOnMac</text>
</a>
</g>
</g>
<!-- Node3&#45;&gt;Node4 -->
<g id="edge3" class="edge">
<title>Node3&#45;&gt;Node4</title>
<path fill="none" stroke="midnightblue" d="M262.96,-14.5C271.26,-14.5 279.78,-14.5 288.17,-14.5"/>
<polygon fill="midnightblue" stroke="midnightblue" points="288.31,-18 298.31,-14.5 288.31,-11 288.31,-18"/>
</g>
</g>
</svg>
