<?xml version="1.0" encoding="UTF-8" standalone="no"?>
<!DOCTYPE svg PUBLIC "-//W3C//DTD SVG 1.1//EN"
 "http://www.w3.org/Graphics/SVG/1.1/DTD/svg11.dtd">
<!-- Generated by graphviz version 2.42.3 (20191010.1750)
 -->
<!-- Title: Countdown::update Pages: 1 -->
<svg width="585pt" height="159pt"
 viewBox="0.00 0.00 585.43 159.00" xmlns="http://www.w3.org/2000/svg" xmlns:xlink="http://www.w3.org/1999/xlink">
<g id="graph0" class="graph" transform="scale(1 1) rotate(0) translate(4 155)">
<title>Countdown::update</title>
<polygon fill="white" stroke="transparent" points="-4,4 -4,-155 581.43,-155 581.43,4 -4,4"/>
<!-- Node1 -->
<g id="node1" class="node">
<title>Node1</title>
<g id="a_node1"><a xlink:title="Update countdown.">
<polygon fill="#bfbfbf" stroke="black" points="474.7,-57.5 474.7,-75.5 577.43,-75.5 577.43,-57.5 474.7,-57.5"/>
<text text-anchor="middle" x="526.06" y="-63.5" font-family="Helvetica,sans-Serif" font-size="10.00">Countdown::update</text>
</a>
</g>
</g>
<!-- Node2 -->
<g id="node2" class="node">
<title>Node2</title>
<g id="a_node2"><a xlink:href="class_foto_box.xhtml#ab6131adb44137e55734eb8bb0672fd38" target="_top" xlink:title="With or without countdown.">
<polygon fill="white" stroke="black" points="143.15,-95.5 143.15,-113.5 250.32,-113.5 250.32,-95.5 143.15,-95.5"/>
<text text-anchor="middle" x="196.73" y="-101.5" font-family="Helvetica,sans-Serif" font-size="10.00">FotoBox::countdown</text>
</a>
</g>
</g>
<!-- Node1&#45;&gt;Node2 -->
<g id="edge1" class="edge">
<title>Node1&#45;&gt;Node2</title>
<path fill="none" stroke="midnightblue" d="M500.7,-80.49C483.88,-89.31 460.67,-99.88 438.7,-104.5 375.04,-117.89 299.81,-115.01 250.55,-110.69"/>
<polygon fill="midnightblue" stroke="midnightblue" points="502.68,-83.4 509.8,-75.55 499.34,-77.24 502.68,-83.4"/>
</g>
<!-- Node5 -->
<g id="node5" class="node">
<title>Node5</title>
<g id="a_node5"><a xlink:href="class_preferences.xhtml#a137b56e8d51ff2712666f94263b2e34e" target="_top" xlink:title="Preferences constructor.">
<polygon fill="white" stroke="black" points="132.04,-48.5 132.04,-66.5 261.43,-66.5 261.43,-48.5 132.04,-48.5"/>
<text text-anchor="middle" x="196.73" y="-54.5" font-family="Helvetica,sans-Serif" font-size="10.00">Preferences::Preferences</text>
</a>
</g>
</g>
<!-- Node1&#45;&gt;Node5 -->
<g id="edge5" class="edge">
<title>Node1&#45;&gt;Node5</title>
<path fill="none" stroke="midnightblue" d="M464.56,-64.84C406.83,-63.25 320.2,-60.87 261.43,-59.25"/>
<polygon fill="midnightblue" stroke="midnightblue" points="464.54,-68.34 474.64,-65.11 464.74,-61.34 464.54,-68.34"/>
</g>
<!-- Node6 -->
<g id="node6" class="node">
<title>Node6</title>
<g id="a_node6"><a xlink:href="class_countdown.xhtml#a13ddff9d6b42b10df1fd9a99e1317c21" target="_top" xlink:title="Start countdown.">
<polygon fill="white" stroke="black" points="322.26,-76.5 322.26,-94.5 413.86,-94.5 413.86,-76.5 322.26,-76.5"/>
<text text-anchor="middle" x="368.06" y="-82.5" font-family="Helvetica,sans-Serif" font-size="10.00">Countdown::start</text>
</a>
</g>
</g>
<!-- Node1&#45;&gt;Node6 -->
<g id="edge6" class="edge">
<title>Node1&#45;&gt;Node6</title>
<path fill="none" stroke="midnightblue" d="M464.17,-73.92C447.43,-75.96 429.59,-78.13 413.94,-80.03"/>
<polygon fill="midnightblue" stroke="midnightblue" points="464.91,-77.35 474.41,-72.67 464.06,-70.4 464.91,-77.35"/>
</g>
<!-- Node7 -->
<g id="node7" class="node">
<title>Node7</title>
<g id="a_node7"><a xlink:href="class_countdown.xhtml#a9098d9aba8a5e4841f93ca30414c78b0" target="_top" xlink:title="Start the timer until there is no time left, means.">
<polygon fill="white" stroke="black" points="297.43,-0.5 297.43,-18.5 438.7,-18.5 438.7,-0.5 297.43,-0.5"/>
<text text-anchor="middle" x="368.06" y="-6.5" font-family="Helvetica,sans-Serif" font-size="10.00">Countdown::updateTimeLeft</text>
</a>
</g>
</g>
<!-- Node1&#45;&gt;Node7 -->
<g id="edge9" class="edge">
<title>Node1&#45;&gt;Node7</title>
<path fill="none" stroke="midnightblue" d="M492.52,-53.77C476.38,-47.54 456.56,-39.99 438.7,-33.5 424.63,-28.39 408.88,-22.94 395.92,-18.53"/>
<polygon fill="midnightblue" stroke="midnightblue" points="491.46,-57.12 502.05,-57.47 493.99,-50.59 491.46,-57.12"/>
</g>
<!-- Node3 -->
<g id="node3" class="node">
<title>Node3</title>
<g id="a_node3"><a xlink:href="class_foto_box.xhtml#a7e0a5334bb6ff5f26443c422dae22d54" target="_top" xlink:title="FotoBox constructor.">
<polygon fill="white" stroke="black" points="0,-132.5 0,-150.5 96.04,-150.5 96.04,-132.5 0,-132.5"/>
<text text-anchor="middle" x="48.02" y="-138.5" font-family="Helvetica,sans-Serif" font-size="10.00">FotoBox::FotoBox</text>
</a>
</g>
</g>
<!-- Node2&#45;&gt;Node3 -->
<g id="edge2" class="edge">
<title>Node2&#45;&gt;Node3</title>
<path fill="none" stroke="midnightblue" d="M150.15,-116C129.1,-121.3 104.47,-127.51 84.79,-132.48"/>
<polygon fill="midnightblue" stroke="midnightblue" points="151,-119.39 159.84,-113.55 149.29,-112.6 151,-119.39"/>
</g>
<!-- Node4 -->
<g id="node4" class="node">
<title>Node4</title>
<g id="a_node4"><a xlink:href="class_foto_box.xhtml#a78353b51782aab91a0b4eafac67be1c4" target="_top" xlink:title="trigger camera to shot a photo and try to show it">
<polygon fill="white" stroke="black" points="6.11,-95.5 6.11,-113.5 89.93,-113.5 89.93,-95.5 6.11,-95.5"/>
<text text-anchor="middle" x="48.02" y="-101.5" font-family="Helvetica,sans-Serif" font-size="10.00">FotoBox::photo</text>
</a>
</g>
</g>
<!-- Node2&#45;&gt;Node4 -->
<g id="edge3" class="edge">
<title>Node2&#45;&gt;Node4</title>
<path fill="none" stroke="midnightblue" d="M132.41,-97.81C118.02,-97.64 103.11,-97.83 89.94,-98.37"/>
<polygon fill="midnightblue" stroke="midnightblue" points="132.71,-101.31 142.77,-97.99 132.83,-94.31 132.71,-101.31"/>
</g>
<!-- Node4&#45;&gt;Node2 -->
<g id="edge4" class="edge">
<title>Node4&#45;&gt;Node2</title>
<path fill="none" stroke="midnightblue" d="M100.21,-110.97C113.98,-111.33 128.9,-111.34 142.77,-111.01"/>
<polygon fill="midnightblue" stroke="midnightblue" points="100.05,-107.46 89.94,-110.63 99.81,-114.46 100.05,-107.46"/>
</g>
<!-- Node6&#45;&gt;Node2 -->
<g id="edge7" class="edge">
<title>Node6&#45;&gt;Node2</title>
<path fill="none" stroke="midnightblue" d="M312.03,-91.67C292.24,-93.9 269.98,-96.39 250.39,-98.59"/>
<polygon fill="midnightblue" stroke="midnightblue" points="312.58,-95.14 322.13,-90.54 311.8,-88.18 312.58,-95.14"/>
</g>
<!-- Node6&#45;&gt;Node5 -->
<g id="edge8" class="edge">
<title>Node6&#45;&gt;Node5</title>
<path fill="none" stroke="midnightblue" d="M312.04,-76.4C292.87,-73.23 271.37,-69.68 252.24,-66.51"/>
<polygon fill="midnightblue" stroke="midnightblue" points="311.69,-79.89 322.13,-78.07 312.83,-72.99 311.69,-79.89"/>
</g>
<!-- Node8 -->
<g id="node8" class="node">
<title>Node8</title>
<g id="a_node8"><a xlink:href="class_countdown.xhtml#a2fda5be41af21076407c3a85b13b1f89" target="_top" xlink:title="Countdown constructor.">
<polygon fill="white" stroke="black" points="135.36,-0.5 135.36,-18.5 258.1,-18.5 258.1,-0.5 135.36,-0.5"/>
<text text-anchor="middle" x="196.73" y="-6.5" font-family="Helvetica,sans-Serif" font-size="10.00">Countdown::Countdown</text>
</a>
</g>
</g>
<!-- Node7&#45;&gt;Node8 -->
<g id="edge10" class="edge">
<title>Node7&#45;&gt;Node8</title>
<path fill="none" stroke="midnightblue" d="M287.13,-9.5C277.41,-9.5 267.61,-9.5 258.23,-9.5"/>
<polygon fill="midnightblue" stroke="midnightblue" points="287.21,-13 297.21,-9.5 287.21,-6 287.21,-13"/>
</g>
</g>
</svg>
