<?xml version="1.0" encoding="UTF-8" standalone="no"?>
<!DOCTYPE svg PUBLIC "-//W3C//DTD SVG 1.1//EN"
 "http://www.w3.org/Graphics/SVG/1.1/DTD/svg11.dtd">
<!-- Generated by graphviz version 2.42.3 (20191010.1750)
 -->
<!-- Title: Countdown::setStartTime Pages: 1 -->
<svg width="394pt" height="27pt"
 viewBox="0.00 0.00 393.89 27.00" xmlns="http://www.w3.org/2000/svg" xmlns:xlink="http://www.w3.org/1999/xlink">
<g id="graph0" class="graph" transform="scale(1 1) rotate(0) translate(4 23)">
<title>Countdown::setStartTime</title>
<polygon fill="white" stroke="transparent" points="-4,4 -4,-23 389.89,-23 389.89,4 -4,4"/>
<!-- Node1 -->
<g id="node1" class="node">
<title>Node1</title>
<g id="a_node1"><a xlink:title="Set the countdown start time.">
<polygon fill="#bfbfbf" stroke="black" points="0,-0.5 0,-18.5 128.46,-18.5 128.46,-0.5 0,-0.5"/>
<text text-anchor="middle" x="64.23" y="-6.5" font-family="Helvetica,sans-Serif" font-size="10.00">Countdown::setStartTime</text>
</a>
</g>
</g>
<!-- Node2 -->
<g id="node2" class="node">
<title>Node2</title>
<g id="a_node2"><a xlink:href="class_countdown.xhtml#ad40778dc0f3575a3e04a8270d4e0d13e" target="_top" xlink:title="Reset countdown (reset.">
<polygon fill="white" stroke="black" points="164.46,-0.5 164.46,-18.5 258.84,-18.5 258.84,-0.5 164.46,-0.5"/>
<text text-anchor="middle" x="211.65" y="-6.5" font-family="Helvetica,sans-Serif" font-size="10.00">Countdown::reset</text>
</a>
</g>
</g>
<!-- Node1&#45;&gt;Node2 -->
<g id="edge1" class="edge">
<title>Node1&#45;&gt;Node2</title>
<path fill="none" stroke="midnightblue" d="M128.59,-9.5C137.08,-9.5 145.74,-9.5 154.1,-9.5"/>
<polygon fill="midnightblue" stroke="midnightblue" points="154.12,-13 164.12,-9.5 154.12,-6 154.12,-13"/>
</g>
<!-- Node3 -->
<g id="node3" class="node">
<title>Node3</title>
<g id="a_node3"><a xlink:href="class_countdown.xhtml#a1d2e91a257e7867874a501c8565fcbdc" target="_top" xlink:title="Stop countdown and check.">
<polygon fill="white" stroke="black" points="294.84,-0.5 294.84,-18.5 385.89,-18.5 385.89,-0.5 294.84,-0.5"/>
<text text-anchor="middle" x="340.36" y="-6.5" font-family="Helvetica,sans-Serif" font-size="10.00">Countdown::stop</text>
</a>
</g>
</g>
<!-- Node2&#45;&gt;Node3 -->
<g id="edge2" class="edge">
<title>Node2&#45;&gt;Node3</title>
<path fill="none" stroke="midnightblue" d="M259.11,-9.5C267.35,-9.5 276,-9.5 284.44,-9.5"/>
<polygon fill="midnightblue" stroke="midnightblue" points="284.6,-13 294.59,-9.5 284.59,-6 284.6,-13"/>
</g>
</g>
</svg>
