<?xml version="1.0" encoding="UTF-8" standalone="no"?>
<!DOCTYPE svg PUBLIC "-//W3C//DTD SVG 1.1//EN"
 "http://www.w3.org/Graphics/SVG/1.1/DTD/svg11.dtd">
<!-- Generated by graphviz version 2.42.3 (20191010.1750)
 -->
<!-- Title: Preferences::gphotoInfo Pages: 1 -->
<svg width="636pt" height="27pt"
 viewBox="0.00 0.00 636.35 27.00" xmlns="http://www.w3.org/2000/svg" xmlns:xlink="http://www.w3.org/1999/xlink">
<g id="graph0" class="graph" transform="scale(1 1) rotate(0) translate(4 23)">
<title>Preferences::gphotoInfo</title>
<polygon fill="white" stroke="transparent" points="-4,4 -4,-23 632.35,-23 632.35,4 -4,4"/>
<!-- Node1 -->
<g id="node1" class="node">
<title>Node1</title>
<g id="a_node1"><a xlink:title="Read gphoto2 / libgphoto2 version and camera model.">
<polygon fill="#bfbfbf" stroke="black" points="505.61,-0.5 505.61,-18.5 628.35,-18.5 628.35,-0.5 505.61,-0.5"/>
<text text-anchor="middle" x="566.98" y="-6.5" font-family="Helvetica,sans-Serif" font-size="10.00">Preferences::gphotoInfo</text>
</a>
</g>
</g>
<!-- Node2 -->
<g id="node2" class="node">
<title>Node2</title>
<g id="a_node2"><a xlink:href="class_preferences.xhtml#a7b8d051df918f07c7f835088f68bd7b3" target="_top" xlink:title="Check camera application availability and provide help if needed.">
<polygon fill="white" stroke="black" points="321.33,-0.5 321.33,-18.5 469.61,-18.5 469.61,-0.5 321.33,-0.5"/>
<text text-anchor="middle" x="395.47" y="-6.5" font-family="Helvetica,sans-Serif" font-size="10.00">Preferences::verifyApplication</text>
</a>
</g>
</g>
<!-- Node1&#45;&gt;Node2 -->
<g id="edge1" class="edge">
<title>Node1&#45;&gt;Node2</title>
<path fill="none" stroke="midnightblue" d="M495.16,-9.5C486.78,-9.5 478.21,-9.5 469.8,-9.5"/>
<polygon fill="midnightblue" stroke="midnightblue" points="495.26,-13 505.26,-9.5 495.26,-6 495.26,-13"/>
</g>
<!-- Node3 -->
<g id="node3" class="node">
<title>Node3</title>
<g id="a_node3"><a xlink:href="class_preferences.xhtml#a36e52663dbf3006c5dcf04d89cfd672d" target="_top" xlink:title="Signal &amp; Slot connect.">
<polygon fill="white" stroke="black" points="165.39,-0.5 165.39,-18.5 285.33,-18.5 285.33,-0.5 165.39,-0.5"/>
<text text-anchor="middle" x="225.36" y="-6.5" font-family="Helvetica,sans-Serif" font-size="10.00">Preferences::connectUi</text>
</a>
</g>
</g>
<!-- Node2&#45;&gt;Node3 -->
<g id="edge2" class="edge">
<title>Node2&#45;&gt;Node3</title>
<path fill="none" stroke="midnightblue" d="M311.1,-9.5C302.45,-9.5 293.79,-9.5 285.49,-9.5"/>
<polygon fill="midnightblue" stroke="midnightblue" points="311.22,-13 321.22,-9.5 311.22,-6 311.22,-13"/>
</g>
<!-- Node4 -->
<g id="node4" class="node">
<title>Node4</title>
<g id="a_node4"><a xlink:href="class_preferences.xhtml#a137b56e8d51ff2712666f94263b2e34e" target="_top" xlink:title="Preferences constructor.">
<polygon fill="white" stroke="black" points="0,-0.5 0,-18.5 129.39,-18.5 129.39,-0.5 0,-0.5"/>
<text text-anchor="middle" x="64.69" y="-6.5" font-family="Helvetica,sans-Serif" font-size="10.00">Preferences::Preferences</text>
</a>
</g>
</g>
<!-- Node3&#45;&gt;Node4 -->
<g id="edge3" class="edge">
<title>Node3&#45;&gt;Node4</title>
<path fill="none" stroke="midnightblue" d="M155.06,-9.5C146.6,-9.5 137.99,-9.5 129.61,-9.5"/>
<polygon fill="midnightblue" stroke="midnightblue" points="155.28,-13 165.28,-9.5 155.28,-6 155.28,-13"/>
</g>
</g>
</svg>
