<?xml version="1.0" encoding="UTF-8" standalone="no"?>
<!DOCTYPE svg PUBLIC "-//W3C//DTD SVG 1.1//EN"
 "http://www.w3.org/Graphics/SVG/1.1/DTD/svg11.dtd">
<!-- Generated by graphviz version 2.42.3 (20191010.1750)
 -->
<!-- Title: FotoBox::start Pages: 1 -->
<svg width="405pt" height="175pt"
 viewBox="0.00 0.00 405.36 175.00" xmlns="http://www.w3.org/2000/svg" xmlns:xlink="http://www.w3.org/1999/xlink">
<g id="graph0" class="graph" transform="scale(1 1) rotate(0) translate(4 171)">
<title>FotoBox::start</title>
<polygon fill="white" stroke="transparent" points="-4,4 -4,-171 401.36,-171 401.36,4 -4,4"/>
<!-- Node1 -->
<g id="node1" class="node">
<title>Node1</title>
<g id="a_node1"><a xlink:title="signal: start FotoBox">
<polygon fill="#bfbfbf" stroke="black" points="319.11,-74.5 319.11,-92.5 397.36,-92.5 397.36,-74.5 319.11,-74.5"/>
<text text-anchor="middle" x="358.24" y="-80.5" font-family="Helvetica,sans-Serif" font-size="10.00">FotoBox::start</text>
</a>
</g>
</g>
<!-- Node2 -->
<g id="node2" class="node">
<title>Node2</title>
<g id="a_node2"><a xlink:href="class_foto_box.xhtml#a6ea2f49a55e9e59ec855578e7c9c8896" target="_top" xlink:title="With or without buttons.">
<polygon fill="white" stroke="black" points="161.78,-148.5 161.78,-166.5 253.38,-166.5 253.38,-148.5 161.78,-148.5"/>
<text text-anchor="middle" x="207.58" y="-154.5" font-family="Helvetica,sans-Serif" font-size="10.00">FotoBox::buttons</text>
</a>
</g>
</g>
<!-- Node1&#45;&gt;Node2 -->
<g id="edge1" class="edge">
<title>Node1&#45;&gt;Node2</title>
<path fill="none" stroke="midnightblue" d="M340.54,-99.34C326.32,-111.98 304.8,-129.24 283.11,-139.5 273.97,-143.83 263.68,-147.17 253.74,-149.74"/>
<polygon fill="midnightblue" stroke="midnightblue" points="342.99,-101.84 348.01,-92.51 338.27,-96.67 342.99,-101.84"/>
</g>
<!-- Node4 -->
<g id="node4" class="node">
<title>Node4</title>
<g id="a_node4"><a xlink:href="class_foto_box.xhtml#a243e47139b6e47ac86068bbbb9785ff3" target="_top" xlink:title="creates a new Buzzer object">
<polygon fill="white" stroke="black" points="163.17,-111.5 163.17,-129.5 251.98,-129.5 251.98,-111.5 163.17,-111.5"/>
<text text-anchor="middle" x="207.58" y="-117.5" font-family="Helvetica,sans-Serif" font-size="10.00">FotoBox::buzzer</text>
</a>
</g>
</g>
<!-- Node1&#45;&gt;Node4 -->
<g id="edge3" class="edge">
<title>Node1&#45;&gt;Node4</title>
<path fill="none" stroke="midnightblue" d="M312.37,-95.11C302.73,-97.57 292.58,-100.14 283.11,-102.5 271.23,-105.46 258.26,-108.61 246.52,-111.45"/>
<polygon fill="midnightblue" stroke="midnightblue" points="313.38,-98.46 322.19,-92.59 311.64,-91.68 313.38,-98.46"/>
</g>
<!-- Node5 -->
<g id="node5" class="node">
<title>Node5</title>
<g id="a_node5"><a xlink:href="class_foto_box.xhtml#ab6131adb44137e55734eb8bb0672fd38" target="_top" xlink:title="With or without countdown.">
<polygon fill="white" stroke="black" points="153.99,-74.5 153.99,-92.5 261.16,-92.5 261.16,-74.5 153.99,-74.5"/>
<text text-anchor="middle" x="207.58" y="-80.5" font-family="Helvetica,sans-Serif" font-size="10.00">FotoBox::countdown</text>
</a>
</g>
</g>
<!-- Node1&#45;&gt;Node5 -->
<g id="edge5" class="edge">
<title>Node1&#45;&gt;Node5</title>
<path fill="none" stroke="midnightblue" d="M308.74,-83.5C293.57,-83.5 276.75,-83.5 261.29,-83.5"/>
<polygon fill="midnightblue" stroke="midnightblue" points="308.95,-87 318.95,-83.5 308.95,-80 308.95,-87"/>
</g>
<!-- Node7 -->
<g id="node7" class="node">
<title>Node7</title>
<g id="a_node7"><a xlink:href="class_foto_box.xhtml#a3edde5650f847eb3efc84ef8e727298f" target="_top" xlink:title="filter key press events">
<polygon fill="white" stroke="black" points="144.83,-37.5 144.83,-55.5 270.32,-55.5 270.32,-37.5 144.83,-37.5"/>
<text text-anchor="middle" x="207.58" y="-43.5" font-family="Helvetica,sans-Serif" font-size="10.00">FotoBox::keyPressEvent</text>
</a>
</g>
</g>
<!-- Node1&#45;&gt;Node7 -->
<g id="edge9" class="edge">
<title>Node1&#45;&gt;Node7</title>
<path fill="none" stroke="midnightblue" d="M311.04,-72C289.72,-66.7 264.77,-60.49 244.82,-55.52"/>
<polygon fill="midnightblue" stroke="midnightblue" points="310.32,-75.43 320.87,-74.45 312.01,-68.64 310.32,-75.43"/>
</g>
<!-- Node8 -->
<g id="node8" class="node">
<title>Node8</title>
<g id="a_node8"><a xlink:href="class_foto_box.xhtml#a029f5b3b1a9c3594626dc68e8fb6b282" target="_top" xlink:title="This event handler, for event event, can be reimplemented in a subclass to receive mouse release even...">
<polygon fill="white" stroke="black" points="132.04,-0.5 132.04,-18.5 283.11,-18.5 283.11,-0.5 132.04,-0.5"/>
<text text-anchor="middle" x="207.58" y="-6.5" font-family="Helvetica,sans-Serif" font-size="10.00">FotoBox::mouseReleaseEvent</text>
</a>
</g>
</g>
<!-- Node1&#45;&gt;Node8 -->
<g id="edge10" class="edge">
<title>Node1&#45;&gt;Node8</title>
<path fill="none" stroke="midnightblue" d="M340.54,-67.66C326.32,-55.02 304.8,-37.76 283.11,-27.5 275.41,-23.86 266.9,-20.91 258.47,-18.54"/>
<polygon fill="midnightblue" stroke="midnightblue" points="338.27,-70.33 348.01,-74.49 342.99,-65.16 338.27,-70.33"/>
</g>
<!-- Node3 -->
<g id="node3" class="node">
<title>Node3</title>
<g id="a_node3"><a xlink:href="class_foto_box.xhtml#a7e0a5334bb6ff5f26443c422dae22d54" target="_top" xlink:title="FotoBox constructor.">
<polygon fill="white" stroke="black" points="0,-111.5 0,-129.5 96.04,-129.5 96.04,-111.5 0,-111.5"/>
<text text-anchor="middle" x="48.02" y="-117.5" font-family="Helvetica,sans-Serif" font-size="10.00">FotoBox::FotoBox</text>
</a>
</g>
</g>
<!-- Node2&#45;&gt;Node3 -->
<g id="edge2" class="edge">
<title>Node2&#45;&gt;Node3</title>
<path fill="none" stroke="midnightblue" d="M158.23,-146.15C135.5,-140.81 108.76,-134.53 87.44,-129.52"/>
<polygon fill="midnightblue" stroke="midnightblue" points="157.5,-149.57 168.03,-148.45 159.1,-142.76 157.5,-149.57"/>
</g>
<!-- Node4&#45;&gt;Node3 -->
<g id="edge4" class="edge">
<title>Node4&#45;&gt;Node3</title>
<path fill="none" stroke="midnightblue" d="M153.1,-120.5C134.65,-120.5 114.13,-120.5 96.21,-120.5"/>
<polygon fill="midnightblue" stroke="midnightblue" points="153.11,-124 163.11,-120.5 153.11,-117 153.11,-124"/>
</g>
<!-- Node5&#45;&gt;Node3 -->
<g id="edge6" class="edge">
<title>Node5&#45;&gt;Node3</title>
<path fill="none" stroke="midnightblue" d="M158.23,-94.85C135.5,-100.19 108.76,-106.47 87.44,-111.48"/>
<polygon fill="midnightblue" stroke="midnightblue" points="159.1,-98.24 168.03,-92.55 157.5,-91.43 159.1,-98.24"/>
</g>
<!-- Node6 -->
<g id="node6" class="node">
<title>Node6</title>
<g id="a_node6"><a xlink:href="class_foto_box.xhtml#a78353b51782aab91a0b4eafac67be1c4" target="_top" xlink:title="trigger camera to shot a photo and try to show it">
<polygon fill="white" stroke="black" points="6.11,-74.5 6.11,-92.5 89.93,-92.5 89.93,-74.5 6.11,-74.5"/>
<text text-anchor="middle" x="48.02" y="-80.5" font-family="Helvetica,sans-Serif" font-size="10.00">FotoBox::photo</text>
</a>
</g>
</g>
<!-- Node5&#45;&gt;Node6 -->
<g id="edge7" class="edge">
<title>Node5&#45;&gt;Node6</title>
<path fill="none" stroke="midnightblue" d="M143.53,-76.87C125.53,-76.59 106.39,-76.8 90.07,-77.49"/>
<polygon fill="midnightblue" stroke="midnightblue" points="143.6,-80.37 153.67,-77.08 143.75,-73.37 143.6,-80.37"/>
</g>
<!-- Node6&#45;&gt;Node5 -->
<g id="edge8" class="edge">
<title>Node6&#45;&gt;Node5</title>
<path fill="none" stroke="midnightblue" d="M100.41,-89.87C117.48,-90.36 136.5,-90.38 153.67,-89.92"/>
<polygon fill="midnightblue" stroke="midnightblue" points="100.19,-86.36 90.07,-89.51 99.95,-93.36 100.19,-86.36"/>
</g>
</g>
</svg>
