<?xml version="1.0" encoding="UTF-8" standalone="no"?>
<!DOCTYPE svg PUBLIC "-//W3C//DTD SVG 1.1//EN"
 "http://www.w3.org/Graphics/SVG/1.1/DTD/svg11.dtd">
<!-- Generated by graphviz version 2.42.3 (20191010.1750)
 -->
<!-- Title: PreferenceProvider::backgroundColorChanged Pages: 1 -->
<svg width="616pt" height="37pt"
 viewBox="0.00 0.00 615.80 37.00" xmlns="http://www.w3.org/2000/svg" xmlns:xlink="http://www.w3.org/1999/xlink">
<g id="graph0" class="graph" transform="scale(1 1) rotate(0) translate(4 33)">
<title>PreferenceProvider::backgroundColorChanged</title>
<polygon fill="white" stroke="transparent" points="-4,4 -4,-33 611.8,-33 611.8,4 -4,4"/>
<!-- Node1 -->
<g id="node1" class="node">
<title>Node1</title>
<g id="a_node1"><a xlink:title="signal: background color of the FotoBox UI has changed">
<polygon fill="#bfbfbf" stroke="black" points="469.49,-0.5 469.49,-28.5 607.8,-28.5 607.8,-0.5 469.49,-0.5"/>
<text text-anchor="start" x="477.49" y="-16.5" font-family="Helvetica,sans-Serif" font-size="10.00">PreferenceProvider</text>
<text text-anchor="middle" x="538.64" y="-6.5" font-family="Helvetica,sans-Serif" font-size="10.00">::backgroundColorChanged</text>
</a>
</g>
</g>
<!-- Node2 -->
<g id="node2" class="node">
<title>Node2</title>
<g id="a_node2"><a xlink:href="class_preference_provider.xhtml#af4933c411a01c5e867d9e84be03ced76" target="_top" xlink:title="set background color of the FotoBox UI">
<polygon fill="white" stroke="black" points="321.33,-0.5 321.33,-28.5 433.49,-28.5 433.49,-0.5 321.33,-0.5"/>
<text text-anchor="start" x="329.33" y="-16.5" font-family="Helvetica,sans-Serif" font-size="10.00">PreferenceProvider</text>
<text text-anchor="middle" x="377.41" y="-6.5" font-family="Helvetica,sans-Serif" font-size="10.00">::setBackgroundColor</text>
</a>
</g>
</g>
<!-- Node1&#45;&gt;Node2 -->
<g id="edge1" class="edge">
<title>Node1&#45;&gt;Node2</title>
<path fill="none" stroke="midnightblue" d="M459.18,-14.5C450.62,-14.5 442.05,-14.5 433.85,-14.5"/>
<polygon fill="midnightblue" stroke="midnightblue" points="459.19,-18 469.19,-14.5 459.19,-11 459.19,-18"/>
</g>
<!-- Node3 -->
<g id="node3" class="node">
<title>Node3</title>
<g id="a_node3"><a xlink:href="class_preferences.xhtml#a36e52663dbf3006c5dcf04d89cfd672d" target="_top" xlink:title="Signal &amp; Slot connect.">
<polygon fill="white" stroke="black" points="165.39,-5.5 165.39,-23.5 285.33,-23.5 285.33,-5.5 165.39,-5.5"/>
<text text-anchor="middle" x="225.36" y="-11.5" font-family="Helvetica,sans-Serif" font-size="10.00">Preferences::connectUi</text>
</a>
</g>
</g>
<!-- Node2&#45;&gt;Node3 -->
<g id="edge2" class="edge">
<title>Node2&#45;&gt;Node3</title>
<path fill="none" stroke="midnightblue" d="M310.76,-14.5C302.31,-14.5 293.69,-14.5 285.35,-14.5"/>
<polygon fill="midnightblue" stroke="midnightblue" points="310.96,-18 320.96,-14.5 310.96,-11 310.96,-18"/>
</g>
<!-- Node4 -->
<g id="node4" class="node">
<title>Node4</title>
<g id="a_node4"><a xlink:href="class_preferences.xhtml#a137b56e8d51ff2712666f94263b2e34e" target="_top" xlink:title="Preferences constructor.">
<polygon fill="white" stroke="black" points="0,-5.5 0,-23.5 129.39,-23.5 129.39,-5.5 0,-5.5"/>
<text text-anchor="middle" x="64.69" y="-11.5" font-family="Helvetica,sans-Serif" font-size="10.00">Preferences::Preferences</text>
</a>
</g>
</g>
<!-- Node3&#45;&gt;Node4 -->
<g id="edge3" class="edge">
<title>Node3&#45;&gt;Node4</title>
<path fill="none" stroke="midnightblue" d="M155.06,-14.5C146.6,-14.5 137.99,-14.5 129.61,-14.5"/>
<polygon fill="midnightblue" stroke="midnightblue" points="155.28,-18 165.28,-14.5 155.28,-11 155.28,-18"/>
</g>
</g>
</svg>
