<?xml version="1.0" encoding="UTF-8" standalone="no"?>
<!DOCTYPE svg PUBLIC "-//W3C//DTD SVG 1.1//EN"
 "http://www.w3.org/Graphics/SVG/1.1/DTD/svg11.dtd">
<!-- Generated by graphviz version 2.42.3 (20191010.1750)
 -->
<!-- Title: Buzzer::queryPin Pages: 1 -->
<svg width="357pt" height="27pt"
 viewBox="0.00 0.00 357.00 27.00" xmlns="http://www.w3.org/2000/svg" xmlns:xlink="http://www.w3.org/1999/xlink">
<g id="graph0" class="graph" transform="scale(1 1) rotate(0) translate(4 23)">
<title>Buzzer::queryPin</title>
<polygon fill="white" stroke="transparent" points="-4,4 -4,-23 353,-23 353,4 -4,4"/>
<!-- Node1 -->
<g id="node1" class="node">
<title>Node1</title>
<g id="a_node1"><a xlink:title="Query the Raspberry Pi pin.">
<polygon fill="#bfbfbf" stroke="black" points="256.85,-0.5 256.85,-18.5 349,-18.5 349,-0.5 256.85,-0.5"/>
<text text-anchor="middle" x="302.93" y="-6.5" font-family="Helvetica,sans-Serif" font-size="10.00">Buzzer::queryPin</text>
</a>
</g>
</g>
<!-- Node2 -->
<g id="node2" class="node">
<title>Node2</title>
<g id="a_node2"><a xlink:href="class_foto_box.xhtml#a243e47139b6e47ac86068bbbb9785ff3" target="_top" xlink:title="creates a new Buzzer object">
<polygon fill="white" stroke="black" points="132.04,-0.5 132.04,-18.5 220.85,-18.5 220.85,-0.5 132.04,-0.5"/>
<text text-anchor="middle" x="176.45" y="-6.5" font-family="Helvetica,sans-Serif" font-size="10.00">FotoBox::buzzer</text>
</a>
</g>
</g>
<!-- Node1&#45;&gt;Node2 -->
<g id="edge1" class="edge">
<title>Node1&#45;&gt;Node2</title>
<path fill="none" stroke="midnightblue" d="M246.46,-9.5C238.01,-9.5 229.4,-9.5 221.25,-9.5"/>
<polygon fill="midnightblue" stroke="midnightblue" points="246.63,-13 256.63,-9.5 246.63,-6 246.63,-13"/>
</g>
<!-- Node3 -->
<g id="node3" class="node">
<title>Node3</title>
<g id="a_node3"><a xlink:href="class_foto_box.xhtml#a7e0a5334bb6ff5f26443c422dae22d54" target="_top" xlink:title="FotoBox constructor.">
<polygon fill="white" stroke="black" points="0,-0.5 0,-18.5 96.04,-18.5 96.04,-0.5 0,-0.5"/>
<text text-anchor="middle" x="48.02" y="-6.5" font-family="Helvetica,sans-Serif" font-size="10.00">FotoBox::FotoBox</text>
</a>
</g>
</g>
<!-- Node2&#45;&gt;Node3 -->
<g id="edge2" class="edge">
<title>Node2&#45;&gt;Node3</title>
<path fill="none" stroke="midnightblue" d="M121.7,-9.5C113.18,-9.5 104.42,-9.5 96.06,-9.5"/>
<polygon fill="midnightblue" stroke="midnightblue" points="121.94,-13 131.94,-9.5 121.94,-6 121.94,-13"/>
</g>
</g>
</svg>
