<?xml version="1.0" encoding="UTF-8" standalone="no"?>
<!DOCTYPE svg PUBLIC "-//W3C//DTD SVG 1.1//EN"
 "http://www.w3.org/Graphics/SVG/1.1/DTD/svg11.dtd">
<!-- Generated by graphviz version 2.42.3 (20191010.1750)
 -->
<!-- Title: Preferences::Preferences Pages: 1 -->
<svg width="852pt" height="1118pt"
 viewBox="0.00 0.00 852.33 1118.00" xmlns="http://www.w3.org/2000/svg" xmlns:xlink="http://www.w3.org/1999/xlink">
<g id="graph0" class="graph" transform="scale(1 1) rotate(0) translate(4 1114)">
<title>Preferences::Preferences</title>
<polygon fill="white" stroke="transparent" points="-4,4 -4,-1114 848.33,-1114 848.33,4 -4,4"/>
<!-- Node1 -->
<g id="node1" class="node">
<title>Node1</title>
<g id="a_node1"><a xlink:title="Preferences constructor.">
<polygon fill="#bfbfbf" stroke="black" points="0,-147.5 0,-165.5 129.39,-165.5 129.39,-147.5 0,-147.5"/>
<text text-anchor="middle" x="64.69" y="-153.5" font-family="Helvetica,sans-Serif" font-size="10.00">Preferences::Preferences</text>
</a>
</g>
</g>
<!-- Node2 -->
<g id="node2" class="node">
<title>Node2</title>
<g id="a_node2"><a xlink:href="class_preferences.xhtml#a36e52663dbf3006c5dcf04d89cfd672d" target="_top" xlink:title="Signal &amp; Slot connect.">
<polygon fill="white" stroke="black" points="179.57,-515.5 179.57,-533.5 299.51,-533.5 299.51,-515.5 179.57,-515.5"/>
<text text-anchor="middle" x="239.54" y="-521.5" font-family="Helvetica,sans-Serif" font-size="10.00">Preferences::connectUi</text>
</a>
</g>
</g>
<!-- Node1&#45;&gt;Node2 -->
<g id="edge1" class="edge">
<title>Node1&#45;&gt;Node2</title>
<path fill="none" stroke="midnightblue" d="M69.97,-165.6C92.62,-213.82 198.78,-439.86 229.93,-506.17"/>
<polygon fill="midnightblue" stroke="midnightblue" points="226.84,-507.83 234.26,-515.39 233.17,-504.85 226.84,-507.83"/>
</g>
<!-- Node25 -->
<g id="node25" class="node">
<title>Node25</title>
<g id="a_node25"><a xlink:href="class_preferences.xhtml#a4f0c2844c169369eacff4a6c004b2d7d" target="_top" xlink:title="Start the FotoBox.">
<polygon fill="white" stroke="black" points="368.59,-0.5 368.59,-18.5 500.75,-18.5 500.75,-0.5 368.59,-0.5"/>
<text text-anchor="middle" x="434.67" y="-6.5" font-family="Helvetica,sans-Serif" font-size="10.00">Preferences::startFotoBox</text>
</a>
</g>
</g>
<!-- Node1&#45;&gt;Node25 -->
<g id="edge40" class="edge">
<title>Node1&#45;&gt;Node25</title>
<path fill="none" stroke="midnightblue" d="M77.63,-165.7C116.43,-194.4 240.65,-276.93 313.68,-216.5 379.56,-161.98 289.91,-88.65 349.68,-27.5 352.59,-24.53 355.86,-21.99 359.38,-19.82"/>
<polygon fill="midnightblue" stroke="midnightblue" points="361.23,-22.81 368.58,-15.18 358.08,-16.56 361.23,-22.81"/>
</g>
<!-- Node33 -->
<g id="node33" class="node">
<title>Node33</title>
<g id="a_node33"><a xlink:href="class_preferences.xhtml#a817e6485c92d847086ea30c66086b544" target="_top" xlink:title="Load application settings from INI file.">
<polygon fill="white" stroke="black" points="165.39,-189.5 165.39,-207.5 313.68,-207.5 313.68,-189.5 165.39,-189.5"/>
<text text-anchor="middle" x="239.54" y="-195.5" font-family="Helvetica,sans-Serif" font-size="10.00">Preferences::loadPreferences</text>
</a>
</g>
</g>
<!-- Node1&#45;&gt;Node33 -->
<g id="edge36" class="edge">
<title>Node1&#45;&gt;Node33</title>
<path fill="none" stroke="midnightblue" d="M102.77,-165.51C128.66,-171.8 163.42,-180.25 191.29,-187.02"/>
<polygon fill="midnightblue" stroke="midnightblue" points="190.68,-190.47 201.22,-189.43 192.33,-183.67 190.68,-190.47"/>
</g>
<!-- Node34 -->
<g id="node34" class="node">
<title>Node34</title>
<g id="a_node34"><a xlink:href="class_preferences.xhtml#ab99004b73d8cc7f72ab98c91e7e256b5" target="_top" xlink:title="Restore default preferences.">
<polygon fill="white" stroke="black" points="170.4,-142.5 170.4,-170.5 308.68,-170.5 308.68,-142.5 170.4,-142.5"/>
<text text-anchor="start" x="178.4" y="-158.5" font-family="Helvetica,sans-Serif" font-size="10.00">Preferences::restoreDefault</text>
<text text-anchor="middle" x="239.54" y="-148.5" font-family="Helvetica,sans-Serif" font-size="10.00">Preferences</text>
</a>
</g>
</g>
<!-- Node1&#45;&gt;Node34 -->
<g id="edge37" class="edge">
<title>Node1&#45;&gt;Node34</title>
<path fill="none" stroke="midnightblue" d="M129.56,-156.5C139.52,-156.5 149.9,-156.5 160.13,-156.5"/>
<polygon fill="midnightblue" stroke="midnightblue" points="160.29,-160 170.29,-156.5 160.29,-153 160.29,-160"/>
</g>
<!-- Node35 -->
<g id="node35" class="node">
<title>Node35</title>
<g id="a_node35"><a xlink:href="class_preferences.xhtml#ae5867411f2511a44e35949e15051c7be" target="_top" xlink:title="Set icons for all QToolButtons.">
<polygon fill="white" stroke="black" points="168.72,-105.5 168.72,-123.5 310.35,-123.5 310.35,-105.5 168.72,-105.5"/>
<text text-anchor="middle" x="239.54" y="-111.5" font-family="Helvetica,sans-Serif" font-size="10.00">Preferences::setButtonIcons</text>
</a>
</g>
</g>
<!-- Node1&#45;&gt;Node35 -->
<g id="edge38" class="edge">
<title>Node1&#45;&gt;Node35</title>
<path fill="none" stroke="midnightblue" d="M102.77,-147.49C128.66,-141.2 163.42,-132.75 191.29,-125.98"/>
<polygon fill="midnightblue" stroke="midnightblue" points="192.33,-129.33 201.22,-123.57 190.68,-122.53 192.33,-129.33"/>
</g>
<!-- Node36 -->
<g id="node36" class="node">
<title>Node36</title>
<g id="a_node36"><a xlink:href="class_countdown.xhtml#a13ddff9d6b42b10df1fd9a99e1317c21" target="_top" xlink:title="Start countdown.">
<polygon fill="white" stroke="black" points="193.74,-68.5 193.74,-86.5 285.33,-86.5 285.33,-68.5 193.74,-68.5"/>
<text text-anchor="middle" x="239.54" y="-74.5" font-family="Helvetica,sans-Serif" font-size="10.00">Countdown::start</text>
</a>
</g>
</g>
<!-- Node1&#45;&gt;Node36 -->
<g id="edge39" class="edge">
<title>Node1&#45;&gt;Node36</title>
<path fill="none" stroke="midnightblue" d="M77.92,-147.28C96.09,-134.01 131.68,-109.56 165.39,-95.5 171.25,-93.05 177.52,-90.89 183.83,-88.99"/>
<polygon fill="midnightblue" stroke="midnightblue" points="185.05,-92.28 193.73,-86.21 183.16,-85.54 185.05,-92.28"/>
</g>
<!-- Node37 -->
<g id="node37" class="node">
<title>Node37</title>
<g id="a_node37"><a xlink:href="class_preferences.xhtml#aa214d798efb1bea9b98f8b4ccbde16f9" target="_top" xlink:title="Set the window position.">
<polygon fill="white" stroke="black" points="167.34,-31.5 167.34,-49.5 311.74,-49.5 311.74,-31.5 167.34,-31.5"/>
<text text-anchor="middle" x="239.54" y="-37.5" font-family="Helvetica,sans-Serif" font-size="10.00">Preferences::windowPosition</text>
</a>
</g>
</g>
<!-- Node1&#45;&gt;Node37 -->
<g id="edge41" class="edge">
<title>Node1&#45;&gt;Node37</title>
<path fill="none" stroke="midnightblue" d="M72.27,-147.29C86.74,-127.74 123.43,-81.92 165.39,-58.5 169.11,-56.42 173.08,-54.58 177.16,-52.95"/>
<polygon fill="midnightblue" stroke="midnightblue" points="178.58,-56.16 186.84,-49.51 176.24,-49.56 178.58,-56.16"/>
</g>
<!-- Node3 -->
<g id="node3" class="node">
<title>Node3</title>
<g id="a_node3"><a xlink:href="class_preferences.xhtml#a9502fa3d4df242273f10f836ec3fc86c" target="_top" xlink:title="Open a QFileDialog to choose the photo directory.">
<polygon fill="white" stroke="black" points="360.81,-1015.5 360.81,-1033.5 508.54,-1033.5 508.54,-1015.5 360.81,-1015.5"/>
<text text-anchor="middle" x="434.67" y="-1021.5" font-family="Helvetica,sans-Serif" font-size="10.00">Preferences::chooseDirectory</text>
</a>
</g>
</g>
<!-- Node2&#45;&gt;Node3 -->
<g id="edge2" class="edge">
<title>Node2&#45;&gt;Node3</title>
<path fill="none" stroke="midnightblue" d="M241.37,-533.6C247.05,-593.31 281.71,-928.83 349.68,-1000.5 353.6,-1004.63 358.17,-1008.06 363.12,-1010.91"/>
<polygon fill="midnightblue" stroke="midnightblue" points="361.85,-1014.19 372.37,-1015.45 364.93,-1007.9 361.85,-1014.19"/>
</g>
<!-- Node4 -->
<g id="node4" class="node">
<title>Node4</title>
<g id="a_node4"><a xlink:href="class_preferences.xhtml#a964f6672a84d60a713439223c10bbb89" target="_top" xlink:title="Check if the path is useable.">
<polygon fill="white" stroke="black" points="570.95,-1000.5 570.95,-1018.5 690.89,-1018.5 690.89,-1000.5 570.95,-1000.5"/>
<text text-anchor="middle" x="630.92" y="-1006.5" font-family="Helvetica,sans-Serif" font-size="10.00">Preferences::verifyPath</text>
</a>
</g>
</g>
<!-- Node2&#45;&gt;Node4 -->
<g id="edge35" class="edge">
<title>Node2&#45;&gt;Node4</title>
<path fill="none" stroke="midnightblue" d="M241.48,-533.68C247.57,-591.03 283.18,-899.81 349.68,-961.5 379.62,-989.27 487.94,-1001.2 560.8,-1006.16"/>
<polygon fill="midnightblue" stroke="midnightblue" points="560.63,-1009.65 570.83,-1006.81 561.08,-1002.67 560.63,-1009.65"/>
</g>
<!-- Node5 -->
<g id="node5" class="node">
<title>Node5</title>
<g id="a_node5"><a xlink:href="class_preferences.xhtml#a183e931ddd91f03ac2b9cf40f8d9f434" target="_top" xlink:title="Clear directory content of the photo directory.">
<polygon fill="white" stroke="black" points="562.34,-939.5 562.34,-967.5 699.5,-967.5 699.5,-939.5 562.34,-939.5"/>
<text text-anchor="start" x="570.34" y="-955.5" font-family="Helvetica,sans-Serif" font-size="10.00">Preferences::clearDirectory</text>
<text text-anchor="middle" x="630.92" y="-945.5" font-family="Helvetica,sans-Serif" font-size="10.00">Content</text>
</a>
</g>
</g>
<!-- Node2&#45;&gt;Node5 -->
<g id="edge4" class="edge">
<title>Node2&#45;&gt;Node5</title>
<path fill="none" stroke="midnightblue" d="M241.64,-533.66C248.43,-588.3 286.3,-870.7 349.68,-924.5 404.97,-971.42 490.2,-973.72 552.15,-967.35"/>
<polygon fill="midnightblue" stroke="midnightblue" points="552.73,-970.81 562.27,-966.21 551.95,-963.85 552.73,-970.81"/>
</g>
<!-- Node6 -->
<g id="node6" class="node">
<title>Node6</title>
<g id="a_node6"><a xlink:href="class_preference_provider.xhtml#a1bbf00bcafe7e0d8f4adf991a51a4656" target="_top" xlink:title="get instance (Meyers Singleton)">
<polygon fill="white" stroke="black" points="742.17,-896.5 742.17,-924.5 844.33,-924.5 844.33,-896.5 742.17,-896.5"/>
<text text-anchor="start" x="750.17" y="-912.5" font-family="Helvetica,sans-Serif" font-size="10.00">PreferenceProvider</text>
<text text-anchor="middle" x="793.25" y="-902.5" font-family="Helvetica,sans-Serif" font-size="10.00">::instance</text>
</a>
</g>
</g>
<!-- Node2&#45;&gt;Node6 -->
<g id="edge8" class="edge">
<title>Node2&#45;&gt;Node6</title>
<path fill="none" stroke="midnightblue" d="M241.83,-533.61C249.37,-585.53 289.59,-843.56 349.68,-890.5 407.52,-935.68 625.08,-924.61 732.08,-916.05"/>
<polygon fill="midnightblue" stroke="midnightblue" points="732.4,-919.54 742.08,-915.23 731.83,-912.56 732.4,-919.54"/>
</g>
<!-- Node7 -->
<g id="node7" class="node">
<title>Node7</title>
<g id="a_node7"><a xlink:href="class_preferences.xhtml#a75a9b09142771785f070cfdec79b7240" target="_top" xlink:title="Open a color picker to choose background color for FotoBox.">
<polygon fill="white" stroke="black" points="371.92,-863.5 371.92,-881.5 497.42,-881.5 497.42,-863.5 371.92,-863.5"/>
<text text-anchor="middle" x="434.67" y="-869.5" font-family="Helvetica,sans-Serif" font-size="10.00">Preferences::colorDialog</text>
</a>
</g>
</g>
<!-- Node2&#45;&gt;Node7 -->
<g id="edge6" class="edge">
<title>Node2&#45;&gt;Node7</title>
<path fill="none" stroke="midnightblue" d="M240.53,-533.52C241.04,-576.51 249.15,-762.35 349.68,-853.5 353.53,-856.99 357.88,-859.88 362.52,-862.27"/>
<polygon fill="midnightblue" stroke="midnightblue" points="361.2,-865.51 371.77,-866.28 363.99,-859.09 361.2,-865.51"/>
</g>
<!-- Node8 -->
<g id="node8" class="node">
<title>Node8</title>
<g id="a_node8"><a xlink:href="class_preferences.xhtml#a5bd81120037390a1e90e79f88741f871" target="_top" xlink:title="Show help dialog for gphoto2/raspistill command line options.">
<polygon fill="white" stroke="black" points="365.53,-816.5 365.53,-844.5 503.82,-844.5 503.82,-816.5 365.53,-816.5"/>
<text text-anchor="start" x="373.53" y="-832.5" font-family="Helvetica,sans-Serif" font-size="10.00">Preferences::commandLine</text>
<text text-anchor="middle" x="434.67" y="-822.5" font-family="Helvetica,sans-Serif" font-size="10.00">OptionsDialog</text>
</a>
</g>
</g>
<!-- Node2&#45;&gt;Node8 -->
<g id="edge7" class="edge">
<title>Node2&#45;&gt;Node8</title>
<path fill="none" stroke="midnightblue" d="M241.22,-533.68C244.66,-572.86 263.42,-727.75 349.68,-806.5 351.84,-808.47 354.14,-810.27 356.56,-811.93"/>
<polygon fill="midnightblue" stroke="midnightblue" points="354.78,-814.95 365.17,-817.02 358.34,-808.92 354.78,-814.95"/>
</g>
<!-- Node9 -->
<g id="node9" class="node">
<title>Node9</title>
<g id="a_node9"><a xlink:href="class_preference_provider.xhtml#aceb3571b645bc00b9b5d1487430fe353" target="_top" xlink:title="set camera framework arguments">
<polygon fill="white" stroke="black" points="383.6,-769.5 383.6,-797.5 485.75,-797.5 485.75,-769.5 383.6,-769.5"/>
<text text-anchor="start" x="391.6" y="-785.5" font-family="Helvetica,sans-Serif" font-size="10.00">PreferenceProvider</text>
<text text-anchor="middle" x="434.67" y="-775.5" font-family="Helvetica,sans-Serif" font-size="10.00">::setArgumentLine</text>
</a>
</g>
</g>
<!-- Node2&#45;&gt;Node9 -->
<g id="edge9" class="edge">
<title>Node2&#45;&gt;Node9</title>
<path fill="none" stroke="midnightblue" d="M242.02,-533.8C248.16,-569.02 274.79,-695.5 349.68,-759.5 356.71,-765.51 365.15,-770.01 373.94,-773.39"/>
<polygon fill="midnightblue" stroke="midnightblue" points="372.96,-776.76 383.55,-776.64 375.2,-770.12 372.96,-776.76"/>
</g>
<!-- Node10 -->
<g id="node10" class="node">
<title>Node10</title>
<g id="a_node10"><a xlink:href="class_preference_provider.xhtml#af4933c411a01c5e867d9e84be03ced76" target="_top" xlink:title="set background color of the FotoBox UI">
<polygon fill="white" stroke="black" points="378.59,-722.5 378.59,-750.5 490.75,-750.5 490.75,-722.5 378.59,-722.5"/>
<text text-anchor="start" x="386.59" y="-738.5" font-family="Helvetica,sans-Serif" font-size="10.00">PreferenceProvider</text>
<text text-anchor="middle" x="434.67" y="-728.5" font-family="Helvetica,sans-Serif" font-size="10.00">::setBackgroundColor</text>
</a>
</g>
</g>
<!-- Node2&#45;&gt;Node10 -->
<g id="edge10" class="edge">
<title>Node2&#45;&gt;Node10</title>
<path fill="none" stroke="midnightblue" d="M243.11,-533.59C252.19,-563.93 285.66,-662.65 349.68,-712.5 355.44,-716.98 362,-720.63 368.86,-723.59"/>
<polygon fill="midnightblue" stroke="midnightblue" points="367.76,-726.92 378.35,-727.23 370.27,-720.38 367.76,-726.92"/>
</g>
<!-- Node11 -->
<g id="node11" class="node">
<title>Node11</title>
<g id="a_node11"><a xlink:href="class_preference_provider.xhtml#a5e11ae30693fee31194bfb4f41db49a1" target="_top" xlink:title="set the camera framework to be used">
<polygon fill="white" stroke="black" points="383.6,-675.5 383.6,-703.5 485.75,-703.5 485.75,-675.5 383.6,-675.5"/>
<text text-anchor="start" x="391.6" y="-691.5" font-family="Helvetica,sans-Serif" font-size="10.00">PreferenceProvider</text>
<text text-anchor="middle" x="434.67" y="-681.5" font-family="Helvetica,sans-Serif" font-size="10.00">::setCameraMode</text>
</a>
</g>
</g>
<!-- Node2&#45;&gt;Node11 -->
<g id="edge11" class="edge">
<title>Node2&#45;&gt;Node11</title>
<path fill="none" stroke="midnightblue" d="M244.99,-533.7C257.64,-558.88 296.37,-629.4 349.68,-665.5 356.98,-670.44 365.3,-674.38 373.79,-677.51"/>
<polygon fill="midnightblue" stroke="midnightblue" points="372.81,-680.87 383.41,-680.71 375.03,-674.23 372.81,-680.87"/>
</g>
<!-- Node12 -->
<g id="node12" class="node">
<title>Node12</title>
<g id="a_node12"><a xlink:href="class_preference_provider.xhtml#a068cad0d41fad0bf6157bda81f6aa4ad" target="_top" xlink:title="set countdown until photo is taken">
<polygon fill="white" stroke="black" points="383.6,-628.5 383.6,-656.5 485.75,-656.5 485.75,-628.5 383.6,-628.5"/>
<text text-anchor="start" x="391.6" y="-644.5" font-family="Helvetica,sans-Serif" font-size="10.00">PreferenceProvider</text>
<text text-anchor="middle" x="434.67" y="-634.5" font-family="Helvetica,sans-Serif" font-size="10.00">::setCountdown</text>
</a>
</g>
</g>
<!-- Node2&#45;&gt;Node12 -->
<g id="edge12" class="edge">
<title>Node2&#45;&gt;Node12</title>
<path fill="none" stroke="midnightblue" d="M248.6,-533.74C265.48,-552.49 306.54,-595.23 349.68,-618.5 357.17,-622.54 365.4,-625.96 373.7,-628.83"/>
<polygon fill="midnightblue" stroke="midnightblue" points="372.83,-632.23 383.42,-631.97 374.98,-625.57 372.83,-632.23"/>
</g>
<!-- Node13 -->
<g id="node13" class="node">
<title>Node13</title>
<g id="a_node13"><a xlink:href="class_preference_provider.xhtml#ac9335b967576696b421ed3132f4ddea0" target="_top" xlink:title="set font color of the countdown">
<polygon fill="white" stroke="black" points="379.98,-581.5 379.98,-609.5 489.37,-609.5 489.37,-581.5 379.98,-581.5"/>
<text text-anchor="start" x="387.98" y="-597.5" font-family="Helvetica,sans-Serif" font-size="10.00">PreferenceProvider</text>
<text text-anchor="middle" x="434.67" y="-587.5" font-family="Helvetica,sans-Serif" font-size="10.00">::setCountdownColor</text>
</a>
</g>
</g>
<!-- Node2&#45;&gt;Node13 -->
<g id="edge13" class="edge">
<title>Node2&#45;&gt;Node13</title>
<path fill="none" stroke="midnightblue" d="M259.56,-533.58C281.11,-543.65 317.42,-560 349.68,-571.5 356.46,-573.92 363.61,-576.26 370.76,-578.48"/>
<polygon fill="midnightblue" stroke="midnightblue" points="369.89,-581.87 380.48,-581.42 371.92,-575.17 369.89,-581.87"/>
</g>
<!-- Node14 -->
<g id="node14" class="node">
<title>Node14</title>
<g id="a_node14"><a xlink:href="class_preference_provider.xhtml#a9b2472b6dce4698760805ba8ccc19bc2" target="_top" xlink:title="set grayscale bool (monochrome photography)">
<polygon fill="white" stroke="black" points="383.6,-534.5 383.6,-562.5 485.75,-562.5 485.75,-534.5 383.6,-534.5"/>
<text text-anchor="start" x="391.6" y="-550.5" font-family="Helvetica,sans-Serif" font-size="10.00">PreferenceProvider</text>
<text text-anchor="middle" x="434.67" y="-540.5" font-family="Helvetica,sans-Serif" font-size="10.00">::setGrayscale</text>
</a>
</g>
</g>
<!-- Node2&#45;&gt;Node14 -->
<g id="edge14" class="edge">
<title>Node2&#45;&gt;Node14</title>
<path fill="none" stroke="midnightblue" d="M299.53,-531.83C322.92,-534.74 349.79,-538.08 373.3,-541"/>
<polygon fill="midnightblue" stroke="midnightblue" points="373.15,-544.51 383.5,-542.27 374.01,-537.56 373.15,-544.51"/>
</g>
<!-- Node15 -->
<g id="node15" class="node">
<title>Node15</title>
<g id="a_node15"><a xlink:href="class_preference_provider.xhtml#a9b13df9d2fa39a4d98b369b7a51757b1" target="_top" xlink:title="set wiringPi GPIO input pin">
<polygon fill="white" stroke="black" points="383.6,-487.5 383.6,-515.5 485.75,-515.5 485.75,-487.5 383.6,-487.5"/>
<text text-anchor="start" x="391.6" y="-503.5" font-family="Helvetica,sans-Serif" font-size="10.00">PreferenceProvider</text>
<text text-anchor="middle" x="434.67" y="-493.5" font-family="Helvetica,sans-Serif" font-size="10.00">::setInputPin</text>
</a>
</g>
</g>
<!-- Node2&#45;&gt;Node15 -->
<g id="edge15" class="edge">
<title>Node2&#45;&gt;Node15</title>
<path fill="none" stroke="midnightblue" d="M299.53,-517.47C322.92,-514.69 349.79,-511.49 373.3,-508.69"/>
<polygon fill="midnightblue" stroke="midnightblue" points="373.99,-512.13 383.5,-507.47 373.16,-505.18 373.99,-512.13"/>
</g>
<!-- Node16 -->
<g id="node16" class="node">
<title>Node16</title>
<g id="a_node16"><a xlink:href="class_preference_provider.xhtml#afec2a12f509e9a0d260ae7a82eababaa" target="_top" xlink:title="set wiringPi GPIO output pin">
<polygon fill="white" stroke="black" points="383.6,-440.5 383.6,-468.5 485.75,-468.5 485.75,-440.5 383.6,-440.5"/>
<text text-anchor="start" x="391.6" y="-456.5" font-family="Helvetica,sans-Serif" font-size="10.00">PreferenceProvider</text>
<text text-anchor="middle" x="434.67" y="-446.5" font-family="Helvetica,sans-Serif" font-size="10.00">::setOutputPin</text>
</a>
</g>
</g>
<!-- Node2&#45;&gt;Node16 -->
<g id="edge16" class="edge">
<title>Node2&#45;&gt;Node16</title>
<path fill="none" stroke="midnightblue" d="M259.54,-515.36C281.06,-505.22 317.36,-488.82 349.68,-477.5 357.39,-474.8 365.59,-472.21 373.72,-469.82"/>
<polygon fill="midnightblue" stroke="midnightblue" points="374.93,-473.11 383.58,-466.99 373,-466.38 374.93,-473.11"/>
</g>
<!-- Node17 -->
<g id="node17" class="node">
<title>Node17</title>
<g id="a_node17"><a xlink:href="class_preference_provider.xhtml#a95b912f4fa5abb8eae8fc8a539a71150" target="_top" xlink:title="set photo output directory">
<polygon fill="white" stroke="black" points="383.6,-393.5 383.6,-421.5 485.75,-421.5 485.75,-393.5 383.6,-393.5"/>
<text text-anchor="start" x="391.6" y="-409.5" font-family="Helvetica,sans-Serif" font-size="10.00">PreferenceProvider</text>
<text text-anchor="middle" x="434.67" y="-399.5" font-family="Helvetica,sans-Serif" font-size="10.00">::setPhotoFolder</text>
</a>
</g>
</g>
<!-- Node2&#45;&gt;Node17 -->
<g id="edge17" class="edge">
<title>Node2&#45;&gt;Node17</title>
<path fill="none" stroke="midnightblue" d="M248.58,-515.22C265.42,-496.4 306.42,-453.53 349.68,-430.5 357.17,-426.52 365.4,-423.18 373.69,-420.39"/>
<polygon fill="midnightblue" stroke="midnightblue" points="374.91,-423.67 383.42,-417.36 372.83,-416.99 374.91,-423.67"/>
</g>
<!-- Node18 -->
<g id="node18" class="node">
<title>Node18</title>
<g id="a_node18"><a xlink:href="class_preference_provider.xhtml#ae7acd2e7ff7fb5dba432423e8e9ff7db" target="_top" xlink:title="set photo name template">
<polygon fill="white" stroke="black" points="383.6,-346.5 383.6,-374.5 485.75,-374.5 485.75,-346.5 383.6,-346.5"/>
<text text-anchor="start" x="391.6" y="-362.5" font-family="Helvetica,sans-Serif" font-size="10.00">PreferenceProvider</text>
<text text-anchor="middle" x="434.67" y="-352.5" font-family="Helvetica,sans-Serif" font-size="10.00">::setPhotoName</text>
</a>
</g>
</g>
<!-- Node2&#45;&gt;Node18 -->
<g id="edge18" class="edge">
<title>Node2&#45;&gt;Node18</title>
<path fill="none" stroke="midnightblue" d="M244.96,-515.26C257.56,-490.01 296.17,-419.31 349.68,-383.5 356.99,-378.61 365.3,-374.76 373.8,-371.72"/>
<polygon fill="midnightblue" stroke="midnightblue" points="374.97,-375.02 383.42,-368.63 372.83,-368.36 374.97,-375.02"/>
</g>
<!-- Node19 -->
<g id="node19" class="node">
<title>Node19</title>
<g id="a_node19"><a xlink:href="class_preference_provider.xhtml#ab5372fedb84b7567cf7a1ffa1e3b4126" target="_top" xlink:title="set print on or off">
<polygon fill="white" stroke="black" points="383.6,-299.5 383.6,-327.5 485.75,-327.5 485.75,-299.5 383.6,-299.5"/>
<text text-anchor="start" x="391.6" y="-315.5" font-family="Helvetica,sans-Serif" font-size="10.00">PreferenceProvider</text>
<text text-anchor="middle" x="434.67" y="-305.5" font-family="Helvetica,sans-Serif" font-size="10.00">::setPrint</text>
</a>
</g>
</g>
<!-- Node2&#45;&gt;Node19 -->
<g id="edge19" class="edge">
<title>Node2&#45;&gt;Node19</title>
<path fill="none" stroke="midnightblue" d="M243.09,-515.39C252.1,-484.96 285.38,-386 349.68,-336.5 356.73,-331.07 364.98,-326.93 373.5,-323.76"/>
<polygon fill="midnightblue" stroke="midnightblue" points="374.78,-327.02 383.19,-320.58 372.6,-320.37 374.78,-327.02"/>
</g>
<!-- Node20 -->
<g id="node20" class="node">
<title>Node20</title>
<g id="a_node20"><a xlink:href="class_preference_provider.xhtml#a97dd2b33b6baeaa00eb87dd30ecd05e5" target="_top" xlink:title="set printer name">
<polygon fill="white" stroke="black" points="383.6,-252.5 383.6,-280.5 485.75,-280.5 485.75,-252.5 383.6,-252.5"/>
<text text-anchor="start" x="391.6" y="-268.5" font-family="Helvetica,sans-Serif" font-size="10.00">PreferenceProvider</text>
<text text-anchor="middle" x="434.67" y="-258.5" font-family="Helvetica,sans-Serif" font-size="10.00">::setPrinterName</text>
</a>
</g>
</g>
<!-- Node2&#45;&gt;Node20 -->
<g id="edge20" class="edge">
<title>Node2&#45;&gt;Node20</title>
<path fill="none" stroke="midnightblue" d="M242,-515.18C248.06,-479.86 274.44,-353.09 349.68,-289.5 356.72,-283.55 365.17,-279.13 373.96,-275.85"/>
<polygon fill="midnightblue" stroke="midnightblue" points="375.15,-279.14 383.58,-272.72 372.98,-272.49 375.15,-279.14"/>
</g>
<!-- Node21 -->
<g id="node21" class="node">
<title>Node21</title>
<g id="a_node21"><a xlink:href="class_preference_provider.xhtml#aae1e1472caa7b4d6f3d8e17fe37dc20b" target="_top" xlink:title="set how often the pin should be queried">
<polygon fill="white" stroke="black" points="383.6,-205.5 383.6,-233.5 485.75,-233.5 485.75,-205.5 383.6,-205.5"/>
<text text-anchor="start" x="391.6" y="-221.5" font-family="Helvetica,sans-Serif" font-size="10.00">PreferenceProvider</text>
<text text-anchor="middle" x="434.67" y="-211.5" font-family="Helvetica,sans-Serif" font-size="10.00">::setQueryInterval</text>
</a>
</g>
</g>
<!-- Node2&#45;&gt;Node21 -->
<g id="edge21" class="edge">
<title>Node2&#45;&gt;Node21</title>
<path fill="none" stroke="midnightblue" d="M241.2,-515.3C244.54,-476.01 262.99,-320.78 349.68,-242.5 356.52,-236.32 364.87,-231.79 373.61,-228.45"/>
<polygon fill="midnightblue" stroke="midnightblue" points="374.8,-231.75 383.21,-225.29 372.61,-225.1 374.8,-231.75"/>
</g>
<!-- Node22 -->
<g id="node22" class="node">
<title>Node22</title>
<g id="a_node22"><a xlink:href="class_preference_provider.xhtml#a3c4bfdd62ac6562182886dda967530c2" target="_top" xlink:title="set whether buttons are displayed on the UI">
<polygon fill="white" stroke="black" points="383.6,-158.5 383.6,-186.5 485.75,-186.5 485.75,-158.5 383.6,-158.5"/>
<text text-anchor="start" x="391.6" y="-174.5" font-family="Helvetica,sans-Serif" font-size="10.00">PreferenceProvider</text>
<text text-anchor="middle" x="434.67" y="-164.5" font-family="Helvetica,sans-Serif" font-size="10.00">::setShowButtons</text>
</a>
</g>
</g>
<!-- Node2&#45;&gt;Node22 -->
<g id="edge22" class="edge">
<title>Node2&#45;&gt;Node22</title>
<path fill="none" stroke="midnightblue" d="M242.38,-515.25C252.22,-466.79 299.9,-242.71 349.68,-195.5 356.45,-189.08 364.83,-184.42 373.66,-181.05"/>
<polygon fill="midnightblue" stroke="midnightblue" points="374.95,-184.31 383.36,-177.86 372.76,-177.66 374.95,-184.31"/>
</g>
<!-- Node23 -->
<g id="node23" class="node">
<title>Node23</title>
<g id="a_node23"><a xlink:href="class_preference_provider.xhtml#a8593050ca82c56a9081c445dfc0f2366" target="_top" xlink:title="set timeout value for the camera framework">
<polygon fill="white" stroke="black" points="383.6,-111.5 383.6,-139.5 485.75,-139.5 485.75,-111.5 383.6,-111.5"/>
<text text-anchor="start" x="391.6" y="-127.5" font-family="Helvetica,sans-Serif" font-size="10.00">PreferenceProvider</text>
<text text-anchor="middle" x="434.67" y="-117.5" font-family="Helvetica,sans-Serif" font-size="10.00">::setTimeoutValue</text>
</a>
</g>
</g>
<!-- Node2&#45;&gt;Node23 -->
<g id="edge23" class="edge">
<title>Node2&#45;&gt;Node23</title>
<path fill="none" stroke="midnightblue" d="M242.96,-515.21C257.75,-458.62 335.67,-162.3 349.68,-148.5 356.48,-141.81 365.03,-137.02 374.05,-133.6"/>
<polygon fill="midnightblue" stroke="midnightblue" points="375.14,-136.92 383.57,-130.51 372.98,-130.26 375.14,-136.92"/>
</g>
<!-- Node24 -->
<g id="node24" class="node">
<title>Node24</title>
<g id="a_node24"><a xlink:href="class_preferences.xhtml#a1d8255b77095a5ae6de5e2aa89168252" target="_top" xlink:title="Show the given color in QLineEdit.">
<polygon fill="white" stroke="black" points="373.32,-74.5 373.32,-92.5 496.03,-92.5 496.03,-74.5 373.32,-74.5"/>
<text text-anchor="middle" x="434.67" y="-80.5" font-family="Helvetica,sans-Serif" font-size="10.00">Preferences::showColor</text>
</a>
</g>
</g>
<!-- Node2&#45;&gt;Node24 -->
<g id="edge24" class="edge">
<title>Node2&#45;&gt;Node24</title>
<path fill="none" stroke="midnightblue" d="M243.14,-515.06C252.79,-480.08 287.24,-354.52 313.68,-250.5 330.47,-184.47 300.89,-149.04 349.68,-101.5 353.76,-97.53 358.48,-94.35 363.57,-91.8"/>
<polygon fill="midnightblue" stroke="midnightblue" points="365.16,-94.93 373.06,-87.87 362.48,-88.46 365.16,-94.93"/>
</g>
<!-- Node2&#45;&gt;Node25 -->
<g id="edge25" class="edge">
<title>Node2&#45;&gt;Node25</title>
<path fill="none" stroke="midnightblue" d="M243.41,-515.12C253.98,-480.35 291.26,-355.46 313.68,-250.5 324.17,-201.41 315.11,-63.89 349.68,-27.5 352.55,-24.48 355.79,-21.91 359.28,-19.72"/>
<polygon fill="midnightblue" stroke="midnightblue" points="361.13,-22.71 368.43,-15.04 357.94,-16.48 361.13,-22.71"/>
</g>
<!-- Node28 -->
<g id="node28" class="node">
<title>Node28</title>
<g id="a_node28"><a xlink:href="class_preferences.xhtml#a1dcf663eabce314027a86d17d1d4867b" target="_top" xlink:title="Stop countdown, stop mouse tracking and set normal window title name.">
<polygon fill="white" stroke="black" points="349.68,-37.5 349.68,-55.5 519.66,-55.5 519.66,-37.5 349.68,-37.5"/>
<text text-anchor="middle" x="434.67" y="-43.5" font-family="Helvetica,sans-Serif" font-size="10.00">Preferences::stopCountdownMode</text>
</a>
</g>
</g>
<!-- Node2&#45;&gt;Node28 -->
<g id="edge29" class="edge">
<title>Node2&#45;&gt;Node28</title>
<path fill="none" stroke="midnightblue" d="M243.3,-515.09C253.5,-480.25 289.63,-355.1 313.68,-250.5 332.55,-168.44 290.74,-124.63 349.68,-64.5 350.76,-63.4 351.89,-62.36 353.06,-61.38"/>
<polygon fill="midnightblue" stroke="midnightblue" points="355.09,-64.23 361.35,-55.68 351.13,-58.46 355.09,-64.23"/>
</g>
<!-- Node30 -->
<g id="node30" class="node">
<title>Node30</title>
<g id="a_node30"><a xlink:href="class_preferences.xhtml#a7b8d051df918f07c7f835088f68bd7b3" target="_top" xlink:title="Check camera application availability and provide help if needed.">
<polygon fill="white" stroke="black" points="360.53,-1052.5 360.53,-1070.5 508.82,-1070.5 508.82,-1052.5 360.53,-1052.5"/>
<text text-anchor="middle" x="434.67" y="-1058.5" font-family="Helvetica,sans-Serif" font-size="10.00">Preferences::verifyApplication</text>
</a>
</g>
</g>
<!-- Node2&#45;&gt;Node30 -->
<g id="edge32" class="edge">
<title>Node2&#45;&gt;Node30</title>
<path fill="none" stroke="midnightblue" d="M241.14,-533.62C245.52,-596.54 274.21,-965.9 349.68,-1042.5 351.3,-1044.14 353.03,-1045.66 354.85,-1047.05"/>
<polygon fill="midnightblue" stroke="midnightblue" points="353.04,-1050.05 363.36,-1052.44 356.78,-1044.13 353.04,-1050.05"/>
</g>
<!-- Node3&#45;&gt;Node4 -->
<g id="edge3" class="edge">
<title>Node3&#45;&gt;Node4</title>
<path fill="none" stroke="midnightblue" d="M508.56,-1018.87C525.58,-1017.56 543.67,-1016.16 560.54,-1014.86"/>
<polygon fill="midnightblue" stroke="midnightblue" points="561.17,-1018.32 570.87,-1014.06 560.63,-1011.34 561.17,-1018.32"/>
</g>
<!-- Node5&#45;&gt;Node6 -->
<g id="edge5" class="edge">
<title>Node5&#45;&gt;Node6</title>
<path fill="none" stroke="midnightblue" d="M684.42,-939.42C699.63,-935.34 716.35,-930.86 731.99,-926.66"/>
<polygon fill="midnightblue" stroke="midnightblue" points="733.34,-929.92 742.09,-923.95 731.52,-923.16 733.34,-929.92"/>
</g>
<!-- Node26 -->
<g id="node26" class="node">
<title>Node26</title>
<g id="a_node26"><a xlink:href="class_preferences.xhtml#a70c6489f66db193c8645fed5d4b36ac6" target="_top" xlink:title="Save the preferences to QSettings.">
<polygon fill="white" stroke="black" points="555.66,-0.5 555.66,-18.5 706.17,-18.5 706.17,-0.5 555.66,-0.5"/>
<text text-anchor="middle" x="630.92" y="-6.5" font-family="Helvetica,sans-Serif" font-size="10.00">Preferences::savePreferences</text>
</a>
</g>
</g>
<!-- Node25&#45;&gt;Node26 -->
<g id="edge26" class="edge">
<title>Node25&#45;&gt;Node26</title>
<path fill="none" stroke="midnightblue" d="M500.89,-9.5C515.13,-9.5 530.4,-9.5 545.27,-9.5"/>
<polygon fill="midnightblue" stroke="midnightblue" points="545.49,-13 555.49,-9.5 545.49,-6 545.49,-13"/>
</g>
<!-- Node27 -->
<g id="node27" class="node">
<title>Node27</title>
<g id="a_node27"><a xlink:href="class_countdown.xhtml#a1d2e91a257e7867874a501c8565fcbdc" target="_top" xlink:title="Stop countdown and check.">
<polygon fill="white" stroke="black" points="585.39,-37.5 585.39,-55.5 676.44,-55.5 676.44,-37.5 585.39,-37.5"/>
<text text-anchor="middle" x="630.92" y="-43.5" font-family="Helvetica,sans-Serif" font-size="10.00">Countdown::stop</text>
</a>
</g>
</g>
<!-- Node25&#45;&gt;Node27 -->
<g id="edge28" class="edge">
<title>Node25&#45;&gt;Node27</title>
<path fill="none" stroke="midnightblue" d="M483.19,-18.55C511.02,-23.85 546.28,-30.57 575.26,-36.09"/>
<polygon fill="midnightblue" stroke="midnightblue" points="574.75,-39.55 585.22,-37.99 576.06,-32.68 574.75,-39.55"/>
</g>
<!-- Node26&#45;&gt;Node6 -->
<g id="edge27" class="edge">
<title>Node26&#45;&gt;Node6</title>
<path fill="none" stroke="midnightblue" d="M695.25,-18.54C699.32,-20.95 703.04,-23.89 706.17,-27.5 764.13,-94.24 787.36,-751.24 791.54,-886.3"/>
<polygon fill="midnightblue" stroke="midnightblue" points="788.05,-886.54 791.85,-896.43 795.04,-886.33 788.05,-886.54"/>
</g>
<!-- Node28&#45;&gt;Node27 -->
<g id="edge31" class="edge">
<title>Node28&#45;&gt;Node27</title>
<path fill="none" stroke="midnightblue" d="M519.74,-46.5C538.42,-46.5 557.76,-46.5 574.92,-46.5"/>
<polygon fill="midnightblue" stroke="midnightblue" points="575.3,-50 585.3,-46.5 575.3,-43 575.3,-50"/>
</g>
<!-- Node29 -->
<g id="node29" class="node">
<title>Node29</title>
<g id="a_node29"><a xlink:href="class_countdown.xhtml#a0b422db7af35db7b4f1ccee7ff6e515a" target="_top" xlink:title="Show countdown status.">
<polygon fill="white" stroke="black" points="577.62,-74.5 577.62,-92.5 684.22,-92.5 684.22,-74.5 577.62,-74.5"/>
<text text-anchor="middle" x="630.92" y="-80.5" font-family="Helvetica,sans-Serif" font-size="10.00">Countdown::isActive</text>
</a>
</g>
</g>
<!-- Node28&#45;&gt;Node29 -->
<g id="edge30" class="edge">
<title>Node28&#45;&gt;Node29</title>
<path fill="none" stroke="midnightblue" d="M483.19,-55.55C510.1,-60.68 543.95,-67.13 572.36,-72.54"/>
<polygon fill="midnightblue" stroke="midnightblue" points="572.08,-76.05 582.56,-74.48 573.39,-69.17 572.08,-76.05"/>
</g>
<!-- Node31 -->
<g id="node31" class="node">
<title>Node31</title>
<g id="a_node31"><a xlink:href="class_preferences.xhtml#a653e46e61dfaa3ec7b199778ca098dd1" target="_top" xlink:title="Check if application is installed and available.">
<polygon fill="white" stroke="black" points="569.28,-1081.5 569.28,-1109.5 692.56,-1109.5 692.56,-1081.5 569.28,-1081.5"/>
<text text-anchor="start" x="577.28" y="-1097.5" font-family="Helvetica,sans-Serif" font-size="10.00">Preferences::application</text>
<text text-anchor="middle" x="630.92" y="-1087.5" font-family="Helvetica,sans-Serif" font-size="10.00">Available</text>
</a>
</g>
</g>
<!-- Node30&#45;&gt;Node31 -->
<g id="edge33" class="edge">
<title>Node30&#45;&gt;Node31</title>
<path fill="none" stroke="midnightblue" d="M487.22,-1070.52C509.25,-1074.38 535.32,-1078.94 559.12,-1083.11"/>
<polygon fill="midnightblue" stroke="midnightblue" points="558.7,-1086.59 569.16,-1084.86 559.91,-1079.69 558.7,-1086.59"/>
</g>
<!-- Node32 -->
<g id="node32" class="node">
<title>Node32</title>
<g id="a_node32"><a xlink:href="class_preferences.xhtml#a512d98485496a33c8eeae5a2bc2d3964" target="_top" xlink:title="Read gphoto2 / libgphoto2 version and camera model.">
<polygon fill="white" stroke="black" points="569.55,-1044.5 569.55,-1062.5 692.29,-1062.5 692.29,-1044.5 569.55,-1044.5"/>
<text text-anchor="middle" x="630.92" y="-1050.5" font-family="Helvetica,sans-Serif" font-size="10.00">Preferences::gphotoInfo</text>
</a>
</g>
</g>
<!-- Node30&#45;&gt;Node32 -->
<g id="edge34" class="edge">
<title>Node30&#45;&gt;Node32</title>
<path fill="none" stroke="midnightblue" d="M508.83,-1058.49C525.4,-1057.8 542.95,-1057.08 559.41,-1056.4"/>
<polygon fill="midnightblue" stroke="midnightblue" points="559.64,-1059.9 569.49,-1055.99 559.36,-1052.9 559.64,-1059.9"/>
</g>
</g>
</svg>
