<?xml version="1.0" encoding="UTF-8" standalone="no"?>
<!DOCTYPE svg PUBLIC "-//W3C//DTD SVG 1.1//EN"
 "http://www.w3.org/Graphics/SVG/1.1/DTD/svg11.dtd">
<!-- Generated by graphviz version 2.42.3 (20191010.1750)
 -->
<!-- Title: Preferences::stopCountdownMode Pages: 1 -->
<svg width="321pt" height="64pt"
 viewBox="0.00 0.00 320.58 64.00" xmlns="http://www.w3.org/2000/svg" xmlns:xlink="http://www.w3.org/1999/xlink">
<g id="graph0" class="graph" transform="scale(1 1) rotate(0) translate(4 60)">
<title>Preferences::stopCountdownMode</title>
<polygon fill="white" stroke="transparent" points="-4,4 -4,-60 316.58,-60 316.58,4 -4,4"/>
<!-- Node1 -->
<g id="node1" class="node">
<title>Node1</title>
<g id="a_node1"><a xlink:title="Stop countdown, stop mouse tracking and set normal window title name.">
<polygon fill="#bfbfbf" stroke="black" points="0,-18.5 0,-36.5 169.98,-36.5 169.98,-18.5 0,-18.5"/>
<text text-anchor="middle" x="84.99" y="-24.5" font-family="Helvetica,sans-Serif" font-size="10.00">Preferences::stopCountdownMode</text>
</a>
</g>
</g>
<!-- Node2 -->
<g id="node2" class="node">
<title>Node2</title>
<g id="a_node2"><a xlink:href="class_countdown.xhtml#a0b422db7af35db7b4f1ccee7ff6e515a" target="_top" xlink:title="Show countdown status.">
<polygon fill="white" stroke="black" points="205.98,-37.5 205.98,-55.5 312.58,-55.5 312.58,-37.5 205.98,-37.5"/>
<text text-anchor="middle" x="259.28" y="-43.5" font-family="Helvetica,sans-Serif" font-size="10.00">Countdown::isActive</text>
</a>
</g>
</g>
<!-- Node1&#45;&gt;Node2 -->
<g id="edge1" class="edge">
<title>Node1&#45;&gt;Node2</title>
<path fill="none" stroke="midnightblue" d="M167.85,-36.53C177.18,-37.56 186.59,-38.59 195.62,-39.59"/>
<polygon fill="midnightblue" stroke="midnightblue" points="195.31,-43.08 205.63,-40.69 196.07,-36.12 195.31,-43.08"/>
</g>
<!-- Node3 -->
<g id="node3" class="node">
<title>Node3</title>
<g id="a_node3"><a xlink:href="class_countdown.xhtml#a1d2e91a257e7867874a501c8565fcbdc" target="_top" xlink:title="Stop countdown and check.">
<polygon fill="white" stroke="black" points="213.76,-0.5 213.76,-18.5 304.8,-18.5 304.8,-0.5 213.76,-0.5"/>
<text text-anchor="middle" x="259.28" y="-6.5" font-family="Helvetica,sans-Serif" font-size="10.00">Countdown::stop</text>
</a>
</g>
</g>
<!-- Node1&#45;&gt;Node3 -->
<g id="edge2" class="edge">
<title>Node1&#45;&gt;Node3</title>
<path fill="none" stroke="midnightblue" d="M170.12,-18.71C181.51,-17.52 192.95,-16.33 203.64,-15.21"/>
<polygon fill="midnightblue" stroke="midnightblue" points="204.05,-18.68 213.63,-14.16 203.32,-11.72 204.05,-18.68"/>
</g>
</g>
</svg>
