<?xml version="1.0" encoding="UTF-8" standalone="no"?>
<!DOCTYPE svg PUBLIC "-//W3C//DTD SVG 1.1//EN"
 "http://www.w3.org/Graphics/SVG/1.1/DTD/svg11.dtd">
<!-- Generated by graphviz version 2.42.3 (20191010.1750)
 -->
<!-- Title: Buzzer Pages: 1 -->
<svg width="82pt" height="224pt"
 viewBox="0.00 0.00 82.36 224.00" xmlns="http://www.w3.org/2000/svg" xmlns:xlink="http://www.w3.org/1999/xlink">
<g id="graph0" class="graph" transform="scale(1 1) rotate(0) translate(4 220)">
<title>Buzzer</title>
<polygon fill="white" stroke="transparent" points="-4,4 -4,-220 78.36,-220 78.36,4 -4,4"/>
<!-- Node1 -->
<g id="node1" class="node">
<title>Node1</title>
<g id="a_node1"><a xlink:title="This class handles the buzzer.">
<polygon fill="#bfbfbf" stroke="black" points="0,-0.5 0,-124.5 74.36,-124.5 74.36,-0.5 0,-0.5"/>
<text text-anchor="middle" x="37.18" y="-112.5" font-family="Helvetica,sans-Serif" font-size="10.00">Buzzer</text>
<polyline fill="none" stroke="black" points="0,-106.5 74.36,-106.5 "/>
<text text-anchor="start" x="8" y="-94.5" font-family="Helvetica,sans-Serif" font-size="10.00">&#45; m_stop</text>
<polyline fill="none" stroke="black" points="0,-88.5 74.36,-88.5 "/>
<text text-anchor="start" x="8" y="-76.5" font-family="Helvetica,sans-Serif" font-size="10.00">+ Buzzer()</text>
<text text-anchor="start" x="8" y="-66.5" font-family="Helvetica,sans-Serif" font-size="10.00">+ ~Buzzer()</text>
<text text-anchor="start" x="8" y="-56.5" font-family="Helvetica,sans-Serif" font-size="10.00">+ Buzzer()</text>
<text text-anchor="start" x="8" y="-46.5" font-family="Helvetica,sans-Serif" font-size="10.00">+ operator=()</text>
<text text-anchor="start" x="8" y="-36.5" font-family="Helvetica,sans-Serif" font-size="10.00">+ Buzzer()</text>
<text text-anchor="start" x="8" y="-26.5" font-family="Helvetica,sans-Serif" font-size="10.00">+ operator=()</text>
<text text-anchor="start" x="8" y="-16.5" font-family="Helvetica,sans-Serif" font-size="10.00">+ stop()</text>
<text text-anchor="start" x="8" y="-6.5" font-family="Helvetica,sans-Serif" font-size="10.00">+ queryPin()</text>
</a>
</g>
</g>
<!-- Node2 -->
<g id="node2" class="node">
<title>Node2</title>
<g id="a_node2"><a xlink:title=" ">
<polygon fill="white" stroke="#bfbfbf" points="10.84,-161.5 10.84,-215.5 63.52,-215.5 63.52,-161.5 10.84,-161.5"/>
<text text-anchor="middle" x="37.18" y="-203.5" font-family="Helvetica,sans-Serif" font-size="10.00">QObject</text>
<polyline fill="none" stroke="#bfbfbf" points="10.84,-197.5 63.52,-197.5 "/>
<text text-anchor="middle" x="37.18" y="-185.5" font-family="Helvetica,sans-Serif" font-size="10.00"> </text>
<polyline fill="none" stroke="#bfbfbf" points="10.84,-179.5 63.52,-179.5 "/>
<text text-anchor="middle" x="37.18" y="-167.5" font-family="Helvetica,sans-Serif" font-size="10.00"> </text>
</a>
</g>
</g>
<!-- Node2&#45;&gt;Node1 -->
<g id="edge1" class="edge">
<title>Node2&#45;&gt;Node1</title>
<path fill="none" stroke="midnightblue" d="M37.18,-151.13C37.18,-142.81 37.18,-133.75 37.18,-124.71"/>
<polygon fill="none" stroke="midnightblue" points="33.68,-151.2 37.18,-161.2 40.68,-151.2 33.68,-151.2"/>
</g>
</g>
</svg>
