<?xml version="1.0" encoding="UTF-8" standalone="no"?>
<!DOCTYPE svg PUBLIC "-//W3C//DTD SVG 1.1//EN"
 "http://www.w3.org/Graphics/SVG/1.1/DTD/svg11.dtd">
<!-- Generated by graphviz version 2.42.3 (20191010.1750)
 -->
<!-- Title: PreferenceProvider::instance Pages: 1 -->
<svg width="792pt" height="435pt"
 viewBox="0.00 0.00 791.71 434.76" xmlns="http://www.w3.org/2000/svg" xmlns:xlink="http://www.w3.org/1999/xlink">
<g id="graph0" class="graph" transform="scale(1 1) rotate(0) translate(4 430.76)">
<title>PreferenceProvider::instance</title>
<polygon fill="white" stroke="transparent" points="-4,4 -4,-430.76 787.71,-430.76 787.71,4 -4,4"/>
<!-- Node1 -->
<g id="node1" class="node">
<title>Node1</title>
<g id="a_node1"><a xlink:title="get instance (Meyers Singleton)">
<polygon fill="#bfbfbf" stroke="black" points="681.55,-201.5 681.55,-229.5 783.71,-229.5 783.71,-201.5 681.55,-201.5"/>
<text text-anchor="start" x="689.55" y="-217.5" font-family="Helvetica,sans-Serif" font-size="10.00">PreferenceProvider</text>
<text text-anchor="middle" x="732.63" y="-207.5" font-family="Helvetica,sans-Serif" font-size="10.00">::instance</text>
</a>
</g>
</g>
<!-- Node2 -->
<g id="node2" class="node">
<title>Node2</title>
<g id="a_node2"><a xlink:href="class_foto_box.xhtml#a6ea2f49a55e9e59ec855578e7c9c8896" target="_top" xlink:title="With or without buttons.">
<polygon fill="white" stroke="black" points="524.22,-375.5 524.22,-393.5 615.82,-393.5 615.82,-375.5 524.22,-375.5"/>
<text text-anchor="middle" x="570.02" y="-381.5" font-family="Helvetica,sans-Serif" font-size="10.00">FotoBox::buttons</text>
</a>
</g>
</g>
<!-- Node1&#45;&gt;Node2 -->
<g id="edge1" class="edge">
<title>Node1&#45;&gt;Node2</title>
<path fill="none" stroke="midnightblue" d="M724.61,-239.64C713.51,-273.37 688.64,-334.1 645.55,-366.5 637.04,-372.9 626.57,-377.06 616.2,-379.75"/>
<polygon fill="midnightblue" stroke="midnightblue" points="728.07,-240.3 727.73,-229.71 721.39,-238.2 728.07,-240.3"/>
</g>
<!-- Node3 -->
<g id="node3" class="node">
<title>Node3</title>
<g id="a_node3"><a xlink:href="class_foto_box.xhtml#a7e0a5334bb6ff5f26443c422dae22d54" target="_top" xlink:title="FotoBox constructor.">
<polygon fill="white" stroke="black" points="341.89,-375.5 341.89,-393.5 437.92,-393.5 437.92,-375.5 341.89,-375.5"/>
<text text-anchor="middle" x="389.91" y="-381.5" font-family="Helvetica,sans-Serif" font-size="10.00">FotoBox::FotoBox</text>
</a>
</g>
</g>
<!-- Node1&#45;&gt;Node3 -->
<g id="edge13" class="edge">
<title>Node1&#45;&gt;Node3</title>
<path fill="none" stroke="midnightblue" d="M728.77,-239.79C722.38,-281.75 702.68,-366.83 645.55,-403.5 570.75,-451.52 456.92,-412.67 411.07,-393.56"/>
<polygon fill="midnightblue" stroke="midnightblue" points="732.27,-240.03 730.18,-229.64 725.34,-239.06 732.27,-240.03"/>
</g>
<!-- Node4 -->
<g id="node4" class="node">
<title>Node4</title>
<g id="a_node4"><a xlink:href="class_camera.xhtml#ae3aa4afd7a3d9ddc2bf710bc74dc293e" target="_top" xlink:title="Camera constructor.">
<polygon fill="white" stroke="black" points="523.67,-225.5 523.67,-243.5 616.36,-243.5 616.36,-225.5 523.67,-225.5"/>
<text text-anchor="middle" x="570.02" y="-231.5" font-family="Helvetica,sans-Serif" font-size="10.00">Camera::Camera</text>
</a>
</g>
</g>
<!-- Node1&#45;&gt;Node4 -->
<g id="edge3" class="edge">
<title>Node1&#45;&gt;Node4</title>
<path fill="none" stroke="midnightblue" d="M671.1,-222.66C653.02,-224.8 633.53,-227.11 616.59,-229.11"/>
<polygon fill="midnightblue" stroke="midnightblue" points="671.73,-226.11 681.25,-221.46 670.91,-219.16 671.73,-226.11"/>
</g>
<!-- Node5 -->
<g id="node5" class="node">
<title>Node5</title>
<g id="a_node5"><a xlink:href="class_preferences.xhtml#a183e931ddd91f03ac2b9cf40f8d9f434" target="_top" xlink:title="Clear directory content of the photo directory.">
<polygon fill="white" stroke="black" points="321.33,-139.5 321.33,-167.5 458.48,-167.5 458.48,-139.5 321.33,-139.5"/>
<text text-anchor="start" x="329.33" y="-155.5" font-family="Helvetica,sans-Serif" font-size="10.00">Preferences::clearDirectory</text>
<text text-anchor="middle" x="389.91" y="-145.5" font-family="Helvetica,sans-Serif" font-size="10.00">Content</text>
</a>
</g>
</g>
<!-- Node1&#45;&gt;Node5 -->
<g id="edge4" class="edge">
<title>Node1&#45;&gt;Node5</title>
<path fill="none" stroke="midnightblue" d="M691.29,-197.62C677.08,-191.97 660.84,-186.24 645.55,-182.5 583.31,-167.29 510.52,-160.01 458.74,-156.56"/>
<polygon fill="midnightblue" stroke="midnightblue" points="690.18,-200.94 700.76,-201.48 692.83,-194.46 690.18,-200.94"/>
</g>
<!-- Node6 -->
<g id="node6" class="node">
<title>Node6</title>
<g id="a_node6"><a xlink:href="class_preferences.xhtml#a36e52663dbf3006c5dcf04d89cfd672d" target="_top" xlink:title="Signal &amp; Slot connect.">
<polygon fill="white" stroke="black" points="165.39,-143.5 165.39,-161.5 285.33,-161.5 285.33,-143.5 165.39,-143.5"/>
<text text-anchor="middle" x="225.36" y="-149.5" font-family="Helvetica,sans-Serif" font-size="10.00">Preferences::connectUi</text>
</a>
</g>
</g>
<!-- Node1&#45;&gt;Node6 -->
<g id="edge7" class="edge">
<title>Node1&#45;&gt;Node6</title>
<path fill="none" stroke="midnightblue" d="M670.95,-213.01C590.51,-209 444.37,-199.24 321.33,-177.5 299,-173.55 274.24,-166.96 255.6,-161.54"/>
<polygon fill="midnightblue" stroke="midnightblue" points="671.22,-216.53 681.38,-213.52 671.56,-209.54 671.22,-216.53"/>
</g>
<!-- Node8 -->
<g id="node8" class="node">
<title>Node8</title>
<g id="a_node8"><a xlink:href="class_foto_box.xhtml#ab6131adb44137e55734eb8bb0672fd38" target="_top" xlink:title="With or without countdown.">
<polygon fill="white" stroke="black" points="516.43,-338.5 516.43,-356.5 623.6,-356.5 623.6,-338.5 516.43,-338.5"/>
<text text-anchor="middle" x="570.02" y="-344.5" font-family="Helvetica,sans-Serif" font-size="10.00">FotoBox::countdown</text>
</a>
</g>
</g>
<!-- Node1&#45;&gt;Node8 -->
<g id="edge8" class="edge">
<title>Node1&#45;&gt;Node8</title>
<path fill="none" stroke="midnightblue" d="M718.86,-238.57C704.2,-263.01 677.94,-301.12 645.55,-323.5 636.05,-330.07 624.64,-334.92 613.63,-338.47"/>
<polygon fill="midnightblue" stroke="midnightblue" points="722.06,-240.02 724.07,-229.62 716.01,-236.5 722.06,-240.02"/>
</g>
<!-- Node9 -->
<g id="node9" class="node">
<title>Node9</title>
<g id="a_node9"><a xlink:href="class_foto_box.xhtml#a78353b51782aab91a0b4eafac67be1c4" target="_top" xlink:title="trigger camera to shot a photo and try to show it">
<polygon fill="white" stroke="black" points="347.99,-319.5 347.99,-337.5 431.82,-337.5 431.82,-319.5 347.99,-319.5"/>
<text text-anchor="middle" x="389.91" y="-325.5" font-family="Helvetica,sans-Serif" font-size="10.00">FotoBox::photo</text>
</a>
</g>
</g>
<!-- Node1&#45;&gt;Node9 -->
<g id="edge17" class="edge">
<title>Node1&#45;&gt;Node9</title>
<path fill="none" stroke="midnightblue" d="M713.47,-237.01C697.47,-254.43 672.55,-278.04 645.55,-290.5 575.55,-322.81 484.26,-328.83 432.16,-329.32"/>
<polygon fill="midnightblue" stroke="midnightblue" points="716.12,-239.3 720.17,-229.51 710.9,-234.63 716.12,-239.3"/>
</g>
<!-- Node10 -->
<g id="node10" class="node">
<title>Node10</title>
<g id="a_node10"><a xlink:href="class_foto_box.xhtml#aa5ad9f8647ac290a5145ccaa2ad8cd62" target="_top" xlink:title="Draw text on the QPixmap.">
<polygon fill="white" stroke="black" points="520.61,-74.5 520.61,-92.5 619.42,-92.5 619.42,-74.5 520.61,-74.5"/>
<text text-anchor="middle" x="570.02" y="-80.5" font-family="Helvetica,sans-Serif" font-size="10.00">FotoBox::drawText</text>
</a>
</g>
</g>
<!-- Node1&#45;&gt;Node10 -->
<g id="edge12" class="edge">
<title>Node1&#45;&gt;Node10</title>
<path fill="none" stroke="midnightblue" d="M720.36,-192.26C706.45,-166.1 680.31,-124.29 645.55,-101.5 637.76,-96.39 628.66,-92.73 619.54,-90.1"/>
<polygon fill="midnightblue" stroke="midnightblue" points="717.4,-194.15 725.08,-201.44 723.62,-190.95 717.4,-194.15"/>
</g>
<!-- Node11 -->
<g id="node11" class="node">
<title>Node11</title>
<g id="a_node11"><a xlink:href="class_foto_box.xhtml#a78d1e793417f4ce20a26465271b383b1" target="_top" xlink:title="try to load the photo to QPixmap">
<polygon fill="white" stroke="black" points="518.1,-262.5 518.1,-280.5 621.94,-280.5 621.94,-262.5 518.1,-262.5"/>
<text text-anchor="middle" x="570.02" y="-268.5" font-family="Helvetica,sans-Serif" font-size="10.00">FotoBox::loadPhoto</text>
</a>
</g>
</g>
<!-- Node1&#45;&gt;Node11 -->
<g id="edge14" class="edge">
<title>Node1&#45;&gt;Node11</title>
<path fill="none" stroke="midnightblue" d="M693.73,-233.99C678.93,-240.74 661.67,-248.04 645.55,-253.5 635.59,-256.87 624.68,-259.88 614.35,-262.42"/>
<polygon fill="midnightblue" stroke="midnightblue" points="695.46,-237.04 703.06,-229.66 692.51,-230.69 695.46,-237.04"/>
</g>
<!-- Node12 -->
<g id="node12" class="node">
<title>Node12</title>
<g id="a_node12"><a xlink:href="class_foto_box.xhtml#a029f5b3b1a9c3594626dc68e8fb6b282" target="_top" xlink:title="This event handler, for event event, can be reimplemented in a subclass to receive mouse release even...">
<polygon fill="white" stroke="black" points="494.48,-37.5 494.48,-55.5 645.55,-55.5 645.55,-37.5 494.48,-37.5"/>
<text text-anchor="middle" x="570.02" y="-43.5" font-family="Helvetica,sans-Serif" font-size="10.00">FotoBox::mouseReleaseEvent</text>
</a>
</g>
</g>
<!-- Node1&#45;&gt;Node12 -->
<g id="edge16" class="edge">
<title>Node1&#45;&gt;Node12</title>
<path fill="none" stroke="midnightblue" d="M724.61,-191.36C713.51,-157.63 688.64,-96.9 645.55,-64.5 640.66,-60.82 635.12,-57.88 629.32,-55.53"/>
<polygon fill="midnightblue" stroke="midnightblue" points="721.39,-192.8 727.73,-201.29 728.07,-190.7 721.39,-192.8"/>
</g>
<!-- Node13 -->
<g id="node13" class="node">
<title>Node13</title>
<g id="a_node13"><a xlink:href="class_preferences.xhtml#a70c6489f66db193c8645fed5d4b36ac6" target="_top" xlink:title="Save the preferences to QSettings.">
<polygon fill="white" stroke="black" points="494.76,-111.5 494.76,-129.5 645.27,-129.5 645.27,-111.5 494.76,-111.5"/>
<text text-anchor="middle" x="570.02" y="-117.5" font-family="Helvetica,sans-Serif" font-size="10.00">Preferences::savePreferences</text>
</a>
</g>
</g>
<!-- Node1&#45;&gt;Node13 -->
<g id="edge18" class="edge">
<title>Node1&#45;&gt;Node13</title>
<path fill="none" stroke="midnightblue" d="M710.51,-194.15C694.04,-178.54 669.94,-157.84 645.55,-144.5 634.11,-138.24 620.76,-133.3 608.55,-129.57"/>
<polygon fill="midnightblue" stroke="midnightblue" points="708.33,-196.91 717.94,-201.35 713.19,-191.88 708.33,-196.91"/>
</g>
<!-- Node15 -->
<g id="node15" class="node">
<title>Node15</title>
<g id="a_node15"><a xlink:href="class_foto_box.xhtml#adc055fdfdbbebbb60e0c71e4c6551301" target="_top" xlink:title="FotoBox destructor.">
<polygon fill="white" stroke="black" points="519.08,-0.5 519.08,-18.5 620.96,-18.5 620.96,-0.5 519.08,-0.5"/>
<text text-anchor="middle" x="570.02" y="-6.5" font-family="Helvetica,sans-Serif" font-size="10.00">FotoBox::~FotoBox</text>
</a>
</g>
</g>
<!-- Node1&#45;&gt;Node15 -->
<g id="edge22" class="edge">
<title>Node1&#45;&gt;Node15</title>
<path fill="none" stroke="midnightblue" d="M727.58,-191.4C719.49,-151.11 697.45,-70.26 645.55,-27.5 638.57,-21.74 630.03,-17.78 621.27,-15.05"/>
<polygon fill="midnightblue" stroke="midnightblue" points="724.17,-192.23 729.46,-201.4 731.05,-190.93 724.17,-192.23"/>
</g>
<!-- Node2&#45;&gt;Node3 -->
<g id="edge2" class="edge">
<title>Node2&#45;&gt;Node3</title>
<path fill="none" stroke="midnightblue" d="M513.92,-384.5C489.61,-384.5 461.33,-384.5 438.02,-384.5"/>
<polygon fill="midnightblue" stroke="midnightblue" points="514.07,-388 524.07,-384.5 514.07,-381 514.07,-388"/>
</g>
<!-- Node5&#45;&gt;Node6 -->
<g id="edge5" class="edge">
<title>Node5&#45;&gt;Node6</title>
<path fill="none" stroke="midnightblue" d="M310.66,-153.02C302.21,-152.97 293.72,-152.91 285.56,-152.86"/>
<polygon fill="midnightblue" stroke="midnightblue" points="310.89,-156.52 320.91,-153.08 310.93,-149.52 310.89,-156.52"/>
</g>
<!-- Node7 -->
<g id="node7" class="node">
<title>Node7</title>
<g id="a_node7"><a xlink:href="class_preferences.xhtml#a137b56e8d51ff2712666f94263b2e34e" target="_top" xlink:title="Preferences constructor.">
<polygon fill="white" stroke="black" points="0,-123.5 0,-141.5 129.39,-141.5 129.39,-123.5 0,-123.5"/>
<text text-anchor="middle" x="64.69" y="-129.5" font-family="Helvetica,sans-Serif" font-size="10.00">Preferences::Preferences</text>
</a>
</g>
</g>
<!-- Node6&#45;&gt;Node7 -->
<g id="edge6" class="edge">
<title>Node6&#45;&gt;Node7</title>
<path fill="none" stroke="midnightblue" d="M155.34,-143.8C146.79,-142.72 138.08,-141.62 129.61,-140.56"/>
<polygon fill="midnightblue" stroke="midnightblue" points="154.92,-147.27 165.28,-145.05 155.79,-140.33 154.92,-147.27"/>
</g>
<!-- Node8&#45;&gt;Node3 -->
<g id="edge9" class="edge">
<title>Node8&#45;&gt;Node3</title>
<path fill="none" stroke="midnightblue" d="M515.4,-358.64C489.48,-364.02 458.77,-370.4 434.34,-375.48"/>
<polygon fill="midnightblue" stroke="midnightblue" points="516.37,-362.01 525.45,-356.55 514.94,-355.16 516.37,-362.01"/>
</g>
<!-- Node8&#45;&gt;Node9 -->
<g id="edge10" class="edge">
<title>Node8&#45;&gt;Node9</title>
<path fill="none" stroke="midnightblue" d="M525.02,-336.89C496.55,-332.7 459.74,-328.82 431.89,-327.09"/>
<polygon fill="midnightblue" stroke="midnightblue" points="524.68,-340.38 535.1,-338.45 525.75,-333.46 524.68,-340.38"/>
</g>
<!-- Node9&#45;&gt;Node8 -->
<g id="edge11" class="edge">
<title>Node9&#45;&gt;Node8</title>
<path fill="none" stroke="midnightblue" d="M434.7,-339.08C459.28,-342.7 490.13,-346.1 516.06,-348.08"/>
<polygon fill="midnightblue" stroke="midnightblue" points="435,-335.58 424.58,-337.51 433.93,-342.5 435,-335.58"/>
</g>
<!-- Node11&#45;&gt;Node9 -->
<g id="edge15" class="edge">
<title>Node11&#45;&gt;Node9</title>
<path fill="none" stroke="midnightblue" d="M530.91,-283.7C497.43,-294.41 449.49,-309.75 419.29,-319.42"/>
<polygon fill="midnightblue" stroke="midnightblue" points="532.34,-286.91 540.8,-280.53 530.2,-280.25 532.34,-286.91"/>
</g>
<!-- Node14 -->
<g id="node14" class="node">
<title>Node14</title>
<g id="a_node14"><a xlink:href="class_preferences.xhtml#a4f0c2844c169369eacff4a6c004b2d7d" target="_top" xlink:title="Start the FotoBox.">
<polygon fill="white" stroke="black" points="323.82,-102.5 323.82,-120.5 455.99,-120.5 455.99,-102.5 323.82,-102.5"/>
<text text-anchor="middle" x="389.91" y="-108.5" font-family="Helvetica,sans-Serif" font-size="10.00">Preferences::startFotoBox</text>
</a>
</g>
</g>
<!-- Node13&#45;&gt;Node14 -->
<g id="edge19" class="edge">
<title>Node13&#45;&gt;Node14</title>
<path fill="none" stroke="midnightblue" d="M484.27,-116.22C474.78,-115.74 465.23,-115.26 456.05,-114.79"/>
<polygon fill="midnightblue" stroke="midnightblue" points="484.35,-119.73 494.51,-116.74 484.7,-112.74 484.35,-119.73"/>
</g>
<!-- Node14&#45;&gt;Node6 -->
<g id="edge20" class="edge">
<title>Node14&#45;&gt;Node6</title>
<path fill="none" stroke="midnightblue" d="M342.96,-123.09C317.31,-129.56 285.83,-137.5 262.05,-143.5"/>
<polygon fill="midnightblue" stroke="midnightblue" points="343.99,-126.44 352.83,-120.6 342.28,-119.65 343.99,-126.44"/>
</g>
<!-- Node14&#45;&gt;Node7 -->
<g id="edge21" class="edge">
<title>Node14&#45;&gt;Node7</title>
<path fill="none" stroke="midnightblue" d="M313.32,-116.41C257.53,-120.04 182.44,-124.91 129.63,-128.35"/>
<polygon fill="midnightblue" stroke="midnightblue" points="313.75,-119.89 323.5,-115.75 313.29,-112.91 313.75,-119.89"/>
</g>
</g>
</svg>
