<?xml version="1.0" encoding="UTF-8" standalone="no"?>
<!DOCTYPE svg PUBLIC "-//W3C//DTD SVG 1.1//EN"
 "http://www.w3.org/Graphics/SVG/1.1/DTD/svg11.dtd">
<!-- Generated by graphviz version 2.42.3 (20191010.1750)
 -->
<!-- Title: Countdown::setStartTime Pages: 1 -->
<svg width="412pt" height="64pt"
 viewBox="0.00 0.00 411.67 64.00" xmlns="http://www.w3.org/2000/svg" xmlns:xlink="http://www.w3.org/1999/xlink">
<g id="graph0" class="graph" transform="scale(1 1) rotate(0) translate(4 60)">
<title>Countdown::setStartTime</title>
<polygon fill="white" stroke="transparent" points="-4,4 -4,-60 407.67,-60 407.67,4 -4,4"/>
<!-- Node1 -->
<g id="node1" class="node">
<title>Node1</title>
<g id="a_node1"><a xlink:title="Set the countdown start time.">
<polygon fill="#bfbfbf" stroke="black" points="275.21,-0.5 275.21,-18.5 403.67,-18.5 403.67,-0.5 275.21,-0.5"/>
<text text-anchor="middle" x="339.44" y="-6.5" font-family="Helvetica,sans-Serif" font-size="10.00">Countdown::setStartTime</text>
</a>
</g>
</g>
<!-- Node2 -->
<g id="node2" class="node">
<title>Node2</title>
<g id="a_node2"><a xlink:href="class_foto_box.xhtml#ab6131adb44137e55734eb8bb0672fd38" target="_top" xlink:title="With or without countdown.">
<polygon fill="white" stroke="black" points="132.04,-0.5 132.04,-18.5 239.21,-18.5 239.21,-0.5 132.04,-0.5"/>
<text text-anchor="middle" x="185.62" y="-6.5" font-family="Helvetica,sans-Serif" font-size="10.00">FotoBox::countdown</text>
</a>
</g>
</g>
<!-- Node1&#45;&gt;Node2 -->
<g id="edge1" class="edge">
<title>Node1&#45;&gt;Node2</title>
<path fill="none" stroke="midnightblue" d="M264.85,-9.5C256.23,-9.5 247.56,-9.5 239.3,-9.5"/>
<polygon fill="midnightblue" stroke="midnightblue" points="264.93,-13 274.93,-9.5 264.93,-6 264.93,-13"/>
</g>
<!-- Node3 -->
<g id="node3" class="node">
<title>Node3</title>
<g id="a_node3"><a xlink:href="class_foto_box.xhtml#a7e0a5334bb6ff5f26443c422dae22d54" target="_top" xlink:title="FotoBox constructor.">
<polygon fill="white" stroke="black" points="0,-37.5 0,-55.5 96.04,-55.5 96.04,-37.5 0,-37.5"/>
<text text-anchor="middle" x="48.02" y="-43.5" font-family="Helvetica,sans-Serif" font-size="10.00">FotoBox::FotoBox</text>
</a>
</g>
</g>
<!-- Node2&#45;&gt;Node3 -->
<g id="edge2" class="edge">
<title>Node2&#45;&gt;Node3</title>
<path fill="none" stroke="midnightblue" d="M141.73,-21.2C122.53,-26.44 100.23,-32.53 82.32,-37.41"/>
<polygon fill="midnightblue" stroke="midnightblue" points="142.72,-24.56 151.45,-18.55 140.88,-17.81 142.72,-24.56"/>
</g>
<!-- Node4 -->
<g id="node4" class="node">
<title>Node4</title>
<g id="a_node4"><a xlink:href="class_foto_box.xhtml#a78353b51782aab91a0b4eafac67be1c4" target="_top" xlink:title="trigger camera to shot a photo and try to show it">
<polygon fill="white" stroke="black" points="6.11,-0.5 6.11,-18.5 89.93,-18.5 89.93,-0.5 6.11,-0.5"/>
<text text-anchor="middle" x="48.02" y="-6.5" font-family="Helvetica,sans-Serif" font-size="10.00">FotoBox::photo</text>
</a>
</g>
</g>
<!-- Node2&#45;&gt;Node4 -->
<g id="edge3" class="edge">
<title>Node2&#45;&gt;Node4</title>
<path fill="none" stroke="midnightblue" d="M121.64,-2.77C110.94,-2.7 100.09,-2.86 90.14,-3.24"/>
<polygon fill="midnightblue" stroke="midnightblue" points="121.76,-6.27 131.81,-2.9 121.85,0.73 121.76,-6.27"/>
</g>
<!-- Node4&#45;&gt;Node2 -->
<g id="edge4" class="edge">
<title>Node4&#45;&gt;Node2</title>
<path fill="none" stroke="midnightblue" d="M100.25,-16.07C110.57,-16.3 121.43,-16.31 131.81,-16.1"/>
<polygon fill="midnightblue" stroke="midnightblue" points="100.25,-12.57 90.14,-15.76 100.03,-19.56 100.25,-12.57"/>
</g>
</g>
</svg>
