<?xml version="1.0" encoding="UTF-8" standalone="no"?>
<!DOCTYPE svg PUBLIC "-//W3C//DTD SVG 1.1//EN"
 "http://www.w3.org/Graphics/SVG/1.1/DTD/svg11.dtd">
<!-- Generated by graphviz version 2.42.3 (20191010.1750)
 -->
<!-- Title: FotoBox::~FotoBox Pages: 1 -->
<svg width="248pt" height="74pt"
 viewBox="0.00 0.00 248.03 74.00" xmlns="http://www.w3.org/2000/svg" xmlns:xlink="http://www.w3.org/1999/xlink">
<g id="graph0" class="graph" transform="scale(1 1) rotate(0) translate(4 70)">
<title>FotoBox::~FotoBox</title>
<polygon fill="white" stroke="transparent" points="-4,4 -4,-70 244.03,-70 244.03,4 -4,4"/>
<!-- Node1 -->
<g id="node1" class="node">
<title>Node1</title>
<g id="a_node1"><a xlink:title="FotoBox destructor.">
<polygon fill="#bfbfbf" stroke="black" points="0,-21.5 0,-39.5 101.88,-39.5 101.88,-21.5 0,-21.5"/>
<text text-anchor="middle" x="50.94" y="-27.5" font-family="Helvetica,sans-Serif" font-size="10.00">FotoBox::~FotoBox</text>
</a>
</g>
</g>
<!-- Node2 -->
<g id="node2" class="node">
<title>Node2</title>
<g id="a_node2"><a xlink:href="class_preference_provider.xhtml#a1bbf00bcafe7e0d8f4adf991a51a4656" target="_top" xlink:title="get instance (Meyers Singleton)">
<polygon fill="white" stroke="black" points="137.88,-37.5 137.88,-65.5 240.03,-65.5 240.03,-37.5 137.88,-37.5"/>
<text text-anchor="start" x="145.88" y="-53.5" font-family="Helvetica,sans-Serif" font-size="10.00">PreferenceProvider</text>
<text text-anchor="middle" x="188.96" y="-43.5" font-family="Helvetica,sans-Serif" font-size="10.00">::instance</text>
</a>
</g>
</g>
<!-- Node1&#45;&gt;Node2 -->
<g id="edge1" class="edge">
<title>Node1&#45;&gt;Node2</title>
<path fill="none" stroke="midnightblue" d="M102.2,-38.26C110.38,-39.52 118.92,-40.84 127.32,-42.14"/>
<polygon fill="midnightblue" stroke="midnightblue" points="127.03,-45.63 137.45,-43.7 128.1,-38.72 127.03,-45.63"/>
</g>
<!-- Node3 -->
<g id="node3" class="node">
<title>Node3</title>
<g id="a_node3"><a xlink:href="class_buzzer.xhtml#acbb32df95ae1af7d4ba9bb01dc9e3b20" target="_top" xlink:title="Stop executing.">
<polygon fill="white" stroke="black" points="153.16,-0.5 153.16,-18.5 224.75,-18.5 224.75,-0.5 153.16,-0.5"/>
<text text-anchor="middle" x="188.96" y="-6.5" font-family="Helvetica,sans-Serif" font-size="10.00">Buzzer::stop</text>
</a>
</g>
</g>
<!-- Node1&#45;&gt;Node3 -->
<g id="edge2" class="edge">
<title>Node1&#45;&gt;Node3</title>
<path fill="none" stroke="midnightblue" d="M102.2,-22.74C115.46,-20.69 129.68,-18.5 142.66,-16.49"/>
<polygon fill="midnightblue" stroke="midnightblue" points="143.41,-19.92 152.75,-14.93 142.34,-13 143.41,-19.92"/>
</g>
</g>
</svg>
