<?xml version="1.0" encoding="UTF-8" standalone="no"?>
<!DOCTYPE svg PUBLIC "-//W3C//DTD SVG 1.1//EN"
 "http://www.w3.org/Graphics/SVG/1.1/DTD/svg11.dtd">
<!-- Generated by graphviz version 2.42.3 (20191010.1750)
 -->
<!-- Title: Countdown::stop Pages: 1 -->
<svg width="794pt" height="214pt"
 viewBox="0.00 0.00 793.97 214.00" xmlns="http://www.w3.org/2000/svg" xmlns:xlink="http://www.w3.org/1999/xlink">
<g id="graph0" class="graph" transform="scale(1 1) rotate(0) translate(4 210)">
<title>Countdown::stop</title>
<polygon fill="white" stroke="transparent" points="-4,4 -4,-210 789.97,-210 789.97,4 -4,4"/>
<!-- Node1 -->
<g id="node1" class="node">
<title>Node1</title>
<g id="a_node1"><a xlink:title="Stop countdown and check.">
<polygon fill="#bfbfbf" stroke="black" points="694.92,-73.5 694.92,-91.5 785.97,-91.5 785.97,-73.5 694.92,-73.5"/>
<text text-anchor="middle" x="740.44" y="-79.5" font-family="Helvetica,sans-Serif" font-size="10.00">Countdown::stop</text>
</a>
</g>
</g>
<!-- Node2 -->
<g id="node2" class="node">
<title>Node2</title>
<g id="a_node2"><a xlink:href="class_countdown.xhtml#ad40778dc0f3575a3e04a8270d4e0d13e" target="_top" xlink:title="Reset countdown (reset.">
<polygon fill="white" stroke="black" points="526.74,-150.5 526.74,-168.5 621.12,-168.5 621.12,-150.5 526.74,-150.5"/>
<text text-anchor="middle" x="573.93" y="-156.5" font-family="Helvetica,sans-Serif" font-size="10.00">Countdown::reset</text>
</a>
</g>
</g>
<!-- Node1&#45;&gt;Node2 -->
<g id="edge1" class="edge">
<title>Node1&#45;&gt;Node2</title>
<path fill="none" stroke="midnightblue" d="M710.78,-96.08C695.42,-103.34 676.15,-112.44 658.92,-120.5 636.93,-130.79 611.66,-142.51 594.63,-150.39"/>
<polygon fill="midnightblue" stroke="midnightblue" points="712.72,-99.03 720.26,-91.59 709.72,-92.71 712.72,-99.03"/>
</g>
<!-- Node7 -->
<g id="node7" class="node">
<title>Node7</title>
<g id="a_node7"><a xlink:href="class_preferences.xhtml#a4f0c2844c169369eacff4a6c004b2d7d" target="_top" xlink:title="Start the FotoBox.">
<polygon fill="white" stroke="black" points="507.85,-92.5 507.85,-110.5 640.01,-110.5 640.01,-92.5 507.85,-92.5"/>
<text text-anchor="middle" x="573.93" y="-98.5" font-family="Helvetica,sans-Serif" font-size="10.00">Preferences::startFotoBox</text>
</a>
</g>
</g>
<!-- Node1&#45;&gt;Node7 -->
<g id="edge8" class="edge">
<title>Node1&#45;&gt;Node7</title>
<path fill="none" stroke="midnightblue" d="M684.41,-88.86C670.23,-90.49 654.83,-92.27 640.19,-93.96"/>
<polygon fill="midnightblue" stroke="midnightblue" points="684.96,-92.32 694.49,-87.69 684.15,-85.36 684.96,-92.32"/>
</g>
<!-- Node10 -->
<g id="node10" class="node">
<title>Node10</title>
<g id="a_node10"><a xlink:href="class_preferences.xhtml#a1dcf663eabce314027a86d17d1d4867b" target="_top" xlink:title="Stop countdown, stop mouse tracking and set normal window title name.">
<polygon fill="white" stroke="black" points="488.94,-55.5 488.94,-73.5 658.92,-73.5 658.92,-55.5 488.94,-55.5"/>
<text text-anchor="middle" x="573.93" y="-61.5" font-family="Helvetica,sans-Serif" font-size="10.00">Preferences::stopCountdownMode</text>
</a>
</g>
</g>
<!-- Node1&#45;&gt;Node10 -->
<g id="edge12" class="edge">
<title>Node1&#45;&gt;Node10</title>
<path fill="none" stroke="midnightblue" d="M684.51,-76.49C675.81,-75.54 666.64,-74.53 657.47,-73.53"/>
<polygon fill="midnightblue" stroke="midnightblue" points="684.17,-79.97 694.49,-77.58 684.93,-73.01 684.17,-79.97"/>
</g>
<!-- Node12 -->
<g id="node12" class="node">
<title>Node12</title>
<g id="a_node12"><a xlink:href="class_countdown.xhtml#a9098d9aba8a5e4841f93ca30414c78b0" target="_top" xlink:title="Start the timer until there is no time left, means.">
<polygon fill="white" stroke="black" points="503.29,-18.5 503.29,-36.5 644.56,-36.5 644.56,-18.5 503.29,-18.5"/>
<text text-anchor="middle" x="573.93" y="-24.5" font-family="Helvetica,sans-Serif" font-size="10.00">Countdown::updateTimeLeft</text>
</a>
</g>
</g>
<!-- Node1&#45;&gt;Node12 -->
<g id="edge15" class="edge">
<title>Node1&#45;&gt;Node12</title>
<path fill="none" stroke="midnightblue" d="M712.52,-68.85C697.12,-61.46 677.27,-52.61 658.92,-46.5 647.29,-42.63 634.49,-39.29 622.47,-36.53"/>
<polygon fill="midnightblue" stroke="midnightblue" points="711.42,-72.21 721.94,-73.46 714.49,-65.92 711.42,-72.21"/>
</g>
<!-- Node3 -->
<g id="node3" class="node">
<title>Node3</title>
<g id="a_node3"><a xlink:href="class_foto_box.xhtml#a78353b51782aab91a0b4eafac67be1c4" target="_top" xlink:title="trigger camera to shot a photo and try to show it">
<polygon fill="white" stroke="black" points="333.27,-187.5 333.27,-205.5 417.09,-205.5 417.09,-187.5 333.27,-187.5"/>
<text text-anchor="middle" x="375.18" y="-193.5" font-family="Helvetica,sans-Serif" font-size="10.00">FotoBox::photo</text>
</a>
</g>
</g>
<!-- Node2&#45;&gt;Node3 -->
<g id="edge2" class="edge">
<title>Node2&#45;&gt;Node3</title>
<path fill="none" stroke="midnightblue" d="M516.29,-170.15C484.61,-176.11 445.85,-183.4 417.14,-188.8"/>
<polygon fill="midnightblue" stroke="midnightblue" points="517.12,-173.56 526.3,-168.27 515.83,-166.68 517.12,-173.56"/>
</g>
<!-- Node6 -->
<g id="node6" class="node">
<title>Node6</title>
<g id="a_node6"><a xlink:href="class_countdown.xhtml#a2c047ed2997b0d933b18ead33b3a6a5e" target="_top" xlink:title="Set the countdown start time.">
<polygon fill="white" stroke="black" points="310.95,-150.5 310.95,-168.5 439.41,-168.5 439.41,-150.5 310.95,-150.5"/>
<text text-anchor="middle" x="375.18" y="-156.5" font-family="Helvetica,sans-Serif" font-size="10.00">Countdown::setStartTime</text>
</a>
</g>
</g>
<!-- Node2&#45;&gt;Node6 -->
<g id="edge6" class="edge">
<title>Node2&#45;&gt;Node6</title>
<path fill="none" stroke="midnightblue" d="M516.3,-159.5C492.31,-159.5 464.27,-159.5 439.59,-159.5"/>
<polygon fill="midnightblue" stroke="midnightblue" points="516.3,-163 526.3,-159.5 516.3,-156 516.3,-163"/>
</g>
<!-- Node4 -->
<g id="node4" class="node">
<title>Node4</title>
<g id="a_node4"><a xlink:href="class_foto_box.xhtml#ab6131adb44137e55734eb8bb0672fd38" target="_top" xlink:title="With or without countdown.">
<polygon fill="white" stroke="black" points="143.15,-187.5 143.15,-205.5 250.32,-205.5 250.32,-187.5 143.15,-187.5"/>
<text text-anchor="middle" x="196.73" y="-193.5" font-family="Helvetica,sans-Serif" font-size="10.00">FotoBox::countdown</text>
</a>
</g>
</g>
<!-- Node3&#45;&gt;Node4 -->
<g id="edge3" class="edge">
<title>Node3&#45;&gt;Node4</title>
<path fill="none" stroke="midnightblue" d="M323.1,-190.31C300.31,-189.58 273.48,-189.56 250.49,-190.26"/>
<polygon fill="midnightblue" stroke="midnightblue" points="323.13,-193.82 333.26,-190.7 323.4,-186.82 323.13,-193.82"/>
</g>
<!-- Node4&#45;&gt;Node3 -->
<g id="edge5" class="edge">
<title>Node4&#45;&gt;Node3</title>
<path fill="none" stroke="midnightblue" d="M260.65,-203C284.79,-203.49 311.7,-203.26 333.26,-202.3"/>
<polygon fill="midnightblue" stroke="midnightblue" points="260.58,-199.49 250.49,-202.74 260.4,-206.49 260.58,-199.49"/>
</g>
<!-- Node5 -->
<g id="node5" class="node">
<title>Node5</title>
<g id="a_node5"><a xlink:href="class_foto_box.xhtml#a7e0a5334bb6ff5f26443c422dae22d54" target="_top" xlink:title="FotoBox constructor.">
<polygon fill="white" stroke="black" points="0,-187.5 0,-205.5 96.04,-205.5 96.04,-187.5 0,-187.5"/>
<text text-anchor="middle" x="48.02" y="-193.5" font-family="Helvetica,sans-Serif" font-size="10.00">FotoBox::FotoBox</text>
</a>
</g>
</g>
<!-- Node4&#45;&gt;Node5 -->
<g id="edge4" class="edge">
<title>Node4&#45;&gt;Node5</title>
<path fill="none" stroke="midnightblue" d="M132.59,-196.5C120.34,-196.5 107.7,-196.5 96.07,-196.5"/>
<polygon fill="midnightblue" stroke="midnightblue" points="132.77,-200 142.77,-196.5 132.77,-193 132.77,-200"/>
</g>
<!-- Node6&#45;&gt;Node4 -->
<g id="edge7" class="edge">
<title>Node6&#45;&gt;Node4</title>
<path fill="none" stroke="midnightblue" d="M321.07,-170.64C295.39,-176.02 264.96,-182.4 240.76,-187.48"/>
<polygon fill="midnightblue" stroke="midnightblue" points="321.95,-174.03 331.02,-168.55 320.51,-167.18 321.95,-174.03"/>
</g>
<!-- Node8 -->
<g id="node8" class="node">
<title>Node8</title>
<g id="a_node8"><a xlink:href="class_preferences.xhtml#a36e52663dbf3006c5dcf04d89cfd672d" target="_top" xlink:title="Signal &amp; Slot connect.">
<polygon fill="white" stroke="black" points="315.21,-74.5 315.21,-92.5 435.15,-92.5 435.15,-74.5 315.21,-74.5"/>
<text text-anchor="middle" x="375.18" y="-80.5" font-family="Helvetica,sans-Serif" font-size="10.00">Preferences::connectUi</text>
</a>
</g>
</g>
<!-- Node7&#45;&gt;Node8 -->
<g id="edge9" class="edge">
<title>Node7&#45;&gt;Node8</title>
<path fill="none" stroke="midnightblue" d="M497.68,-94.62C477.01,-92.72 454.9,-90.7 435.28,-88.91"/>
<polygon fill="midnightblue" stroke="midnightblue" points="497.41,-98.11 507.69,-95.53 498.05,-91.13 497.41,-98.11"/>
</g>
<!-- Node9 -->
<g id="node9" class="node">
<title>Node9</title>
<g id="a_node9"><a xlink:href="class_preferences.xhtml#a137b56e8d51ff2712666f94263b2e34e" target="_top" xlink:title="Preferences constructor.">
<polygon fill="white" stroke="black" points="132.04,-93.5 132.04,-111.5 261.43,-111.5 261.43,-93.5 132.04,-93.5"/>
<text text-anchor="middle" x="196.73" y="-99.5" font-family="Helvetica,sans-Serif" font-size="10.00">Preferences::Preferences</text>
</a>
</g>
</g>
<!-- Node7&#45;&gt;Node9 -->
<g id="edge11" class="edge">
<title>Node7&#45;&gt;Node9</title>
<path fill="none" stroke="midnightblue" d="M497.44,-102.23C482.68,-102.34 467.33,-102.44 452.94,-102.5 387.7,-102.77 313.08,-102.73 261.45,-102.65"/>
<polygon fill="midnightblue" stroke="midnightblue" points="497.57,-105.72 507.54,-102.14 497.51,-98.72 497.57,-105.72"/>
</g>
<!-- Node8&#45;&gt;Node9 -->
<g id="edge10" class="edge">
<title>Node8&#45;&gt;Node9</title>
<path fill="none" stroke="midnightblue" d="M304.74,-90.98C290.54,-92.51 275.66,-94.11 261.67,-95.62"/>
<polygon fill="midnightblue" stroke="midnightblue" points="305.37,-94.43 314.94,-89.88 304.62,-87.47 305.37,-94.43"/>
</g>
<!-- Node10&#45;&gt;Node8 -->
<g id="edge13" class="edge">
<title>Node10&#45;&gt;Node8</title>
<path fill="none" stroke="midnightblue" d="M478.7,-73.6C463.89,-75.03 448.96,-76.47 435.24,-77.8"/>
<polygon fill="midnightblue" stroke="midnightblue" points="479.3,-77.06 488.92,-72.61 478.63,-70.09 479.3,-77.06"/>
</g>
<!-- Node11 -->
<g id="node11" class="node">
<title>Node11</title>
<g id="a_node11"><a xlink:href="class_preferences.xhtml#aa50a76adea9578e5c101776ef2aaf0fa" target="_top" xlink:title="This event handler, for event event, can be reimplemented in a subclass to receive mouse move events ...">
<polygon fill="white" stroke="black" points="297.43,-37.5 297.43,-55.5 452.94,-55.5 452.94,-37.5 297.43,-37.5"/>
<text text-anchor="middle" x="375.18" y="-43.5" font-family="Helvetica,sans-Serif" font-size="10.00">Preferences::mouseMoveEvent</text>
</a>
</g>
</g>
<!-- Node10&#45;&gt;Node11 -->
<g id="edge14" class="edge">
<title>Node10&#45;&gt;Node11</title>
<path fill="none" stroke="midnightblue" d="M478.82,-55.89C470.19,-55.1 461.51,-54.31 453.06,-53.53"/>
<polygon fill="midnightblue" stroke="midnightblue" points="478.64,-59.39 488.92,-56.81 479.28,-52.42 478.64,-59.39"/>
</g>
<!-- Node13 -->
<g id="node13" class="node">
<title>Node13</title>
<g id="a_node13"><a xlink:href="class_countdown.xhtml#a2fda5be41af21076407c3a85b13b1f89" target="_top" xlink:title="Countdown constructor.">
<polygon fill="white" stroke="black" points="313.81,-0.5 313.81,-18.5 436.55,-18.5 436.55,-0.5 313.81,-0.5"/>
<text text-anchor="middle" x="375.18" y="-6.5" font-family="Helvetica,sans-Serif" font-size="10.00">Countdown::Countdown</text>
</a>
</g>
</g>
<!-- Node12&#45;&gt;Node13 -->
<g id="edge16" class="edge">
<title>Node12&#45;&gt;Node13</title>
<path fill="none" stroke="midnightblue" d="M493.21,-20.21C474.31,-18.48 454.46,-16.66 436.59,-15.03"/>
<polygon fill="midnightblue" stroke="midnightblue" points="493.01,-23.7 503.29,-21.13 493.65,-16.73 493.01,-23.7"/>
</g>
</g>
</svg>
