<?xml version="1.0" encoding="UTF-8" standalone="no"?>
<!DOCTYPE svg PUBLIC "-//W3C//DTD SVG 1.1//EN"
 "http://www.w3.org/Graphics/SVG/1.1/DTD/svg11.dtd">
<!-- Generated by graphviz version 2.42.3 (20191010.1750)
 -->
<!-- Title: FotoBox::startBuzzer Pages: 1 -->
<svg width="512pt" height="64pt"
 viewBox="0.00 0.00 512.40 64.00" xmlns="http://www.w3.org/2000/svg" xmlns:xlink="http://www.w3.org/1999/xlink">
<g id="graph0" class="graph" transform="scale(1 1) rotate(0) translate(4 60)">
<title>FotoBox::startBuzzer</title>
<polygon fill="white" stroke="transparent" points="-4,4 -4,-60 508.4,-60 508.4,4 -4,4"/>
<!-- Node1 -->
<g id="node1" class="node">
<title>Node1</title>
<g id="a_node1"><a xlink:title="signal: start query pin with Buzzer class">
<polygon fill="#bfbfbf" stroke="black" points="395.03,-19.5 395.03,-37.5 504.4,-37.5 504.4,-19.5 395.03,-19.5"/>
<text text-anchor="middle" x="449.71" y="-25.5" font-family="Helvetica,sans-Serif" font-size="10.00">FotoBox::startBuzzer</text>
</a>
</g>
</g>
<!-- Node2 -->
<g id="node2" class="node">
<title>Node2</title>
<g id="a_node2"><a xlink:href="class_foto_box.xhtml#a243e47139b6e47ac86068bbbb9785ff3" target="_top" xlink:title="creates a new Buzzer object">
<polygon fill="white" stroke="black" points="141.22,-37.5 141.22,-55.5 230.03,-55.5 230.03,-37.5 141.22,-37.5"/>
<text text-anchor="middle" x="185.62" y="-43.5" font-family="Helvetica,sans-Serif" font-size="10.00">FotoBox::buzzer</text>
</a>
</g>
</g>
<!-- Node1&#45;&gt;Node2 -->
<g id="edge1" class="edge">
<title>Node1&#45;&gt;Node2</title>
<path fill="none" stroke="midnightblue" d="M384.75,-32.89C336.74,-36.19 272.3,-40.62 230.14,-43.51"/>
<polygon fill="midnightblue" stroke="midnightblue" points="384.99,-36.38 394.73,-32.21 384.51,-29.4 384.99,-36.38"/>
</g>
<!-- Node4 -->
<g id="node4" class="node">
<title>Node4</title>
<g id="a_node4"><a xlink:href="class_foto_box.xhtml#a78353b51782aab91a0b4eafac67be1c4" target="_top" xlink:title="trigger camera to shot a photo and try to show it">
<polygon fill="white" stroke="black" points="275.21,-0.5 275.21,-18.5 359.03,-18.5 359.03,-0.5 275.21,-0.5"/>
<text text-anchor="middle" x="317.12" y="-6.5" font-family="Helvetica,sans-Serif" font-size="10.00">FotoBox::photo</text>
</a>
</g>
</g>
<!-- Node1&#45;&gt;Node4 -->
<g id="edge3" class="edge">
<title>Node1&#45;&gt;Node4</title>
<path fill="none" stroke="midnightblue" d="M384.67,-19.18C375.97,-17.92 367.24,-16.65 359.09,-15.46"/>
<polygon fill="midnightblue" stroke="midnightblue" points="384.44,-22.69 394.84,-20.66 385.45,-15.76 384.44,-22.69"/>
</g>
<!-- Node3 -->
<g id="node3" class="node">
<title>Node3</title>
<g id="a_node3"><a xlink:href="class_foto_box.xhtml#a7e0a5334bb6ff5f26443c422dae22d54" target="_top" xlink:title="FotoBox constructor.">
<polygon fill="white" stroke="black" points="0,-18.5 0,-36.5 96.04,-36.5 96.04,-18.5 0,-18.5"/>
<text text-anchor="middle" x="48.02" y="-24.5" font-family="Helvetica,sans-Serif" font-size="10.00">FotoBox::FotoBox</text>
</a>
</g>
</g>
<!-- Node2&#45;&gt;Node3 -->
<g id="edge2" class="edge">
<title>Node2&#45;&gt;Node3</title>
<path fill="none" stroke="midnightblue" d="M130.72,-38.95C119.36,-37.36 107.44,-35.69 96.34,-34.13"/>
<polygon fill="midnightblue" stroke="midnightblue" points="130.58,-42.46 140.97,-40.38 131.55,-35.53 130.58,-42.46"/>
</g>
<!-- Node5 -->
<g id="node5" class="node">
<title>Node5</title>
<g id="a_node5"><a xlink:href="class_foto_box.xhtml#ab6131adb44137e55734eb8bb0672fd38" target="_top" xlink:title="With or without countdown.">
<polygon fill="white" stroke="black" points="132.04,-0.5 132.04,-18.5 239.21,-18.5 239.21,-0.5 132.04,-0.5"/>
<text text-anchor="middle" x="185.62" y="-6.5" font-family="Helvetica,sans-Serif" font-size="10.00">FotoBox::countdown</text>
</a>
</g>
</g>
<!-- Node4&#45;&gt;Node5 -->
<g id="edge4" class="edge">
<title>Node4&#45;&gt;Node5</title>
<path fill="none" stroke="midnightblue" d="M265.14,-2.89C256.77,-2.72 248.08,-2.71 239.67,-2.85"/>
<polygon fill="midnightblue" stroke="midnightblue" points="265.05,-6.39 275.14,-3.17 265.25,0.61 265.05,-6.39"/>
</g>
<!-- Node5&#45;&gt;Node3 -->
<g id="edge5" class="edge">
<title>Node5&#45;&gt;Node3</title>
<path fill="none" stroke="midnightblue" d="M121.78,-17.84C113.16,-18.99 104.44,-20.14 96.17,-21.24"/>
<polygon fill="midnightblue" stroke="midnightblue" points="122.35,-21.3 131.81,-16.51 121.43,-14.36 122.35,-21.3"/>
</g>
<!-- Node5&#45;&gt;Node4 -->
<g id="edge6" class="edge">
<title>Node5&#45;&gt;Node4</title>
<path fill="none" stroke="midnightblue" d="M249.75,-16.25C258.38,-16.27 267.05,-16.13 275.14,-15.83"/>
<polygon fill="midnightblue" stroke="midnightblue" points="249.7,-12.75 239.67,-16.15 249.63,-19.75 249.7,-12.75"/>
</g>
</g>
</svg>
