<?xml version="1.0" encoding="UTF-8" standalone="no"?>
<!DOCTYPE svg PUBLIC "-//W3C//DTD SVG 1.1//EN"
 "http://www.w3.org/Graphics/SVG/1.1/DTD/svg11.dtd">
<!-- Generated by graphviz version 2.42.3 (20191010.1750)
 -->
<!-- Title: FotoBox::keyPressEvent Pages: 1 -->
<svg width="469pt" height="37pt"
 viewBox="0.00 0.00 468.72 37.00" xmlns="http://www.w3.org/2000/svg" xmlns:xlink="http://www.w3.org/1999/xlink">
<g id="graph0" class="graph" transform="scale(1 1) rotate(0) translate(4 33)">
<title>FotoBox::keyPressEvent</title>
<polygon fill="white" stroke="transparent" points="-4,4 -4,-33 464.72,-33 464.72,4 -4,4"/>
<!-- Node1 -->
<g id="node1" class="node">
<title>Node1</title>
<g id="a_node1"><a xlink:title="filter key press events">
<polygon fill="#bfbfbf" stroke="black" points="0,-5.5 0,-23.5 125.49,-23.5 125.49,-5.5 0,-5.5"/>
<text text-anchor="middle" x="62.75" y="-11.5" font-family="Helvetica,sans-Serif" font-size="10.00">FotoBox::keyPressEvent</text>
</a>
</g>
</g>
<!-- Node2 -->
<g id="node2" class="node">
<title>Node2</title>
<g id="a_node2"><a xlink:href="class_foto_box.xhtml#a425dffd36aa5b68a110a42c4c3a20942" target="_top" xlink:title="show preference dialog and close dialog">
<polygon fill="white" stroke="black" points="161.49,-5.5 161.49,-23.5 296.45,-23.5 296.45,-5.5 161.49,-5.5"/>
<text text-anchor="middle" x="228.97" y="-11.5" font-family="Helvetica,sans-Serif" font-size="10.00">FotoBox::preferenceDialog</text>
</a>
</g>
</g>
<!-- Node1&#45;&gt;Node2 -->
<g id="edge1" class="edge">
<title>Node1&#45;&gt;Node2</title>
<path fill="none" stroke="midnightblue" d="M125.83,-14.5C134.19,-14.5 142.84,-14.5 151.41,-14.5"/>
<polygon fill="midnightblue" stroke="midnightblue" points="151.41,-18 161.41,-14.5 151.41,-11 151.41,-18"/>
</g>
<!-- Node3 -->
<g id="node3" class="node">
<title>Node3</title>
<g id="a_node3"><a xlink:href="class_foto_box.xhtml#a222aa7e9a43bd9cb8dca55b806649b82" target="_top" xlink:title="Is used as a workaround for macOS to close a fullscreen window.">
<polygon fill="white" stroke="black" points="332.45,-0.5 332.45,-28.5 460.72,-28.5 460.72,-0.5 332.45,-0.5"/>
<text text-anchor="start" x="340.45" y="-16.5" font-family="Helvetica,sans-Serif" font-size="10.00">FotoBox::closeFullscreen</text>
<text text-anchor="middle" x="396.58" y="-6.5" font-family="Helvetica,sans-Serif" font-size="10.00">WindowOnMac</text>
</a>
</g>
</g>
<!-- Node2&#45;&gt;Node3 -->
<g id="edge2" class="edge">
<title>Node2&#45;&gt;Node3</title>
<path fill="none" stroke="midnightblue" d="M296.85,-14.5C305.15,-14.5 313.67,-14.5 322.06,-14.5"/>
<polygon fill="midnightblue" stroke="midnightblue" points="322.21,-18 332.21,-14.5 322.21,-11 322.21,-18"/>
</g>
</g>
</svg>
