<?xml version="1.0" encoding="UTF-8" standalone="no"?>
<!DOCTYPE svg PUBLIC "-//W3C//DTD SVG 1.1//EN"
 "http://www.w3.org/Graphics/SVG/1.1/DTD/svg11.dtd">
<!-- Generated by graphviz version 2.42.3 (20191010.1750)
 -->
<!-- Title: Countdown::start Pages: 1 -->
<svg width="397pt" height="101pt"
 viewBox="0.00 0.00 397.02 101.00" xmlns="http://www.w3.org/2000/svg" xmlns:xlink="http://www.w3.org/1999/xlink">
<g id="graph0" class="graph" transform="scale(1 1) rotate(0) translate(4 97)">
<title>Countdown::start</title>
<polygon fill="white" stroke="transparent" points="-4,4 -4,-97 393.02,-97 393.02,4 -4,4"/>
<!-- Node1 -->
<g id="node1" class="node">
<title>Node1</title>
<g id="a_node1"><a xlink:title="Start countdown.">
<polygon fill="#bfbfbf" stroke="black" points="297.43,-18.5 297.43,-36.5 389.02,-36.5 389.02,-18.5 297.43,-18.5"/>
<text text-anchor="middle" x="343.23" y="-24.5" font-family="Helvetica,sans-Serif" font-size="10.00">Countdown::start</text>
</a>
</g>
</g>
<!-- Node2 -->
<g id="node2" class="node">
<title>Node2</title>
<g id="a_node2"><a xlink:href="class_foto_box.xhtml#ab6131adb44137e55734eb8bb0672fd38" target="_top" xlink:title="With or without countdown.">
<polygon fill="white" stroke="black" points="143.15,-37.5 143.15,-55.5 250.32,-55.5 250.32,-37.5 143.15,-37.5"/>
<text text-anchor="middle" x="196.73" y="-43.5" font-family="Helvetica,sans-Serif" font-size="10.00">FotoBox::countdown</text>
</a>
</g>
</g>
<!-- Node1&#45;&gt;Node2 -->
<g id="edge1" class="edge">
<title>Node1&#45;&gt;Node2</title>
<path fill="none" stroke="midnightblue" d="M287.34,-34.72C275.26,-36.31 262.48,-37.99 250.48,-39.56"/>
<polygon fill="midnightblue" stroke="midnightblue" points="287.84,-38.18 297.3,-33.41 286.93,-31.24 287.84,-38.18"/>
</g>
<!-- Node5 -->
<g id="node5" class="node">
<title>Node5</title>
<g id="a_node5"><a xlink:href="class_preferences.xhtml#a137b56e8d51ff2712666f94263b2e34e" target="_top" xlink:title="Preferences constructor.">
<polygon fill="white" stroke="black" points="132.04,-0.5 132.04,-18.5 261.43,-18.5 261.43,-0.5 132.04,-0.5"/>
<text text-anchor="middle" x="196.73" y="-6.5" font-family="Helvetica,sans-Serif" font-size="10.00">Preferences::Preferences</text>
</a>
</g>
</g>
<!-- Node1&#45;&gt;Node5 -->
<g id="edge5" class="edge">
<title>Node1&#45;&gt;Node5</title>
<path fill="none" stroke="midnightblue" d="M287.23,-20.65C278.81,-19.6 270.05,-18.51 261.46,-17.44"/>
<polygon fill="midnightblue" stroke="midnightblue" points="286.94,-24.14 297.3,-21.9 287.81,-17.19 286.94,-24.14"/>
</g>
<!-- Node3 -->
<g id="node3" class="node">
<title>Node3</title>
<g id="a_node3"><a xlink:href="class_foto_box.xhtml#a7e0a5334bb6ff5f26443c422dae22d54" target="_top" xlink:title="FotoBox constructor.">
<polygon fill="white" stroke="black" points="0,-74.5 0,-92.5 96.04,-92.5 96.04,-74.5 0,-74.5"/>
<text text-anchor="middle" x="48.02" y="-80.5" font-family="Helvetica,sans-Serif" font-size="10.00">FotoBox::FotoBox</text>
</a>
</g>
</g>
<!-- Node2&#45;&gt;Node3 -->
<g id="edge2" class="edge">
<title>Node2&#45;&gt;Node3</title>
<path fill="none" stroke="midnightblue" d="M150.15,-58C129.1,-63.3 104.47,-69.51 84.79,-74.48"/>
<polygon fill="midnightblue" stroke="midnightblue" points="151,-61.39 159.84,-55.55 149.29,-54.6 151,-61.39"/>
</g>
<!-- Node4 -->
<g id="node4" class="node">
<title>Node4</title>
<g id="a_node4"><a xlink:href="class_foto_box.xhtml#a78353b51782aab91a0b4eafac67be1c4" target="_top" xlink:title="trigger camera to shot a photo and try to show it">
<polygon fill="white" stroke="black" points="6.11,-37.5 6.11,-55.5 89.93,-55.5 89.93,-37.5 6.11,-37.5"/>
<text text-anchor="middle" x="48.02" y="-43.5" font-family="Helvetica,sans-Serif" font-size="10.00">FotoBox::photo</text>
</a>
</g>
</g>
<!-- Node2&#45;&gt;Node4 -->
<g id="edge3" class="edge">
<title>Node2&#45;&gt;Node4</title>
<path fill="none" stroke="midnightblue" d="M132.41,-39.81C118.02,-39.64 103.11,-39.83 89.94,-40.37"/>
<polygon fill="midnightblue" stroke="midnightblue" points="132.71,-43.31 142.77,-39.99 132.83,-36.31 132.71,-43.31"/>
</g>
<!-- Node4&#45;&gt;Node2 -->
<g id="edge4" class="edge">
<title>Node4&#45;&gt;Node2</title>
<path fill="none" stroke="midnightblue" d="M100.21,-52.97C113.98,-53.33 128.9,-53.34 142.77,-53.01"/>
<polygon fill="midnightblue" stroke="midnightblue" points="100.05,-49.46 89.94,-52.63 99.81,-56.46 100.05,-49.46"/>
</g>
</g>
</svg>
