<?xml version="1.0" encoding="UTF-8" standalone="no"?>
<!DOCTYPE svg PUBLIC "-//W3C//DTD SVG 1.1//EN"
 "http://www.w3.org/Graphics/SVG/1.1/DTD/svg11.dtd">
<!-- Generated by graphviz version 2.42.3 (20191010.1750)
 -->
<!-- Title: Preferences::verifyApplication Pages: 1 -->
<svg width="316pt" height="74pt"
 viewBox="0.00 0.00 315.57 74.00" xmlns="http://www.w3.org/2000/svg" xmlns:xlink="http://www.w3.org/1999/xlink">
<g id="graph0" class="graph" transform="scale(1 1) rotate(0) translate(4 70)">
<title>Preferences::verifyApplication</title>
<polygon fill="white" stroke="transparent" points="-4,4 -4,-70 311.57,-70 311.57,4 -4,4"/>
<!-- Node1 -->
<g id="node1" class="node">
<title>Node1</title>
<g id="a_node1"><a xlink:title="Check camera application availability and provide help if needed.">
<polygon fill="#bfbfbf" stroke="black" points="0,-21.5 0,-39.5 148.29,-39.5 148.29,-21.5 0,-21.5"/>
<text text-anchor="middle" x="74.14" y="-27.5" font-family="Helvetica,sans-Serif" font-size="10.00">Preferences::verifyApplication</text>
</a>
</g>
</g>
<!-- Node2 -->
<g id="node2" class="node">
<title>Node2</title>
<g id="a_node2"><a xlink:href="class_preferences.xhtml#a653e46e61dfaa3ec7b199778ca098dd1" target="_top" xlink:title="Check if application is installed and available.">
<polygon fill="white" stroke="black" points="184.29,-37.5 184.29,-65.5 307.57,-65.5 307.57,-37.5 184.29,-37.5"/>
<text text-anchor="start" x="192.29" y="-53.5" font-family="Helvetica,sans-Serif" font-size="10.00">Preferences::application</text>
<text text-anchor="middle" x="245.93" y="-43.5" font-family="Helvetica,sans-Serif" font-size="10.00">Available</text>
</a>
</g>
</g>
<!-- Node1&#45;&gt;Node2 -->
<g id="edge1" class="edge">
<title>Node1&#45;&gt;Node2</title>
<path fill="none" stroke="midnightblue" d="M148.13,-39.53C156.79,-40.6 165.61,-41.69 174.24,-42.76"/>
<polygon fill="midnightblue" stroke="midnightblue" points="173.89,-46.24 184.25,-43.99 174.75,-39.29 173.89,-46.24"/>
</g>
<!-- Node3 -->
<g id="node3" class="node">
<title>Node3</title>
<g id="a_node3"><a xlink:href="class_preferences.xhtml#a512d98485496a33c8eeae5a2bc2d3964" target="_top" xlink:title="Read gphoto2 / libgphoto2 version and camera model.">
<polygon fill="white" stroke="black" points="184.56,-0.5 184.56,-18.5 307.3,-18.5 307.3,-0.5 184.56,-0.5"/>
<text text-anchor="middle" x="245.93" y="-6.5" font-family="Helvetica,sans-Serif" font-size="10.00">Preferences::gphotoInfo</text>
</a>
</g>
</g>
<!-- Node1&#45;&gt;Node3 -->
<g id="edge2" class="edge">
<title>Node1&#45;&gt;Node3</title>
<path fill="none" stroke="midnightblue" d="M148.13,-21.47C156.85,-20.39 165.75,-19.29 174.43,-18.22"/>
<polygon fill="midnightblue" stroke="midnightblue" points="175.01,-21.67 184.51,-16.97 174.15,-14.73 175.01,-21.67"/>
</g>
</g>
</svg>
