<?xml version="1.0" encoding="UTF-8" standalone="no"?>
<!DOCTYPE svg PUBLIC "-//W3C//DTD SVG 1.1//EN"
 "http://www.w3.org/Graphics/SVG/1.1/DTD/svg11.dtd">
<!-- Generated by graphviz version 2.42.3 (20191010.1750)
 -->
<!-- Title: FotoBox::photo Pages: 1 -->
<!--zoomable 197 -->
<svg id="main" version="1.1" xmlns="http://www.w3.org/2000/svg" xmlns:xlink="http://www.w3.org/1999/xlink" xml:space="preserve" onload="init(evt)">
<style type="text/css"><![CDATA[
.edge:hover path { stroke: red; }
.edge:hover polygon { stroke: red; fill: red; }
]]></style>
<script type="text/javascript"><![CDATA[
var edges = document.getElementsByTagName('g');
if (edges && edges.length) {
  for (var i=0;i<edges.length;i++) {
    if (edges[i].id.substr(0,4)=='edge') {
      edges[i].setAttribute('class','edge');
    }
  }
}
]]></script>
        <defs>
                <circle id="rim" cx="0" cy="0" r="7"/>
                <circle id="rim2" cx="0" cy="0" r="3.5"/>
                <g id="zoomPlus">
                        <use xlink:href="#rim" fill="#404040">
                                <set attributeName="fill" to="#808080" begin="zoomplus.mouseover" end="zoomplus.mouseout"/>
                        </use>
                        <path d="M-4,0h8M0,-4v8" fill="none" stroke="white" stroke-width="1.5" pointer-events="none"/>
                </g>
                <g id="zoomMin">
                        <use xlink:href="#rim" fill="#404040">
                                <set attributeName="fill" to="#808080" begin="zoomminus.mouseover" end="zoomminus.mouseout"/>
                        </use>
                        <path d="M-4,0h8" fill="none" stroke="white" stroke-width="1.5" pointer-events="none"/>
                </g>
                <g id="dirArrow">
                        <path fill="none" stroke="white" stroke-width="1.5" d="M0,-3.0v7 M-2.5,-0.5L0,-3.0L2.5,-0.5"/>
                </g>
               <g id="resetDef">
                       <use xlink:href="#rim2" fill="#404040">
                               <set attributeName="fill" to="#808080" begin="reset.mouseover" end="reset.mouseout"/>
                       </use>
               </g>
        </defs>

<script type="text/javascript">
var viewWidth = 664;
var viewHeight = 197;
var sectionId = 'dynsection-17';
</script>
<script xlink:href="svgpan.js"/>
<svg id="graph" class="graph">
<g id="viewport">
<title>FotoBox::photo</title>
<polygon fill="white" stroke="transparent" points="-4,4 -4,-192.94 660.09,-192.94 660.09,4 -4,4"/>
<!-- Node1 -->
<g id="node1" class="node">
<title>Node1</title>
<g id="a_node1"><a xlink:title="trigger camera to shot a photo and try to show it">
<polygon fill="#bfbfbf" stroke="black" points="0,-113.5 0,-131.5 83.82,-131.5 83.82,-113.5 0,-113.5"/>
<text text-anchor="middle" x="41.91" y="-119.5" font-family="Helvetica,sans-Serif" font-size="10.00">FotoBox::photo</text>
</a>
</g>
</g>
<!-- Node2 -->
<g id="node2" class="node">
<title>Node2</title>
<g id="a_node2"><a xlink:href="class_foto_box.xhtml#ab6131adb44137e55734eb8bb0672fd38" target="_top" xlink:title="With or without countdown.">
<polygon fill="white" stroke="black" points="123.43,-113.5 123.43,-131.5 230.6,-131.5 230.6,-113.5 123.43,-113.5"/>
<text text-anchor="middle" x="177.01" y="-119.5" font-family="Helvetica,sans-Serif" font-size="10.00">FotoBox::countdown</text>
</a>
</g>
</g>
<!-- Node1&#45;&gt;Node2 -->
<g id="edge1" class="edge">
<title>Node1&#45;&gt;Node2</title>
<path fill="none" stroke="midnightblue" d="M83.93,-116.21C93.12,-115.86 103.06,-115.71 112.91,-115.76"/>
<polygon fill="midnightblue" stroke="midnightblue" points="113.06,-119.26 123.1,-115.88 113.14,-112.26 113.06,-119.26"/>
</g>
<!-- Node3 -->
<g id="node3" class="node">
<title>Node3</title>
<g id="a_node3"><a xlink:href="class_preference_provider.xhtml#a1bbf00bcafe7e0d8f4adf991a51a4656" target="_top" xlink:title="get instance (Meyers Singleton)">
<polygon fill="white" stroke="black" points="283.36,-150.5 283.36,-178.5 385.51,-178.5 385.51,-150.5 283.36,-150.5"/>
<text text-anchor="start" x="291.36" y="-166.5" font-family="Helvetica,sans-Serif" font-size="10.00">PreferenceProvider</text>
<text text-anchor="middle" x="334.43" y="-156.5" font-family="Helvetica,sans-Serif" font-size="10.00">::instance</text>
</a>
</g>
</g>
<!-- Node1&#45;&gt;Node3 -->
<g id="edge9" class="edge">
<title>Node1&#45;&gt;Node3</title>
<path fill="none" stroke="midnightblue" d="M51.31,-131.5C64.42,-144.82 91.24,-169.2 119.82,-178.5 169.82,-194.77 229.8,-188.78 273.45,-180.17"/>
<polygon fill="midnightblue" stroke="midnightblue" points="274.26,-183.57 283.34,-178.12 272.84,-176.72 274.26,-183.57"/>
</g>
<!-- Node5 -->
<g id="node5" class="node">
<title>Node5</title>
<g id="a_node5"><a xlink:href="class_countdown.xhtml#ad40778dc0f3575a3e04a8270d4e0d13e" target="_top" xlink:title="Reset countdown (reset.">
<polygon fill="white" stroke="black" points="434.66,-57.5 434.66,-75.5 529.04,-75.5 529.04,-57.5 434.66,-57.5"/>
<text text-anchor="middle" x="481.85" y="-63.5" font-family="Helvetica,sans-Serif" font-size="10.00">Countdown::reset</text>
</a>
</g>
</g>
<!-- Node1&#45;&gt;Node5 -->
<g id="edge12" class="edge">
<title>Node1&#45;&gt;Node5</title>
<path fill="none" stroke="midnightblue" d="M51.31,-113.5C64.42,-100.18 91.24,-75.8 119.82,-66.5 222.93,-32.94 351.55,-44.74 424.11,-55.91"/>
<polygon fill="midnightblue" stroke="midnightblue" points="423.98,-59.44 434.4,-57.55 425.08,-52.52 423.98,-59.44"/>
</g>
<!-- Node8 -->
<g id="node8" class="node">
<title>Node8</title>
<g id="a_node8"><a xlink:href="class_camera.xhtml#a2c0bde0a61b5194f3072045d6aac2431" target="_top" xlink:title="return member">
<polygon fill="white" stroke="black" points="119.82,-76.5 119.82,-94.5 234.2,-94.5 234.2,-76.5 119.82,-76.5"/>
<text text-anchor="middle" x="177.01" y="-82.5" font-family="Helvetica,sans-Serif" font-size="10.00">Camera::currentPhoto</text>
</a>
</g>
</g>
<!-- Node1&#45;&gt;Node8 -->
<g id="edge8" class="edge">
<title>Node1&#45;&gt;Node8</title>
<path fill="none" stroke="midnightblue" d="M75.47,-113.45C92.95,-108.59 114.72,-102.54 133.52,-97.31"/>
<polygon fill="midnightblue" stroke="midnightblue" points="134.63,-100.64 143.33,-94.59 132.75,-93.89 134.63,-100.64"/>
</g>
<!-- Node9 -->
<g id="node9" class="node">
<title>Node9</title>
<g id="a_node9"><a xlink:href="class_foto_box.xhtml#a78d1e793417f4ce20a26465271b383b1" target="_top" xlink:title="try to load the photo to QPixmap">
<polygon fill="white" stroke="black" points="125.09,-150.5 125.09,-168.5 228.93,-168.5 228.93,-150.5 125.09,-150.5"/>
<text text-anchor="middle" x="177.01" y="-156.5" font-family="Helvetica,sans-Serif" font-size="10.00">FotoBox::loadPhoto</text>
</a>
</g>
</g>
<!-- Node1&#45;&gt;Node9 -->
<g id="edge10" class="edge">
<title>Node1&#45;&gt;Node9</title>
<path fill="none" stroke="midnightblue" d="M75.47,-131.55C92.95,-136.41 114.72,-142.46 133.52,-147.69"/>
<polygon fill="midnightblue" stroke="midnightblue" points="132.75,-151.11 143.33,-150.41 134.63,-144.36 132.75,-151.11"/>
</g>
<!-- Node10 -->
<g id="node10" class="node">
<title>Node10</title>
<g id="a_node10"><a xlink:href="class_camera.xhtml#acf9be518b41bd5f5f33f8e337b740704" target="_top" xlink:title="shoot a photo with gphoto2">
<polygon fill="white" stroke="black" points="123.15,-0.5 123.15,-18.5 230.87,-18.5 230.87,-0.5 123.15,-0.5"/>
<text text-anchor="middle" x="177.01" y="-6.5" font-family="Helvetica,sans-Serif" font-size="10.00">Camera::shootPhoto</text>
</a>
</g>
</g>
<!-- Node1&#45;&gt;Node10 -->
<g id="edge13" class="edge">
<title>Node1&#45;&gt;Node10</title>
<path fill="none" stroke="midnightblue" d="M48.63,-113.48C60.16,-95.93 87.83,-56.87 119.82,-33.5 125.52,-29.34 132.05,-25.72 138.6,-22.64"/>
<polygon fill="midnightblue" stroke="midnightblue" points="140.32,-25.71 148.1,-18.52 137.53,-19.29 140.32,-25.71"/>
</g>
<!-- Node2&#45;&gt;Node1 -->
<g id="edge3" class="edge">
<title>Node2&#45;&gt;Node1</title>
<path fill="none" stroke="midnightblue" d="M123.1,-129.12C113.53,-129.3 103.57,-129.29 94.05,-129.09"/>
<polygon fill="midnightblue" stroke="midnightblue" points="94.03,-125.58 83.93,-128.79 93.82,-132.58 94.03,-125.58"/>
</g>
<!-- Node2&#45;&gt;Node3 -->
<g id="edge2" class="edge">
<title>Node2&#45;&gt;Node3</title>
<path fill="none" stroke="midnightblue" d="M211.35,-131.51C229.45,-136.4 252.37,-142.59 273.45,-148.29"/>
<polygon fill="midnightblue" stroke="midnightblue" points="272.74,-151.72 283.3,-150.95 274.56,-144.97 272.74,-151.72"/>
</g>
<!-- Node4 -->
<g id="node4" class="node">
<title>Node4</title>
<g id="a_node4"><a xlink:href="class_countdown.xhtml#a2c047ed2997b0d933b18ead33b3a6a5e" target="_top" xlink:title="Set the countdown start time.">
<polygon fill="white" stroke="black" points="270.2,-76.5 270.2,-94.5 398.66,-94.5 398.66,-76.5 270.2,-76.5"/>
<text text-anchor="middle" x="334.43" y="-82.5" font-family="Helvetica,sans-Serif" font-size="10.00">Countdown::setStartTime</text>
</a>
</g>
</g>
<!-- Node2&#45;&gt;Node4 -->
<g id="edge4" class="edge">
<title>Node2&#45;&gt;Node4</title>
<path fill="none" stroke="midnightblue" d="M216.03,-113.45C237,-108.46 263.23,-102.21 285.57,-96.89"/>
<polygon fill="midnightblue" stroke="midnightblue" points="286.62,-100.24 295.54,-94.52 285,-93.43 286.62,-100.24"/>
</g>
<!-- Node7 -->
<g id="node7" class="node">
<title>Node7</title>
<g id="a_node7"><a xlink:href="class_countdown.xhtml#a13ddff9d6b42b10df1fd9a99e1317c21" target="_top" xlink:title="Start countdown.">
<polygon fill="white" stroke="black" points="288.63,-113.5 288.63,-131.5 380.23,-131.5 380.23,-113.5 288.63,-113.5"/>
<text text-anchor="middle" x="334.43" y="-119.5" font-family="Helvetica,sans-Serif" font-size="10.00">Countdown::start</text>
</a>
</g>
</g>
<!-- Node2&#45;&gt;Node7 -->
<g id="edge7" class="edge">
<title>Node2&#45;&gt;Node7</title>
<path fill="none" stroke="midnightblue" d="M230.63,-122.5C245.87,-122.5 262.55,-122.5 277.96,-122.5"/>
<polygon fill="midnightblue" stroke="midnightblue" points="278.39,-126 288.39,-122.5 278.39,-119 278.39,-126"/>
</g>
<!-- Node4&#45;&gt;Node5 -->
<g id="edge5" class="edge">
<title>Node4&#45;&gt;Node5</title>
<path fill="none" stroke="midnightblue" d="M398.79,-77.22C407.28,-76.11 415.94,-74.98 424.3,-73.89"/>
<polygon fill="midnightblue" stroke="midnightblue" points="424.86,-77.35 434.32,-72.58 423.95,-70.4 424.86,-77.35"/>
</g>
<!-- Node6 -->
<g id="node6" class="node">
<title>Node6</title>
<g id="a_node6"><a xlink:href="class_countdown.xhtml#a1d2e91a257e7867874a501c8565fcbdc" target="_top" xlink:title="Stop countdown and check.">
<polygon fill="white" stroke="black" points="565.04,-57.5 565.04,-75.5 656.09,-75.5 656.09,-57.5 565.04,-57.5"/>
<text text-anchor="middle" x="610.57" y="-63.5" font-family="Helvetica,sans-Serif" font-size="10.00">Countdown::stop</text>
</a>
</g>
</g>
<!-- Node5&#45;&gt;Node6 -->
<g id="edge6" class="edge">
<title>Node5&#45;&gt;Node6</title>
<path fill="none" stroke="midnightblue" d="M529.32,-66.5C537.55,-66.5 546.2,-66.5 554.64,-66.5"/>
<polygon fill="midnightblue" stroke="midnightblue" points="554.8,-70 564.8,-66.5 554.8,-63 554.8,-70"/>
</g>
<!-- Node9&#45;&gt;Node3 -->
<g id="edge11" class="edge">
<title>Node9&#45;&gt;Node3</title>
<path fill="none" stroke="midnightblue" d="M229.33,-161.15C243.28,-161.6 258.51,-162.09 272.91,-162.55"/>
<polygon fill="midnightblue" stroke="midnightblue" points="273.12,-166.06 283.22,-162.88 273.34,-159.06 273.12,-166.06"/>
</g>
</g>
</svg>
        <g id="navigator" transform="translate(0 0)" fill="#404254">
                <rect fill="#f2f5e9" fill-opacity="0.5" stroke="#606060" stroke-width=".5" x="0" y="0" width="60" height="60"/>
                <use id="zoomplus" xlink:href="#zoomPlus" x="17" y="9" onmousedown="handleZoom(evt,'in')"/>
                <use id="zoomminus" xlink:href="#zoomMin" x="42" y="9" onmousedown="handleZoom(evt,'out')"/>
                <use id="reset" xlink:href="#resetDef" x="30" y="36" onmousedown="handleReset()"/>
                <g id="arrowUp" xlink:href="#dirArrow" transform="translate(30 24)" onmousedown="handlePan(0,-1)">
                  <use xlink:href="#rim" fill="#404040">
                        <set attributeName="fill" to="#808080" begin="arrowUp.mouseover" end="arrowUp.mouseout"/>
                  </use>
                  <path fill="none" stroke="white" stroke-width="1.5" d="M0,-3.0v7 M-2.5,-0.5L0,-3.0L2.5,-0.5"/>
                </g>
                <g id="arrowRight" xlink:href="#dirArrow" transform="rotate(90) translate(36 -43)" onmousedown="handlePan(1,0)">
                  <use xlink:href="#rim" fill="#404040">
                        <set attributeName="fill" to="#808080" begin="arrowRight.mouseover" end="arrowRight.mouseout"/>
                  </use>
                  <path fill="none" stroke="white" stroke-width="1.5" d="M0,-3.0v7 M-2.5,-0.5L0,-3.0L2.5,-0.5"/>
                </g>
                <g id="arrowDown" xlink:href="#dirArrow" transform="rotate(180) translate(-30 -48)" onmousedown="handlePan(0,1)">
                  <use xlink:href="#rim" fill="#404040">
                        <set attributeName="fill" to="#808080" begin="arrowDown.mouseover" end="arrowDown.mouseout"/>
                  </use>
                  <path fill="none" stroke="white" stroke-width="1.5" d="M0,-3.0v7 M-2.5,-0.5L0,-3.0L2.5,-0.5"/>
                </g>
                <g id="arrowLeft" xlink:href="#dirArrow" transform="rotate(270) translate(-36 17)" onmousedown="handlePan(-1,0)">
                  <use xlink:href="#rim" fill="#404040">
                        <set attributeName="fill" to="#808080" begin="arrowLeft.mouseover" end="arrowLeft.mouseout"/>
                  </use>
                  <path fill="none" stroke="white" stroke-width="1.5" d="M0,-3.0v7 M-2.5,-0.5L0,-3.0L2.5,-0.5"/>
                </g>
        </g>
        <svg viewBox="0 0 15 15" width="100%" height="30px" preserveAspectRatio="xMaxYMin meet">
         <g id="arrow_out" transform="scale(0.3 0.3)">
          <a xlink:href="class_foto_box_a78353b51782aab91a0b4eafac67be1c4_cgraph_org.svg" target="_base">
           <rect id="button" ry="5" rx="5" y="6" x="6" height="38" width="38"
                fill="#f2f5e9" fill-opacity="0.5" stroke="#606060" stroke-width="1.0"/>
           <path id="arrow"
             d="M 11.500037,31.436501 C 11.940474,20.09759 22.043105,11.32322 32.158766,21.979434 L 37.068811,17.246167 C 37.068811,17.246167 37.088388,32 37.088388,32 L 22.160133,31.978069 C 22.160133,31.978069 26.997745,27.140456 26.997745,27.140456 C 18.528582,18.264221 13.291696,25.230495 11.500037,31.436501 z"
             style="fill:#404040;"/>
          </a>
         </g>
        </svg>
</svg>
