<?xml version="1.0" encoding="UTF-8" standalone="no"?>
<!DOCTYPE svg PUBLIC "-//W3C//DTD SVG 1.1//EN"
 "http://www.w3.org/Graphics/SVG/1.1/DTD/svg11.dtd">
<!-- Generated by graphviz version 2.42.3 (20191010.1750)
 -->
<!-- Title: Preferences::verifyPath Pages: 1 -->
<svg width="633pt" height="46pt"
 viewBox="0.00 0.00 632.99 46.00" xmlns="http://www.w3.org/2000/svg" xmlns:xlink="http://www.w3.org/1999/xlink">
<g id="graph0" class="graph" transform="scale(1 1) rotate(0) translate(4 42)">
<title>Preferences::verifyPath</title>
<polygon fill="white" stroke="transparent" points="-4,4 -4,-42 628.99,-42 628.99,4 -4,4"/>
<!-- Node1 -->
<g id="node1" class="node">
<title>Node1</title>
<g id="a_node1"><a xlink:title="Check if the path is useable.">
<polygon fill="#bfbfbf" stroke="black" points="505.05,-0.5 505.05,-18.5 624.99,-18.5 624.99,-0.5 505.05,-0.5"/>
<text text-anchor="middle" x="565.02" y="-6.5" font-family="Helvetica,sans-Serif" font-size="10.00">Preferences::verifyPath</text>
</a>
</g>
</g>
<!-- Node2 -->
<g id="node2" class="node">
<title>Node2</title>
<g id="a_node2"><a xlink:href="class_preferences.xhtml#a9502fa3d4df242273f10f836ec3fc86c" target="_top" xlink:title="Open a QFileDialog to choose the photo directory.">
<polygon fill="white" stroke="black" points="321.33,-19.5 321.33,-37.5 469.05,-37.5 469.05,-19.5 321.33,-19.5"/>
<text text-anchor="middle" x="395.19" y="-25.5" font-family="Helvetica,sans-Serif" font-size="10.00">Preferences::chooseDirectory</text>
</a>
</g>
</g>
<!-- Node1&#45;&gt;Node2 -->
<g id="edge1" class="edge">
<title>Node1&#45;&gt;Node2</title>
<path fill="none" stroke="midnightblue" d="M494.72,-17.35C486.31,-18.3 477.7,-19.27 469.24,-20.23"/>
<polygon fill="midnightblue" stroke="midnightblue" points="495.31,-20.8 504.85,-16.2 494.52,-13.85 495.31,-20.8"/>
</g>
<!-- Node3 -->
<g id="node3" class="node">
<title>Node3</title>
<g id="a_node3"><a xlink:href="class_preferences.xhtml#a36e52663dbf3006c5dcf04d89cfd672d" target="_top" xlink:title="Signal &amp; Slot connect.">
<polygon fill="white" stroke="black" points="165.39,-0.5 165.39,-18.5 285.33,-18.5 285.33,-0.5 165.39,-0.5"/>
<text text-anchor="middle" x="225.36" y="-6.5" font-family="Helvetica,sans-Serif" font-size="10.00">Preferences::connectUi</text>
</a>
</g>
</g>
<!-- Node1&#45;&gt;Node3 -->
<g id="edge4" class="edge">
<title>Node1&#45;&gt;Node3</title>
<path fill="none" stroke="midnightblue" d="M494.79,-9.5C433.13,-9.5 343.88,-9.5 285.49,-9.5"/>
<polygon fill="midnightblue" stroke="midnightblue" points="494.82,-13 504.82,-9.5 494.82,-6 494.82,-13"/>
</g>
<!-- Node2&#45;&gt;Node3 -->
<g id="edge2" class="edge">
<title>Node2&#45;&gt;Node3</title>
<path fill="none" stroke="midnightblue" d="M310.96,-19.08C302.32,-18.1 293.68,-17.12 285.39,-16.18"/>
<polygon fill="midnightblue" stroke="midnightblue" points="310.74,-22.57 321.07,-20.22 311.52,-15.62 310.74,-22.57"/>
</g>
<!-- Node4 -->
<g id="node4" class="node">
<title>Node4</title>
<g id="a_node4"><a xlink:href="class_preferences.xhtml#a137b56e8d51ff2712666f94263b2e34e" target="_top" xlink:title="Preferences constructor.">
<polygon fill="white" stroke="black" points="0,-0.5 0,-18.5 129.39,-18.5 129.39,-0.5 0,-0.5"/>
<text text-anchor="middle" x="64.69" y="-6.5" font-family="Helvetica,sans-Serif" font-size="10.00">Preferences::Preferences</text>
</a>
</g>
</g>
<!-- Node3&#45;&gt;Node4 -->
<g id="edge3" class="edge">
<title>Node3&#45;&gt;Node4</title>
<path fill="none" stroke="midnightblue" d="M155.06,-9.5C146.6,-9.5 137.99,-9.5 129.61,-9.5"/>
<polygon fill="midnightblue" stroke="midnightblue" points="155.28,-13 165.28,-9.5 155.28,-6 155.28,-13"/>
</g>
</g>
</svg>
