<?xml version="1.0" encoding="UTF-8" standalone="no"?>
<!DOCTYPE svg PUBLIC "-//W3C//DTD SVG 1.1//EN"
 "http://www.w3.org/Graphics/SVG/1.1/DTD/svg11.dtd">
<!-- Generated by graphviz version 2.42.3 (20191010.1750)
 -->
<!-- Title: Preferences::connectUi Pages: 1 -->
<!--zoomable 1126 -->
<svg id="main" version="1.1" xmlns="http://www.w3.org/2000/svg" xmlns:xlink="http://www.w3.org/1999/xlink" xml:space="preserve" onload="init(evt)">
<style type="text/css"><![CDATA[
.edge:hover path { stroke: red; }
.edge:hover polygon { stroke: red; fill: red; }
]]></style>
<script type="text/javascript"><![CDATA[
var edges = document.getElementsByTagName('g');
if (edges && edges.length) {
  for (var i=0;i<edges.length;i++) {
    if (edges[i].id.substr(0,4)=='edge') {
      edges[i].setAttribute('class','edge');
    }
  }
}
]]></script>
        <defs>
                <circle id="rim" cx="0" cy="0" r="7"/>
                <circle id="rim2" cx="0" cy="0" r="3.5"/>
                <g id="zoomPlus">
                        <use xlink:href="#rim" fill="#404040">
                                <set attributeName="fill" to="#808080" begin="zoomplus.mouseover" end="zoomplus.mouseout"/>
                        </use>
                        <path d="M-4,0h8M0,-4v8" fill="none" stroke="white" stroke-width="1.5" pointer-events="none"/>
                </g>
                <g id="zoomMin">
                        <use xlink:href="#rim" fill="#404040">
                                <set attributeName="fill" to="#808080" begin="zoomminus.mouseover" end="zoomminus.mouseout"/>
                        </use>
                        <path d="M-4,0h8" fill="none" stroke="white" stroke-width="1.5" pointer-events="none"/>
                </g>
                <g id="dirArrow">
                        <path fill="none" stroke="white" stroke-width="1.5" d="M0,-3.0v7 M-2.5,-0.5L0,-3.0L2.5,-0.5"/>
                </g>
               <g id="resetDef">
                       <use xlink:href="#rim2" fill="#404040">
                               <set attributeName="fill" to="#808080" begin="reset.mouseover" end="reset.mouseout"/>
                       </use>
               </g>
        </defs>

<script type="text/javascript">
var viewWidth = 659;
var viewHeight = 1126;
var sectionId = 'dynsection-10';
</script>
<script xlink:href="svgpan.js"/>
<svg id="graph" class="graph">
<g id="viewport">
<title>Preferences::connectUi</title>
<polygon fill="white" stroke="transparent" points="-4,4 -4,-1122 654.58,-1122 654.58,4 -4,4"/>
<!-- Node1 -->
<g id="node1" class="node">
<title>Node1</title>
<g id="a_node1"><a xlink:title="Signal &amp; Slot connect.">
<polygon fill="#bfbfbf" stroke="black" points="0,-576.5 0,-594.5 119.94,-594.5 119.94,-576.5 0,-576.5"/>
<text text-anchor="middle" x="59.97" y="-582.5" font-family="Helvetica,sans-Serif" font-size="10.00">Preferences::connectUi</text>
</a>
</g>
</g>
<!-- Node2 -->
<g id="node2" class="node">
<title>Node2</title>
<g id="a_node2"><a xlink:href="class_preferences.xhtml#a9502fa3d4df242273f10f836ec3fc86c" target="_top" xlink:title="Open a QFileDialog to choose the photo directory.">
<polygon fill="white" stroke="black" points="167.07,-1099.5 167.07,-1117.5 314.79,-1117.5 314.79,-1099.5 167.07,-1099.5"/>
<text text-anchor="middle" x="240.93" y="-1105.5" font-family="Helvetica,sans-Serif" font-size="10.00">Preferences::chooseDirectory</text>
</a>
</g>
</g>
<!-- Node1&#45;&gt;Node2 -->
<g id="edge1" class="edge">
<title>Node1&#45;&gt;Node2</title>
<path fill="none" stroke="midnightblue" d="M61.43,-594.62C64.72,-656 86.5,-1008.49 155.94,-1084.5 159.71,-1088.63 164.14,-1092.07 168.96,-1094.93"/>
<polygon fill="midnightblue" stroke="midnightblue" points="167.48,-1098.1 177.99,-1099.47 170.63,-1091.85 167.48,-1098.1"/>
</g>
<!-- Node3 -->
<g id="node3" class="node">
<title>Node3</title>
<g id="a_node3"><a xlink:href="class_preferences.xhtml#a964f6672a84d60a713439223c10bbb89" target="_top" xlink:title="Check if the path is useable.">
<polygon fill="white" stroke="black" points="377.21,-1084.5 377.21,-1102.5 497.14,-1102.5 497.14,-1084.5 377.21,-1084.5"/>
<text text-anchor="middle" x="437.18" y="-1090.5" font-family="Helvetica,sans-Serif" font-size="10.00">Preferences::verifyPath</text>
</a>
</g>
</g>
<!-- Node1&#45;&gt;Node3 -->
<g id="edge34" class="edge">
<title>Node1&#45;&gt;Node3</title>
<path fill="none" stroke="midnightblue" d="M61.5,-594.75C65.09,-653.98 87.78,-979.62 155.94,-1045.5 185.3,-1073.88 293.78,-1085.63 366.84,-1090.39"/>
<polygon fill="midnightblue" stroke="midnightblue" points="366.7,-1093.88 376.9,-1091.01 367.14,-1086.9 366.7,-1093.88"/>
</g>
<!-- Node4 -->
<g id="node4" class="node">
<title>Node4</title>
<g id="a_node4"><a xlink:href="class_preferences.xhtml#a183e931ddd91f03ac2b9cf40f8d9f434" target="_top" xlink:title="Clear directory content of the photo directory.">
<polygon fill="white" stroke="black" points="368.6,-1023.5 368.6,-1051.5 505.75,-1051.5 505.75,-1023.5 368.6,-1023.5"/>
<text text-anchor="start" x="376.6" y="-1039.5" font-family="Helvetica,sans-Serif" font-size="10.00">Preferences::clearDirectory</text>
<text text-anchor="middle" x="437.18" y="-1029.5" font-family="Helvetica,sans-Serif" font-size="10.00">Content</text>
</a>
</g>
</g>
<!-- Node1&#45;&gt;Node4 -->
<g id="edge3" class="edge">
<title>Node1&#45;&gt;Node4</title>
<path fill="none" stroke="midnightblue" d="M61.62,-594.79C65.81,-651.51 90.82,-950.63 155.94,-1008.5 210.23,-1056.74 295.82,-1058.78 358.13,-1051.98"/>
<polygon fill="midnightblue" stroke="midnightblue" points="358.8,-1055.43 368.31,-1050.77 357.97,-1048.47 358.8,-1055.43"/>
</g>
<!-- Node5 -->
<g id="node5" class="node">
<title>Node5</title>
<g id="a_node5"><a xlink:href="class_preference_provider.xhtml#a1bbf00bcafe7e0d8f4adf991a51a4656" target="_top" xlink:title="get instance (Meyers Singleton)">
<polygon fill="white" stroke="black" points="548.43,-980.5 548.43,-1008.5 650.58,-1008.5 650.58,-980.5 548.43,-980.5"/>
<text text-anchor="start" x="556.43" y="-996.5" font-family="Helvetica,sans-Serif" font-size="10.00">PreferenceProvider</text>
<text text-anchor="middle" x="599.51" y="-986.5" font-family="Helvetica,sans-Serif" font-size="10.00">::instance</text>
</a>
</g>
</g>
<!-- Node1&#45;&gt;Node5 -->
<g id="edge7" class="edge">
<title>Node1&#45;&gt;Node5</title>
<path fill="none" stroke="midnightblue" d="M61.76,-594.82C66.58,-649.17 93.87,-924.54 155.94,-975.5 184.72,-999.13 423.33,-997.88 537.75,-995.87"/>
<polygon fill="midnightblue" stroke="midnightblue" points="538.16,-999.36 548.1,-995.68 538.03,-992.36 538.16,-999.36"/>
</g>
<!-- Node6 -->
<g id="node6" class="node">
<title>Node6</title>
<g id="a_node6"><a xlink:href="class_preferences.xhtml#a75a9b09142771785f070cfdec79b7240" target="_top" xlink:title="Open a color picker to choose background color for FotoBox.">
<polygon fill="white" stroke="black" points="178.18,-947.5 178.18,-965.5 303.68,-965.5 303.68,-947.5 178.18,-947.5"/>
<text text-anchor="middle" x="240.93" y="-953.5" font-family="Helvetica,sans-Serif" font-size="10.00">Preferences::colorDialog</text>
</a>
</g>
</g>
<!-- Node1&#45;&gt;Node6 -->
<g id="edge5" class="edge">
<title>Node1&#45;&gt;Node6</title>
<path fill="none" stroke="midnightblue" d="M62.16,-594.78C68.83,-645.48 103.25,-888.46 155.94,-938.5 159.76,-942.13 164.13,-945.1 168.82,-947.52"/>
<polygon fill="midnightblue" stroke="midnightblue" points="167.61,-950.81 178.18,-951.54 170.37,-944.38 167.61,-950.81"/>
</g>
<!-- Node7 -->
<g id="node7" class="node">
<title>Node7</title>
<g id="a_node7"><a xlink:href="class_preferences.xhtml#a5bd81120037390a1e90e79f88741f871" target="_top" xlink:title="Show help dialog for gphoto2/raspistill command line options.">
<polygon fill="white" stroke="black" points="171.79,-900.5 171.79,-928.5 310.07,-928.5 310.07,-900.5 171.79,-900.5"/>
<text text-anchor="start" x="179.79" y="-916.5" font-family="Helvetica,sans-Serif" font-size="10.00">Preferences::commandLine</text>
<text text-anchor="middle" x="240.93" y="-906.5" font-family="Helvetica,sans-Serif" font-size="10.00">OptionsDialog</text>
</a>
</g>
</g>
<!-- Node1&#45;&gt;Node7 -->
<g id="edge6" class="edge">
<title>Node1&#45;&gt;Node7</title>
<path fill="none" stroke="midnightblue" d="M60.85,-594.59C60.84,-635.57 66.37,-804.89 155.94,-891.5 158.08,-893.57 160.39,-895.46 162.82,-897.18"/>
<polygon fill="midnightblue" stroke="midnightblue" points="161.17,-900.27 171.55,-902.41 164.77,-894.26 161.17,-900.27"/>
</g>
<!-- Node8 -->
<g id="node8" class="node">
<title>Node8</title>
<g id="a_node8"><a xlink:href="class_preference_provider.xhtml#aceb3571b645bc00b9b5d1487430fe353" target="_top" xlink:title="set camera framework arguments">
<polygon fill="white" stroke="black" points="189.85,-853.5 189.85,-881.5 292.01,-881.5 292.01,-853.5 189.85,-853.5"/>
<text text-anchor="start" x="197.85" y="-869.5" font-family="Helvetica,sans-Serif" font-size="10.00">PreferenceProvider</text>
<text text-anchor="middle" x="240.93" y="-859.5" font-family="Helvetica,sans-Serif" font-size="10.00">::setArgumentLine</text>
</a>
</g>
</g>
<!-- Node1&#45;&gt;Node8 -->
<g id="edge8" class="edge">
<title>Node1&#45;&gt;Node8</title>
<path fill="none" stroke="midnightblue" d="M61.44,-594.68C63.86,-631.89 78.02,-772.87 155.94,-844.5 162.81,-850.81 171.24,-855.42 180.09,-858.77"/>
<polygon fill="midnightblue" stroke="midnightblue" points="179.2,-862.16 189.8,-861.94 181.38,-855.51 179.2,-862.16"/>
</g>
<!-- Node9 -->
<g id="node9" class="node">
<title>Node9</title>
<g id="a_node9"><a xlink:href="class_preference_provider.xhtml#af4933c411a01c5e867d9e84be03ced76" target="_top" xlink:title="set background color of the FotoBox UI">
<polygon fill="white" stroke="black" points="184.85,-806.5 184.85,-834.5 297.01,-834.5 297.01,-806.5 184.85,-806.5"/>
<text text-anchor="start" x="192.85" y="-822.5" font-family="Helvetica,sans-Serif" font-size="10.00">PreferenceProvider</text>
<text text-anchor="middle" x="240.93" y="-812.5" font-family="Helvetica,sans-Serif" font-size="10.00">::setBackgroundColor</text>
</a>
</g>
</g>
<!-- Node1&#45;&gt;Node9 -->
<g id="edge9" class="edge">
<title>Node1&#45;&gt;Node9</title>
<path fill="none" stroke="midnightblue" d="M62.28,-594.8C67.45,-627.82 89.48,-740.56 155.94,-797.5 161.54,-802.3 168.06,-806.11 174.95,-809.13"/>
<polygon fill="midnightblue" stroke="midnightblue" points="173.92,-812.48 184.51,-812.77 176.41,-805.94 173.92,-812.48"/>
</g>
<!-- Node10 -->
<g id="node10" class="node">
<title>Node10</title>
<g id="a_node10"><a xlink:href="class_preference_provider.xhtml#a5e11ae30693fee31194bfb4f41db49a1" target="_top" xlink:title="set the camera framework to be used">
<polygon fill="white" stroke="black" points="189.85,-759.5 189.85,-787.5 292.01,-787.5 292.01,-759.5 189.85,-759.5"/>
<text text-anchor="start" x="197.85" y="-775.5" font-family="Helvetica,sans-Serif" font-size="10.00">PreferenceProvider</text>
<text text-anchor="middle" x="240.93" y="-765.5" font-family="Helvetica,sans-Serif" font-size="10.00">::setCameraMode</text>
</a>
</g>
</g>
<!-- Node1&#45;&gt;Node10 -->
<g id="edge10" class="edge">
<title>Node1&#45;&gt;Node10</title>
<path fill="none" stroke="midnightblue" d="M63.51,-594.65C71.75,-622.62 100.5,-707.65 155.94,-750.5 162.98,-755.94 171.22,-760.1 179.74,-763.27"/>
<polygon fill="midnightblue" stroke="midnightblue" points="178.84,-766.65 189.43,-766.45 181.02,-760 178.84,-766.65"/>
</g>
<!-- Node11 -->
<g id="node11" class="node">
<title>Node11</title>
<g id="a_node11"><a xlink:href="class_preference_provider.xhtml#a068cad0d41fad0bf6157bda81f6aa4ad" target="_top" xlink:title="set countdown until photo is taken">
<polygon fill="white" stroke="black" points="189.85,-712.5 189.85,-740.5 292.01,-740.5 292.01,-712.5 189.85,-712.5"/>
<text text-anchor="start" x="197.85" y="-728.5" font-family="Helvetica,sans-Serif" font-size="10.00">PreferenceProvider</text>
<text text-anchor="middle" x="240.93" y="-718.5" font-family="Helvetica,sans-Serif" font-size="10.00">::setCountdown</text>
</a>
</g>
</g>
<!-- Node1&#45;&gt;Node11 -->
<g id="edge11" class="edge">
<title>Node1&#45;&gt;Node11</title>
<path fill="none" stroke="midnightblue" d="M65.76,-594.82C77.74,-617.18 111.29,-674.24 155.94,-703.5 163.29,-708.32 171.63,-712.13 180.14,-715.15"/>
<polygon fill="midnightblue" stroke="midnightblue" points="179.17,-718.52 189.76,-718.24 181.31,-711.85 179.17,-718.52"/>
</g>
<!-- Node12 -->
<g id="node12" class="node">
<title>Node12</title>
<g id="a_node12"><a xlink:href="class_preference_provider.xhtml#ac9335b967576696b421ed3132f4ddea0" target="_top" xlink:title="set font color of the countdown">
<polygon fill="white" stroke="black" points="186.24,-665.5 186.24,-693.5 295.62,-693.5 295.62,-665.5 186.24,-665.5"/>
<text text-anchor="start" x="194.24" y="-681.5" font-family="Helvetica,sans-Serif" font-size="10.00">PreferenceProvider</text>
<text text-anchor="middle" x="240.93" y="-671.5" font-family="Helvetica,sans-Serif" font-size="10.00">::setCountdownColor</text>
</a>
</g>
</g>
<!-- Node1&#45;&gt;Node12 -->
<g id="edge12" class="edge">
<title>Node1&#45;&gt;Node12</title>
<path fill="none" stroke="midnightblue" d="M70.41,-594.51C86.62,-609.5 121.35,-639.6 155.94,-656.5 162.38,-659.65 169.32,-662.42 176.35,-664.85"/>
<polygon fill="midnightblue" stroke="midnightblue" points="175.37,-668.21 185.96,-667.94 177.52,-661.54 175.37,-668.21"/>
</g>
<!-- Node13 -->
<g id="node13" class="node">
<title>Node13</title>
<g id="a_node13"><a xlink:href="class_preference_provider.xhtml#a9b2472b6dce4698760805ba8ccc19bc2" target="_top" xlink:title="set grayscale bool (monochrome photography)">
<polygon fill="white" stroke="black" points="189.85,-618.5 189.85,-646.5 292.01,-646.5 292.01,-618.5 189.85,-618.5"/>
<text text-anchor="start" x="197.85" y="-634.5" font-family="Helvetica,sans-Serif" font-size="10.00">PreferenceProvider</text>
<text text-anchor="middle" x="240.93" y="-624.5" font-family="Helvetica,sans-Serif" font-size="10.00">::setGrayscale</text>
</a>
</g>
</g>
<!-- Node1&#45;&gt;Node13 -->
<g id="edge13" class="edge">
<title>Node1&#45;&gt;Node13</title>
<path fill="none" stroke="midnightblue" d="M95.48,-594.56C119.37,-600.84 151.81,-609.36 179.89,-616.73"/>
<polygon fill="midnightblue" stroke="midnightblue" points="179.06,-620.13 189.62,-619.29 180.84,-613.36 179.06,-620.13"/>
</g>
<!-- Node14 -->
<g id="node14" class="node">
<title>Node14</title>
<g id="a_node14"><a xlink:href="class_preference_provider.xhtml#a9b13df9d2fa39a4d98b369b7a51757b1" target="_top" xlink:title="set wiringPi GPIO input pin">
<polygon fill="white" stroke="black" points="189.85,-571.5 189.85,-599.5 292.01,-599.5 292.01,-571.5 189.85,-571.5"/>
<text text-anchor="start" x="197.85" y="-587.5" font-family="Helvetica,sans-Serif" font-size="10.00">PreferenceProvider</text>
<text text-anchor="middle" x="240.93" y="-577.5" font-family="Helvetica,sans-Serif" font-size="10.00">::setInputPin</text>
</a>
</g>
</g>
<!-- Node1&#45;&gt;Node14 -->
<g id="edge14" class="edge">
<title>Node1&#45;&gt;Node14</title>
<path fill="none" stroke="midnightblue" d="M120.06,-585.5C139.14,-585.5 160.3,-585.5 179.47,-585.5"/>
<polygon fill="midnightblue" stroke="midnightblue" points="179.59,-589 189.59,-585.5 179.59,-582 179.59,-589"/>
</g>
<!-- Node15 -->
<g id="node15" class="node">
<title>Node15</title>
<g id="a_node15"><a xlink:href="class_preference_provider.xhtml#afec2a12f509e9a0d260ae7a82eababaa" target="_top" xlink:title="set wiringPi GPIO output pin">
<polygon fill="white" stroke="black" points="189.85,-524.5 189.85,-552.5 292.01,-552.5 292.01,-524.5 189.85,-524.5"/>
<text text-anchor="start" x="197.85" y="-540.5" font-family="Helvetica,sans-Serif" font-size="10.00">PreferenceProvider</text>
<text text-anchor="middle" x="240.93" y="-530.5" font-family="Helvetica,sans-Serif" font-size="10.00">::setOutputPin</text>
</a>
</g>
</g>
<!-- Node1&#45;&gt;Node15 -->
<g id="edge15" class="edge">
<title>Node1&#45;&gt;Node15</title>
<path fill="none" stroke="midnightblue" d="M95.48,-576.44C119.37,-570.16 151.81,-561.64 179.89,-554.27"/>
<polygon fill="midnightblue" stroke="midnightblue" points="180.84,-557.64 189.62,-551.71 179.06,-550.87 180.84,-557.64"/>
</g>
<!-- Node16 -->
<g id="node16" class="node">
<title>Node16</title>
<g id="a_node16"><a xlink:href="class_preference_provider.xhtml#a95b912f4fa5abb8eae8fc8a539a71150" target="_top" xlink:title="set photo output directory">
<polygon fill="white" stroke="black" points="189.85,-477.5 189.85,-505.5 292.01,-505.5 292.01,-477.5 189.85,-477.5"/>
<text text-anchor="start" x="197.85" y="-493.5" font-family="Helvetica,sans-Serif" font-size="10.00">PreferenceProvider</text>
<text text-anchor="middle" x="240.93" y="-483.5" font-family="Helvetica,sans-Serif" font-size="10.00">::setPhotoFolder</text>
</a>
</g>
</g>
<!-- Node1&#45;&gt;Node16 -->
<g id="edge16" class="edge">
<title>Node1&#45;&gt;Node16</title>
<path fill="none" stroke="midnightblue" d="M70.72,-576.43C87.11,-561.64 121.75,-532.3 155.94,-515.5 163.47,-511.8 171.67,-508.58 179.9,-505.8"/>
<polygon fill="midnightblue" stroke="midnightblue" points="181.06,-509.1 189.54,-502.74 178.95,-502.43 181.06,-509.1"/>
</g>
<!-- Node17 -->
<g id="node17" class="node">
<title>Node17</title>
<g id="a_node17"><a xlink:href="class_preference_provider.xhtml#ae7acd2e7ff7fb5dba432423e8e9ff7db" target="_top" xlink:title="set photo name template">
<polygon fill="white" stroke="black" points="189.85,-430.5 189.85,-458.5 292.01,-458.5 292.01,-430.5 189.85,-430.5"/>
<text text-anchor="start" x="197.85" y="-446.5" font-family="Helvetica,sans-Serif" font-size="10.00">PreferenceProvider</text>
<text text-anchor="middle" x="240.93" y="-436.5" font-family="Helvetica,sans-Serif" font-size="10.00">::setPhotoName</text>
</a>
</g>
</g>
<!-- Node1&#45;&gt;Node17 -->
<g id="edge17" class="edge">
<title>Node1&#45;&gt;Node17</title>
<path fill="none" stroke="midnightblue" d="M65.8,-576.3C77.87,-554.19 111.62,-497.77 155.94,-468.5 163.3,-463.64 171.64,-459.75 180.15,-456.64"/>
<polygon fill="midnightblue" stroke="midnightblue" points="181.38,-459.92 189.78,-453.45 179.18,-453.28 181.38,-459.92"/>
</g>
<!-- Node18 -->
<g id="node18" class="node">
<title>Node18</title>
<g id="a_node18"><a xlink:href="class_preference_provider.xhtml#ab5372fedb84b7567cf7a1ffa1e3b4126" target="_top" xlink:title="set print on or off">
<polygon fill="white" stroke="black" points="189.85,-383.5 189.85,-411.5 292.01,-411.5 292.01,-383.5 189.85,-383.5"/>
<text text-anchor="start" x="197.85" y="-399.5" font-family="Helvetica,sans-Serif" font-size="10.00">PreferenceProvider</text>
<text text-anchor="middle" x="240.93" y="-389.5" font-family="Helvetica,sans-Serif" font-size="10.00">::setPrint</text>
</a>
</g>
</g>
<!-- Node1&#45;&gt;Node18 -->
<g id="edge18" class="edge">
<title>Node1&#45;&gt;Node18</title>
<path fill="none" stroke="midnightblue" d="M63.55,-576.43C71.9,-548.71 100.93,-464.38 155.94,-421.5 162.98,-416.01 171.22,-411.78 179.74,-408.52"/>
<polygon fill="midnightblue" stroke="midnightblue" points="181.08,-411.76 189.43,-405.23 178.83,-405.13 181.08,-411.76"/>
</g>
<!-- Node19 -->
<g id="node19" class="node">
<title>Node19</title>
<g id="a_node19"><a xlink:href="class_preference_provider.xhtml#a97dd2b33b6baeaa00eb87dd30ecd05e5" target="_top" xlink:title="set printer name">
<polygon fill="white" stroke="black" points="189.85,-336.5 189.85,-364.5 292.01,-364.5 292.01,-336.5 189.85,-336.5"/>
<text text-anchor="start" x="197.85" y="-352.5" font-family="Helvetica,sans-Serif" font-size="10.00">PreferenceProvider</text>
<text text-anchor="middle" x="240.93" y="-342.5" font-family="Helvetica,sans-Serif" font-size="10.00">::setPrinterName</text>
</a>
</g>
</g>
<!-- Node1&#45;&gt;Node19 -->
<g id="edge19" class="edge">
<title>Node1&#45;&gt;Node19</title>
<path fill="none" stroke="midnightblue" d="M62.32,-576.27C67.61,-543.48 90.01,-431.53 155.94,-374.5 162.93,-368.45 171.36,-363.92 180.13,-360.54"/>
<polygon fill="midnightblue" stroke="midnightblue" points="181.39,-363.8 189.74,-357.29 179.15,-357.17 181.39,-363.8"/>
</g>
<!-- Node20 -->
<g id="node20" class="node">
<title>Node20</title>
<g id="a_node20"><a xlink:href="class_preference_provider.xhtml#aae1e1472caa7b4d6f3d8e17fe37dc20b" target="_top" xlink:title="set how often the pin should be queried">
<polygon fill="white" stroke="black" points="189.85,-289.5 189.85,-317.5 292.01,-317.5 292.01,-289.5 189.85,-289.5"/>
<text text-anchor="start" x="197.85" y="-305.5" font-family="Helvetica,sans-Serif" font-size="10.00">PreferenceProvider</text>
<text text-anchor="middle" x="240.93" y="-295.5" font-family="Helvetica,sans-Serif" font-size="10.00">::setQueryInterval</text>
</a>
</g>
</g>
<!-- Node1&#45;&gt;Node20 -->
<g id="edge20" class="edge">
<title>Node1&#45;&gt;Node20</title>
<path fill="none" stroke="midnightblue" d="M61.48,-576.38C64.02,-539.4 78.63,-399.26 155.94,-327.5 162.8,-321.14 171.23,-316.44 180.07,-312.99"/>
<polygon fill="midnightblue" stroke="midnightblue" points="181.43,-316.23 189.78,-309.71 179.18,-309.6 181.43,-316.23"/>
</g>
<!-- Node21 -->
<g id="node21" class="node">
<title>Node21</title>
<g id="a_node21"><a xlink:href="class_preference_provider.xhtml#a3c4bfdd62ac6562182886dda967530c2" target="_top" xlink:title="set whether buttons are displayed on the UI">
<polygon fill="white" stroke="black" points="189.85,-242.5 189.85,-270.5 292.01,-270.5 292.01,-242.5 189.85,-242.5"/>
<text text-anchor="start" x="197.85" y="-258.5" font-family="Helvetica,sans-Serif" font-size="10.00">PreferenceProvider</text>
<text text-anchor="middle" x="240.93" y="-248.5" font-family="Helvetica,sans-Serif" font-size="10.00">::setShowButtons</text>
</a>
</g>
</g>
<!-- Node1&#45;&gt;Node21 -->
<g id="edge21" class="edge">
<title>Node1&#45;&gt;Node21</title>
<path fill="none" stroke="midnightblue" d="M60.89,-576.46C61.01,-535.72 67.07,-367.3 155.94,-280.5 162.63,-273.96 170.98,-269.18 179.79,-265.69"/>
<polygon fill="midnightblue" stroke="midnightblue" points="181.14,-268.93 189.48,-262.39 178.88,-262.3 181.14,-268.93"/>
</g>
<!-- Node22 -->
<g id="node22" class="node">
<title>Node22</title>
<g id="a_node22"><a xlink:href="class_preference_provider.xhtml#a8593050ca82c56a9081c445dfc0f2366" target="_top" xlink:title="set timeout value for the camera framework">
<polygon fill="white" stroke="black" points="189.85,-195.5 189.85,-223.5 292.01,-223.5 292.01,-195.5 189.85,-195.5"/>
<text text-anchor="start" x="197.85" y="-211.5" font-family="Helvetica,sans-Serif" font-size="10.00">PreferenceProvider</text>
<text text-anchor="middle" x="240.93" y="-201.5" font-family="Helvetica,sans-Serif" font-size="10.00">::setTimeoutValue</text>
</a>
</g>
</g>
<!-- Node1&#45;&gt;Node22 -->
<g id="edge22" class="edge">
<title>Node1&#45;&gt;Node22</title>
<path fill="none" stroke="midnightblue" d="M62.22,-576.3C69.22,-526.06 105.07,-285.12 155.94,-233.5 162.66,-226.69 171.16,-221.77 180.17,-218.24"/>
<polygon fill="midnightblue" stroke="midnightblue" points="181.32,-221.54 189.68,-215.03 179.09,-214.91 181.32,-221.54"/>
</g>
<!-- Node23 -->
<g id="node23" class="node">
<title>Node23</title>
<g id="a_node23"><a xlink:href="class_preferences.xhtml#a1d8255b77095a5ae6de5e2aa89168252" target="_top" xlink:title="Show the given color in QLineEdit.">
<polygon fill="white" stroke="black" points="179.57,-158.5 179.57,-176.5 302.29,-176.5 302.29,-158.5 179.57,-158.5"/>
<text text-anchor="middle" x="240.93" y="-164.5" font-family="Helvetica,sans-Serif" font-size="10.00">Preferences::showColor</text>
</a>
</g>
</g>
<!-- Node1&#45;&gt;Node23 -->
<g id="edge23" class="edge">
<title>Node1&#45;&gt;Node23</title>
<path fill="none" stroke="midnightblue" d="M61.84,-576.48C67.19,-522.67 97.46,-244.33 155.94,-186.5 159.99,-182.49 164.7,-179.26 169.78,-176.65"/>
<polygon fill="midnightblue" stroke="midnightblue" points="171.43,-179.75 179.26,-172.62 168.69,-173.31 171.43,-179.75"/>
</g>
<!-- Node24 -->
<g id="node24" class="node">
<title>Node24</title>
<g id="a_node24"><a xlink:href="class_preferences.xhtml#a4f0c2844c169369eacff4a6c004b2d7d" target="_top" xlink:title="Start the FotoBox.">
<polygon fill="white" stroke="black" points="174.85,-121.5 174.85,-139.5 307.01,-139.5 307.01,-121.5 174.85,-121.5"/>
<text text-anchor="middle" x="240.93" y="-127.5" font-family="Helvetica,sans-Serif" font-size="10.00">Preferences::startFotoBox</text>
</a>
</g>
</g>
<!-- Node1&#45;&gt;Node24 -->
<g id="edge24" class="edge">
<title>Node1&#45;&gt;Node24</title>
<path fill="none" stroke="midnightblue" d="M61.65,-576.4C66.08,-519.54 92.65,-213.3 155.94,-149.5 158.82,-146.6 162.04,-144.1 165.5,-141.95"/>
<polygon fill="midnightblue" stroke="midnightblue" points="167.24,-144.99 174.53,-137.3 164.03,-138.77 167.24,-144.99"/>
</g>
<!-- Node27 -->
<g id="node27" class="node">
<title>Node27</title>
<g id="a_node27"><a xlink:href="class_preferences.xhtml#a1dcf663eabce314027a86d17d1d4867b" target="_top" xlink:title="Stop countdown, stop mouse tracking and set normal window title name.">
<polygon fill="white" stroke="black" points="155.94,-84.5 155.94,-102.5 325.92,-102.5 325.92,-84.5 155.94,-84.5"/>
<text text-anchor="middle" x="240.93" y="-90.5" font-family="Helvetica,sans-Serif" font-size="10.00">Preferences::stopCountdownMode</text>
</a>
</g>
</g>
<!-- Node1&#45;&gt;Node27 -->
<g id="edge28" class="edge">
<title>Node1&#45;&gt;Node27</title>
<path fill="none" stroke="midnightblue" d="M61.48,-576.42C65.02,-516.87 87.79,-182.33 155.94,-112.5 157.55,-110.85 159.28,-109.33 161.09,-107.93"/>
<polygon fill="midnightblue" stroke="midnightblue" points="163.02,-110.85 169.57,-102.52 159.26,-104.94 163.02,-110.85"/>
</g>
<!-- Node29 -->
<g id="node29" class="node">
<title>Node29</title>
<g id="a_node29"><a xlink:href="class_preferences.xhtml#a7b8d051df918f07c7f835088f68bd7b3" target="_top" xlink:title="Check camera application availability and provide help if needed.">
<polygon fill="white" stroke="black" points="166.79,-42.5 166.79,-60.5 315.07,-60.5 315.07,-42.5 166.79,-42.5"/>
<text text-anchor="middle" x="240.93" y="-48.5" font-family="Helvetica,sans-Serif" font-size="10.00">Preferences::verifyApplication</text>
</a>
</g>
</g>
<!-- Node1&#45;&gt;Node29 -->
<g id="edge31" class="edge">
<title>Node1&#45;&gt;Node29</title>
<path fill="none" stroke="midnightblue" d="M61.4,-576.18C64.49,-513.46 85.17,-153.27 155.94,-75.5 159.7,-71.36 164.13,-67.92 168.94,-65.06"/>
<polygon fill="midnightblue" stroke="midnightblue" points="170.61,-68.13 177.97,-60.51 167.46,-61.88 170.61,-68.13"/>
</g>
<!-- Node2&#45;&gt;Node3 -->
<g id="edge2" class="edge">
<title>Node2&#45;&gt;Node3</title>
<path fill="none" stroke="midnightblue" d="M314.81,-1102.87C331.84,-1101.56 349.93,-1100.16 366.8,-1098.86"/>
<polygon fill="midnightblue" stroke="midnightblue" points="367.43,-1102.32 377.13,-1098.06 366.89,-1095.34 367.43,-1102.32"/>
</g>
<!-- Node4&#45;&gt;Node5 -->
<g id="edge4" class="edge">
<title>Node4&#45;&gt;Node5</title>
<path fill="none" stroke="midnightblue" d="M490.67,-1023.42C505.88,-1019.34 522.6,-1014.86 538.25,-1010.66"/>
<polygon fill="midnightblue" stroke="midnightblue" points="539.59,-1013.92 548.34,-1007.95 537.78,-1007.16 539.59,-1013.92"/>
</g>
<!-- Node25 -->
<g id="node25" class="node">
<title>Node25</title>
<g id="a_node25"><a xlink:href="class_preferences.xhtml#a70c6489f66db193c8645fed5d4b36ac6" target="_top" xlink:title="Save the preferences to QSettings.">
<polygon fill="white" stroke="black" points="361.92,-553.5 361.92,-571.5 512.43,-571.5 512.43,-553.5 361.92,-553.5"/>
<text text-anchor="middle" x="437.18" y="-559.5" font-family="Helvetica,sans-Serif" font-size="10.00">Preferences::savePreferences</text>
</a>
</g>
</g>
<!-- Node24&#45;&gt;Node25 -->
<g id="edge25" class="edge">
<title>Node24&#45;&gt;Node25</title>
<path fill="none" stroke="midnightblue" d="M307.1,-137.54C314.05,-140.43 320.53,-144.32 325.92,-149.5 384.55,-205.92 423.63,-468.68 433.64,-542.92"/>
<polygon fill="midnightblue" stroke="midnightblue" points="430.21,-543.7 434.99,-553.15 437.15,-542.78 430.21,-543.7"/>
</g>
<!-- Node26 -->
<g id="node26" class="node">
<title>Node26</title>
<g id="a_node26"><a xlink:href="class_countdown.xhtml#a1d2e91a257e7867874a501c8565fcbdc" target="_top" xlink:title="Stop countdown and check.">
<polygon fill="white" stroke="black" points="391.65,-121.5 391.65,-139.5 482.7,-139.5 482.7,-121.5 391.65,-121.5"/>
<text text-anchor="middle" x="437.18" y="-127.5" font-family="Helvetica,sans-Serif" font-size="10.00">Countdown::stop</text>
</a>
</g>
</g>
<!-- Node24&#45;&gt;Node26 -->
<g id="edge27" class="edge">
<title>Node24&#45;&gt;Node26</title>
<path fill="none" stroke="midnightblue" d="M307.15,-130.5C331.24,-130.5 358.27,-130.5 381.34,-130.5"/>
<polygon fill="midnightblue" stroke="midnightblue" points="381.64,-134 391.64,-130.5 381.64,-127 381.64,-134"/>
</g>
<!-- Node25&#45;&gt;Node5 -->
<g id="edge26" class="edge">
<title>Node25&#45;&gt;Node5</title>
<path fill="none" stroke="midnightblue" d="M441.52,-571.52C460.97,-623.93 559.58,-889.62 589.74,-970.86"/>
<polygon fill="midnightblue" stroke="midnightblue" points="586.46,-972.09 593.22,-980.25 593.02,-969.65 586.46,-972.09"/>
</g>
<!-- Node27&#45;&gt;Node26 -->
<g id="edge30" class="edge">
<title>Node27&#45;&gt;Node26</title>
<path fill="none" stroke="midnightblue" d="M289.45,-102.55C317.28,-107.85 352.54,-114.57 381.52,-120.09"/>
<polygon fill="midnightblue" stroke="midnightblue" points="381,-123.55 391.48,-121.99 382.31,-116.68 381,-123.55"/>
</g>
<!-- Node28 -->
<g id="node28" class="node">
<title>Node28</title>
<g id="a_node28"><a xlink:href="class_countdown.xhtml#a0b422db7af35db7b4f1ccee7ff6e515a" target="_top" xlink:title="Show countdown status.">
<polygon fill="white" stroke="black" points="383.88,-84.5 383.88,-102.5 490.48,-102.5 490.48,-84.5 383.88,-84.5"/>
<text text-anchor="middle" x="437.18" y="-90.5" font-family="Helvetica,sans-Serif" font-size="10.00">Countdown::isActive</text>
</a>
</g>
</g>
<!-- Node27&#45;&gt;Node28 -->
<g id="edge29" class="edge">
<title>Node27&#45;&gt;Node28</title>
<path fill="none" stroke="midnightblue" d="M326,-93.5C341.91,-93.5 358.3,-93.5 373.41,-93.5"/>
<polygon fill="midnightblue" stroke="midnightblue" points="373.65,-97 383.65,-93.5 373.65,-90 373.65,-97"/>
</g>
<!-- Node30 -->
<g id="node30" class="node">
<title>Node30</title>
<g id="a_node30"><a xlink:href="class_preferences.xhtml#a653e46e61dfaa3ec7b199778ca098dd1" target="_top" xlink:title="Check if application is installed and available.">
<polygon fill="white" stroke="black" points="375.53,-37.5 375.53,-65.5 498.82,-65.5 498.82,-37.5 375.53,-37.5"/>
<text text-anchor="start" x="383.53" y="-53.5" font-family="Helvetica,sans-Serif" font-size="10.00">Preferences::application</text>
<text text-anchor="middle" x="437.18" y="-43.5" font-family="Helvetica,sans-Serif" font-size="10.00">Available</text>
</a>
</g>
</g>
<!-- Node29&#45;&gt;Node30 -->
<g id="edge32" class="edge">
<title>Node29&#45;&gt;Node30</title>
<path fill="none" stroke="midnightblue" d="M315.09,-51.5C331.57,-51.5 349.02,-51.5 365.4,-51.5"/>
<polygon fill="midnightblue" stroke="midnightblue" points="365.44,-55 375.44,-51.5 365.44,-48 365.44,-55"/>
</g>
<!-- Node31 -->
<g id="node31" class="node">
<title>Node31</title>
<g id="a_node31"><a xlink:href="class_preferences.xhtml#a512d98485496a33c8eeae5a2bc2d3964" target="_top" xlink:title="Read gphoto2 / libgphoto2 version and camera model.">
<polygon fill="white" stroke="black" points="375.81,-0.5 375.81,-18.5 498.54,-18.5 498.54,-0.5 375.81,-0.5"/>
<text text-anchor="middle" x="437.18" y="-6.5" font-family="Helvetica,sans-Serif" font-size="10.00">Preferences::gphotoInfo</text>
</a>
</g>
</g>
<!-- Node29&#45;&gt;Node31 -->
<g id="edge33" class="edge">
<title>Node29&#45;&gt;Node31</title>
<path fill="none" stroke="midnightblue" d="M283.6,-42.49C313.07,-36.12 352.79,-27.53 384.32,-20.71"/>
<polygon fill="midnightblue" stroke="midnightblue" points="385.21,-24.1 394.24,-18.57 383.73,-17.26 385.21,-24.1"/>
</g>
</g>
</svg>
        <g id="navigator" transform="translate(0 0)" fill="#404254">
                <rect fill="#f2f5e9" fill-opacity="0.5" stroke="#606060" stroke-width=".5" x="0" y="0" width="60" height="60"/>
                <use id="zoomplus" xlink:href="#zoomPlus" x="17" y="9" onmousedown="handleZoom(evt,'in')"/>
                <use id="zoomminus" xlink:href="#zoomMin" x="42" y="9" onmousedown="handleZoom(evt,'out')"/>
                <use id="reset" xlink:href="#resetDef" x="30" y="36" onmousedown="handleReset()"/>
                <g id="arrowUp" xlink:href="#dirArrow" transform="translate(30 24)" onmousedown="handlePan(0,-1)">
                  <use xlink:href="#rim" fill="#404040">
                        <set attributeName="fill" to="#808080" begin="arrowUp.mouseover" end="arrowUp.mouseout"/>
                  </use>
                  <path fill="none" stroke="white" stroke-width="1.5" d="M0,-3.0v7 M-2.5,-0.5L0,-3.0L2.5,-0.5"/>
                </g>
                <g id="arrowRight" xlink:href="#dirArrow" transform="rotate(90) translate(36 -43)" onmousedown="handlePan(1,0)">
                  <use xlink:href="#rim" fill="#404040">
                        <set attributeName="fill" to="#808080" begin="arrowRight.mouseover" end="arrowRight.mouseout"/>
                  </use>
                  <path fill="none" stroke="white" stroke-width="1.5" d="M0,-3.0v7 M-2.5,-0.5L0,-3.0L2.5,-0.5"/>
                </g>
                <g id="arrowDown" xlink:href="#dirArrow" transform="rotate(180) translate(-30 -48)" onmousedown="handlePan(0,1)">
                  <use xlink:href="#rim" fill="#404040">
                        <set attributeName="fill" to="#808080" begin="arrowDown.mouseover" end="arrowDown.mouseout"/>
                  </use>
                  <path fill="none" stroke="white" stroke-width="1.5" d="M0,-3.0v7 M-2.5,-0.5L0,-3.0L2.5,-0.5"/>
                </g>
                <g id="arrowLeft" xlink:href="#dirArrow" transform="rotate(270) translate(-36 17)" onmousedown="handlePan(-1,0)">
                  <use xlink:href="#rim" fill="#404040">
                        <set attributeName="fill" to="#808080" begin="arrowLeft.mouseover" end="arrowLeft.mouseout"/>
                  </use>
                  <path fill="none" stroke="white" stroke-width="1.5" d="M0,-3.0v7 M-2.5,-0.5L0,-3.0L2.5,-0.5"/>
                </g>
        </g>
        <svg viewBox="0 0 15 15" width="100%" height="30px" preserveAspectRatio="xMaxYMin meet">
         <g id="arrow_out" transform="scale(0.3 0.3)">
          <a xlink:href="class_preferences_a36e52663dbf3006c5dcf04d89cfd672d_cgraph_org.svg" target="_base">
           <rect id="button" ry="5" rx="5" y="6" x="6" height="38" width="38"
                fill="#f2f5e9" fill-opacity="0.5" stroke="#606060" stroke-width="1.0"/>
           <path id="arrow"
             d="M 11.500037,31.436501 C 11.940474,20.09759 22.043105,11.32322 32.158766,21.979434 L 37.068811,17.246167 C 37.068811,17.246167 37.088388,32 37.088388,32 L 22.160133,31.978069 C 22.160133,31.978069 26.997745,27.140456 26.997745,27.140456 C 18.528582,18.264221 13.291696,25.230495 11.500037,31.436501 z"
             style="fill:#404040;"/>
          </a>
         </g>
        </svg>
</svg>
