<?xml version="1.0" encoding="UTF-8" standalone="no"?>
<!DOCTYPE svg PUBLIC "-//W3C//DTD SVG 1.1//EN"
 "http://www.w3.org/Graphics/SVG/1.1/DTD/svg11.dtd">
<!-- Generated by graphviz version 2.42.3 (20191010.1750)
 -->
<!-- Title: FotoBox::startBuzzer Pages: 1 -->
<!--zoomable 64 -->
<svg id="main" version="1.1" xmlns="http://www.w3.org/2000/svg" xmlns:xlink="http://www.w3.org/1999/xlink" xml:space="preserve" onload="init(evt)">
<style type="text/css"><![CDATA[
.edge:hover path { stroke: red; }
.edge:hover polygon { stroke: red; fill: red; }
]]></style>
<script type="text/javascript"><![CDATA[
var edges = document.getElementsByTagName('g');
if (edges && edges.length) {
  for (var i=0;i<edges.length;i++) {
    if (edges[i].id.substr(0,4)=='edge') {
      edges[i].setAttribute('class','edge');
    }
  }
}
]]></script>
        <defs>
                <circle id="rim" cx="0" cy="0" r="7"/>
                <circle id="rim2" cx="0" cy="0" r="3.5"/>
                <g id="zoomPlus">
                        <use xlink:href="#rim" fill="#404040">
                                <set attributeName="fill" to="#808080" begin="zoomplus.mouseover" end="zoomplus.mouseout"/>
                        </use>
                        <path d="M-4,0h8M0,-4v8" fill="none" stroke="white" stroke-width="1.5" pointer-events="none"/>
                </g>
                <g id="zoomMin">
                        <use xlink:href="#rim" fill="#404040">
                                <set attributeName="fill" to="#808080" begin="zoomminus.mouseover" end="zoomminus.mouseout"/>
                        </use>
                        <path d="M-4,0h8" fill="none" stroke="white" stroke-width="1.5" pointer-events="none"/>
                </g>
                <g id="dirArrow">
                        <path fill="none" stroke="white" stroke-width="1.5" d="M0,-3.0v7 M-2.5,-0.5L0,-3.0L2.5,-0.5"/>
                </g>
               <g id="resetDef">
                       <use xlink:href="#rim2" fill="#404040">
                               <set attributeName="fill" to="#808080" begin="reset.mouseover" end="reset.mouseout"/>
                       </use>
               </g>
        </defs>

<script type="text/javascript">
var viewWidth = 512;
var viewHeight = 64;
var sectionId = 'dynsection-22';
</script>
<script xlink:href="svgpan.js"/>
<svg id="graph" class="graph">
<g id="viewport">
<title>FotoBox::startBuzzer</title>
<polygon fill="white" stroke="transparent" points="-4,4 -4,-60 508.4,-60 508.4,4 -4,4"/>
<!-- Node1 -->
<g id="node1" class="node">
<title>Node1</title>
<g id="a_node1"><a xlink:title="signal: start query pin with Buzzer class">
<polygon fill="#bfbfbf" stroke="black" points="395.03,-19.5 395.03,-37.5 504.4,-37.5 504.4,-19.5 395.03,-19.5"/>
<text text-anchor="middle" x="449.71" y="-25.5" font-family="Helvetica,sans-Serif" font-size="10.00">FotoBox::startBuzzer</text>
</a>
</g>
</g>
<!-- Node2 -->
<g id="node2" class="node">
<title>Node2</title>
<g id="a_node2"><a xlink:href="class_foto_box.xhtml#a243e47139b6e47ac86068bbbb9785ff3" target="_top" xlink:title="creates a new Buzzer object">
<polygon fill="white" stroke="black" points="141.22,-37.5 141.22,-55.5 230.03,-55.5 230.03,-37.5 141.22,-37.5"/>
<text text-anchor="middle" x="185.62" y="-43.5" font-family="Helvetica,sans-Serif" font-size="10.00">FotoBox::buzzer</text>
</a>
</g>
</g>
<!-- Node1&#45;&gt;Node2 -->
<g id="edge1" class="edge">
<title>Node1&#45;&gt;Node2</title>
<path fill="none" stroke="midnightblue" d="M384.75,-32.89C336.74,-36.19 272.3,-40.62 230.14,-43.51"/>
<polygon fill="midnightblue" stroke="midnightblue" points="384.99,-36.38 394.73,-32.21 384.51,-29.4 384.99,-36.38"/>
</g>
<!-- Node4 -->
<g id="node4" class="node">
<title>Node4</title>
<g id="a_node4"><a xlink:href="class_foto_box.xhtml#a78353b51782aab91a0b4eafac67be1c4" target="_top" xlink:title="trigger camera to shot a photo and try to show it">
<polygon fill="white" stroke="black" points="275.21,-0.5 275.21,-18.5 359.03,-18.5 359.03,-0.5 275.21,-0.5"/>
<text text-anchor="middle" x="317.12" y="-6.5" font-family="Helvetica,sans-Serif" font-size="10.00">FotoBox::photo</text>
</a>
</g>
</g>
<!-- Node1&#45;&gt;Node4 -->
<g id="edge3" class="edge">
<title>Node1&#45;&gt;Node4</title>
<path fill="none" stroke="midnightblue" d="M384.67,-19.18C375.97,-17.92 367.24,-16.65 359.09,-15.46"/>
<polygon fill="midnightblue" stroke="midnightblue" points="384.44,-22.69 394.84,-20.66 385.45,-15.76 384.44,-22.69"/>
</g>
<!-- Node3 -->
<g id="node3" class="node">
<title>Node3</title>
<g id="a_node3"><a xlink:href="class_foto_box.xhtml#a7e0a5334bb6ff5f26443c422dae22d54" target="_top" xlink:title="FotoBox constructor.">
<polygon fill="white" stroke="black" points="0,-18.5 0,-36.5 96.04,-36.5 96.04,-18.5 0,-18.5"/>
<text text-anchor="middle" x="48.02" y="-24.5" font-family="Helvetica,sans-Serif" font-size="10.00">FotoBox::FotoBox</text>
</a>
</g>
</g>
<!-- Node2&#45;&gt;Node3 -->
<g id="edge2" class="edge">
<title>Node2&#45;&gt;Node3</title>
<path fill="none" stroke="midnightblue" d="M130.72,-38.95C119.36,-37.36 107.44,-35.69 96.34,-34.13"/>
<polygon fill="midnightblue" stroke="midnightblue" points="130.58,-42.46 140.97,-40.38 131.55,-35.53 130.58,-42.46"/>
</g>
<!-- Node5 -->
<g id="node5" class="node">
<title>Node5</title>
<g id="a_node5"><a xlink:href="class_foto_box.xhtml#ab6131adb44137e55734eb8bb0672fd38" target="_top" xlink:title="With or without countdown.">
<polygon fill="white" stroke="black" points="132.04,-0.5 132.04,-18.5 239.21,-18.5 239.21,-0.5 132.04,-0.5"/>
<text text-anchor="middle" x="185.62" y="-6.5" font-family="Helvetica,sans-Serif" font-size="10.00">FotoBox::countdown</text>
</a>
</g>
</g>
<!-- Node4&#45;&gt;Node5 -->
<g id="edge4" class="edge">
<title>Node4&#45;&gt;Node5</title>
<path fill="none" stroke="midnightblue" d="M265.14,-2.89C256.77,-2.72 248.08,-2.71 239.67,-2.85"/>
<polygon fill="midnightblue" stroke="midnightblue" points="265.05,-6.39 275.14,-3.17 265.25,0.61 265.05,-6.39"/>
</g>
<!-- Node5&#45;&gt;Node3 -->
<g id="edge5" class="edge">
<title>Node5&#45;&gt;Node3</title>
<path fill="none" stroke="midnightblue" d="M121.78,-17.84C113.16,-18.99 104.44,-20.14 96.17,-21.24"/>
<polygon fill="midnightblue" stroke="midnightblue" points="122.35,-21.3 131.81,-16.51 121.43,-14.36 122.35,-21.3"/>
</g>
<!-- Node5&#45;&gt;Node4 -->
<g id="edge6" class="edge">
<title>Node5&#45;&gt;Node4</title>
<path fill="none" stroke="midnightblue" d="M249.75,-16.25C258.38,-16.27 267.05,-16.13 275.14,-15.83"/>
<polygon fill="midnightblue" stroke="midnightblue" points="249.7,-12.75 239.67,-16.15 249.63,-19.75 249.7,-12.75"/>
</g>
</g>
</svg>
        <g id="navigator" transform="translate(0 0)" fill="#404254">
                <rect fill="#f2f5e9" fill-opacity="0.5" stroke="#606060" stroke-width=".5" x="0" y="0" width="60" height="60"/>
                <use id="zoomplus" xlink:href="#zoomPlus" x="17" y="9" onmousedown="handleZoom(evt,'in')"/>
                <use id="zoomminus" xlink:href="#zoomMin" x="42" y="9" onmousedown="handleZoom(evt,'out')"/>
                <use id="reset" xlink:href="#resetDef" x="30" y="36" onmousedown="handleReset()"/>
                <g id="arrowUp" xlink:href="#dirArrow" transform="translate(30 24)" onmousedown="handlePan(0,-1)">
                  <use xlink:href="#rim" fill="#404040">
                        <set attributeName="fill" to="#808080" begin="arrowUp.mouseover" end="arrowUp.mouseout"/>
                  </use>
                  <path fill="none" stroke="white" stroke-width="1.5" d="M0,-3.0v7 M-2.5,-0.5L0,-3.0L2.5,-0.5"/>
                </g>
                <g id="arrowRight" xlink:href="#dirArrow" transform="rotate(90) translate(36 -43)" onmousedown="handlePan(1,0)">
                  <use xlink:href="#rim" fill="#404040">
                        <set attributeName="fill" to="#808080" begin="arrowRight.mouseover" end="arrowRight.mouseout"/>
                  </use>
                  <path fill="none" stroke="white" stroke-width="1.5" d="M0,-3.0v7 M-2.5,-0.5L0,-3.0L2.5,-0.5"/>
                </g>
                <g id="arrowDown" xlink:href="#dirArrow" transform="rotate(180) translate(-30 -48)" onmousedown="handlePan(0,1)">
                  <use xlink:href="#rim" fill="#404040">
                        <set attributeName="fill" to="#808080" begin="arrowDown.mouseover" end="arrowDown.mouseout"/>
                  </use>
                  <path fill="none" stroke="white" stroke-width="1.5" d="M0,-3.0v7 M-2.5,-0.5L0,-3.0L2.5,-0.5"/>
                </g>
                <g id="arrowLeft" xlink:href="#dirArrow" transform="rotate(270) translate(-36 17)" onmousedown="handlePan(-1,0)">
                  <use xlink:href="#rim" fill="#404040">
                        <set attributeName="fill" to="#808080" begin="arrowLeft.mouseover" end="arrowLeft.mouseout"/>
                  </use>
                  <path fill="none" stroke="white" stroke-width="1.5" d="M0,-3.0v7 M-2.5,-0.5L0,-3.0L2.5,-0.5"/>
                </g>
        </g>
        <svg viewBox="0 0 15 15" width="100%" height="30px" preserveAspectRatio="xMaxYMin meet">
         <g id="arrow_out" transform="scale(0.3 0.3)">
          <a xlink:href="class_foto_box_a165c4a901c04fd620f13616c879febda_icgraph_org.svg" target="_base">
           <rect id="button" ry="5" rx="5" y="6" x="6" height="38" width="38"
                fill="#f2f5e9" fill-opacity="0.5" stroke="#606060" stroke-width="1.0"/>
           <path id="arrow"
             d="M 11.500037,31.436501 C 11.940474,20.09759 22.043105,11.32322 32.158766,21.979434 L 37.068811,17.246167 C 37.068811,17.246167 37.088388,32 37.088388,32 L 22.160133,31.978069 C 22.160133,31.978069 26.997745,27.140456 26.997745,27.140456 C 18.528582,18.264221 13.291696,25.230495 11.500037,31.436501 z"
             style="fill:#404040;"/>
          </a>
         </g>
        </svg>
</svg>
