<?xml version="1.0" encoding="UTF-8" standalone="no"?>
<!DOCTYPE svg PUBLIC "-//W3C//DTD SVG 1.1//EN"
 "http://www.w3.org/Graphics/SVG/1.1/DTD/svg11.dtd">
<!-- Generated by graphviz version 2.42.3 (20191010.1750)
 -->
<!-- Title: Camera::shootPhoto Pages: 1 -->
<svg width="511pt" height="27pt"
 viewBox="0.00 0.00 510.75 27.00" xmlns="http://www.w3.org/2000/svg" xmlns:xlink="http://www.w3.org/1999/xlink">
<g id="graph0" class="graph" transform="scale(1 1) rotate(0) translate(4 23)">
<title>Camera::shootPhoto</title>
<polygon fill="white" stroke="transparent" points="-4,4 -4,-23 506.75,-23 506.75,4 -4,4"/>
<!-- Node1 -->
<g id="node1" class="node">
<title>Node1</title>
<g id="a_node1"><a xlink:title="shoot a photo with gphoto2">
<polygon fill="#bfbfbf" stroke="black" points="395.03,-0.5 395.03,-18.5 502.75,-18.5 502.75,-0.5 395.03,-0.5"/>
<text text-anchor="middle" x="448.89" y="-6.5" font-family="Helvetica,sans-Serif" font-size="10.00">Camera::shootPhoto</text>
</a>
</g>
</g>
<!-- Node2 -->
<g id="node2" class="node">
<title>Node2</title>
<g id="a_node2"><a xlink:href="class_foto_box.xhtml#a78353b51782aab91a0b4eafac67be1c4" target="_top" xlink:title="trigger camera to shot a photo and try to show it">
<polygon fill="white" stroke="black" points="275.21,-0.5 275.21,-18.5 359.03,-18.5 359.03,-0.5 275.21,-0.5"/>
<text text-anchor="middle" x="317.12" y="-6.5" font-family="Helvetica,sans-Serif" font-size="10.00">FotoBox::photo</text>
</a>
</g>
</g>
<!-- Node1&#45;&gt;Node2 -->
<g id="edge1" class="edge">
<title>Node1&#45;&gt;Node2</title>
<path fill="none" stroke="midnightblue" d="M384.6,-9.5C375.92,-9.5 367.21,-9.5 359.07,-9.5"/>
<polygon fill="midnightblue" stroke="midnightblue" points="384.73,-13 394.73,-9.5 384.73,-6 384.73,-13"/>
</g>
<!-- Node3 -->
<g id="node3" class="node">
<title>Node3</title>
<g id="a_node3"><a xlink:href="class_foto_box.xhtml#ab6131adb44137e55734eb8bb0672fd38" target="_top" xlink:title="With or without countdown.">
<polygon fill="white" stroke="black" points="132.04,-0.5 132.04,-18.5 239.21,-18.5 239.21,-0.5 132.04,-0.5"/>
<text text-anchor="middle" x="185.62" y="-6.5" font-family="Helvetica,sans-Serif" font-size="10.00">FotoBox::countdown</text>
</a>
</g>
</g>
<!-- Node2&#45;&gt;Node3 -->
<g id="edge2" class="edge">
<title>Node2&#45;&gt;Node3</title>
<path fill="none" stroke="midnightblue" d="M265.14,-2.89C256.77,-2.72 248.08,-2.71 239.67,-2.85"/>
<polygon fill="midnightblue" stroke="midnightblue" points="265.05,-6.39 275.14,-3.17 265.25,0.61 265.05,-6.39"/>
</g>
<!-- Node3&#45;&gt;Node2 -->
<g id="edge4" class="edge">
<title>Node3&#45;&gt;Node2</title>
<path fill="none" stroke="midnightblue" d="M249.75,-16.25C258.38,-16.27 267.05,-16.13 275.14,-15.83"/>
<polygon fill="midnightblue" stroke="midnightblue" points="249.7,-12.75 239.67,-16.15 249.63,-19.75 249.7,-12.75"/>
</g>
<!-- Node4 -->
<g id="node4" class="node">
<title>Node4</title>
<g id="a_node4"><a xlink:href="class_foto_box.xhtml#a7e0a5334bb6ff5f26443c422dae22d54" target="_top" xlink:title="FotoBox constructor.">
<polygon fill="white" stroke="black" points="0,-0.5 0,-18.5 96.04,-18.5 96.04,-0.5 0,-0.5"/>
<text text-anchor="middle" x="48.02" y="-6.5" font-family="Helvetica,sans-Serif" font-size="10.00">FotoBox::FotoBox</text>
</a>
</g>
</g>
<!-- Node3&#45;&gt;Node4 -->
<g id="edge3" class="edge">
<title>Node3&#45;&gt;Node4</title>
<path fill="none" stroke="midnightblue" d="M121.78,-9.5C113.16,-9.5 104.44,-9.5 96.17,-9.5"/>
<polygon fill="midnightblue" stroke="midnightblue" points="121.81,-13 131.81,-9.5 121.81,-6 121.81,-13"/>
</g>
</g>
</svg>
