<?xml version="1.0" encoding="UTF-8" standalone="no"?>
<!DOCTYPE svg PUBLIC "-//W3C//DTD SVG 1.1//EN"
 "http://www.w3.org/Graphics/SVG/1.1/DTD/svg11.dtd">
<!-- Generated by graphviz version 2.42.3 (20191010.1750)
 -->
<!-- Title: Preferences::startFotoBox Pages: 1 -->
<svg width="465pt" height="69pt"
 viewBox="0.00 0.00 464.83 69.00" xmlns="http://www.w3.org/2000/svg" xmlns:xlink="http://www.w3.org/1999/xlink">
<g id="graph0" class="graph" transform="scale(1 1) rotate(0) translate(4 65)">
<title>Preferences::startFotoBox</title>
<polygon fill="white" stroke="transparent" points="-4,4 -4,-65 460.83,-65 460.83,4 -4,4"/>
<!-- Node1 -->
<g id="node1" class="node">
<title>Node1</title>
<g id="a_node1"><a xlink:title="Start the FotoBox.">
<polygon fill="#bfbfbf" stroke="black" points="0,-18.5 0,-36.5 132.16,-36.5 132.16,-18.5 0,-18.5"/>
<text text-anchor="middle" x="66.08" y="-24.5" font-family="Helvetica,sans-Serif" font-size="10.00">Preferences::startFotoBox</text>
</a>
</g>
</g>
<!-- Node2 -->
<g id="node2" class="node">
<title>Node2</title>
<g id="a_node2"><a xlink:href="class_preferences.xhtml#a70c6489f66db193c8645fed5d4b36ac6" target="_top" xlink:title="Save the preferences to QSettings.">
<polygon fill="white" stroke="black" points="168.16,-37.5 168.16,-55.5 318.67,-55.5 318.67,-37.5 168.16,-37.5"/>
<text text-anchor="middle" x="243.42" y="-43.5" font-family="Helvetica,sans-Serif" font-size="10.00">Preferences::savePreferences</text>
</a>
</g>
</g>
<!-- Node1&#45;&gt;Node2 -->
<g id="edge1" class="edge">
<title>Node1&#45;&gt;Node2</title>
<path fill="none" stroke="midnightblue" d="M132.37,-34.57C140.7,-35.48 149.31,-36.41 157.89,-37.34"/>
<polygon fill="midnightblue" stroke="midnightblue" points="157.6,-40.83 167.92,-38.43 158.36,-33.87 157.6,-40.83"/>
</g>
<!-- Node4 -->
<g id="node4" class="node">
<title>Node4</title>
<g id="a_node4"><a xlink:href="class_countdown.xhtml#a1d2e91a257e7867874a501c8565fcbdc" target="_top" xlink:title="Stop countdown and check.">
<polygon fill="white" stroke="black" points="197.89,-0.5 197.89,-18.5 288.94,-18.5 288.94,-0.5 197.89,-0.5"/>
<text text-anchor="middle" x="243.42" y="-6.5" font-family="Helvetica,sans-Serif" font-size="10.00">Countdown::stop</text>
</a>
</g>
</g>
<!-- Node1&#45;&gt;Node4 -->
<g id="edge3" class="edge">
<title>Node1&#45;&gt;Node4</title>
<path fill="none" stroke="midnightblue" d="M132.37,-20.8C150.6,-18.93 170.22,-16.91 187.77,-15.11"/>
<polygon fill="midnightblue" stroke="midnightblue" points="188.24,-18.58 197.83,-14.08 187.53,-11.62 188.24,-18.58"/>
</g>
<!-- Node3 -->
<g id="node3" class="node">
<title>Node3</title>
<g id="a_node3"><a xlink:href="class_preference_provider.xhtml#a1bbf00bcafe7e0d8f4adf991a51a4656" target="_top" xlink:title="get instance (Meyers Singleton)">
<polygon fill="white" stroke="black" points="354.67,-32.5 354.67,-60.5 456.83,-60.5 456.83,-32.5 354.67,-32.5"/>
<text text-anchor="start" x="362.67" y="-48.5" font-family="Helvetica,sans-Serif" font-size="10.00">PreferenceProvider</text>
<text text-anchor="middle" x="405.75" y="-38.5" font-family="Helvetica,sans-Serif" font-size="10.00">::instance</text>
</a>
</g>
</g>
<!-- Node2&#45;&gt;Node3 -->
<g id="edge2" class="edge">
<title>Node2&#45;&gt;Node3</title>
<path fill="none" stroke="midnightblue" d="M318.95,-46.5C327.56,-46.5 336.25,-46.5 344.63,-46.5"/>
<polygon fill="midnightblue" stroke="midnightblue" points="344.67,-50 354.67,-46.5 344.67,-43 344.67,-50"/>
</g>
</g>
</svg>
