<?xml version="1.0" encoding="UTF-8" standalone="no"?>
<!DOCTYPE svg PUBLIC "-//W3C//DTD SVG 1.1//EN"
 "http://www.w3.org/Graphics/SVG/1.1/DTD/svg11.dtd">
<!-- Generated by graphviz version 2.42.3 (20191010.1750)
 -->
<!-- Title: Countdown::Countdown Pages: 1 -->
<svg width="435pt" height="27pt"
 viewBox="0.00 0.00 435.06 27.00" xmlns="http://www.w3.org/2000/svg" xmlns:xlink="http://www.w3.org/1999/xlink">
<g id="graph0" class="graph" transform="scale(1 1) rotate(0) translate(4 23)">
<title>Countdown::Countdown</title>
<polygon fill="white" stroke="transparent" points="-4,4 -4,-23 431.06,-23 431.06,4 -4,4"/>
<!-- Node1 -->
<g id="node1" class="node">
<title>Node1</title>
<g id="a_node1"><a xlink:title="Countdown constructor.">
<polygon fill="#bfbfbf" stroke="black" points="0,-0.5 0,-18.5 122.74,-18.5 122.74,-0.5 0,-0.5"/>
<text text-anchor="middle" x="61.37" y="-6.5" font-family="Helvetica,sans-Serif" font-size="10.00">Countdown::Countdown</text>
</a>
</g>
</g>
<!-- Node2 -->
<g id="node2" class="node">
<title>Node2</title>
<g id="a_node2"><a xlink:href="class_countdown.xhtml#a9098d9aba8a5e4841f93ca30414c78b0" target="_top" xlink:title="Start the timer until there is no time left, means.">
<polygon fill="white" stroke="black" points="158.74,-0.5 158.74,-18.5 300.01,-18.5 300.01,-0.5 158.74,-0.5"/>
<text text-anchor="middle" x="229.37" y="-6.5" font-family="Helvetica,sans-Serif" font-size="10.00">Countdown::updateTimeLeft</text>
</a>
</g>
</g>
<!-- Node1&#45;&gt;Node2 -->
<g id="edge1" class="edge">
<title>Node1&#45;&gt;Node2</title>
<path fill="none" stroke="midnightblue" d="M122.77,-9.5C131.17,-9.5 139.89,-9.5 148.58,-9.5"/>
<polygon fill="midnightblue" stroke="midnightblue" points="148.73,-13 158.73,-9.5 148.73,-6 148.73,-13"/>
</g>
<!-- Node3 -->
<g id="node3" class="node">
<title>Node3</title>
<g id="a_node3"><a xlink:href="class_countdown.xhtml#a1d2e91a257e7867874a501c8565fcbdc" target="_top" xlink:title="Stop countdown and check.">
<polygon fill="white" stroke="black" points="336.01,-0.5 336.01,-18.5 427.06,-18.5 427.06,-0.5 336.01,-0.5"/>
<text text-anchor="middle" x="381.53" y="-6.5" font-family="Helvetica,sans-Serif" font-size="10.00">Countdown::stop</text>
</a>
</g>
</g>
<!-- Node2&#45;&gt;Node3 -->
<g id="edge2" class="edge">
<title>Node2&#45;&gt;Node3</title>
<path fill="none" stroke="midnightblue" d="M300.18,-9.5C308.69,-9.5 317.28,-9.5 325.53,-9.5"/>
<polygon fill="midnightblue" stroke="midnightblue" points="325.76,-13 335.76,-9.5 325.76,-6 325.76,-13"/>
</g>
</g>
</svg>
