<?xml version="1.0" encoding="UTF-8" standalone="no"?>
<!DOCTYPE svg PUBLIC "-//W3C//DTD SVG 1.1//EN"
 "http://www.w3.org/Graphics/SVG/1.1/DTD/svg11.dtd">
<!-- Generated by graphviz version 2.42.3 (20191010.1750)
 -->
<!-- Title: FotoBox::FotoBox Pages: 1 -->
<svg width="721pt" height="336pt"
 viewBox="0.00 0.00 720.58 336.41" xmlns="http://www.w3.org/2000/svg" xmlns:xlink="http://www.w3.org/1999/xlink">
<g id="graph0" class="graph" transform="scale(1 1) rotate(0) translate(4 332.41)">
<title>FotoBox::FotoBox</title>
<polygon fill="white" stroke="transparent" points="-4,4 -4,-332.41 716.58,-332.41 716.58,4 -4,4"/>
<!-- Node1 -->
<g id="node1" class="node">
<title>Node1</title>
<g id="a_node1"><a xlink:title="FotoBox constructor.">
<polygon fill="#bfbfbf" stroke="black" points="0,-206.5 0,-224.5 96.04,-224.5 96.04,-206.5 0,-206.5"/>
<text text-anchor="middle" x="48.02" y="-212.5" font-family="Helvetica,sans-Serif" font-size="10.00">FotoBox::FotoBox</text>
</a>
</g>
</g>
<!-- Node2 -->
<g id="node2" class="node">
<title>Node2</title>
<g id="a_node2"><a xlink:href="class_foto_box.xhtml#a6ea2f49a55e9e59ec855578e7c9c8896" target="_top" xlink:title="With or without buttons.">
<polygon fill="white" stroke="black" points="139.82,-268.5 139.82,-286.5 231.42,-286.5 231.42,-268.5 139.82,-268.5"/>
<text text-anchor="middle" x="185.62" y="-274.5" font-family="Helvetica,sans-Serif" font-size="10.00">FotoBox::buttons</text>
</a>
</g>
</g>
<!-- Node1&#45;&gt;Node2 -->
<g id="edge1" class="edge">
<title>Node1&#45;&gt;Node2</title>
<path fill="none" stroke="midnightblue" d="M68.74,-224.52C91.53,-234.94 129.27,-252.19 155.46,-264.17"/>
<polygon fill="midnightblue" stroke="midnightblue" points="154.33,-267.5 164.88,-268.47 157.24,-261.13 154.33,-267.5"/>
</g>
<!-- Node3 -->
<g id="node3" class="node">
<title>Node3</title>
<g id="a_node3"><a xlink:href="class_preference_provider.xhtml#a1bbf00bcafe7e0d8f4adf991a51a4656" target="_top" xlink:title="get instance (Meyers Singleton)">
<polygon fill="white" stroke="black" points="610.43,-182.5 610.43,-210.5 712.58,-210.5 712.58,-182.5 610.43,-182.5"/>
<text text-anchor="start" x="618.43" y="-198.5" font-family="Helvetica,sans-Serif" font-size="10.00">PreferenceProvider</text>
<text text-anchor="middle" x="661.51" y="-188.5" font-family="Helvetica,sans-Serif" font-size="10.00">::instance</text>
</a>
</g>
</g>
<!-- Node1&#45;&gt;Node3 -->
<g id="edge21" class="edge">
<title>Node1&#45;&gt;Node3</title>
<path fill="none" stroke="midnightblue" d="M96.08,-216.4C165.02,-217.49 297.54,-218.7 410.16,-214.5 475.14,-212.08 549.42,-206.36 600.09,-202.02"/>
<polygon fill="midnightblue" stroke="midnightblue" points="600.55,-205.49 610.22,-201.14 599.95,-198.52 600.55,-205.49"/>
</g>
<!-- Node6 -->
<g id="node6" class="node">
<title>Node6</title>
<g id="a_node6"><a xlink:href="class_foto_box.xhtml#a243e47139b6e47ac86068bbbb9785ff3" target="_top" xlink:title="creates a new Buzzer object">
<polygon fill="white" stroke="black" points="141.22,-187.5 141.22,-205.5 230.03,-205.5 230.03,-187.5 141.22,-187.5"/>
<text text-anchor="middle" x="185.62" y="-193.5" font-family="Helvetica,sans-Serif" font-size="10.00">FotoBox::buzzer</text>
</a>
</g>
</g>
<!-- Node1&#45;&gt;Node6 -->
<g id="edge5" class="edge">
<title>Node1&#45;&gt;Node6</title>
<path fill="none" stroke="midnightblue" d="M96.07,-208.91C107.31,-207.33 119.39,-205.64 130.91,-204.03"/>
<polygon fill="midnightblue" stroke="midnightblue" points="131.43,-207.49 140.85,-202.63 130.46,-200.56 131.43,-207.49"/>
</g>
<!-- Node8 -->
<g id="node8" class="node">
<title>Node8</title>
<g id="a_node8"><a xlink:href="class_foto_box.xhtml#ab6131adb44137e55734eb8bb0672fd38" target="_top" xlink:title="With or without countdown.">
<polygon fill="white" stroke="black" points="132.04,-93.5 132.04,-111.5 239.21,-111.5 239.21,-93.5 132.04,-93.5"/>
<text text-anchor="middle" x="185.62" y="-99.5" font-family="Helvetica,sans-Serif" font-size="10.00">FotoBox::countdown</text>
</a>
</g>
</g>
<!-- Node1&#45;&gt;Node8 -->
<g id="edge7" class="edge">
<title>Node1&#45;&gt;Node8</title>
<path fill="none" stroke="midnightblue" d="M60.12,-206.25C83.28,-186.95 136.98,-142.2 165.7,-118.27"/>
<polygon fill="midnightblue" stroke="midnightblue" points="168.31,-120.65 173.75,-111.56 163.83,-115.27 168.31,-120.65"/>
</g>
<!-- Node2&#45;&gt;Node3 -->
<g id="edge2" class="edge">
<title>Node2&#45;&gt;Node3</title>
<path fill="none" stroke="midnightblue" d="M210.84,-286.56C274.21,-308.71 448.71,-359.64 574.43,-300.5 609.79,-283.87 635.6,-244.8 649.3,-219.56"/>
<polygon fill="midnightblue" stroke="midnightblue" points="652.43,-221.13 653.95,-210.65 646.22,-217.89 652.43,-221.13"/>
</g>
<!-- Node4 -->
<g id="node4" class="node">
<title>Node4</title>
<g id="a_node4"><a xlink:href="class_foto_box.xhtml#a425dffd36aa5b68a110a42c4c3a20942" target="_top" xlink:title="show preference dialog and close dialog">
<polygon fill="white" stroke="black" points="275.21,-268.5 275.21,-286.5 410.16,-286.5 410.16,-268.5 275.21,-268.5"/>
<text text-anchor="middle" x="342.68" y="-274.5" font-family="Helvetica,sans-Serif" font-size="10.00">FotoBox::preferenceDialog</text>
</a>
</g>
</g>
<!-- Node2&#45;&gt;Node4 -->
<g id="edge3" class="edge">
<title>Node2&#45;&gt;Node4</title>
<path fill="none" stroke="midnightblue" d="M231.47,-277.5C241.99,-277.5 253.48,-277.5 264.96,-277.5"/>
<polygon fill="midnightblue" stroke="midnightblue" points="265.01,-281 275.01,-277.5 265.01,-274 265.01,-281"/>
</g>
<!-- Node5 -->
<g id="node5" class="node">
<title>Node5</title>
<g id="a_node5"><a xlink:href="class_foto_box.xhtml#a222aa7e9a43bd9cb8dca55b806649b82" target="_top" xlink:title="Is used as a workaround for macOS to close a fullscreen window.">
<polygon fill="white" stroke="black" points="446.16,-263.5 446.16,-291.5 574.43,-291.5 574.43,-263.5 446.16,-263.5"/>
<text text-anchor="start" x="454.16" y="-279.5" font-family="Helvetica,sans-Serif" font-size="10.00">FotoBox::closeFullscreen</text>
<text text-anchor="middle" x="510.3" y="-269.5" font-family="Helvetica,sans-Serif" font-size="10.00">WindowOnMac</text>
</a>
</g>
</g>
<!-- Node4&#45;&gt;Node5 -->
<g id="edge4" class="edge">
<title>Node4&#45;&gt;Node5</title>
<path fill="none" stroke="midnightblue" d="M410.57,-277.5C418.86,-277.5 427.38,-277.5 435.77,-277.5"/>
<polygon fill="midnightblue" stroke="midnightblue" points="435.92,-281 445.92,-277.5 435.92,-274 435.92,-281"/>
</g>
<!-- Node7 -->
<g id="node7" class="node">
<title>Node7</title>
<g id="a_node7"><a xlink:href="class_buzzer.xhtml#a36384028775a41314221ecc23de3cf67" target="_top" xlink:title="Query the Raspberry Pi pin.">
<polygon fill="white" stroke="black" points="296.61,-187.5 296.61,-205.5 388.76,-205.5 388.76,-187.5 296.61,-187.5"/>
<text text-anchor="middle" x="342.68" y="-193.5" font-family="Helvetica,sans-Serif" font-size="10.00">Buzzer::queryPin</text>
</a>
</g>
</g>
<!-- Node6&#45;&gt;Node7 -->
<g id="edge6" class="edge">
<title>Node6&#45;&gt;Node7</title>
<path fill="none" stroke="midnightblue" d="M230.23,-196.5C247.69,-196.5 268.01,-196.5 286.48,-196.5"/>
<polygon fill="midnightblue" stroke="midnightblue" points="286.52,-200 296.52,-196.5 286.52,-193 286.52,-200"/>
</g>
<!-- Node8&#45;&gt;Node3 -->
<g id="edge8" class="edge">
<title>Node8&#45;&gt;Node3</title>
<path fill="none" stroke="midnightblue" d="M215.91,-111.56C263.67,-126.03 361.51,-154.35 446.16,-170.5 497.81,-180.35 557.2,-187.21 600.35,-191.4"/>
<polygon fill="midnightblue" stroke="midnightblue" points="600.12,-194.9 610.4,-192.36 600.78,-187.93 600.12,-194.9"/>
</g>
<!-- Node9 -->
<g id="node9" class="node">
<title>Node9</title>
<g id="a_node9"><a xlink:href="class_foto_box.xhtml#a78353b51782aab91a0b4eafac67be1c4" target="_top" xlink:title="trigger camera to shot a photo and try to show it">
<polygon fill="white" stroke="black" points="300.77,-93.5 300.77,-111.5 384.59,-111.5 384.59,-93.5 300.77,-93.5"/>
<text text-anchor="middle" x="342.68" y="-99.5" font-family="Helvetica,sans-Serif" font-size="10.00">FotoBox::photo</text>
</a>
</g>
</g>
<!-- Node8&#45;&gt;Node9 -->
<g id="edge9" class="edge">
<title>Node8&#45;&gt;Node9</title>
<path fill="none" stroke="midnightblue" d="M239.55,-96.06C255.96,-95.63 274.01,-95.65 290.31,-96.1"/>
<polygon fill="midnightblue" stroke="midnightblue" points="290.62,-99.62 300.74,-96.47 290.87,-92.62 290.62,-99.62"/>
</g>
<!-- Node15 -->
<g id="node15" class="node">
<title>Node15</title>
<g id="a_node15"><a xlink:href="class_countdown.xhtml#a2c047ed2997b0d933b18ead33b3a6a5e" target="_top" xlink:title="Set the countdown start time.">
<polygon fill="white" stroke="black" points="278.45,-56.5 278.45,-74.5 406.91,-74.5 406.91,-56.5 278.45,-56.5"/>
<text text-anchor="middle" x="342.68" y="-62.5" font-family="Helvetica,sans-Serif" font-size="10.00">Countdown::setStartTime</text>
</a>
</g>
</g>
<!-- Node8&#45;&gt;Node15 -->
<g id="edge18" class="edge">
<title>Node8&#45;&gt;Node15</title>
<path fill="none" stroke="midnightblue" d="M224.55,-93.45C245.47,-88.46 271.64,-82.21 293.94,-76.89"/>
<polygon fill="midnightblue" stroke="midnightblue" points="294.96,-80.25 303.87,-74.52 293.34,-73.44 294.96,-80.25"/>
</g>
<!-- Node16 -->
<g id="node16" class="node">
<title>Node16</title>
<g id="a_node16"><a xlink:href="class_countdown.xhtml#a13ddff9d6b42b10df1fd9a99e1317c21" target="_top" xlink:title="Start countdown.">
<polygon fill="white" stroke="black" points="296.89,-19.5 296.89,-37.5 388.48,-37.5 388.48,-19.5 296.89,-19.5"/>
<text text-anchor="middle" x="342.68" y="-25.5" font-family="Helvetica,sans-Serif" font-size="10.00">Countdown::start</text>
</a>
</g>
</g>
<!-- Node8&#45;&gt;Node16 -->
<g id="edge20" class="edge">
<title>Node8&#45;&gt;Node16</title>
<path fill="none" stroke="midnightblue" d="M198.3,-93.49C214.66,-81.27 245.72,-59.46 275.21,-46.5 280.2,-44.31 285.53,-42.32 290.91,-40.54"/>
<polygon fill="midnightblue" stroke="midnightblue" points="292.06,-43.85 300.59,-37.56 290,-37.16 292.06,-43.85"/>
</g>
<!-- Node9&#45;&gt;Node3 -->
<g id="edge12" class="edge">
<title>Node9&#45;&gt;Node3</title>
<path fill="none" stroke="midnightblue" d="M367.95,-111.59C388.61,-119.19 419.15,-130.11 446.16,-138.5 497.91,-154.57 557.45,-170.47 600.62,-181.55"/>
<polygon fill="midnightblue" stroke="midnightblue" points="599.85,-184.97 610.4,-184.05 601.58,-178.19 599.85,-184.97"/>
</g>
<!-- Node9&#45;&gt;Node8 -->
<g id="edge10" class="edge">
<title>Node9&#45;&gt;Node8</title>
<path fill="none" stroke="midnightblue" d="M300.74,-108.53C285.07,-109.2 266.82,-109.4 249.57,-109.14"/>
<polygon fill="midnightblue" stroke="midnightblue" points="249.62,-105.64 239.55,-108.94 249.48,-112.64 249.62,-105.64"/>
</g>
<!-- Node10 -->
<g id="node10" class="node">
<title>Node10</title>
<g id="a_node10"><a xlink:href="class_camera.xhtml#a2c0bde0a61b5194f3072045d6aac2431" target="_top" xlink:title="return member">
<polygon fill="white" stroke="black" points="453.11,-111.5 453.11,-129.5 567.49,-129.5 567.49,-111.5 453.11,-111.5"/>
<text text-anchor="middle" x="510.3" y="-117.5" font-family="Helvetica,sans-Serif" font-size="10.00">Camera::currentPhoto</text>
</a>
</g>
</g>
<!-- Node9&#45;&gt;Node10 -->
<g id="edge11" class="edge">
<title>Node9&#45;&gt;Node10</title>
<path fill="none" stroke="midnightblue" d="M384.62,-106.95C402.16,-108.86 423.1,-111.13 442.76,-113.27"/>
<polygon fill="midnightblue" stroke="midnightblue" points="442.58,-116.77 452.9,-114.37 443.34,-109.81 442.58,-116.77"/>
</g>
<!-- Node11 -->
<g id="node11" class="node">
<title>Node11</title>
<g id="a_node11"><a xlink:href="class_foto_box.xhtml#a78d1e793417f4ce20a26465271b383b1" target="_top" xlink:title="try to load the photo to QPixmap">
<polygon fill="white" stroke="black" points="458.38,-74.5 458.38,-92.5 562.21,-92.5 562.21,-74.5 458.38,-74.5"/>
<text text-anchor="middle" x="510.3" y="-80.5" font-family="Helvetica,sans-Serif" font-size="10.00">FotoBox::loadPhoto</text>
</a>
</g>
</g>
<!-- Node9&#45;&gt;Node11 -->
<g id="edge13" class="edge">
<title>Node9&#45;&gt;Node11</title>
<path fill="none" stroke="midnightblue" d="M384.62,-97.8C403.72,-95.61 426.85,-92.96 447.97,-90.54"/>
<polygon fill="midnightblue" stroke="midnightblue" points="448.62,-93.98 458.16,-89.37 447.82,-87.03 448.62,-93.98"/>
</g>
<!-- Node12 -->
<g id="node12" class="node">
<title>Node12</title>
<g id="a_node12"><a xlink:href="class_countdown.xhtml#ad40778dc0f3575a3e04a8270d4e0d13e" target="_top" xlink:title="Reset countdown (reset.">
<polygon fill="white" stroke="black" points="463.11,-0.5 463.11,-18.5 557.49,-18.5 557.49,-0.5 463.11,-0.5"/>
<text text-anchor="middle" x="510.3" y="-6.5" font-family="Helvetica,sans-Serif" font-size="10.00">Countdown::reset</text>
</a>
</g>
</g>
<!-- Node9&#45;&gt;Node12 -->
<g id="edge15" class="edge">
<title>Node9&#45;&gt;Node12</title>
<path fill="none" stroke="midnightblue" d="M384.85,-95.71C393.77,-92.93 402.74,-89.01 410.16,-83.5 433.91,-65.86 422.4,-45.14 446.16,-27.5 448.52,-25.75 451.05,-24.17 453.68,-22.74"/>
<polygon fill="midnightblue" stroke="midnightblue" points="455.35,-25.82 462.96,-18.45 452.41,-19.47 455.35,-25.82"/>
</g>
<!-- Node14 -->
<g id="node14" class="node">
<title>Node14</title>
<g id="a_node14"><a xlink:href="class_camera.xhtml#acf9be518b41bd5f5f33f8e337b740704" target="_top" xlink:title="shoot a photo with gphoto2">
<polygon fill="white" stroke="black" points="456.44,-37.5 456.44,-55.5 564.16,-55.5 564.16,-37.5 456.44,-37.5"/>
<text text-anchor="middle" x="510.3" y="-43.5" font-family="Helvetica,sans-Serif" font-size="10.00">Camera::shootPhoto</text>
</a>
</g>
</g>
<!-- Node9&#45;&gt;Node14 -->
<g id="edge17" class="edge">
<title>Node9&#45;&gt;Node14</title>
<path fill="none" stroke="midnightblue" d="M380.37,-93.48C390.18,-90.68 400.69,-87.3 410.16,-83.5 426.95,-76.76 429.37,-71.24 446.16,-64.5 451.58,-62.32 457.36,-60.3 463.14,-58.45"/>
<polygon fill="midnightblue" stroke="midnightblue" points="464.26,-61.77 472.8,-55.51 462.22,-55.07 464.26,-61.77"/>
</g>
<!-- Node11&#45;&gt;Node3 -->
<g id="edge14" class="edge">
<title>Node11&#45;&gt;Node3</title>
<path fill="none" stroke="midnightblue" d="M555.11,-92.53C561.85,-94.89 568.53,-97.83 574.43,-101.5 604.5,-120.19 630.44,-152.34 645.77,-174"/>
<polygon fill="midnightblue" stroke="midnightblue" points="642.93,-176.04 651.48,-182.29 648.69,-172.07 642.93,-176.04"/>
</g>
<!-- Node13 -->
<g id="node13" class="node">
<title>Node13</title>
<g id="a_node13"><a xlink:href="class_countdown.xhtml#a1d2e91a257e7867874a501c8565fcbdc" target="_top" xlink:title="Stop countdown and check.">
<polygon fill="white" stroke="black" points="615.98,-0.5 615.98,-18.5 707.03,-18.5 707.03,-0.5 615.98,-0.5"/>
<text text-anchor="middle" x="661.51" y="-6.5" font-family="Helvetica,sans-Serif" font-size="10.00">Countdown::stop</text>
</a>
</g>
</g>
<!-- Node12&#45;&gt;Node13 -->
<g id="edge16" class="edge">
<title>Node12&#45;&gt;Node13</title>
<path fill="none" stroke="midnightblue" d="M557.69,-9.5C572.92,-9.5 589.99,-9.5 605.77,-9.5"/>
<polygon fill="midnightblue" stroke="midnightblue" points="605.93,-13 615.93,-9.5 605.93,-6 605.93,-13"/>
</g>
<!-- Node15&#45;&gt;Node12 -->
<g id="edge19" class="edge">
<title>Node15&#45;&gt;Node12</title>
<path fill="none" stroke="midnightblue" d="M380.37,-56.48C390.18,-53.68 400.69,-50.3 410.16,-46.5 426.95,-39.76 429.37,-34.24 446.16,-27.5 451.58,-25.32 457.36,-23.3 463.14,-21.45"/>
<polygon fill="midnightblue" stroke="midnightblue" points="464.26,-24.77 472.8,-18.51 462.22,-18.07 464.26,-24.77"/>
</g>
</g>
</svg>
