<?xml version="1.0" encoding="UTF-8" standalone="no"?>
<!DOCTYPE svg PUBLIC "-//W3C//DTD SVG 1.1//EN"
 "http://www.w3.org/Graphics/SVG/1.1/DTD/svg11.dtd">
<!-- Generated by graphviz version 2.42.3 (20191010.1750)
 -->
<!-- Title: FotoBox Pages: 1 -->
<!--zoomable 646 -->
<svg id="main" version="1.1" xmlns="http://www.w3.org/2000/svg" xmlns:xlink="http://www.w3.org/1999/xlink" xml:space="preserve" onload="init(evt)">
<style type="text/css"><![CDATA[
.edge:hover path { stroke: red; }
.edge:hover polygon { stroke: red; fill: red; }
]]></style>
<script type="text/javascript"><![CDATA[
var edges = document.getElementsByTagName('g');
if (edges && edges.length) {
  for (var i=0;i<edges.length;i++) {
    if (edges[i].id.substr(0,4)=='edge') {
      edges[i].setAttribute('class','edge');
    }
  }
}
]]></script>
        <defs>
                <circle id="rim" cx="0" cy="0" r="7"/>
                <circle id="rim2" cx="0" cy="0" r="3.5"/>
                <g id="zoomPlus">
                        <use xlink:href="#rim" fill="#404040">
                                <set attributeName="fill" to="#808080" begin="zoomplus.mouseover" end="zoomplus.mouseout"/>
                        </use>
                        <path d="M-4,0h8M0,-4v8" fill="none" stroke="white" stroke-width="1.5" pointer-events="none"/>
                </g>
                <g id="zoomMin">
                        <use xlink:href="#rim" fill="#404040">
                                <set attributeName="fill" to="#808080" begin="zoomminus.mouseover" end="zoomminus.mouseout"/>
                        </use>
                        <path d="M-4,0h8" fill="none" stroke="white" stroke-width="1.5" pointer-events="none"/>
                </g>
                <g id="dirArrow">
                        <path fill="none" stroke="white" stroke-width="1.5" d="M0,-3.0v7 M-2.5,-0.5L0,-3.0L2.5,-0.5"/>
                </g>
               <g id="resetDef">
                       <use xlink:href="#rim2" fill="#404040">
                               <set attributeName="fill" to="#808080" begin="reset.mouseover" end="reset.mouseout"/>
                       </use>
               </g>
        </defs>

<script type="text/javascript">
var viewWidth = 380;
var viewHeight = 646;
var sectionId = 'dynsection-1';
</script>
<script xlink:href="svgpan.js"/>
<svg id="graph" class="graph">
<g id="viewport">
<title>FotoBox</title>
<polygon fill="white" stroke="transparent" points="-4,4 -4,-642 376.25,-642 376.25,4 -4,4"/>
<!-- Node1 -->
<g id="node1" class="node">
<title>Node1</title>
<g id="a_node1"><a xlink:title="The FotoBox class Main class to control UI and controll the process.">
<polygon fill="#bfbfbf" stroke="black" points="95.04,-0.5 95.04,-294.5 261.08,-294.5 261.08,-0.5 95.04,-0.5"/>
<text text-anchor="middle" x="178.06" y="-282.5" font-family="Helvetica,sans-Serif" font-size="10.00">FotoBox</text>
<polyline fill="none" stroke="black" points="95.04,-276.5 261.08,-276.5 "/>
<text text-anchor="start" x="103.04" y="-264.5" font-family="Helvetica,sans-Serif" font-size="10.00">&#45; m_ui</text>
<text text-anchor="start" x="103.04" y="-254.5" font-family="Helvetica,sans-Serif" font-size="10.00">&#45; m_workerThread</text>
<text text-anchor="start" x="103.04" y="-244.5" font-family="Helvetica,sans-Serif" font-size="10.00">&#45; m_photo</text>
<text text-anchor="start" x="103.04" y="-234.5" font-family="Helvetica,sans-Serif" font-size="10.00">&#45; m_photoDir</text>
<text text-anchor="start" x="103.04" y="-224.5" font-family="Helvetica,sans-Serif" font-size="10.00">&#45; m_triggerKey</text>
<text text-anchor="start" x="103.04" y="-214.5" font-family="Helvetica,sans-Serif" font-size="10.00">&#45; m_preferenceKey</text>
<text text-anchor="start" x="103.04" y="-204.5" font-family="Helvetica,sans-Serif" font-size="10.00">&#45; m_quitKey</text>
<text text-anchor="start" x="103.04" y="-194.5" font-family="Helvetica,sans-Serif" font-size="10.00">&#45; STATUSBAR_MSG_TIMEOUT</text>
<text text-anchor="start" x="103.04" y="-184.5" font-family="Helvetica,sans-Serif" font-size="10.00">&#45; COMPARE</text>
<polyline fill="none" stroke="black" points="95.04,-178.5 261.08,-178.5 "/>
<text text-anchor="start" x="103.04" y="-166.5" font-family="Helvetica,sans-Serif" font-size="10.00">+ FotoBox()</text>
<text text-anchor="start" x="103.04" y="-156.5" font-family="Helvetica,sans-Serif" font-size="10.00">+ ~FotoBox()</text>
<text text-anchor="start" x="103.04" y="-146.5" font-family="Helvetica,sans-Serif" font-size="10.00">+ FotoBox()</text>
<text text-anchor="start" x="103.04" y="-136.5" font-family="Helvetica,sans-Serif" font-size="10.00">+ operator=()</text>
<text text-anchor="start" x="103.04" y="-126.5" font-family="Helvetica,sans-Serif" font-size="10.00">+ FotoBox()</text>
<text text-anchor="start" x="103.04" y="-116.5" font-family="Helvetica,sans-Serif" font-size="10.00">+ operator=()</text>
<text text-anchor="start" x="103.04" y="-106.5" font-family="Helvetica,sans-Serif" font-size="10.00">&#45; closeFullscreenWindowOnMac()</text>
<text text-anchor="start" x="103.04" y="-96.5" font-family="Helvetica,sans-Serif" font-size="10.00">&#45; keyPressEvent()</text>
<text text-anchor="start" x="103.04" y="-86.5" font-family="Helvetica,sans-Serif" font-size="10.00">&#45; mouseReleaseEvent()</text>
<text text-anchor="start" x="103.04" y="-76.5" font-family="Helvetica,sans-Serif" font-size="10.00">&#45; buttons()</text>
<text text-anchor="start" x="103.04" y="-66.5" font-family="Helvetica,sans-Serif" font-size="10.00">&#45; countdown()</text>
<text text-anchor="start" x="103.04" y="-56.5" font-family="Helvetica,sans-Serif" font-size="10.00">&#45; buzzer()</text>
<text text-anchor="start" x="103.04" y="-46.5" font-family="Helvetica,sans-Serif" font-size="10.00">&#45; loadPhoto()</text>
<text text-anchor="start" x="103.04" y="-36.5" font-family="Helvetica,sans-Serif" font-size="10.00">&#45; drawText()</text>
<text text-anchor="start" x="103.04" y="-26.5" font-family="Helvetica,sans-Serif" font-size="10.00">&#45; calculateFontSize()</text>
<text text-anchor="start" x="103.04" y="-16.5" font-family="Helvetica,sans-Serif" font-size="10.00">&#45; photo()</text>
<text text-anchor="start" x="103.04" y="-6.5" font-family="Helvetica,sans-Serif" font-size="10.00">&#45; preferenceDialog()</text>
</a>
</g>
</g>
<!-- Node2 -->
<g id="node2" class="node">
<title>Node2</title>
<g id="a_node2"><a xlink:title=" ">
<polygon fill="white" stroke="#bfbfbf" points="0,-416.5 0,-470.5 52.13,-470.5 52.13,-416.5 0,-416.5"/>
<text text-anchor="middle" x="26.06" y="-458.5" font-family="Helvetica,sans-Serif" font-size="10.00">QDialog</text>
<polyline fill="none" stroke="#bfbfbf" points="0,-452.5 52.13,-452.5 "/>
<text text-anchor="middle" x="26.06" y="-440.5" font-family="Helvetica,sans-Serif" font-size="10.00"> </text>
<polyline fill="none" stroke="#bfbfbf" points="0,-434.5 52.13,-434.5 "/>
<text text-anchor="middle" x="26.06" y="-422.5" font-family="Helvetica,sans-Serif" font-size="10.00"> </text>
</a>
</g>
</g>
<!-- Node2&#45;&gt;Node1 -->
<g id="edge1" class="edge">
<title>Node2&#45;&gt;Node1</title>
<path fill="none" stroke="midnightblue" d="M36.29,-406.89C42.48,-387.08 51.1,-362.22 61.06,-341 71.08,-319.67 82.86,-297.72 95.03,-276.62"/>
<polygon fill="none" stroke="midnightblue" points="32.94,-405.87 33.36,-416.46 39.63,-407.92 32.94,-405.87"/>
</g>
<!-- Node3 -->
<g id="node3" class="node">
<title>Node3</title>
<g id="a_node3"><a xlink:href="class_countdown.xhtml" target="_top" xlink:title="The Countdown class.">
<polygon fill="white" stroke="black" points="70.12,-341.5 70.12,-545.5 168.01,-545.5 168.01,-341.5 70.12,-341.5"/>
<text text-anchor="middle" x="119.06" y="-533.5" font-family="Helvetica,sans-Serif" font-size="10.00">Countdown</text>
<polyline fill="none" stroke="black" points="70.12,-527.5 168.01,-527.5 "/>
<text text-anchor="start" x="78.12" y="-515.5" font-family="Helvetica,sans-Serif" font-size="10.00">&#45; m_timer</text>
<text text-anchor="start" x="78.12" y="-505.5" font-family="Helvetica,sans-Serif" font-size="10.00">&#45; m_startTime</text>
<text text-anchor="start" x="78.12" y="-495.5" font-family="Helvetica,sans-Serif" font-size="10.00">&#45; m_timeLeft</text>
<text text-anchor="start" x="78.12" y="-485.5" font-family="Helvetica,sans-Serif" font-size="10.00">&#45; m_isActive</text>
<text text-anchor="start" x="78.12" y="-475.5" font-family="Helvetica,sans-Serif" font-size="10.00">&#45; ONE_SECOND</text>
<polyline fill="none" stroke="black" points="70.12,-469.5 168.01,-469.5 "/>
<text text-anchor="start" x="78.12" y="-457.5" font-family="Helvetica,sans-Serif" font-size="10.00">+ Countdown()</text>
<text text-anchor="start" x="78.12" y="-447.5" font-family="Helvetica,sans-Serif" font-size="10.00">+ ~Countdown()</text>
<text text-anchor="start" x="78.12" y="-437.5" font-family="Helvetica,sans-Serif" font-size="10.00">+ Countdown()</text>
<text text-anchor="start" x="78.12" y="-427.5" font-family="Helvetica,sans-Serif" font-size="10.00">+ operator=()</text>
<text text-anchor="start" x="78.12" y="-417.5" font-family="Helvetica,sans-Serif" font-size="10.00">+ Countdown()</text>
<text text-anchor="start" x="78.12" y="-407.5" font-family="Helvetica,sans-Serif" font-size="10.00">+ operator=()</text>
<text text-anchor="start" x="78.12" y="-397.5" font-family="Helvetica,sans-Serif" font-size="10.00">+ setStartTime()</text>
<text text-anchor="start" x="78.12" y="-387.5" font-family="Helvetica,sans-Serif" font-size="10.00">+ isActive()</text>
<text text-anchor="start" x="78.12" y="-377.5" font-family="Helvetica,sans-Serif" font-size="10.00">+ start()</text>
<text text-anchor="start" x="78.12" y="-367.5" font-family="Helvetica,sans-Serif" font-size="10.00">+ stop()</text>
<text text-anchor="start" x="78.12" y="-357.5" font-family="Helvetica,sans-Serif" font-size="10.00">+ reset()</text>
<text text-anchor="start" x="78.12" y="-347.5" font-family="Helvetica,sans-Serif" font-size="10.00">&#45; updateTimeLeft()</text>
</a>
</g>
</g>
<!-- Node3&#45;&gt;Node1 -->
<g id="edge2" class="edge">
<title>Node3&#45;&gt;Node1</title>
<path fill="none" stroke="#404040" d="M131.75,-341.23C133.28,-331.66 134.93,-322.13 136.69,-313 137.12,-310.82 137.55,-308.62 137.99,-306.41"/>
<polygon fill="none" stroke="#404040" points="138.02,-306.26 135.32,-299.58 140.45,-294.51 143.15,-301.2 138.02,-306.26"/>
<text text-anchor="middle" x="171.25" y="-315" font-family="Helvetica,sans-Serif" font-size="10.00"> &#45;m_countdown</text>
</g>
<!-- Node4 -->
<g id="node4" class="node">
<title>Node4</title>
<g id="a_node4"><a xlink:title=" ">
<polygon fill="white" stroke="#bfbfbf" points="206.72,-583.5 206.72,-637.5 259.4,-637.5 259.4,-583.5 206.72,-583.5"/>
<text text-anchor="middle" x="233.06" y="-625.5" font-family="Helvetica,sans-Serif" font-size="10.00">QObject</text>
<polyline fill="none" stroke="#bfbfbf" points="206.72,-619.5 259.4,-619.5 "/>
<text text-anchor="middle" x="233.06" y="-607.5" font-family="Helvetica,sans-Serif" font-size="10.00"> </text>
<polyline fill="none" stroke="#bfbfbf" points="206.72,-601.5 259.4,-601.5 "/>
<text text-anchor="middle" x="233.06" y="-589.5" font-family="Helvetica,sans-Serif" font-size="10.00"> </text>
</a>
</g>
</g>
<!-- Node4&#45;&gt;Node3 -->
<g id="edge3" class="edge">
<title>Node4&#45;&gt;Node3</title>
<path fill="none" stroke="midnightblue" d="M201.03,-575.75C192.82,-566.42 184.28,-556.09 177.06,-546 174.05,-541.79 171.07,-537.41 168.13,-532.94"/>
<polygon fill="none" stroke="midnightblue" points="198.53,-578.2 207.82,-583.32 203.75,-573.53 198.53,-578.2"/>
</g>
<!-- Node5 -->
<g id="node5" class="node">
<title>Node5</title>
<g id="a_node5"><a xlink:href="class_camera.xhtml" target="_top" xlink:title="The Camera class Use gphoto2 to send commands to camera.">
<polygon fill="white" stroke="black" points="185.88,-351.5 185.88,-535.5 280.24,-535.5 280.24,-351.5 185.88,-351.5"/>
<text text-anchor="middle" x="233.06" y="-523.5" font-family="Helvetica,sans-Serif" font-size="10.00">Camera</text>
<polyline fill="none" stroke="black" points="185.88,-517.5 280.24,-517.5 "/>
<text text-anchor="start" x="193.88" y="-505.5" font-family="Helvetica,sans-Serif" font-size="10.00">&#45; m_timeoutValue</text>
<text text-anchor="start" x="193.88" y="-495.5" font-family="Helvetica,sans-Serif" font-size="10.00">&#45; m_currentPhoto</text>
<text text-anchor="start" x="193.88" y="-485.5" font-family="Helvetica,sans-Serif" font-size="10.00">&#45; m_photoSuffix</text>
<text text-anchor="start" x="193.88" y="-475.5" font-family="Helvetica,sans-Serif" font-size="10.00">&#45; m_cameraMode</text>
<text text-anchor="start" x="193.88" y="-465.5" font-family="Helvetica,sans-Serif" font-size="10.00">&#45; m_argLine</text>
<text text-anchor="start" x="193.88" y="-455.5" font-family="Helvetica,sans-Serif" font-size="10.00">&#45; m_process</text>
<text text-anchor="start" x="193.88" y="-445.5" font-family="Helvetica,sans-Serif" font-size="10.00">&#45; TO_SECONDS</text>
<polyline fill="none" stroke="black" points="185.88,-439.5 280.24,-439.5 "/>
<text text-anchor="start" x="193.88" y="-427.5" font-family="Helvetica,sans-Serif" font-size="10.00">+ Camera()</text>
<text text-anchor="start" x="193.88" y="-417.5" font-family="Helvetica,sans-Serif" font-size="10.00">+ ~Camera()</text>
<text text-anchor="start" x="193.88" y="-407.5" font-family="Helvetica,sans-Serif" font-size="10.00">+ Camera()</text>
<text text-anchor="start" x="193.88" y="-397.5" font-family="Helvetica,sans-Serif" font-size="10.00">+ operator=()</text>
<text text-anchor="start" x="193.88" y="-387.5" font-family="Helvetica,sans-Serif" font-size="10.00">+ Camera()</text>
<text text-anchor="start" x="193.88" y="-377.5" font-family="Helvetica,sans-Serif" font-size="10.00">+ operator=()</text>
<text text-anchor="start" x="193.88" y="-367.5" font-family="Helvetica,sans-Serif" font-size="10.00">+ shootPhoto()</text>
<text text-anchor="start" x="193.88" y="-357.5" font-family="Helvetica,sans-Serif" font-size="10.00">+ currentPhoto()</text>
</a>
</g>
</g>
<!-- Node4&#45;&gt;Node5 -->
<g id="edge5" class="edge">
<title>Node4&#45;&gt;Node5</title>
<path fill="none" stroke="midnightblue" d="M233.06,-573.11C233.06,-561.83 233.06,-548.86 233.06,-535.58"/>
<polygon fill="none" stroke="midnightblue" points="229.56,-573.36 233.06,-583.36 236.56,-573.36 229.56,-573.36"/>
</g>
<!-- Node6 -->
<g id="node6" class="node">
<title>Node6</title>
<g id="a_node6"><a xlink:href="class_buzzer.xhtml" target="_top" xlink:title="This class handles the buzzer.">
<polygon fill="white" stroke="black" points="297.88,-381.5 297.88,-505.5 372.25,-505.5 372.25,-381.5 297.88,-381.5"/>
<text text-anchor="middle" x="335.06" y="-493.5" font-family="Helvetica,sans-Serif" font-size="10.00">Buzzer</text>
<polyline fill="none" stroke="black" points="297.88,-487.5 372.25,-487.5 "/>
<text text-anchor="start" x="305.88" y="-475.5" font-family="Helvetica,sans-Serif" font-size="10.00">&#45; m_stop</text>
<polyline fill="none" stroke="black" points="297.88,-469.5 372.25,-469.5 "/>
<text text-anchor="start" x="305.88" y="-457.5" font-family="Helvetica,sans-Serif" font-size="10.00">+ Buzzer()</text>
<text text-anchor="start" x="305.88" y="-447.5" font-family="Helvetica,sans-Serif" font-size="10.00">+ ~Buzzer()</text>
<text text-anchor="start" x="305.88" y="-437.5" font-family="Helvetica,sans-Serif" font-size="10.00">+ Buzzer()</text>
<text text-anchor="start" x="305.88" y="-427.5" font-family="Helvetica,sans-Serif" font-size="10.00">+ operator=()</text>
<text text-anchor="start" x="305.88" y="-417.5" font-family="Helvetica,sans-Serif" font-size="10.00">+ Buzzer()</text>
<text text-anchor="start" x="305.88" y="-407.5" font-family="Helvetica,sans-Serif" font-size="10.00">+ operator=()</text>
<text text-anchor="start" x="305.88" y="-397.5" font-family="Helvetica,sans-Serif" font-size="10.00">+ stop()</text>
<text text-anchor="start" x="305.88" y="-387.5" font-family="Helvetica,sans-Serif" font-size="10.00">+ queryPin()</text>
</a>
</g>
</g>
<!-- Node4&#45;&gt;Node6 -->
<g id="edge7" class="edge">
<title>Node4&#45;&gt;Node6</title>
<path fill="none" stroke="midnightblue" d="M265.97,-575.93C274.1,-566.67 282.39,-556.32 289.06,-546 297.15,-533.49 304.54,-519.32 310.91,-505.63"/>
<polygon fill="none" stroke="midnightblue" points="263.31,-573.66 259.21,-583.43 268.51,-578.34 263.31,-573.66"/>
</g>
<!-- Node5&#45;&gt;Node1 -->
<g id="edge4" class="edge">
<title>Node5&#45;&gt;Node1</title>
<path fill="none" stroke="#404040" d="M216.04,-351.49C213.37,-337.25 210.56,-322.19 207.71,-306.96"/>
<polygon fill="none" stroke="#404040" points="207.63,-306.52 202.59,-301.36 205.42,-294.73 210.45,-299.89 207.63,-306.52"/>
<text text-anchor="middle" x="237.74" y="-315" font-family="Helvetica,sans-Serif" font-size="10.00"> &#45;m_camera</text>
</g>
<!-- Node6&#45;&gt;Node1 -->
<g id="edge6" class="edge">
<title>Node6&#45;&gt;Node1</title>
<path fill="none" stroke="#404040" d="M308.53,-381.39C302.38,-367.97 295.69,-353.91 289.06,-341 282.11,-327.46 274.67,-313.53 267.05,-299.64"/>
<polygon fill="none" stroke="#404040" points="267,-299.54 260.59,-296.22 261.19,-289.03 267.6,-292.35 267,-299.54"/>
<text text-anchor="middle" x="302.07" y="-315" font-family="Helvetica,sans-Serif" font-size="10.00"> &#45;m_buzzer</text>
</g>
</g>
</svg>
        <g id="navigator" transform="translate(0 0)" fill="#404254">
                <rect fill="#f2f5e9" fill-opacity="0.5" stroke="#606060" stroke-width=".5" x="0" y="0" width="60" height="60"/>
                <use id="zoomplus" xlink:href="#zoomPlus" x="17" y="9" onmousedown="handleZoom(evt,'in')"/>
                <use id="zoomminus" xlink:href="#zoomMin" x="42" y="9" onmousedown="handleZoom(evt,'out')"/>
                <use id="reset" xlink:href="#resetDef" x="30" y="36" onmousedown="handleReset()"/>
                <g id="arrowUp" xlink:href="#dirArrow" transform="translate(30 24)" onmousedown="handlePan(0,-1)">
                  <use xlink:href="#rim" fill="#404040">
                        <set attributeName="fill" to="#808080" begin="arrowUp.mouseover" end="arrowUp.mouseout"/>
                  </use>
                  <path fill="none" stroke="white" stroke-width="1.5" d="M0,-3.0v7 M-2.5,-0.5L0,-3.0L2.5,-0.5"/>
                </g>
                <g id="arrowRight" xlink:href="#dirArrow" transform="rotate(90) translate(36 -43)" onmousedown="handlePan(1,0)">
                  <use xlink:href="#rim" fill="#404040">
                        <set attributeName="fill" to="#808080" begin="arrowRight.mouseover" end="arrowRight.mouseout"/>
                  </use>
                  <path fill="none" stroke="white" stroke-width="1.5" d="M0,-3.0v7 M-2.5,-0.5L0,-3.0L2.5,-0.5"/>
                </g>
                <g id="arrowDown" xlink:href="#dirArrow" transform="rotate(180) translate(-30 -48)" onmousedown="handlePan(0,1)">
                  <use xlink:href="#rim" fill="#404040">
                        <set attributeName="fill" to="#808080" begin="arrowDown.mouseover" end="arrowDown.mouseout"/>
                  </use>
                  <path fill="none" stroke="white" stroke-width="1.5" d="M0,-3.0v7 M-2.5,-0.5L0,-3.0L2.5,-0.5"/>
                </g>
                <g id="arrowLeft" xlink:href="#dirArrow" transform="rotate(270) translate(-36 17)" onmousedown="handlePan(-1,0)">
                  <use xlink:href="#rim" fill="#404040">
                        <set attributeName="fill" to="#808080" begin="arrowLeft.mouseover" end="arrowLeft.mouseout"/>
                  </use>
                  <path fill="none" stroke="white" stroke-width="1.5" d="M0,-3.0v7 M-2.5,-0.5L0,-3.0L2.5,-0.5"/>
                </g>
        </g>
        <svg viewBox="0 0 15 15" width="100%" height="30px" preserveAspectRatio="xMaxYMin meet">
         <g id="arrow_out" transform="scale(0.3 0.3)">
          <a xlink:href="class_foto_box__coll__graph_org.svg" target="_base">
           <rect id="button" ry="5" rx="5" y="6" x="6" height="38" width="38"
                fill="#f2f5e9" fill-opacity="0.5" stroke="#606060" stroke-width="1.0"/>
           <path id="arrow"
             d="M 11.500037,31.436501 C 11.940474,20.09759 22.043105,11.32322 32.158766,21.979434 L 37.068811,17.246167 C 37.068811,17.246167 37.088388,32 37.088388,32 L 22.160133,31.978069 C 22.160133,31.978069 26.997745,27.140456 26.997745,27.140456 C 18.528582,18.264221 13.291696,25.230495 11.500037,31.436501 z"
             style="fill:#404040;"/>
          </a>
         </g>
        </svg>
</svg>
