<?xml version="1.0" encoding="UTF-8" standalone="no"?>
<!DOCTYPE svg PUBLIC "-//W3C//DTD SVG 1.1//EN"
 "http://www.w3.org/Graphics/SVG/1.1/DTD/svg11.dtd">
<!-- Generated by graphviz version 2.42.3 (20191010.1750)
 -->
<!-- Title: countdown.cpp Pages: 1 -->
<svg width="128pt" height="137pt"
 viewBox="0.00 0.00 127.82 137.00" xmlns="http://www.w3.org/2000/svg" xmlns:xlink="http://www.w3.org/1999/xlink">
<g id="graph0" class="graph" transform="scale(1 1) rotate(0) translate(4 133)">
<title>countdown.cpp</title>
<polygon fill="white" stroke="transparent" points="-4,4 -4,-133 123.82,-133 123.82,4 -4,4"/>
<!-- Node1 -->
<g id="node1" class="node">
<title>Node1</title>
<g id="a_node1"><a xlink:title=" ">
<polygon fill="#bfbfbf" stroke="black" points="18.7,-110.5 18.7,-128.5 101.98,-128.5 101.98,-110.5 18.7,-110.5"/>
<text text-anchor="middle" x="60.34" y="-116.5" font-family="Helvetica,sans-Serif" font-size="10.00">countdown.cpp</text>
</a>
</g>
</g>
<!-- Node2 -->
<g id="node2" class="node">
<title>Node2</title>
<g id="a_node2"><a xlink:href="countdown_8h.xhtml" target="_top" xlink:title=" ">
<polygon fill="white" stroke="black" points="23.99,-55.5 23.99,-73.5 96.69,-73.5 96.69,-55.5 23.99,-55.5"/>
<text text-anchor="middle" x="60.34" y="-61.5" font-family="Helvetica,sans-Serif" font-size="10.00">countdown.h</text>
</a>
</g>
</g>
<!-- Node1&#45;&gt;Node2 -->
<g id="edge1" class="edge">
<title>Node1&#45;&gt;Node2</title>
<path fill="none" stroke="midnightblue" d="M60.34,-110.22C60.34,-103.18 60.34,-92.81 60.34,-83.83"/>
<polygon fill="midnightblue" stroke="midnightblue" points="63.84,-83.55 60.34,-73.55 56.84,-83.55 63.84,-83.55"/>
</g>
<!-- Node3 -->
<g id="node3" class="node">
<title>Node3</title>
<g id="a_node3"><a xlink:title=" ">
<polygon fill="white" stroke="#bfbfbf" points="0,-0.5 0,-18.5 52.68,-18.5 52.68,-0.5 0,-0.5"/>
<text text-anchor="middle" x="26.34" y="-6.5" font-family="Helvetica,sans-Serif" font-size="10.00">QObject</text>
</a>
</g>
</g>
<!-- Node2&#45;&gt;Node3 -->
<g id="edge2" class="edge">
<title>Node2&#45;&gt;Node3</title>
<path fill="none" stroke="midnightblue" d="M55.03,-55.22C50.21,-47.71 42.96,-36.41 36.96,-27.05"/>
<polygon fill="midnightblue" stroke="midnightblue" points="39.85,-25.08 31.5,-18.55 33.96,-28.86 39.85,-25.08"/>
</g>
<!-- Node4 -->
<g id="node4" class="node">
<title>Node4</title>
<g id="a_node4"><a xlink:title=" ">
<polygon fill="white" stroke="#bfbfbf" points="70.86,-0.5 70.86,-18.5 119.82,-18.5 119.82,-0.5 70.86,-0.5"/>
<text text-anchor="middle" x="95.34" y="-6.5" font-family="Helvetica,sans-Serif" font-size="10.00">QTimer</text>
</a>
</g>
</g>
<!-- Node2&#45;&gt;Node4 -->
<g id="edge3" class="edge">
<title>Node2&#45;&gt;Node4</title>
<path fill="none" stroke="midnightblue" d="M65.81,-55.22C70.77,-47.71 78.23,-36.41 84.41,-27.05"/>
<polygon fill="midnightblue" stroke="midnightblue" points="87.43,-28.82 90.02,-18.55 81.59,-24.97 87.43,-28.82"/>
</g>
</g>
</svg>
