<?xml version="1.0" encoding="UTF-8" standalone="no"?>
<!DOCTYPE svg PUBLIC "-//W3C//DTD SVG 1.1//EN"
 "http://www.w3.org/Graphics/SVG/1.1/DTD/svg11.dtd">
<!-- Generated by graphviz version 2.42.3 (20191010.1750)
 -->
<!-- Title: countdown.h Pages: 1 -->
<svg width="389pt" height="137pt"
 viewBox="0.00 0.00 389.20 137.00" xmlns="http://www.w3.org/2000/svg" xmlns:xlink="http://www.w3.org/1999/xlink">
<g id="graph0" class="graph" transform="scale(1 1) rotate(0) translate(4 133)">
<title>countdown.h</title>
<polygon fill="white" stroke="transparent" points="-4,4 -4,-133 385.2,-133 385.2,4 -4,4"/>
<!-- Node1 -->
<g id="node1" class="node">
<title>Node1</title>
<g id="a_node1"><a xlink:title=" ">
<polygon fill="#bfbfbf" stroke="black" points="103.28,-110.5 103.28,-128.5 175.99,-128.5 175.99,-110.5 103.28,-110.5"/>
<text text-anchor="middle" x="139.64" y="-116.5" font-family="Helvetica,sans-Serif" font-size="10.00">countdown.h</text>
</a>
</g>
</g>
<!-- Node2 -->
<g id="node2" class="node">
<title>Node2</title>
<g id="a_node2"><a xlink:href="countdown_8cpp.xhtml" target="_top" xlink:title=" ">
<polygon fill="white" stroke="black" points="0,-55.5 0,-73.5 83.27,-73.5 83.27,-55.5 0,-55.5"/>
<text text-anchor="middle" x="41.64" y="-61.5" font-family="Helvetica,sans-Serif" font-size="10.00">countdown.cpp</text>
</a>
</g>
</g>
<!-- Node1&#45;&gt;Node2 -->
<g id="edge1" class="edge">
<title>Node1&#45;&gt;Node2</title>
<path fill="none" stroke="midnightblue" d="M115.79,-105.6C97.35,-95.63 72.4,-82.14 56.66,-73.63"/>
<polygon fill="midnightblue" stroke="midnightblue" points="114.29,-108.77 124.75,-110.45 117.62,-102.61 114.29,-108.77"/>
</g>
<!-- Node3 -->
<g id="node3" class="node">
<title>Node3</title>
<g id="a_node3"><a xlink:href="fotobox_8h.xhtml" target="_top" xlink:title=" ">
<polygon fill="white" stroke="black" points="201.06,-55.5 201.06,-73.5 258.21,-73.5 258.21,-55.5 201.06,-55.5"/>
<text text-anchor="middle" x="229.64" y="-61.5" font-family="Helvetica,sans-Serif" font-size="10.00">fotobox.h</text>
</a>
</g>
</g>
<!-- Node1&#45;&gt;Node3 -->
<g id="edge2" class="edge">
<title>Node1&#45;&gt;Node3</title>
<path fill="none" stroke="midnightblue" d="M162,-105.33C178.89,-95.39 201.51,-82.06 215.84,-73.63"/>
<polygon fill="midnightblue" stroke="midnightblue" points="160.15,-102.36 153.3,-110.45 163.7,-108.39 160.15,-102.36"/>
</g>
<!-- Node7 -->
<g id="node7" class="node">
<title>Node7</title>
<g id="a_node7"><a xlink:href="preferences_8h.xhtml" target="_top" xlink:title=" ">
<polygon fill="white" stroke="black" points="101.06,-55.5 101.06,-73.5 178.21,-73.5 178.21,-55.5 101.06,-55.5"/>
<text text-anchor="middle" x="139.64" y="-61.5" font-family="Helvetica,sans-Serif" font-size="10.00">preferences.h</text>
</a>
</g>
</g>
<!-- Node1&#45;&gt;Node7 -->
<g id="edge6" class="edge">
<title>Node1&#45;&gt;Node7</title>
<path fill="none" stroke="midnightblue" d="M139.64,-100.17C139.64,-91.09 139.64,-80.59 139.64,-73.55"/>
<polygon fill="midnightblue" stroke="midnightblue" points="136.14,-100.22 139.64,-110.22 143.14,-100.22 136.14,-100.22"/>
</g>
<!-- Node4 -->
<g id="node4" class="node">
<title>Node4</title>
<g id="a_node4"><a xlink:href="fotobox_8cpp.xhtml" target="_top" xlink:title=" ">
<polygon fill="white" stroke="black" points="102.78,-0.5 102.78,-18.5 170.49,-18.5 170.49,-0.5 102.78,-0.5"/>
<text text-anchor="middle" x="136.64" y="-6.5" font-family="Helvetica,sans-Serif" font-size="10.00">fotobox.cpp</text>
</a>
</g>
</g>
<!-- Node3&#45;&gt;Node4 -->
<g id="edge3" class="edge">
<title>Node3&#45;&gt;Node4</title>
<path fill="none" stroke="midnightblue" d="M206.52,-50.33C189.08,-40.39 165.69,-27.06 150.89,-18.63"/>
<polygon fill="midnightblue" stroke="midnightblue" points="205.09,-53.54 215.51,-55.45 208.56,-47.46 205.09,-53.54"/>
</g>
<!-- Node5 -->
<g id="node5" class="node">
<title>Node5</title>
<g id="a_node5"><a xlink:href="fotoboxmac_8mm.xhtml" target="_top" xlink:title=" ">
<polygon fill="white" stroke="black" points="294.07,-0.5 294.07,-18.5 381.2,-18.5 381.2,-0.5 294.07,-0.5"/>
<text text-anchor="middle" x="337.64" y="-6.5" font-family="Helvetica,sans-Serif" font-size="10.00">fotoboxmac.mm</text>
</a>
</g>
</g>
<!-- Node3&#45;&gt;Node5 -->
<g id="edge4" class="edge">
<title>Node3&#45;&gt;Node5</title>
<path fill="none" stroke="midnightblue" d="M255.08,-51.01C275.47,-41.01 303.49,-27.26 321.08,-18.63"/>
<polygon fill="midnightblue" stroke="midnightblue" points="253.47,-47.9 246.04,-55.45 256.56,-54.19 253.47,-47.9"/>
</g>
<!-- Node6 -->
<g id="node6" class="node">
<title>Node6</title>
<g id="a_node6"><a xlink:href="preferences_8cpp.xhtml" target="_top" xlink:title=" ">
<polygon fill="white" stroke="black" points="188.78,-0.5 188.78,-18.5 276.49,-18.5 276.49,-0.5 188.78,-0.5"/>
<text text-anchor="middle" x="232.64" y="-6.5" font-family="Helvetica,sans-Serif" font-size="10.00">preferences.cpp</text>
</a>
</g>
</g>
<!-- Node3&#45;&gt;Node6 -->
<g id="edge5" class="edge">
<title>Node3&#45;&gt;Node6</title>
<path fill="none" stroke="midnightblue" d="M230.67,-45.17C231.19,-36.09 231.78,-25.59 232.18,-18.55"/>
<polygon fill="midnightblue" stroke="midnightblue" points="227.17,-45.04 230.1,-55.22 234.16,-45.43 227.17,-45.04"/>
</g>
<!-- Node7&#45;&gt;Node4 -->
<g id="edge7" class="edge">
<title>Node7&#45;&gt;Node4</title>
<path fill="none" stroke="midnightblue" d="M138.6,-45.17C138.08,-36.09 137.49,-25.59 137.09,-18.55"/>
<polygon fill="midnightblue" stroke="midnightblue" points="135.11,-45.43 139.17,-55.22 142.1,-45.04 135.11,-45.43"/>
</g>
<!-- Node7&#45;&gt;Node6 -->
<g id="edge9" class="edge">
<title>Node7&#45;&gt;Node6</title>
<path fill="none" stroke="midnightblue" d="M162.75,-50.33C180.19,-40.39 203.58,-27.06 218.38,-18.63"/>
<polygon fill="midnightblue" stroke="midnightblue" points="160.72,-47.46 153.76,-55.45 164.18,-53.54 160.72,-47.46"/>
</g>
<!-- Node8 -->
<g id="node8" class="node">
<title>Node8</title>
<g id="a_node8"><a xlink:href="main_8cpp.xhtml" target="_top" xlink:title=" ">
<polygon fill="white" stroke="black" points="28.35,-0.5 28.35,-18.5 84.92,-18.5 84.92,-0.5 28.35,-0.5"/>
<text text-anchor="middle" x="56.64" y="-6.5" font-family="Helvetica,sans-Serif" font-size="10.00">main.cpp</text>
</a>
</g>
</g>
<!-- Node7&#45;&gt;Node8 -->
<g id="edge8" class="edge">
<title>Node7&#45;&gt;Node8</title>
<path fill="none" stroke="midnightblue" d="M118.57,-50.05C103.05,-40.14 82.45,-26.98 69.36,-18.63"/>
<polygon fill="midnightblue" stroke="midnightblue" points="116.72,-53.02 127.03,-55.45 120.48,-47.12 116.72,-53.02"/>
</g>
</g>
</svg>
