<?xml version="1.0" encoding="UTF-8" standalone="no"?>
<!DOCTYPE svg PUBLIC "-//W3C//DTD SVG 1.1//EN"
 "http://www.w3.org/Graphics/SVG/1.1/DTD/svg11.dtd">
<!-- Generated by graphviz version 2.42.3 (20191010.1750)
 -->
<!-- Title: fotobox.h Pages: 1 -->
<svg width="286pt" height="82pt"
 viewBox="0.00 0.00 285.71 82.00" xmlns="http://www.w3.org/2000/svg" xmlns:xlink="http://www.w3.org/1999/xlink">
<g id="graph0" class="graph" transform="scale(1 1) rotate(0) translate(4 78)">
<title>fotobox.h</title>
<polygon fill="white" stroke="transparent" points="-4,4 -4,-78 281.71,-78 281.71,4 -4,4"/>
<!-- Node1 -->
<g id="node1" class="node">
<title>Node1</title>
<g id="a_node1"><a xlink:title=" ">
<polygon fill="#bfbfbf" stroke="black" points="100.28,-55.5 100.28,-73.5 157.42,-73.5 157.42,-55.5 100.28,-55.5"/>
<text text-anchor="middle" x="128.85" y="-61.5" font-family="Helvetica,sans-Serif" font-size="10.00">fotobox.h</text>
</a>
</g>
</g>
<!-- Node2 -->
<g id="node2" class="node">
<title>Node2</title>
<g id="a_node2"><a xlink:href="fotobox_8cpp.xhtml" target="_top" xlink:title=" ">
<polygon fill="white" stroke="black" points="0,-0.5 0,-18.5 67.7,-18.5 67.7,-0.5 0,-0.5"/>
<text text-anchor="middle" x="33.85" y="-6.5" font-family="Helvetica,sans-Serif" font-size="10.00">fotobox.cpp</text>
</a>
</g>
</g>
<!-- Node1&#45;&gt;Node2 -->
<g id="edge1" class="edge">
<title>Node1&#45;&gt;Node2</title>
<path fill="none" stroke="midnightblue" d="M105.24,-50.33C87.42,-40.39 63.53,-27.06 48.42,-18.63"/>
<polygon fill="midnightblue" stroke="midnightblue" points="103.99,-53.63 114.42,-55.45 107.4,-47.52 103.99,-53.63"/>
</g>
<!-- Node3 -->
<g id="node3" class="node">
<title>Node3</title>
<g id="a_node3"><a xlink:href="fotoboxmac_8mm.xhtml" target="_top" xlink:title=" ">
<polygon fill="white" stroke="black" points="85.29,-0.5 85.29,-18.5 172.42,-18.5 172.42,-0.5 85.29,-0.5"/>
<text text-anchor="middle" x="128.85" y="-6.5" font-family="Helvetica,sans-Serif" font-size="10.00">fotoboxmac.mm</text>
</a>
</g>
</g>
<!-- Node1&#45;&gt;Node3 -->
<g id="edge2" class="edge">
<title>Node1&#45;&gt;Node3</title>
<path fill="none" stroke="midnightblue" d="M128.85,-45.17C128.85,-36.09 128.85,-25.59 128.85,-18.55"/>
<polygon fill="midnightblue" stroke="midnightblue" points="125.35,-45.22 128.85,-55.22 132.35,-45.22 125.35,-45.22"/>
</g>
<!-- Node4 -->
<g id="node4" class="node">
<title>Node4</title>
<g id="a_node4"><a xlink:href="preferences_8cpp.xhtml" target="_top" xlink:title=" ">
<polygon fill="white" stroke="black" points="190,-0.5 190,-18.5 277.71,-18.5 277.71,-0.5 190,-0.5"/>
<text text-anchor="middle" x="233.85" y="-6.5" font-family="Helvetica,sans-Serif" font-size="10.00">preferences.cpp</text>
</a>
</g>
</g>
<!-- Node1&#45;&gt;Node4 -->
<g id="edge3" class="edge">
<title>Node1&#45;&gt;Node4</title>
<path fill="none" stroke="midnightblue" d="M153.86,-50.88C173.66,-40.88 200.74,-27.22 217.75,-18.63"/>
<polygon fill="midnightblue" stroke="midnightblue" points="152.15,-47.82 144.8,-55.45 155.3,-54.07 152.15,-47.82"/>
</g>
</g>
</svg>
