<?xml version="1.0" encoding="UTF-8" standalone="no"?>
<!DOCTYPE svg PUBLIC "-//W3C//DTD SVG 1.1//EN"
 "http://www.w3.org/Graphics/SVG/1.1/DTD/svg11.dtd">
<!-- Generated by graphviz version 2.42.3 (20191010.1750)
 -->
<!-- Title: fotobox.h Pages: 1 -->
<svg width="395pt" height="137pt"
 viewBox="0.00 0.00 394.68 137.00" xmlns="http://www.w3.org/2000/svg" xmlns:xlink="http://www.w3.org/1999/xlink">
<g id="graph0" class="graph" transform="scale(1 1) rotate(0) translate(4 133)">
<title>fotobox.h</title>
<polygon fill="white" stroke="transparent" points="-4,4 -4,-133 390.68,-133 390.68,4 -4,4"/>
<!-- Node1 -->
<g id="node1" class="node">
<title>Node1</title>
<g id="a_node1"><a xlink:title=" ">
<polygon fill="#bfbfbf" stroke="black" points="187.38,-110.5 187.38,-128.5 244.52,-128.5 244.52,-110.5 187.38,-110.5"/>
<text text-anchor="middle" x="215.95" y="-116.5" font-family="Helvetica,sans-Serif" font-size="10.00">fotobox.h</text>
</a>
</g>
</g>
<!-- Node2 -->
<g id="node2" class="node">
<title>Node2</title>
<g id="a_node2"><a xlink:href="buzzer_8h.xhtml" target="_top" xlink:title=" ">
<polygon fill="white" stroke="black" points="189.05,-55.5 189.05,-73.5 242.85,-73.5 242.85,-55.5 189.05,-55.5"/>
<text text-anchor="middle" x="215.95" y="-61.5" font-family="Helvetica,sans-Serif" font-size="10.00">buzzer.h</text>
</a>
</g>
</g>
<!-- Node1&#45;&gt;Node2 -->
<g id="edge1" class="edge">
<title>Node1&#45;&gt;Node2</title>
<path fill="none" stroke="midnightblue" d="M215.95,-110.22C215.95,-103.18 215.95,-92.81 215.95,-83.83"/>
<polygon fill="midnightblue" stroke="midnightblue" points="219.45,-83.55 215.95,-73.55 212.45,-83.55 219.45,-83.55"/>
</g>
<!-- Node5 -->
<g id="node5" class="node">
<title>Node5</title>
<g id="a_node5"><a xlink:href="camera_8h.xhtml" target="_top" xlink:title=" ">
<polygon fill="white" stroke="black" points="23.11,-55.5 23.11,-73.5 80.79,-73.5 80.79,-55.5 23.11,-55.5"/>
<text text-anchor="middle" x="51.95" y="-61.5" font-family="Helvetica,sans-Serif" font-size="10.00">camera.h</text>
</a>
</g>
</g>
<!-- Node1&#45;&gt;Node5 -->
<g id="edge4" class="edge">
<title>Node1&#45;&gt;Node5</title>
<path fill="none" stroke="midnightblue" d="M191.04,-110.45C163.15,-101.44 117.75,-86.77 86.45,-76.65"/>
<polygon fill="midnightblue" stroke="midnightblue" points="87.42,-73.28 76.82,-73.54 85.26,-79.94 87.42,-73.28"/>
</g>
<!-- Node7 -->
<g id="node7" class="node">
<title>Node7</title>
<g id="a_node7"><a xlink:href="countdown_8h.xhtml" target="_top" xlink:title=" ">
<polygon fill="white" stroke="black" points="98.6,-55.5 98.6,-73.5 171.31,-73.5 171.31,-55.5 98.6,-55.5"/>
<text text-anchor="middle" x="134.95" y="-61.5" font-family="Helvetica,sans-Serif" font-size="10.00">countdown.h</text>
</a>
</g>
</g>
<!-- Node1&#45;&gt;Node7 -->
<g id="edge7" class="edge">
<title>Node1&#45;&gt;Node7</title>
<path fill="none" stroke="midnightblue" d="M203.65,-110.45C191.04,-102.2 171.2,-89.22 156.07,-79.32"/>
<polygon fill="midnightblue" stroke="midnightblue" points="157.65,-76.17 147.37,-73.63 153.82,-82.03 157.65,-76.17"/>
</g>
<!-- Node9 -->
<g id="node9" class="node">
<title>Node9</title>
<g id="a_node9"><a xlink:title=" ">
<polygon fill="white" stroke="#bfbfbf" points="260.89,-55.5 260.89,-73.5 313.01,-73.5 313.01,-55.5 260.89,-55.5"/>
<text text-anchor="middle" x="286.95" y="-61.5" font-family="Helvetica,sans-Serif" font-size="10.00">QDialog</text>
</a>
</g>
</g>
<!-- Node1&#45;&gt;Node9 -->
<g id="edge10" class="edge">
<title>Node1&#45;&gt;Node9</title>
<path fill="none" stroke="midnightblue" d="M226.73,-110.45C237.58,-102.36 254.53,-89.7 267.68,-79.88"/>
<polygon fill="midnightblue" stroke="midnightblue" points="270.15,-82.41 276.07,-73.63 265.96,-76.8 270.15,-82.41"/>
</g>
<!-- Node10 -->
<g id="node10" class="node">
<title>Node10</title>
<g id="a_node10"><a xlink:title=" ">
<polygon fill="white" stroke="#bfbfbf" points="331.22,-55.5 331.22,-73.5 386.68,-73.5 386.68,-55.5 331.22,-55.5"/>
<text text-anchor="middle" x="358.95" y="-61.5" font-family="Helvetica,sans-Serif" font-size="10.00">QThread</text>
</a>
</g>
</g>
<!-- Node1&#45;&gt;Node10 -->
<g id="edge11" class="edge">
<title>Node1&#45;&gt;Node10</title>
<path fill="none" stroke="midnightblue" d="M237.67,-110.45C261.61,-101.58 300.32,-87.23 327.56,-77.13"/>
<polygon fill="midnightblue" stroke="midnightblue" points="328.87,-80.38 337.03,-73.63 326.43,-73.82 328.87,-80.38"/>
</g>
<!-- Node3 -->
<g id="node3" class="node">
<title>Node3</title>
<g id="a_node3"><a xlink:title=" ">
<polygon fill="white" stroke="#bfbfbf" points="77.61,-0.5 77.61,-18.5 130.29,-18.5 130.29,-0.5 77.61,-0.5"/>
<text text-anchor="middle" x="103.95" y="-6.5" font-family="Helvetica,sans-Serif" font-size="10.00">QObject</text>
</a>
</g>
</g>
<!-- Node2&#45;&gt;Node3 -->
<g id="edge2" class="edge">
<title>Node2&#45;&gt;Node3</title>
<path fill="none" stroke="midnightblue" d="M198.94,-55.45C180.69,-46.81 151.46,-32.98 130.24,-22.94"/>
<polygon fill="midnightblue" stroke="midnightblue" points="131.66,-19.74 121.12,-18.63 128.66,-26.07 131.66,-19.74"/>
</g>
<!-- Node4 -->
<g id="node4" class="node">
<title>Node4</title>
<g id="a_node4"><a xlink:title=" ">
<polygon fill="white" stroke="#bfbfbf" points="215.22,-0.5 215.22,-18.5 260.68,-18.5 260.68,-0.5 215.22,-0.5"/>
<text text-anchor="middle" x="237.95" y="-6.5" font-family="Helvetica,sans-Serif" font-size="10.00">atomic</text>
</a>
</g>
</g>
<!-- Node2&#45;&gt;Node4 -->
<g id="edge3" class="edge">
<title>Node2&#45;&gt;Node4</title>
<path fill="none" stroke="midnightblue" d="M219.39,-55.22C222.41,-47.94 226.9,-37.11 230.71,-27.93"/>
<polygon fill="midnightblue" stroke="midnightblue" points="234.01,-29.13 234.61,-18.55 227.54,-26.44 234.01,-29.13"/>
</g>
<!-- Node5&#45;&gt;Node3 -->
<g id="edge5" class="edge">
<title>Node5&#45;&gt;Node3</title>
<path fill="none" stroke="midnightblue" d="M60.08,-55.22C67.75,-47.39 79.46,-35.46 88.85,-25.89"/>
<polygon fill="midnightblue" stroke="midnightblue" points="91.55,-28.14 96.05,-18.55 86.55,-23.24 91.55,-28.14"/>
</g>
<!-- Node6 -->
<g id="node6" class="node">
<title>Node6</title>
<g id="a_node6"><a xlink:title=" ">
<polygon fill="white" stroke="#bfbfbf" points="0,-0.5 0,-18.5 59.9,-18.5 59.9,-0.5 0,-0.5"/>
<text text-anchor="middle" x="29.95" y="-6.5" font-family="Helvetica,sans-Serif" font-size="10.00">QProcess</text>
</a>
</g>
</g>
<!-- Node5&#45;&gt;Node6 -->
<g id="edge6" class="edge">
<title>Node5&#45;&gt;Node6</title>
<path fill="none" stroke="midnightblue" d="M48.51,-55.22C45.49,-47.94 41,-37.11 37.19,-27.93"/>
<polygon fill="midnightblue" stroke="midnightblue" points="40.36,-26.44 33.29,-18.55 33.89,-29.13 40.36,-26.44"/>
</g>
<!-- Node7&#45;&gt;Node3 -->
<g id="edge8" class="edge">
<title>Node7&#45;&gt;Node3</title>
<path fill="none" stroke="midnightblue" d="M130.11,-55.22C125.76,-47.79 119.24,-36.65 113.8,-27.34"/>
<polygon fill="midnightblue" stroke="midnightblue" points="116.73,-25.41 108.66,-18.55 110.69,-28.95 116.73,-25.41"/>
</g>
<!-- Node8 -->
<g id="node8" class="node">
<title>Node8</title>
<g id="a_node8"><a xlink:title=" ">
<polygon fill="white" stroke="#bfbfbf" points="148.47,-0.5 148.47,-18.5 197.43,-18.5 197.43,-0.5 148.47,-0.5"/>
<text text-anchor="middle" x="172.95" y="-6.5" font-family="Helvetica,sans-Serif" font-size="10.00">QTimer</text>
</a>
</g>
</g>
<!-- Node7&#45;&gt;Node8 -->
<g id="edge9" class="edge">
<title>Node7&#45;&gt;Node8</title>
<path fill="none" stroke="midnightblue" d="M140.89,-55.22C146.33,-47.63 154.54,-36.18 161.29,-26.76"/>
<polygon fill="midnightblue" stroke="midnightblue" points="164.2,-28.72 167.18,-18.55 158.51,-24.64 164.2,-28.72"/>
</g>
</g>
</svg>
