<?xml version="1.0" encoding="UTF-8" standalone="no"?>
<!DOCTYPE svg PUBLIC "-//W3C//DTD SVG 1.1//EN"
 "http://www.w3.org/Graphics/SVG/1.1/DTD/svg11.dtd">
<!-- Generated by graphviz version 2.42.3 (20191010.1750)
 -->
<!-- Title: fotobox.cpp Pages: 1 -->
<!--zoomable 192 -->
<svg id="main" version="1.1" xmlns="http://www.w3.org/2000/svg" xmlns:xlink="http://www.w3.org/1999/xlink" xml:space="preserve" onload="init(evt)">
<style type="text/css"><![CDATA[
.edge:hover path { stroke: red; }
.edge:hover polygon { stroke: red; fill: red; }
]]></style>
<script type="text/javascript"><![CDATA[
var edges = document.getElementsByTagName('g');
if (edges && edges.length) {
  for (var i=0;i<edges.length;i++) {
    if (edges[i].id.substr(0,4)=='edge') {
      edges[i].setAttribute('class','edge');
    }
  }
}
]]></script>
        <defs>
                <circle id="rim" cx="0" cy="0" r="7"/>
                <circle id="rim2" cx="0" cy="0" r="3.5"/>
                <g id="zoomPlus">
                        <use xlink:href="#rim" fill="#404040">
                                <set attributeName="fill" to="#808080" begin="zoomplus.mouseover" end="zoomplus.mouseout"/>
                        </use>
                        <path d="M-4,0h8M0,-4v8" fill="none" stroke="white" stroke-width="1.5" pointer-events="none"/>
                </g>
                <g id="zoomMin">
                        <use xlink:href="#rim" fill="#404040">
                                <set attributeName="fill" to="#808080" begin="zoomminus.mouseover" end="zoomminus.mouseout"/>
                        </use>
                        <path d="M-4,0h8" fill="none" stroke="white" stroke-width="1.5" pointer-events="none"/>
                </g>
                <g id="dirArrow">
                        <path fill="none" stroke="white" stroke-width="1.5" d="M0,-3.0v7 M-2.5,-0.5L0,-3.0L2.5,-0.5"/>
                </g>
               <g id="resetDef">
                       <use xlink:href="#rim2" fill="#404040">
                               <set attributeName="fill" to="#808080" begin="reset.mouseover" end="reset.mouseout"/>
                       </use>
               </g>
        </defs>

<script type="text/javascript">
var viewWidth = 798;
var viewHeight = 192;
var sectionId = 'dynsection-0';
</script>
<script xlink:href="svgpan.js"/>
<svg id="graph" class="graph">
<g id="viewport">
<title>fotobox.cpp</title>
<polygon fill="white" stroke="transparent" points="-4,4 -4,-188 793.6,-188 793.6,4 -4,4"/>
<!-- Node1 -->
<g id="node1" class="node">
<title>Node1</title>
<g id="a_node1"><a xlink:title=" ">
<polygon fill="#bfbfbf" stroke="black" points="482.01,-165.5 482.01,-183.5 549.72,-183.5 549.72,-165.5 482.01,-165.5"/>
<text text-anchor="middle" x="515.86" y="-171.5" font-family="Helvetica,sans-Serif" font-size="10.00">fotobox.cpp</text>
</a>
</g>
</g>
<!-- Node2 -->
<g id="node2" class="node">
<title>Node2</title>
<g id="a_node2"><a xlink:href="fotobox_8h.xhtml" target="_top" xlink:title=" ">
<polygon fill="white" stroke="black" points="272.29,-110.5 272.29,-128.5 329.44,-128.5 329.44,-110.5 272.29,-110.5"/>
<text text-anchor="middle" x="300.86" y="-116.5" font-family="Helvetica,sans-Serif" font-size="10.00">fotobox.h</text>
</a>
</g>
</g>
<!-- Node1&#45;&gt;Node2 -->
<g id="edge1" class="edge">
<title>Node1&#45;&gt;Node2</title>
<path fill="none" stroke="midnightblue" d="M483.21,-165.45C444.66,-155.95 380.61,-140.16 339.59,-130.05"/>
<polygon fill="midnightblue" stroke="midnightblue" points="340.23,-126.6 329.69,-127.6 338.56,-133.4 340.23,-126.6"/>
</g>
<!-- Node12 -->
<g id="node12" class="node">
<title>Node12</title>
<g id="a_node12"><a xlink:href="preferenceprovider_8h.xhtml" target="_top" xlink:title=" ">
<polygon fill="white" stroke="black" points="0,-55.5 0,-73.5 107.73,-73.5 107.73,-55.5 0,-55.5"/>
<text text-anchor="middle" x="53.86" y="-61.5" font-family="Helvetica,sans-Serif" font-size="10.00">preferenceprovider.h</text>
</a>
</g>
</g>
<!-- Node1&#45;&gt;Node12 -->
<g id="edge13" class="edge">
<title>Node1&#45;&gt;Node12</title>
<path fill="none" stroke="midnightblue" d="M481.63,-168.82C432.75,-161.84 340.29,-147.5 262.86,-129 199.79,-113.93 127.72,-90.66 86.82,-76.87"/>
<polygon fill="midnightblue" stroke="midnightblue" points="87.71,-73.47 77.12,-73.58 85.46,-80.1 87.71,-73.47"/>
</g>
<!-- Node13 -->
<g id="node13" class="node">
<title>Node13</title>
<g id="a_node13"><a xlink:href="preferences_8h.xhtml" target="_top" xlink:title=" ">
<polygon fill="white" stroke="black" points="347.29,-110.5 347.29,-128.5 424.44,-128.5 424.44,-110.5 347.29,-110.5"/>
<text text-anchor="middle" x="385.86" y="-116.5" font-family="Helvetica,sans-Serif" font-size="10.00">preferences.h</text>
</a>
</g>
</g>
<!-- Node1&#45;&gt;Node13 -->
<g id="edge15" class="edge">
<title>Node1&#45;&gt;Node13</title>
<path fill="none" stroke="midnightblue" d="M496.12,-165.45C474.55,-156.66 439.78,-142.48 415.05,-132.4"/>
<polygon fill="midnightblue" stroke="midnightblue" points="416.38,-129.16 405.79,-128.63 413.73,-135.64 416.38,-129.16"/>
</g>
<!-- Node15 -->
<g id="node15" class="node">
<title>Node15</title>
<g id="a_node15"><a xlink:title=" ">
<polygon fill="white" stroke="#bfbfbf" points="442.62,-110.5 442.62,-128.5 513.11,-128.5 513.11,-110.5 442.62,-110.5"/>
<text text-anchor="middle" x="477.86" y="-116.5" font-family="Helvetica,sans-Serif" font-size="10.00">ui_fotobox.h</text>
</a>
</g>
</g>
<!-- Node1&#45;&gt;Node15 -->
<g id="edge19" class="edge">
<title>Node1&#45;&gt;Node15</title>
<path fill="none" stroke="midnightblue" d="M509.93,-165.22C504.49,-157.63 496.27,-146.18 489.52,-136.76"/>
<polygon fill="midnightblue" stroke="midnightblue" points="492.31,-134.64 483.64,-128.55 486.62,-138.72 492.31,-134.64"/>
</g>
<!-- Node16 -->
<g id="node16" class="node">
<title>Node16</title>
<g id="a_node16"><a xlink:title=" ">
<polygon fill="white" stroke="#bfbfbf" points="531.41,-110.5 531.41,-128.5 576.31,-128.5 576.31,-110.5 531.41,-110.5"/>
<text text-anchor="middle" x="553.86" y="-116.5" font-family="Helvetica,sans-Serif" font-size="10.00">QDate</text>
</a>
</g>
</g>
<!-- Node1&#45;&gt;Node16 -->
<g id="edge20" class="edge">
<title>Node1&#45;&gt;Node16</title>
<path fill="none" stroke="midnightblue" d="M521.8,-165.22C527.24,-157.63 535.46,-146.18 542.21,-136.76"/>
<polygon fill="midnightblue" stroke="midnightblue" points="545.11,-138.72 548.09,-128.55 539.42,-134.64 545.11,-138.72"/>
</g>
<!-- Node17 -->
<g id="node17" class="node">
<title>Node17</title>
<g id="a_node17"><a xlink:title=" ">
<polygon fill="white" stroke="#bfbfbf" points="594.59,-110.5 594.59,-128.5 631.14,-128.5 631.14,-110.5 594.59,-110.5"/>
<text text-anchor="middle" x="612.86" y="-116.5" font-family="Helvetica,sans-Serif" font-size="10.00">QDir</text>
</a>
</g>
</g>
<!-- Node1&#45;&gt;Node17 -->
<g id="edge21" class="edge">
<title>Node1&#45;&gt;Node17</title>
<path fill="none" stroke="midnightblue" d="M530.6,-165.45C546.12,-156.97 570.81,-143.48 589.1,-133.49"/>
<polygon fill="midnightblue" stroke="midnightblue" points="590.9,-136.49 597.99,-128.63 587.54,-130.35 590.9,-136.49"/>
</g>
<!-- Node18 -->
<g id="node18" class="node">
<title>Node18</title>
<g id="a_node18"><a xlink:title=" ">
<polygon fill="white" stroke="#bfbfbf" points="649.57,-110.5 649.57,-128.5 716.15,-128.5 716.15,-110.5 649.57,-110.5"/>
<text text-anchor="middle" x="682.86" y="-116.5" font-family="Helvetica,sans-Serif" font-size="10.00">QKeyEvent</text>
</a>
</g>
</g>
<!-- Node1&#45;&gt;Node18 -->
<g id="edge22" class="edge">
<title>Node1&#45;&gt;Node18</title>
<path fill="none" stroke="midnightblue" d="M541.23,-165.45C569.63,-156.44 615.86,-141.77 647.73,-131.65"/>
<polygon fill="midnightblue" stroke="midnightblue" points="649.06,-134.9 657.54,-128.54 646.95,-128.23 649.06,-134.9"/>
</g>
<!-- Node19 -->
<g id="node19" class="node">
<title>Node19</title>
<g id="a_node19"><a xlink:title=" ">
<polygon fill="white" stroke="#bfbfbf" points="734.13,-110.5 734.13,-128.5 789.6,-128.5 789.6,-110.5 734.13,-110.5"/>
<text text-anchor="middle" x="761.86" y="-116.5" font-family="Helvetica,sans-Serif" font-size="10.00">QPainter</text>
</a>
</g>
</g>
<!-- Node1&#45;&gt;Node19 -->
<g id="edge23" class="edge">
<title>Node1&#45;&gt;Node19</title>
<path fill="none" stroke="midnightblue" d="M549.93,-166.42C589.39,-158.18 656.61,-144.03 724.05,-129.15"/>
<polygon fill="midnightblue" stroke="midnightblue" points="724.99,-132.53 733.99,-126.95 723.47,-125.69 724.99,-132.53"/>
</g>
<!-- Node3 -->
<g id="node3" class="node">
<title>Node3</title>
<g id="a_node3"><a xlink:href="buzzer_8h.xhtml" target="_top" xlink:title=" ">
<polygon fill="white" stroke="black" points="125.96,-55.5 125.96,-73.5 179.77,-73.5 179.77,-55.5 125.96,-55.5"/>
<text text-anchor="middle" x="152.86" y="-61.5" font-family="Helvetica,sans-Serif" font-size="10.00">buzzer.h</text>
</a>
</g>
</g>
<!-- Node2&#45;&gt;Node3 -->
<g id="edge2" class="edge">
<title>Node2&#45;&gt;Node3</title>
<path fill="none" stroke="midnightblue" d="M278.39,-110.45C253.5,-101.54 213.19,-87.1 184.98,-77"/>
<polygon fill="midnightblue" stroke="midnightblue" points="186.15,-73.7 175.55,-73.63 183.79,-80.29 186.15,-73.7"/>
</g>
<!-- Node6 -->
<g id="node6" class="node">
<title>Node6</title>
<g id="a_node6"><a xlink:href="camera_8h.xhtml" target="_top" xlink:title=" ">
<polygon fill="white" stroke="black" points="272.02,-55.5 272.02,-73.5 329.71,-73.5 329.71,-55.5 272.02,-55.5"/>
<text text-anchor="middle" x="300.86" y="-61.5" font-family="Helvetica,sans-Serif" font-size="10.00">camera.h</text>
</a>
</g>
</g>
<!-- Node2&#45;&gt;Node6 -->
<g id="edge5" class="edge">
<title>Node2&#45;&gt;Node6</title>
<path fill="none" stroke="midnightblue" d="M300.86,-110.22C300.86,-103.18 300.86,-92.81 300.86,-83.83"/>
<polygon fill="midnightblue" stroke="midnightblue" points="304.36,-83.55 300.86,-73.55 297.36,-83.55 304.36,-83.55"/>
</g>
<!-- Node8 -->
<g id="node8" class="node">
<title>Node8</title>
<g id="a_node8"><a xlink:href="countdown_8h.xhtml" target="_top" xlink:title=" ">
<polygon fill="white" stroke="black" points="417.51,-55.5 417.51,-73.5 490.22,-73.5 490.22,-55.5 417.51,-55.5"/>
<text text-anchor="middle" x="453.86" y="-61.5" font-family="Helvetica,sans-Serif" font-size="10.00">countdown.h</text>
</a>
</g>
</g>
<!-- Node2&#45;&gt;Node8 -->
<g id="edge8" class="edge">
<title>Node2&#45;&gt;Node8</title>
<path fill="none" stroke="midnightblue" d="M324.1,-110.45C349.83,-101.54 391.5,-87.1 420.66,-77"/>
<polygon fill="midnightblue" stroke="midnightblue" points="422.1,-80.21 430.41,-73.63 419.81,-73.59 422.1,-80.21"/>
</g>
<!-- Node10 -->
<g id="node10" class="node">
<title>Node10</title>
<g id="a_node10"><a xlink:title=" ">
<polygon fill="white" stroke="#bfbfbf" points="347.8,-55.5 347.8,-73.5 399.93,-73.5 399.93,-55.5 347.8,-55.5"/>
<text text-anchor="middle" x="373.86" y="-61.5" font-family="Helvetica,sans-Serif" font-size="10.00">QDialog</text>
</a>
</g>
</g>
<!-- Node2&#45;&gt;Node10 -->
<g id="edge11" class="edge">
<title>Node2&#45;&gt;Node10</title>
<path fill="none" stroke="midnightblue" d="M311.95,-110.45C323.21,-102.28 340.86,-89.46 354.44,-79.6"/>
<polygon fill="midnightblue" stroke="midnightblue" points="356.64,-82.33 362.67,-73.63 352.52,-76.67 356.64,-82.33"/>
</g>
<!-- Node11 -->
<g id="node11" class="node">
<title>Node11</title>
<g id="a_node11"><a xlink:title=" ">
<polygon fill="white" stroke="#bfbfbf" points="198.13,-55.5 198.13,-73.5 253.6,-73.5 253.6,-55.5 198.13,-55.5"/>
<text text-anchor="middle" x="225.86" y="-61.5" font-family="Helvetica,sans-Serif" font-size="10.00">QThread</text>
</a>
</g>
</g>
<!-- Node2&#45;&gt;Node11 -->
<g id="edge12" class="edge">
<title>Node2&#45;&gt;Node11</title>
<path fill="none" stroke="midnightblue" d="M289.47,-110.45C277.91,-102.28 259.77,-89.46 245.82,-79.6"/>
<polygon fill="midnightblue" stroke="midnightblue" points="247.55,-76.54 237.36,-73.63 243.51,-82.25 247.55,-76.54"/>
</g>
<!-- Node4 -->
<g id="node4" class="node">
<title>Node4</title>
<g id="a_node4"><a xlink:title=" ">
<polygon fill="white" stroke="#bfbfbf" points="197.52,-0.5 197.52,-18.5 250.2,-18.5 250.2,-0.5 197.52,-0.5"/>
<text text-anchor="middle" x="223.86" y="-6.5" font-family="Helvetica,sans-Serif" font-size="10.00">QObject</text>
</a>
</g>
</g>
<!-- Node3&#45;&gt;Node4 -->
<g id="edge3" class="edge">
<title>Node3&#45;&gt;Node4</title>
<path fill="none" stroke="midnightblue" d="M163.65,-55.45C174.49,-47.36 191.44,-34.7 204.6,-24.88"/>
<polygon fill="midnightblue" stroke="midnightblue" points="207.06,-27.41 212.98,-18.63 202.87,-21.8 207.06,-27.41"/>
</g>
<!-- Node5 -->
<g id="node5" class="node">
<title>Node5</title>
<g id="a_node5"><a xlink:title=" ">
<polygon fill="white" stroke="#bfbfbf" points="130.14,-0.5 130.14,-18.5 175.59,-18.5 175.59,-0.5 130.14,-0.5"/>
<text text-anchor="middle" x="152.86" y="-6.5" font-family="Helvetica,sans-Serif" font-size="10.00">atomic</text>
</a>
</g>
</g>
<!-- Node3&#45;&gt;Node5 -->
<g id="edge4" class="edge">
<title>Node3&#45;&gt;Node5</title>
<path fill="none" stroke="midnightblue" d="M152.86,-55.22C152.86,-48.18 152.86,-37.81 152.86,-28.83"/>
<polygon fill="midnightblue" stroke="midnightblue" points="156.36,-28.55 152.86,-18.55 149.36,-28.55 156.36,-28.55"/>
</g>
<!-- Node6&#45;&gt;Node4 -->
<g id="edge6" class="edge">
<title>Node6&#45;&gt;Node4</title>
<path fill="none" stroke="midnightblue" d="M289.17,-55.45C277.18,-47.2 258.32,-34.22 243.94,-24.32"/>
<polygon fill="midnightblue" stroke="midnightblue" points="245.89,-21.41 235.67,-18.63 241.92,-27.18 245.89,-21.41"/>
</g>
<!-- Node7 -->
<g id="node7" class="node">
<title>Node7</title>
<g id="a_node7"><a xlink:title=" ">
<polygon fill="white" stroke="#bfbfbf" points="270.91,-0.5 270.91,-18.5 330.81,-18.5 330.81,-0.5 270.91,-0.5"/>
<text text-anchor="middle" x="300.86" y="-6.5" font-family="Helvetica,sans-Serif" font-size="10.00">QProcess</text>
</a>
</g>
</g>
<!-- Node6&#45;&gt;Node7 -->
<g id="edge7" class="edge">
<title>Node6&#45;&gt;Node7</title>
<path fill="none" stroke="midnightblue" d="M300.86,-55.22C300.86,-48.18 300.86,-37.81 300.86,-28.83"/>
<polygon fill="midnightblue" stroke="midnightblue" points="304.36,-28.55 300.86,-18.55 297.36,-28.55 304.36,-28.55"/>
</g>
<!-- Node8&#45;&gt;Node4 -->
<g id="edge9" class="edge">
<title>Node8&#45;&gt;Node4</title>
<path fill="none" stroke="midnightblue" d="M418.93,-55.45C376.12,-45.58 303.91,-28.95 260.39,-18.92"/>
<polygon fill="midnightblue" stroke="midnightblue" points="261.03,-15.47 250.5,-16.64 259.46,-22.29 261.03,-15.47"/>
</g>
<!-- Node9 -->
<g id="node9" class="node">
<title>Node9</title>
<g id="a_node9"><a xlink:title=" ">
<polygon fill="white" stroke="#bfbfbf" points="429.38,-0.5 429.38,-18.5 478.35,-18.5 478.35,-0.5 429.38,-0.5"/>
<text text-anchor="middle" x="453.86" y="-6.5" font-family="Helvetica,sans-Serif" font-size="10.00">QTimer</text>
</a>
</g>
</g>
<!-- Node8&#45;&gt;Node9 -->
<g id="edge10" class="edge">
<title>Node8&#45;&gt;Node9</title>
<path fill="none" stroke="midnightblue" d="M453.86,-55.22C453.86,-48.18 453.86,-37.81 453.86,-28.83"/>
<polygon fill="midnightblue" stroke="midnightblue" points="457.36,-28.55 453.86,-18.55 450.36,-28.55 457.36,-28.55"/>
</g>
<!-- Node12&#45;&gt;Node4 -->
<g id="edge14" class="edge">
<title>Node12&#45;&gt;Node4</title>
<path fill="none" stroke="midnightblue" d="M79.68,-55.45C108.72,-46.4 156.06,-31.64 188.52,-21.52"/>
<polygon fill="midnightblue" stroke="midnightblue" points="189.58,-24.86 198.08,-18.54 187.49,-18.17 189.58,-24.86"/>
</g>
<!-- Node13&#45;&gt;Node8 -->
<g id="edge16" class="edge">
<title>Node13&#45;&gt;Node8</title>
<path fill="none" stroke="midnightblue" d="M396.19,-110.45C406.58,-102.36 422.81,-89.7 435.41,-79.88"/>
<polygon fill="midnightblue" stroke="midnightblue" points="437.7,-82.53 443.44,-73.63 433.4,-77.01 437.7,-82.53"/>
</g>
<!-- Node13&#45;&gt;Node10 -->
<g id="edge17" class="edge">
<title>Node13&#45;&gt;Node10</title>
<path fill="none" stroke="midnightblue" d="M383.99,-110.22C382.38,-103.1 380,-92.58 377.95,-83.53"/>
<polygon fill="midnightblue" stroke="midnightblue" points="381.31,-82.53 375.69,-73.55 374.48,-84.08 381.31,-82.53"/>
</g>
<!-- Node14 -->
<g id="node14" class="node">
<title>Node14</title>
<g id="a_node14"><a xlink:title=" ">
<polygon fill="white" stroke="#bfbfbf" points="507.91,-55.5 507.91,-73.5 567.82,-73.5 567.82,-55.5 507.91,-55.5"/>
<text text-anchor="middle" x="537.86" y="-61.5" font-family="Helvetica,sans-Serif" font-size="10.00">QSettings</text>
</a>
</g>
</g>
<!-- Node13&#45;&gt;Node14 -->
<g id="edge18" class="edge">
<title>Node13&#45;&gt;Node14</title>
<path fill="none" stroke="midnightblue" d="M408.95,-110.45C434.51,-101.54 475.91,-87.1 504.88,-77"/>
<polygon fill="midnightblue" stroke="midnightblue" points="506.27,-80.22 514.56,-73.63 503.97,-73.61 506.27,-80.22"/>
</g>
</g>
</svg>
        <g id="navigator" transform="translate(0 0)" fill="#404254">
                <rect fill="#f2f5e9" fill-opacity="0.5" stroke="#606060" stroke-width=".5" x="0" y="0" width="60" height="60"/>
                <use id="zoomplus" xlink:href="#zoomPlus" x="17" y="9" onmousedown="handleZoom(evt,'in')"/>
                <use id="zoomminus" xlink:href="#zoomMin" x="42" y="9" onmousedown="handleZoom(evt,'out')"/>
                <use id="reset" xlink:href="#resetDef" x="30" y="36" onmousedown="handleReset()"/>
                <g id="arrowUp" xlink:href="#dirArrow" transform="translate(30 24)" onmousedown="handlePan(0,-1)">
                  <use xlink:href="#rim" fill="#404040">
                        <set attributeName="fill" to="#808080" begin="arrowUp.mouseover" end="arrowUp.mouseout"/>
                  </use>
                  <path fill="none" stroke="white" stroke-width="1.5" d="M0,-3.0v7 M-2.5,-0.5L0,-3.0L2.5,-0.5"/>
                </g>
                <g id="arrowRight" xlink:href="#dirArrow" transform="rotate(90) translate(36 -43)" onmousedown="handlePan(1,0)">
                  <use xlink:href="#rim" fill="#404040">
                        <set attributeName="fill" to="#808080" begin="arrowRight.mouseover" end="arrowRight.mouseout"/>
                  </use>
                  <path fill="none" stroke="white" stroke-width="1.5" d="M0,-3.0v7 M-2.5,-0.5L0,-3.0L2.5,-0.5"/>
                </g>
                <g id="arrowDown" xlink:href="#dirArrow" transform="rotate(180) translate(-30 -48)" onmousedown="handlePan(0,1)">
                  <use xlink:href="#rim" fill="#404040">
                        <set attributeName="fill" to="#808080" begin="arrowDown.mouseover" end="arrowDown.mouseout"/>
                  </use>
                  <path fill="none" stroke="white" stroke-width="1.5" d="M0,-3.0v7 M-2.5,-0.5L0,-3.0L2.5,-0.5"/>
                </g>
                <g id="arrowLeft" xlink:href="#dirArrow" transform="rotate(270) translate(-36 17)" onmousedown="handlePan(-1,0)">
                  <use xlink:href="#rim" fill="#404040">
                        <set attributeName="fill" to="#808080" begin="arrowLeft.mouseover" end="arrowLeft.mouseout"/>
                  </use>
                  <path fill="none" stroke="white" stroke-width="1.5" d="M0,-3.0v7 M-2.5,-0.5L0,-3.0L2.5,-0.5"/>
                </g>
        </g>
        <svg viewBox="0 0 15 15" width="100%" height="30px" preserveAspectRatio="xMaxYMin meet">
         <g id="arrow_out" transform="scale(0.3 0.3)">
          <a xlink:href="fotobox_8cpp__incl_org.svg" target="_base">
           <rect id="button" ry="5" rx="5" y="6" x="6" height="38" width="38"
                fill="#f2f5e9" fill-opacity="0.5" stroke="#606060" stroke-width="1.0"/>
           <path id="arrow"
             d="M 11.500037,31.436501 C 11.940474,20.09759 22.043105,11.32322 32.158766,21.979434 L 37.068811,17.246167 C 37.068811,17.246167 37.088388,32 37.088388,32 L 22.160133,31.978069 C 22.160133,31.978069 26.997745,27.140456 26.997745,27.140456 C 18.528582,18.264221 13.291696,25.230495 11.500037,31.436501 z"
             style="fill:#404040;"/>
          </a>
         </g>
        </svg>
</svg>
