<?xml version="1.0" encoding="UTF-8" standalone="no"?>
<!DOCTYPE svg PUBLIC "-//W3C//DTD SVG 1.1//EN"
 "http://www.w3.org/Graphics/SVG/1.1/DTD/svg11.dtd">
<!-- Generated by graphviz version 2.42.3 (20191010.1750)
 -->
<!-- Title: Graphical Class Hierarchy Pages: 1 -->
<svg width="199pt" height="138pt"
 viewBox="0.00 0.00 198.83 138.00" xmlns="http://www.w3.org/2000/svg" xmlns:xlink="http://www.w3.org/1999/xlink">
<g id="graph0" class="graph" transform="scale(1 1) rotate(0) translate(4 134)">
<title>Graphical Class Hierarchy</title>
<polygon fill="white" stroke="transparent" points="-4,4 -4,-134 194.83,-134 194.83,4 -4,4"/>
<!-- Node1 -->
<g id="node1" class="node">
<title>Node1</title>
<g id="a_node1"><a xlink:title=" ">
<polygon fill="white" stroke="#bfbfbf" points="0,-55.5 0,-73.5 52.68,-73.5 52.68,-55.5 0,-55.5"/>
<text text-anchor="middle" x="26.34" y="-61.5" font-family="Helvetica,sans-Serif" font-size="10.00">QObject</text>
</a>
</g>
</g>
<!-- Node0 -->
<g id="node2" class="node">
<title>Node0</title>
<g id="a_node2"><a xlink:href="class_buzzer.xhtml" target="_top" xlink:title="This class handles the buzzer.">
<polygon fill="white" stroke="black" points="116.19,-111.5 116.19,-129.5 163.32,-129.5 163.32,-111.5 116.19,-111.5"/>
<text text-anchor="middle" x="139.76" y="-117.5" font-family="Helvetica,sans-Serif" font-size="10.00">Buzzer</text>
</a>
</g>
</g>
<!-- Node1&#45;&gt;Node0 -->
<g id="edge1" class="edge">
<title>Node1&#45;&gt;Node0</title>
<path fill="none" stroke="midnightblue" d="M48.99,-79.46C60.46,-86.98 74.97,-95.88 88.68,-102.5 97.33,-106.68 107.22,-110.43 115.91,-113.42"/>
<polygon fill="midnightblue" stroke="midnightblue" points="50.78,-76.45 40.52,-73.8 46.88,-82.27 50.78,-76.45"/>
</g>
<!-- Node3 -->
<g id="node3" class="node">
<title>Node3</title>
<g id="a_node3"><a xlink:href="class_camera.xhtml" target="_top" xlink:title="The Camera class Use gphoto2 to send commands to camera.">
<polygon fill="white" stroke="black" points="113.97,-74.5 113.97,-92.5 165.54,-92.5 165.54,-74.5 113.97,-74.5"/>
<text text-anchor="middle" x="139.76" y="-80.5" font-family="Helvetica,sans-Serif" font-size="10.00">Camera</text>
</a>
</g>
</g>
<!-- Node1&#45;&gt;Node3 -->
<g id="edge2" class="edge">
<title>Node1&#45;&gt;Node3</title>
<path fill="none" stroke="midnightblue" d="M62.79,-70.55C79.36,-73.37 98.68,-76.67 113.7,-79.23"/>
<polygon fill="midnightblue" stroke="midnightblue" points="63.35,-67.09 52.9,-68.86 62.17,-73.99 63.35,-67.09"/>
</g>
<!-- Node4 -->
<g id="node4" class="node">
<title>Node4</title>
<g id="a_node4"><a xlink:href="class_countdown.xhtml" target="_top" xlink:title="The Countdown class.">
<polygon fill="white" stroke="black" points="106.46,-37.5 106.46,-55.5 173.05,-55.5 173.05,-37.5 106.46,-37.5"/>
<text text-anchor="middle" x="139.76" y="-43.5" font-family="Helvetica,sans-Serif" font-size="10.00">Countdown</text>
</a>
</g>
</g>
<!-- Node1&#45;&gt;Node4 -->
<g id="edge3" class="edge">
<title>Node1&#45;&gt;Node4</title>
<path fill="none" stroke="midnightblue" d="M63.04,-58.73C76.86,-56.5 92.59,-53.96 106.11,-51.77"/>
<polygon fill="midnightblue" stroke="midnightblue" points="62.21,-55.32 52.9,-60.37 63.33,-62.23 62.21,-55.32"/>
</g>
<!-- Node5 -->
<g id="node5" class="node">
<title>Node5</title>
<g id="a_node5"><a xlink:href="class_preference_provider.xhtml" target="_top" xlink:title="Preference who stores the preferences.">
<polygon fill="white" stroke="black" points="88.68,-0.5 88.68,-18.5 190.83,-18.5 190.83,-0.5 88.68,-0.5"/>
<text text-anchor="middle" x="139.76" y="-6.5" font-family="Helvetica,sans-Serif" font-size="10.00">PreferenceProvider</text>
</a>
</g>
</g>
<!-- Node1&#45;&gt;Node5 -->
<g id="edge4" class="edge">
<title>Node1&#45;&gt;Node5</title>
<path fill="none" stroke="midnightblue" d="M50.38,-49.74C61.67,-42.82 75.63,-34.75 88.68,-28.5 96.23,-24.88 104.66,-21.46 112.42,-18.55"/>
<polygon fill="midnightblue" stroke="midnightblue" points="48.23,-46.95 41.59,-55.21 51.93,-52.89 48.23,-46.95"/>
</g>
</g>
</svg>
