<?xml version="1.0" encoding="UTF-8" standalone="no"?>
<!DOCTYPE svg PUBLIC "-//W3C//DTD SVG 1.1//EN"
 "http://www.w3.org/Graphics/SVG/1.1/DTD/svg11.dtd">
<!-- Generated by graphviz version 2.42.3 (20191010.1750)
 -->
<!-- Title: Graphical Class Hierarchy Pages: 1 -->
<svg width="166pt" height="64pt"
 viewBox="0.00 0.00 166.04 64.00" xmlns="http://www.w3.org/2000/svg" xmlns:xlink="http://www.w3.org/1999/xlink">
<g id="graph0" class="graph" transform="scale(1 1) rotate(0) translate(4 60)">
<title>Graphical Class Hierarchy</title>
<polygon fill="white" stroke="transparent" points="-4,4 -4,-60 162.04,-60 162.04,4 -4,4"/>
<!-- Node6 -->
<g id="node1" class="node">
<title>Node6</title>
<g id="a_node1"><a xlink:title=" ">
<polygon fill="white" stroke="#bfbfbf" points="0,-18.5 0,-36.5 52.13,-36.5 52.13,-18.5 0,-18.5"/>
<text text-anchor="middle" x="26.06" y="-24.5" font-family="Helvetica,sans-Serif" font-size="10.00">QDialog</text>
</a>
</g>
</g>
<!-- Node0 -->
<g id="node2" class="node">
<title>Node0</title>
<g id="a_node2"><a xlink:href="class_foto_box.xhtml" target="_top" xlink:title="The FotoBox class Main class to control UI and controll the process.">
<polygon fill="white" stroke="black" points="96.47,-37.5 96.47,-55.5 149.71,-55.5 149.71,-37.5 96.47,-37.5"/>
<text text-anchor="middle" x="123.09" y="-43.5" font-family="Helvetica,sans-Serif" font-size="10.00">FotoBox</text>
</a>
</g>
</g>
<!-- Node6&#45;&gt;Node0 -->
<g id="edge1" class="edge">
<title>Node6&#45;&gt;Node0</title>
<path fill="none" stroke="midnightblue" d="M62.46,-34.58C73.66,-36.82 85.82,-39.25 96.22,-41.33"/>
<polygon fill="midnightblue" stroke="midnightblue" points="63.02,-31.12 52.53,-32.59 61.65,-37.98 63.02,-31.12"/>
</g>
<!-- Node8 -->
<g id="node3" class="node">
<title>Node8</title>
<g id="a_node3"><a xlink:href="class_preferences.xhtml" target="_top" xlink:title="Preference class to change and store the application settings.">
<polygon fill="white" stroke="black" points="88.13,-0.5 88.13,-18.5 158.04,-18.5 158.04,-0.5 88.13,-0.5"/>
<text text-anchor="middle" x="123.09" y="-6.5" font-family="Helvetica,sans-Serif" font-size="10.00">Preferences</text>
</a>
</g>
</g>
<!-- Node6&#45;&gt;Node8 -->
<g id="edge2" class="edge">
<title>Node6&#45;&gt;Node8</title>
<path fill="none" stroke="midnightblue" d="M62.39,-20.81C70.75,-19.22 79.66,-17.54 87.97,-15.96"/>
<polygon fill="midnightblue" stroke="midnightblue" points="61.7,-17.38 52.53,-22.68 63,-24.25 61.7,-17.38"/>
</g>
</g>
</svg>
