<?xml version="1.0" encoding="UTF-8" standalone="no"?>
<!DOCTYPE svg PUBLIC "-//W3C//DTD SVG 1.1//EN"
 "http://www.w3.org/Graphics/SVG/1.1/DTD/svg11.dtd">
<!-- Generated by graphviz version 2.42.3 (20191010.1750)
 -->
<!-- Title: preferences.h Pages: 1 -->
<svg width="256pt" height="82pt"
 viewBox="0.00 0.00 255.71 82.00" xmlns="http://www.w3.org/2000/svg" xmlns:xlink="http://www.w3.org/1999/xlink">
<g id="graph0" class="graph" transform="scale(1 1) rotate(0) translate(4 78)">
<title>preferences.h</title>
<polygon fill="white" stroke="transparent" points="-4,4 -4,-78 251.71,-78 251.71,4 -4,4"/>
<!-- Node1 -->
<g id="node1" class="node">
<title>Node1</title>
<g id="a_node1"><a xlink:title=" ">
<polygon fill="#bfbfbf" stroke="black" points="75.28,-55.5 75.28,-73.5 152.43,-73.5 152.43,-55.5 75.28,-55.5"/>
<text text-anchor="middle" x="113.85" y="-61.5" font-family="Helvetica,sans-Serif" font-size="10.00">preferences.h</text>
</a>
</g>
</g>
<!-- Node2 -->
<g id="node2" class="node">
<title>Node2</title>
<g id="a_node2"><a xlink:href="fotobox_8cpp.xhtml" target="_top" xlink:title=" ">
<polygon fill="white" stroke="black" points="0,-0.5 0,-18.5 67.7,-18.5 67.7,-0.5 0,-0.5"/>
<text text-anchor="middle" x="33.85" y="-6.5" font-family="Helvetica,sans-Serif" font-size="10.00">fotobox.cpp</text>
</a>
</g>
</g>
<!-- Node1&#45;&gt;Node2 -->
<g id="edge1" class="edge">
<title>Node1&#45;&gt;Node2</title>
<path fill="none" stroke="midnightblue" d="M93.13,-49.77C78.22,-39.89 58.61,-26.9 46.12,-18.63"/>
<polygon fill="midnightblue" stroke="midnightblue" points="91.43,-52.85 101.7,-55.45 95.3,-47.01 91.43,-52.85"/>
</g>
<!-- Node3 -->
<g id="node3" class="node">
<title>Node3</title>
<g id="a_node3"><a xlink:href="main_8cpp.xhtml" target="_top" xlink:title=" ">
<polygon fill="white" stroke="black" points="85.56,-0.5 85.56,-18.5 142.14,-18.5 142.14,-0.5 85.56,-0.5"/>
<text text-anchor="middle" x="113.85" y="-6.5" font-family="Helvetica,sans-Serif" font-size="10.00">main.cpp</text>
</a>
</g>
</g>
<!-- Node1&#45;&gt;Node3 -->
<g id="edge2" class="edge">
<title>Node1&#45;&gt;Node3</title>
<path fill="none" stroke="midnightblue" d="M113.85,-45.17C113.85,-36.09 113.85,-25.59 113.85,-18.55"/>
<polygon fill="midnightblue" stroke="midnightblue" points="110.35,-45.22 113.85,-55.22 117.35,-45.22 110.35,-45.22"/>
</g>
<!-- Node4 -->
<g id="node4" class="node">
<title>Node4</title>
<g id="a_node4"><a xlink:href="preferences_8cpp.xhtml" target="_top" xlink:title=" ">
<polygon fill="white" stroke="black" points="160,-0.5 160,-18.5 247.71,-18.5 247.71,-0.5 160,-0.5"/>
<text text-anchor="middle" x="203.85" y="-6.5" font-family="Helvetica,sans-Serif" font-size="10.00">preferences.cpp</text>
</a>
</g>
</g>
<!-- Node1&#45;&gt;Node4 -->
<g id="edge3" class="edge">
<title>Node1&#45;&gt;Node4</title>
<path fill="none" stroke="midnightblue" d="M136.22,-50.33C153.1,-40.39 175.73,-27.06 190.05,-18.63"/>
<polygon fill="midnightblue" stroke="midnightblue" points="134.36,-47.36 127.52,-55.45 137.91,-53.39 134.36,-47.36"/>
</g>
</g>
</svg>
