<?xml version="1.0" encoding="UTF-8" standalone="no"?>
<!DOCTYPE svg PUBLIC "-//W3C//DTD SVG 1.1//EN"
 "http://www.w3.org/Graphics/SVG/1.1/DTD/svg11.dtd">
<!-- Generated by graphviz version 2.42.3 (20191010.1750)
 -->
<!-- Title: preferenceprovider.h Pages: 1 -->
<svg width="404pt" height="82pt"
 viewBox="0.00 0.00 403.98 82.00" xmlns="http://www.w3.org/2000/svg" xmlns:xlink="http://www.w3.org/1999/xlink">
<g id="graph0" class="graph" transform="scale(1 1) rotate(0) translate(4 78)">
<title>preferenceprovider.h</title>
<polygon fill="white" stroke="transparent" points="-4,4 -4,-78 399.98,-78 399.98,4 -4,4"/>
<!-- Node1 -->
<g id="node1" class="node">
<title>Node1</title>
<g id="a_node1"><a xlink:title=" ">
<polygon fill="#bfbfbf" stroke="black" points="121.26,-55.5 121.26,-73.5 228.99,-73.5 228.99,-55.5 121.26,-55.5"/>
<text text-anchor="middle" x="175.12" y="-61.5" font-family="Helvetica,sans-Serif" font-size="10.00">preferenceprovider.h</text>
</a>
</g>
</g>
<!-- Node2 -->
<g id="node2" class="node">
<title>Node2</title>
<g id="a_node2"><a xlink:href="camera_8cpp.xhtml" target="_top" xlink:title=" ">
<polygon fill="white" stroke="black" points="0,-0.5 0,-18.5 68.25,-18.5 68.25,-0.5 0,-0.5"/>
<text text-anchor="middle" x="34.12" y="-6.5" font-family="Helvetica,sans-Serif" font-size="10.00">camera.cpp</text>
</a>
</g>
</g>
<!-- Node1&#45;&gt;Node2 -->
<g id="edge1" class="edge">
<title>Node1&#45;&gt;Node2</title>
<path fill="none" stroke="midnightblue" d="M144.05,-51.82C117.27,-41.76 79.32,-27.49 55.74,-18.63"/>
<polygon fill="midnightblue" stroke="midnightblue" points="143.12,-55.21 153.71,-55.45 145.58,-48.66 143.12,-55.21"/>
</g>
<!-- Node3 -->
<g id="node3" class="node">
<title>Node3</title>
<g id="a_node3"><a xlink:href="fotobox_8cpp.xhtml" target="_top" xlink:title=" ">
<polygon fill="white" stroke="black" points="86.27,-0.5 86.27,-18.5 153.98,-18.5 153.98,-0.5 86.27,-0.5"/>
<text text-anchor="middle" x="120.12" y="-6.5" font-family="Helvetica,sans-Serif" font-size="10.00">fotobox.cpp</text>
</a>
</g>
</g>
<!-- Node1&#45;&gt;Node3 -->
<g id="edge2" class="edge">
<title>Node1&#45;&gt;Node3</title>
<path fill="none" stroke="midnightblue" d="M159.15,-48.11C149.12,-38.44 136.59,-26.37 128.48,-18.55"/>
<polygon fill="midnightblue" stroke="midnightblue" points="156.9,-50.8 166.53,-55.22 161.76,-45.76 156.9,-50.8"/>
</g>
<!-- Node4 -->
<g id="node4" class="node">
<title>Node4</title>
<g id="a_node4"><a xlink:href="preferenceprovider_8cpp.xhtml" target="_top" xlink:title=" ">
<polygon fill="white" stroke="black" points="171.98,-0.5 171.98,-18.5 290.27,-18.5 290.27,-0.5 171.98,-0.5"/>
<text text-anchor="middle" x="231.12" y="-6.5" font-family="Helvetica,sans-Serif" font-size="10.00">preferenceprovider.cpp</text>
</a>
</g>
</g>
<!-- Node1&#45;&gt;Node4 -->
<g id="edge3" class="edge">
<title>Node1&#45;&gt;Node4</title>
<path fill="none" stroke="midnightblue" d="M191.38,-48.11C201.6,-38.44 214.36,-26.37 222.62,-18.55"/>
<polygon fill="midnightblue" stroke="midnightblue" points="188.73,-45.8 183.87,-55.22 193.54,-50.89 188.73,-45.8"/>
</g>
<!-- Node5 -->
<g id="node5" class="node">
<title>Node5</title>
<g id="a_node5"><a xlink:href="preferences_8cpp.xhtml" target="_top" xlink:title=" ">
<polygon fill="white" stroke="black" points="308.27,-0.5 308.27,-18.5 395.98,-18.5 395.98,-0.5 308.27,-0.5"/>
<text text-anchor="middle" x="352.12" y="-6.5" font-family="Helvetica,sans-Serif" font-size="10.00">preferences.cpp</text>
</a>
</g>
</g>
<!-- Node1&#45;&gt;Node5 -->
<g id="edge4" class="edge">
<title>Node1&#45;&gt;Node5</title>
<path fill="none" stroke="midnightblue" d="M211.96,-52.47C245.77,-42.35 295.06,-27.59 325.28,-18.54"/>
<polygon fill="midnightblue" stroke="midnightblue" points="210.58,-49.23 202.01,-55.45 212.59,-55.93 210.58,-49.23"/>
</g>
</g>
</svg>
