<?xml version="1.0" encoding="UTF-8" standalone="no"?>
<!DOCTYPE svg PUBLIC "-//W3C//DTD SVG 1.1//EN"
 "http://www.w3.org/Graphics/SVG/1.1/DTD/svg11.dtd">
<!-- Generated by graphviz version 2.42.3 (20191010.1750)
 -->
<!-- Title: preferenceprovider.cpp Pages: 1 -->
<svg width="126pt" height="137pt"
 viewBox="0.00 0.00 126.29 137.00" xmlns="http://www.w3.org/2000/svg" xmlns:xlink="http://www.w3.org/1999/xlink">
<g id="graph0" class="graph" transform="scale(1 1) rotate(0) translate(4 133)">
<title>preferenceprovider.cpp</title>
<polygon fill="white" stroke="transparent" points="-4,4 -4,-133 122.29,-133 122.29,4 -4,4"/>
<!-- Node1 -->
<g id="node1" class="node">
<title>Node1</title>
<g id="a_node1"><a xlink:title=" ">
<polygon fill="#bfbfbf" stroke="black" points="0,-110.5 0,-128.5 118.29,-128.5 118.29,-110.5 0,-110.5"/>
<text text-anchor="middle" x="59.15" y="-116.5" font-family="Helvetica,sans-Serif" font-size="10.00">preferenceprovider.cpp</text>
</a>
</g>
</g>
<!-- Node2 -->
<g id="node2" class="node">
<title>Node2</title>
<g id="a_node2"><a xlink:href="preferenceprovider_8h.xhtml" target="_top" xlink:title=" ">
<polygon fill="white" stroke="black" points="5.28,-55.5 5.28,-73.5 113.01,-73.5 113.01,-55.5 5.28,-55.5"/>
<text text-anchor="middle" x="59.15" y="-61.5" font-family="Helvetica,sans-Serif" font-size="10.00">preferenceprovider.h</text>
</a>
</g>
</g>
<!-- Node1&#45;&gt;Node2 -->
<g id="edge1" class="edge">
<title>Node1&#45;&gt;Node2</title>
<path fill="none" stroke="midnightblue" d="M59.15,-110.22C59.15,-103.18 59.15,-92.81 59.15,-83.83"/>
<polygon fill="midnightblue" stroke="midnightblue" points="62.65,-83.55 59.15,-73.55 55.65,-83.55 62.65,-83.55"/>
</g>
<!-- Node3 -->
<g id="node3" class="node">
<title>Node3</title>
<g id="a_node3"><a xlink:title=" ">
<polygon fill="white" stroke="#bfbfbf" points="32.81,-0.5 32.81,-18.5 85.48,-18.5 85.48,-0.5 32.81,-0.5"/>
<text text-anchor="middle" x="59.15" y="-6.5" font-family="Helvetica,sans-Serif" font-size="10.00">QObject</text>
</a>
</g>
</g>
<!-- Node2&#45;&gt;Node3 -->
<g id="edge2" class="edge">
<title>Node2&#45;&gt;Node3</title>
<path fill="none" stroke="midnightblue" d="M59.15,-55.22C59.15,-48.18 59.15,-37.81 59.15,-28.83"/>
<polygon fill="midnightblue" stroke="midnightblue" points="62.65,-28.55 59.15,-18.55 55.65,-28.55 62.65,-28.55"/>
</g>
</g>
</svg>
