<?xml version="1.0" encoding="UTF-8" standalone="no"?>
<!DOCTYPE svg PUBLIC "-//W3C//DTD SVG 1.1//EN"
 "http://www.w3.org/Graphics/SVG/1.1/DTD/svg11.dtd">
<!-- Generated by graphviz version 2.42.3 (20191010.1750)
 -->
<!-- Title: preferences.cpp Pages: 1 -->
<!--zoomable 192 -->
<svg id="main" version="1.1" xmlns="http://www.w3.org/2000/svg" xmlns:xlink="http://www.w3.org/1999/xlink" xml:space="preserve" onload="init(evt)">
<style type="text/css"><![CDATA[
.edge:hover path { stroke: red; }
.edge:hover polygon { stroke: red; fill: red; }
]]></style>
<script type="text/javascript"><![CDATA[
var edges = document.getElementsByTagName('g');
if (edges && edges.length) {
  for (var i=0;i<edges.length;i++) {
    if (edges[i].id.substr(0,4)=='edge') {
      edges[i].setAttribute('class','edge');
    }
  }
}
]]></script>
        <defs>
                <circle id="rim" cx="0" cy="0" r="7"/>
                <circle id="rim2" cx="0" cy="0" r="3.5"/>
                <g id="zoomPlus">
                        <use xlink:href="#rim" fill="#404040">
                                <set attributeName="fill" to="#808080" begin="zoomplus.mouseover" end="zoomplus.mouseout"/>
                        </use>
                        <path d="M-4,0h8M0,-4v8" fill="none" stroke="white" stroke-width="1.5" pointer-events="none"/>
                </g>
                <g id="zoomMin">
                        <use xlink:href="#rim" fill="#404040">
                                <set attributeName="fill" to="#808080" begin="zoomminus.mouseover" end="zoomminus.mouseout"/>
                        </use>
                        <path d="M-4,0h8" fill="none" stroke="white" stroke-width="1.5" pointer-events="none"/>
                </g>
                <g id="dirArrow">
                        <path fill="none" stroke="white" stroke-width="1.5" d="M0,-3.0v7 M-2.5,-0.5L0,-3.0L2.5,-0.5"/>
                </g>
               <g id="resetDef">
                       <use xlink:href="#rim2" fill="#404040">
                               <set attributeName="fill" to="#808080" begin="reset.mouseover" end="reset.mouseout"/>
                       </use>
               </g>
        </defs>

<script type="text/javascript">
var viewWidth = 1429;
var viewHeight = 192;
var sectionId = 'dynsection-0';
</script>
<script xlink:href="svgpan.js"/>
<svg id="graph" class="graph">
<g id="viewport">
<title>preferences.cpp</title>
<polygon fill="white" stroke="transparent" points="-4,4 -4,-188 1424.6,-188 1424.6,4 -4,4"/>
<!-- Node1 -->
<g id="node1" class="node">
<title>Node1</title>
<g id="a_node1"><a xlink:title=" ">
<polygon fill="#bfbfbf" stroke="black" points="823.01,-165.5 823.01,-183.5 910.72,-183.5 910.72,-165.5 823.01,-165.5"/>
<text text-anchor="middle" x="866.86" y="-171.5" font-family="Helvetica,sans-Serif" font-size="10.00">preferences.cpp</text>
</a>
</g>
</g>
<!-- Node2 -->
<g id="node2" class="node">
<title>Node2</title>
<g id="a_node2"><a xlink:href="fotobox_8h.xhtml" target="_top" xlink:title=" ">
<polygon fill="white" stroke="black" points="306.29,-110.5 306.29,-128.5 363.44,-128.5 363.44,-110.5 306.29,-110.5"/>
<text text-anchor="middle" x="334.86" y="-116.5" font-family="Helvetica,sans-Serif" font-size="10.00">fotobox.h</text>
</a>
</g>
</g>
<!-- Node1&#45;&gt;Node2 -->
<g id="edge1" class="edge">
<title>Node1&#45;&gt;Node2</title>
<path fill="none" stroke="midnightblue" d="M822.88,-169.12C721.02,-158.97 470.3,-133.99 373.69,-124.37"/>
<polygon fill="midnightblue" stroke="midnightblue" points="373.79,-120.86 363.49,-123.35 373.1,-127.83 373.79,-120.86"/>
</g>
<!-- Node7 -->
<g id="node7" class="node">
<title>Node7</title>
<g id="a_node7"><a xlink:title=" ">
<polygon fill="white" stroke="#bfbfbf" points="308.91,-0.5 308.91,-18.5 368.81,-18.5 368.81,-0.5 308.91,-0.5"/>
<text text-anchor="middle" x="338.86" y="-6.5" font-family="Helvetica,sans-Serif" font-size="10.00">QProcess</text>
</a>
</g>
</g>
<!-- Node1&#45;&gt;Node7 -->
<g id="edge26" class="edge">
<title>Node1&#45;&gt;Node7</title>
<path fill="none" stroke="midnightblue" d="M822.98,-170.43C759.8,-165.23 647.22,-152.87 614.86,-129 585.11,-107.05 606.51,-77.1 576.86,-55 561.22,-43.34 443.08,-25.19 379.35,-16.09"/>
<polygon fill="midnightblue" stroke="midnightblue" points="379.63,-12.6 369.24,-14.66 378.65,-19.53 379.63,-12.6"/>
</g>
<!-- Node12 -->
<g id="node12" class="node">
<title>Node12</title>
<g id="a_node12"><a xlink:href="preferenceprovider_8h.xhtml" target="_top" xlink:title=" ">
<polygon fill="white" stroke="black" points="0,-55.5 0,-73.5 107.73,-73.5 107.73,-55.5 0,-55.5"/>
<text text-anchor="middle" x="53.86" y="-61.5" font-family="Helvetica,sans-Serif" font-size="10.00">preferenceprovider.h</text>
</a>
</g>
</g>
<!-- Node1&#45;&gt;Node12 -->
<g id="edge13" class="edge">
<title>Node1&#45;&gt;Node12</title>
<path fill="none" stroke="midnightblue" d="M822.92,-172.72C726.85,-170.45 491.16,-161.7 296.86,-129 221.35,-116.29 135.09,-91.14 88.36,-76.59"/>
<polygon fill="midnightblue" stroke="midnightblue" points="89.32,-73.23 78.73,-73.57 87.23,-79.9 89.32,-73.23"/>
</g>
<!-- Node13 -->
<g id="node13" class="node">
<title>Node13</title>
<g id="a_node13"><a xlink:href="preferences_8h.xhtml" target="_top" xlink:title=" ">
<polygon fill="white" stroke="black" points="452.29,-110.5 452.29,-128.5 529.44,-128.5 529.44,-110.5 452.29,-110.5"/>
<text text-anchor="middle" x="490.86" y="-116.5" font-family="Helvetica,sans-Serif" font-size="10.00">preferences.h</text>
</a>
</g>
</g>
<!-- Node1&#45;&gt;Node13 -->
<g id="edge15" class="edge">
<title>Node1&#45;&gt;Node13</title>
<path fill="none" stroke="midnightblue" d="M823,-167.32C752.23,-157.34 613.36,-137.77 539.6,-127.37"/>
<polygon fill="midnightblue" stroke="midnightblue" points="540.03,-123.9 529.64,-125.97 539.05,-130.83 540.03,-123.9"/>
</g>
<!-- Node15 -->
<g id="node15" class="node">
<title>Node15</title>
<g id="a_node15"><a xlink:title=" ">
<polygon fill="white" stroke="#bfbfbf" points="624.16,-110.5 624.16,-128.5 753.57,-128.5 753.57,-110.5 624.16,-110.5"/>
<text text-anchor="middle" x="688.86" y="-116.5" font-family="Helvetica,sans-Serif" font-size="10.00">ui_commandlineoptions.h</text>
</a>
</g>
</g>
<!-- Node1&#45;&gt;Node15 -->
<g id="edge19" class="edge">
<title>Node1&#45;&gt;Node15</title>
<path fill="none" stroke="midnightblue" d="M839.83,-165.45C809.42,-156.4 759.86,-141.64 725.87,-131.52"/>
<polygon fill="midnightblue" stroke="midnightblue" points="726.44,-128.04 715.86,-128.54 724.45,-134.75 726.44,-128.04"/>
</g>
<!-- Node16 -->
<g id="node16" class="node">
<title>Node16</title>
<g id="a_node16"><a xlink:title=" ">
<polygon fill="white" stroke="#bfbfbf" points="771.62,-110.5 771.62,-128.5 862.11,-128.5 862.11,-110.5 771.62,-110.5"/>
<text text-anchor="middle" x="816.86" y="-116.5" font-family="Helvetica,sans-Serif" font-size="10.00">ui_preferences.h</text>
</a>
</g>
</g>
<!-- Node1&#45;&gt;Node16 -->
<g id="edge20" class="edge">
<title>Node1&#45;&gt;Node16</title>
<path fill="none" stroke="midnightblue" d="M859.05,-165.22C851.67,-157.39 840.41,-145.46 831.39,-135.89"/>
<polygon fill="midnightblue" stroke="midnightblue" points="833.87,-133.42 824.46,-128.55 828.77,-138.23 833.87,-133.42"/>
</g>
<!-- Node17 -->
<g id="node17" class="node">
<title>Node17</title>
<g id="a_node17"><a xlink:title=" ">
<polygon fill="white" stroke="#bfbfbf" points="879.85,-110.5 879.85,-128.5 955.88,-128.5 955.88,-110.5 879.85,-110.5"/>
<text text-anchor="middle" x="917.86" y="-116.5" font-family="Helvetica,sans-Serif" font-size="10.00">QColorDialog</text>
</a>
</g>
</g>
<!-- Node1&#45;&gt;Node17 -->
<g id="edge21" class="edge">
<title>Node1&#45;&gt;Node17</title>
<path fill="none" stroke="midnightblue" d="M874.83,-165.22C882.36,-157.39 893.84,-145.46 903.05,-135.89"/>
<polygon fill="midnightblue" stroke="midnightblue" points="905.71,-138.18 910.12,-128.55 900.66,-133.33 905.71,-138.18"/>
</g>
<!-- Node18 -->
<g id="node18" class="node">
<title>Node18</title>
<g id="a_node18"><a xlink:title=" ">
<polygon fill="white" stroke="#bfbfbf" points="973.46,-110.5 973.46,-128.5 1072.27,-128.5 1072.27,-110.5 973.46,-110.5"/>
<text text-anchor="middle" x="1022.86" y="-116.5" font-family="Helvetica,sans-Serif" font-size="10.00">QDesktopServices</text>
</a>
</g>
</g>
<!-- Node1&#45;&gt;Node18 -->
<g id="edge22" class="edge">
<title>Node1&#45;&gt;Node18</title>
<path fill="none" stroke="midnightblue" d="M890.56,-165.45C916.98,-156.47 959.9,-141.89 989.66,-131.78"/>
<polygon fill="midnightblue" stroke="midnightblue" points="990.86,-135.07 999.2,-128.54 988.61,-128.44 990.86,-135.07"/>
</g>
<!-- Node19 -->
<g id="node19" class="node">
<title>Node19</title>
<g id="a_node19"><a xlink:title=" ">
<polygon fill="white" stroke="#bfbfbf" points="1090.74,-110.5 1090.74,-128.5 1158.98,-128.5 1158.98,-110.5 1090.74,-110.5"/>
<text text-anchor="middle" x="1124.86" y="-116.5" font-family="Helvetica,sans-Serif" font-size="10.00">QFileDialog</text>
</a>
</g>
</g>
<!-- Node1&#45;&gt;Node19 -->
<g id="edge23" class="edge">
<title>Node1&#45;&gt;Node19</title>
<path fill="none" stroke="midnightblue" d="M906.05,-165.45C953.03,-155.8 1031.57,-139.67 1080.67,-129.58"/>
<polygon fill="midnightblue" stroke="midnightblue" points="1081.59,-132.96 1090.68,-127.52 1080.18,-126.11 1081.59,-132.96"/>
</g>
<!-- Node20 -->
<g id="node20" class="node">
<title>Node20</title>
<g id="a_node20"><a xlink:title=" ">
<polygon fill="white" stroke="#bfbfbf" points="1177.07,-110.5 1177.07,-128.5 1258.66,-128.5 1258.66,-110.5 1177.07,-110.5"/>
<text text-anchor="middle" x="1217.86" y="-116.5" font-family="Helvetica,sans-Serif" font-size="10.00">QMessageBox</text>
</a>
</g>
</g>
<!-- Node1&#45;&gt;Node20 -->
<g id="edge24" class="edge">
<title>Node1&#45;&gt;Node20</title>
<path fill="none" stroke="midnightblue" d="M910.78,-167.31C967.48,-159.25 1069.51,-144.53 1166.93,-129.12"/>
<polygon fill="midnightblue" stroke="midnightblue" points="1167.62,-132.55 1176.95,-127.53 1166.52,-125.64 1167.62,-132.55"/>
</g>
<!-- Node21 -->
<g id="node21" class="node">
<title>Node21</title>
<g id="a_node21"><a xlink:title=" ">
<polygon fill="white" stroke="#bfbfbf" points="1276.91,-110.5 1276.91,-128.5 1346.82,-128.5 1346.82,-110.5 1276.91,-110.5"/>
<text text-anchor="middle" x="1311.86" y="-116.5" font-family="Helvetica,sans-Serif" font-size="10.00">QPrinterInfo</text>
</a>
</g>
</g>
<!-- Node1&#45;&gt;Node21 -->
<g id="edge25" class="edge">
<title>Node1&#45;&gt;Node21</title>
<path fill="none" stroke="midnightblue" d="M910.92,-169.78C983.11,-163.42 1131.25,-149.32 1266.7,-129.06"/>
<polygon fill="midnightblue" stroke="midnightblue" points="1267.48,-132.48 1276.84,-127.53 1266.43,-125.56 1267.48,-132.48"/>
</g>
<!-- Node22 -->
<g id="node22" class="node">
<title>Node22</title>
<g id="a_node22"><a xlink:title=" ">
<polygon fill="white" stroke="#bfbfbf" points="1365.13,-110.5 1365.13,-128.5 1420.6,-128.5 1420.6,-110.5 1365.13,-110.5"/>
<text text-anchor="middle" x="1392.86" y="-116.5" font-family="Helvetica,sans-Serif" font-size="10.00">QScreen</text>
</a>
</g>
</g>
<!-- Node1&#45;&gt;Node22 -->
<g id="edge27" class="edge">
<title>Node1&#45;&gt;Node22</title>
<path fill="none" stroke="midnightblue" d="M910.95,-171.49C995.27,-167.2 1185.36,-155.47 1354.95,-128.92"/>
<polygon fill="midnightblue" stroke="midnightblue" points="1355.74,-132.34 1365.06,-127.31 1354.64,-125.42 1355.74,-132.34"/>
</g>
<!-- Node3 -->
<g id="node3" class="node">
<title>Node3</title>
<g id="a_node3"><a xlink:href="buzzer_8h.xhtml" target="_top" xlink:title=" ">
<polygon fill="white" stroke="black" points="125.96,-55.5 125.96,-73.5 179.77,-73.5 179.77,-55.5 125.96,-55.5"/>
<text text-anchor="middle" x="152.86" y="-61.5" font-family="Helvetica,sans-Serif" font-size="10.00">buzzer.h</text>
</a>
</g>
</g>
<!-- Node2&#45;&gt;Node3 -->
<g id="edge2" class="edge">
<title>Node2&#45;&gt;Node3</title>
<path fill="none" stroke="midnightblue" d="M307.22,-110.45C275.82,-101.3 224.42,-86.34 189.65,-76.21"/>
<polygon fill="midnightblue" stroke="midnightblue" points="190.45,-72.8 179.87,-73.37 188.5,-79.52 190.45,-72.8"/>
</g>
<!-- Node6 -->
<g id="node6" class="node">
<title>Node6</title>
<g id="a_node6"><a xlink:href="camera_8h.xhtml" target="_top" xlink:title=" ">
<polygon fill="white" stroke="black" points="272.02,-55.5 272.02,-73.5 329.71,-73.5 329.71,-55.5 272.02,-55.5"/>
<text text-anchor="middle" x="300.86" y="-61.5" font-family="Helvetica,sans-Serif" font-size="10.00">camera.h</text>
</a>
</g>
</g>
<!-- Node2&#45;&gt;Node6 -->
<g id="edge5" class="edge">
<title>Node2&#45;&gt;Node6</title>
<path fill="none" stroke="midnightblue" d="M329.55,-110.22C324.73,-102.71 317.49,-91.41 311.48,-82.05"/>
<polygon fill="midnightblue" stroke="midnightblue" points="314.37,-80.08 306.03,-73.55 308.48,-83.86 314.37,-80.08"/>
</g>
<!-- Node8 -->
<g id="node8" class="node">
<title>Node8</title>
<g id="a_node8"><a xlink:href="countdown_8h.xhtml" target="_top" xlink:title=" ">
<polygon fill="white" stroke="black" points="417.51,-55.5 417.51,-73.5 490.22,-73.5 490.22,-55.5 417.51,-55.5"/>
<text text-anchor="middle" x="453.86" y="-61.5" font-family="Helvetica,sans-Serif" font-size="10.00">countdown.h</text>
</a>
</g>
</g>
<!-- Node2&#45;&gt;Node8 -->
<g id="edge8" class="edge">
<title>Node2&#45;&gt;Node8</title>
<path fill="none" stroke="midnightblue" d="M352.94,-110.45C372.42,-101.77 403.67,-87.86 426.24,-77.8"/>
<polygon fill="midnightblue" stroke="midnightblue" points="427.91,-80.89 435.62,-73.63 425.06,-74.5 427.91,-80.89"/>
</g>
<!-- Node10 -->
<g id="node10" class="node">
<title>Node10</title>
<g id="a_node10"><a xlink:title=" ">
<polygon fill="white" stroke="#bfbfbf" points="347.8,-55.5 347.8,-73.5 399.93,-73.5 399.93,-55.5 347.8,-55.5"/>
<text text-anchor="middle" x="373.86" y="-61.5" font-family="Helvetica,sans-Serif" font-size="10.00">QDialog</text>
</a>
</g>
</g>
<!-- Node2&#45;&gt;Node10 -->
<g id="edge11" class="edge">
<title>Node2&#45;&gt;Node10</title>
<path fill="none" stroke="midnightblue" d="M340.96,-110.22C346.54,-102.63 354.97,-91.18 361.9,-81.76"/>
<polygon fill="midnightblue" stroke="midnightblue" points="364.83,-83.68 367.94,-73.55 359.2,-79.53 364.83,-83.68"/>
</g>
<!-- Node11 -->
<g id="node11" class="node">
<title>Node11</title>
<g id="a_node11"><a xlink:title=" ">
<polygon fill="white" stroke="#bfbfbf" points="198.13,-55.5 198.13,-73.5 253.6,-73.5 253.6,-55.5 198.13,-55.5"/>
<text text-anchor="middle" x="225.86" y="-61.5" font-family="Helvetica,sans-Serif" font-size="10.00">QThread</text>
</a>
</g>
</g>
<!-- Node2&#45;&gt;Node11 -->
<g id="edge12" class="edge">
<title>Node2&#45;&gt;Node11</title>
<path fill="none" stroke="midnightblue" d="M318.31,-110.45C300.62,-101.85 272.35,-88.1 251.73,-78.08"/>
<polygon fill="midnightblue" stroke="midnightblue" points="253.1,-74.85 242.57,-73.63 250.04,-81.15 253.1,-74.85"/>
</g>
<!-- Node4 -->
<g id="node4" class="node">
<title>Node4</title>
<g id="a_node4"><a xlink:title=" ">
<polygon fill="white" stroke="#bfbfbf" points="235.52,-0.5 235.52,-18.5 288.2,-18.5 288.2,-0.5 235.52,-0.5"/>
<text text-anchor="middle" x="261.86" y="-6.5" font-family="Helvetica,sans-Serif" font-size="10.00">QObject</text>
</a>
</g>
</g>
<!-- Node3&#45;&gt;Node4 -->
<g id="edge3" class="edge">
<title>Node3&#45;&gt;Node4</title>
<path fill="none" stroke="midnightblue" d="M169.42,-55.45C187.11,-46.85 215.38,-33.1 236,-23.08"/>
<polygon fill="midnightblue" stroke="midnightblue" points="237.69,-26.15 245.15,-18.63 234.63,-19.85 237.69,-26.15"/>
</g>
<!-- Node5 -->
<g id="node5" class="node">
<title>Node5</title>
<g id="a_node5"><a xlink:title=" ">
<polygon fill="white" stroke="#bfbfbf" points="130.14,-0.5 130.14,-18.5 175.59,-18.5 175.59,-0.5 130.14,-0.5"/>
<text text-anchor="middle" x="152.86" y="-6.5" font-family="Helvetica,sans-Serif" font-size="10.00">atomic</text>
</a>
</g>
</g>
<!-- Node3&#45;&gt;Node5 -->
<g id="edge4" class="edge">
<title>Node3&#45;&gt;Node5</title>
<path fill="none" stroke="midnightblue" d="M152.86,-55.22C152.86,-48.18 152.86,-37.81 152.86,-28.83"/>
<polygon fill="midnightblue" stroke="midnightblue" points="156.36,-28.55 152.86,-18.55 149.36,-28.55 156.36,-28.55"/>
</g>
<!-- Node6&#45;&gt;Node4 -->
<g id="edge6" class="edge">
<title>Node6&#45;&gt;Node4</title>
<path fill="none" stroke="midnightblue" d="M294.77,-55.22C289.19,-47.63 280.76,-36.18 273.83,-26.76"/>
<polygon fill="midnightblue" stroke="midnightblue" points="276.53,-24.53 267.79,-18.55 270.9,-28.68 276.53,-24.53"/>
</g>
<!-- Node6&#45;&gt;Node7 -->
<g id="edge7" class="edge">
<title>Node6&#45;&gt;Node7</title>
<path fill="none" stroke="midnightblue" d="M306.8,-55.22C312.24,-47.63 320.46,-36.18 327.21,-26.76"/>
<polygon fill="midnightblue" stroke="midnightblue" points="330.11,-28.72 333.09,-18.55 324.42,-24.64 330.11,-28.72"/>
</g>
<!-- Node8&#45;&gt;Node4 -->
<g id="edge9" class="edge">
<title>Node8&#45;&gt;Node4</title>
<path fill="none" stroke="midnightblue" d="M424.7,-55.45C390.76,-46.08 334.68,-30.6 298,-20.48"/>
<polygon fill="midnightblue" stroke="midnightblue" points="298.78,-17.06 288.21,-17.77 296.91,-23.81 298.78,-17.06"/>
</g>
<!-- Node9 -->
<g id="node9" class="node">
<title>Node9</title>
<g id="a_node9"><a xlink:title=" ">
<polygon fill="white" stroke="#bfbfbf" points="429.38,-0.5 429.38,-18.5 478.35,-18.5 478.35,-0.5 429.38,-0.5"/>
<text text-anchor="middle" x="453.86" y="-6.5" font-family="Helvetica,sans-Serif" font-size="10.00">QTimer</text>
</a>
</g>
</g>
<!-- Node8&#45;&gt;Node9 -->
<g id="edge10" class="edge">
<title>Node8&#45;&gt;Node9</title>
<path fill="none" stroke="midnightblue" d="M453.86,-55.22C453.86,-48.18 453.86,-37.81 453.86,-28.83"/>
<polygon fill="midnightblue" stroke="midnightblue" points="457.36,-28.55 453.86,-18.55 450.36,-28.55 457.36,-28.55"/>
</g>
<!-- Node12&#45;&gt;Node4 -->
<g id="edge14" class="edge">
<title>Node12&#45;&gt;Node4</title>
<path fill="none" stroke="midnightblue" d="M85.45,-55.45C123.09,-45.86 185.85,-29.87 225.48,-19.77"/>
<polygon fill="midnightblue" stroke="midnightblue" points="226.44,-23.14 235.27,-17.28 224.72,-16.35 226.44,-23.14"/>
</g>
<!-- Node13&#45;&gt;Node8 -->
<g id="edge16" class="edge">
<title>Node13&#45;&gt;Node8</title>
<path fill="none" stroke="midnightblue" d="M485.08,-110.22C479.78,-102.63 471.79,-91.18 465.22,-81.76"/>
<polygon fill="midnightblue" stroke="midnightblue" points="468.08,-79.75 459.48,-73.55 462.34,-83.75 468.08,-79.75"/>
</g>
<!-- Node13&#45;&gt;Node10 -->
<g id="edge17" class="edge">
<title>Node13&#45;&gt;Node10</title>
<path fill="none" stroke="midnightblue" d="M473.09,-110.45C453.94,-101.77 423.22,-87.86 401.03,-77.8"/>
<polygon fill="midnightblue" stroke="midnightblue" points="402.35,-74.56 391.8,-73.63 399.47,-80.94 402.35,-74.56"/>
</g>
<!-- Node14 -->
<g id="node14" class="node">
<title>Node14</title>
<g id="a_node14"><a xlink:title=" ">
<polygon fill="white" stroke="#bfbfbf" points="507.91,-55.5 507.91,-73.5 567.82,-73.5 567.82,-55.5 507.91,-55.5"/>
<text text-anchor="middle" x="537.86" y="-61.5" font-family="Helvetica,sans-Serif" font-size="10.00">QSettings</text>
</a>
</g>
</g>
<!-- Node13&#45;&gt;Node14 -->
<g id="edge18" class="edge">
<title>Node13&#45;&gt;Node14</title>
<path fill="none" stroke="midnightblue" d="M498.21,-110.22C505.08,-102.47 515.52,-90.7 523.96,-81.18"/>
<polygon fill="midnightblue" stroke="midnightblue" points="526.71,-83.35 530.73,-73.55 521.47,-78.71 526.71,-83.35"/>
</g>
</g>
</svg>
        <g id="navigator" transform="translate(0 0)" fill="#404254">
                <rect fill="#f2f5e9" fill-opacity="0.5" stroke="#606060" stroke-width=".5" x="0" y="0" width="60" height="60"/>
                <use id="zoomplus" xlink:href="#zoomPlus" x="17" y="9" onmousedown="handleZoom(evt,'in')"/>
                <use id="zoomminus" xlink:href="#zoomMin" x="42" y="9" onmousedown="handleZoom(evt,'out')"/>
                <use id="reset" xlink:href="#resetDef" x="30" y="36" onmousedown="handleReset()"/>
                <g id="arrowUp" xlink:href="#dirArrow" transform="translate(30 24)" onmousedown="handlePan(0,-1)">
                  <use xlink:href="#rim" fill="#404040">
                        <set attributeName="fill" to="#808080" begin="arrowUp.mouseover" end="arrowUp.mouseout"/>
                  </use>
                  <path fill="none" stroke="white" stroke-width="1.5" d="M0,-3.0v7 M-2.5,-0.5L0,-3.0L2.5,-0.5"/>
                </g>
                <g id="arrowRight" xlink:href="#dirArrow" transform="rotate(90) translate(36 -43)" onmousedown="handlePan(1,0)">
                  <use xlink:href="#rim" fill="#404040">
                        <set attributeName="fill" to="#808080" begin="arrowRight.mouseover" end="arrowRight.mouseout"/>
                  </use>
                  <path fill="none" stroke="white" stroke-width="1.5" d="M0,-3.0v7 M-2.5,-0.5L0,-3.0L2.5,-0.5"/>
                </g>
                <g id="arrowDown" xlink:href="#dirArrow" transform="rotate(180) translate(-30 -48)" onmousedown="handlePan(0,1)">
                  <use xlink:href="#rim" fill="#404040">
                        <set attributeName="fill" to="#808080" begin="arrowDown.mouseover" end="arrowDown.mouseout"/>
                  </use>
                  <path fill="none" stroke="white" stroke-width="1.5" d="M0,-3.0v7 M-2.5,-0.5L0,-3.0L2.5,-0.5"/>
                </g>
                <g id="arrowLeft" xlink:href="#dirArrow" transform="rotate(270) translate(-36 17)" onmousedown="handlePan(-1,0)">
                  <use xlink:href="#rim" fill="#404040">
                        <set attributeName="fill" to="#808080" begin="arrowLeft.mouseover" end="arrowLeft.mouseout"/>
                  </use>
                  <path fill="none" stroke="white" stroke-width="1.5" d="M0,-3.0v7 M-2.5,-0.5L0,-3.0L2.5,-0.5"/>
                </g>
        </g>
        <svg viewBox="0 0 15 15" width="100%" height="30px" preserveAspectRatio="xMaxYMin meet">
         <g id="arrow_out" transform="scale(0.3 0.3)">
          <a xlink:href="preferences_8cpp__incl_org.svg" target="_base">
           <rect id="button" ry="5" rx="5" y="6" x="6" height="38" width="38"
                fill="#f2f5e9" fill-opacity="0.5" stroke="#606060" stroke-width="1.0"/>
           <path id="arrow"
             d="M 11.500037,31.436501 C 11.940474,20.09759 22.043105,11.32322 32.158766,21.979434 L 37.068811,17.246167 C 37.068811,17.246167 37.088388,32 37.088388,32 L 22.160133,31.978069 C 22.160133,31.978069 26.997745,27.140456 26.997745,27.140456 C 18.528582,18.264221 13.291696,25.230495 11.500037,31.436501 z"
             style="fill:#404040;"/>
          </a>
         </g>
        </svg>
</svg>
